<?xml version="1.0" encoding="UTF-8"?>
<?xml-stylesheet type="text/css" href="../../css/svg.css" ?>
<svg xmlns="http://www.w3.org/2000/svg" xmlns:xlink="http://www.w3.org/1999/xlink" preserveAspectRatio="xMinYMin meet" viewBox="0 0 540 547" version="1.1">
  <g id="non-lo-co-states" fill="none" stroke-width="2.5" stroke="#505050" mask="url(#non-lo-co-mask)" stroke-linejoin="round">
    <path id="Texas" d="M 349.734375 258.054688 L 345.792969 256.492188 L 342.464844 251.296875 L 338.238281 249.746094 L 337.445312 246.375 L 337.894531 245.917969 L 401.585938 241.707031 L 397.269531 184.050781 L 393.847656 147.410156 L 445.074219 141.769531 L 450.246094 182.40625 L 451.320312 181.917969 L 456.144531 185.640625 L 457.628906 185.652344 L 458.335938 184.566406 L 460.972656 185.222656 L 461.558594 183.414062 L 464.648438 185.554688 L 465.480469 188.003906 L 468.644531 187.667969 L 472.671875 188.808594 L 475.277344 187.894531 L 478.691406 189.675781 L 480.160156 187.59375 L 483.355469 187.730469 L 484.273438 186.882812 L 485.195312 189.847656 L 487.03125 189.679688 L 487.691406 190.238281 L 487.40625 191.550781 L 487.867188 192.101562 L 489.746094 192.410156 L 492.554688 189.179688 L 493.859375 189.40625 L 494.492188 190.757812 L 496.484375 190.476562 L 496.863281 191.851562 L 497.660156 192.070312 L 498.457031 191.734375 L 499.125 190.234375 L 500.125 190.890625 L 500.910156 189.761719 L 501.871094 190.542969 L 501.226562 191.574219 L 502.496094 193.355469 L 503.582031 193.132812 L 503.398438 191.519531 L 504.011719 191.085938 L 503.359375 190.582031 L 504.707031 190.394531 L 504.730469 188.367188 L 505.703125 187.839844 L 507.230469 189.777344 L 508.324219 189.433594 L 509.308594 190.113281 L 510.234375 189.625 L 510.503906 188.160156 L 512.003906 188.308594 L 511.878906 189.480469 L 513.570312 189.8125 L 514.101562 190.546875 L 515.269531 190.144531 L 517.382812 191.695312 L 517.820312 190.074219 L 519.769531 189.855469 L 520.085938 188.699219 L 519.429688 189.0625 L 519.5625 188.59375 L 522.257812 187.839844 L 523.359375 186.667969 L 525.230469 187.433594 L 526.578125 186.992188 L 526.78125 185.828125 L 527.644531 185.871094 L 529.128906 184.546875 L 530.789062 185.101562 L 530.429688 185.617188 L 534.269531 185.304688 L 534.070312 184.769531 L 535.550781 184.347656 L 535.636719 183.027344 L 538.488281 183.5625 L 538.570312 184.203125 L 538.824219 183.523438 L 539.46875 184.53125 L 540.6875 184.332031 L 543.074219 186.480469 L 544.726562 186.121094 L 544.457031 186.585938 L 545.039062 186.417969 L 545.0625 187.050781 L 546.878906 187.074219 L 546.726562 187.675781 L 548.636719 187.21875 L 548.203125 187.652344 L 548.945312 187.390625 L 548.746094 187.996094 L 549.503906 187.699219 L 549.457031 188.191406 L 550.988281 187.585938 L 550.828125 188.316406 L 551.742188 188.832031 L 552.320312 188.371094 L 551.992188 189.078125 L 552.476562 189.269531 L 554.6875 187.902344 L 554.835938 188.554688 L 556.066406 187.628906 L 556.242188 188.183594 L 557.402344 187.605469 L 558.410156 188.042969 L 564.238281 221.3125 L 567.074219 223.023438 L 568.597656 224.792969 L 569.699219 226.59375 L 569.40625 229.308594 L 570.574219 230.351562 L 571.980469 230.398438 L 571.277344 231.289062 L 573.820312 233.3125 L 573.1875 234.765625 L 574.625 235.457031 L 575.28125 237.320312 L 576.457031 236.996094 L 576.691406 238.273438 L 576.199219 238.917969 L 577.398438 240.070312 L 576.375 240.816406 L 576.425781 241.617188 L 577.433594 242.332031 L 576.824219 243.527344 L 577.363281 244.710938 L 576.414062 246.6875 L 576.640625 247.949219 L 575.417969 249.183594 L 575.964844 250.019531 L 575.144531 250.386719 L 574.972656 251.335938 L 576.058594 253.417969 L 575.207031 255.503906 L 576.523438 256.535156 L 576.507812 258.230469 L 577.351562 259.675781 L 577.117188 261.644531 L 576.421875 262.960938 L 574.664062 263.582031 L 573.5 267.554688 L 576.179688 270.28125 L 571.875 270.984375 L 561.136719 277.941406 L 559.789062 279.65625 L 559.378906 279.296875 L 561.011719 277.039062 L 562.863281 275.488281 L 564.25 275.613281 L 564.710938 274.683594 L 563.980469 275.050781 L 562.867188 274.480469 L 558.820312 275.984375 L 559.953125 273.191406 L 559.753906 271.121094 L 558.96875 270.402344 L 557.328125 271.375 L 556.550781 273.492188 L 552.367188 271.164062 L 554.609375 273.539062 L 554.53125 276.179688 L 556.644531 277.148438 L 555.433594 278.203125 L 556.148438 278.003906 L 556.117188 278.890625 L 556.859375 278.871094 L 556.703125 278.289062 L 557.34375 279.25 L 558.851562 279.644531 L 557.355469 279.371094 L 557.492188 281.207031 L 556.457031 280.988281 L 554.710938 284.085938 L 552.933594 284.257812 L 553.113281 286.03125 L 552.539062 286.382812 L 551.976562 289.230469 L 544.574219 295.761719 L 544.714844 295.183594 L 539.898438 297.203125 L 539.742188 298.695312 L 544.238281 295.980469 L 535.417969 302.199219 L 539.152344 299.347656 L 539.136719 298.117188 L 534.597656 300.511719 L 534.496094 299.964844 L 535.988281 299.457031 L 534.363281 299.164062 L 535.671875 296.214844 L 534.746094 297.988281 L 533.429688 298.707031 L 533.585938 297.660156 L 532.085938 299.835938 L 531.242188 297.605469 L 530.636719 297.988281 L 530.089844 297.128906 L 530.582031 298.316406 L 531.058594 297.769531 L 531 299.53125 L 531.894531 300.03125 L 529.867188 301.449219 L 530.773438 300.464844 L 530.28125 299.25 L 529.902344 300.554688 L 529.222656 299.53125 L 528.160156 299.957031 L 527.640625 296.304688 L 527.890625 298.816406 L 527.535156 298.285156 L 526.511719 298.488281 L 526.355469 299.269531 L 527.511719 300.316406 L 527.625 301.703125 L 528.402344 301.273438 L 530.097656 302.519531 L 528.757812 303.488281 L 529.625 303.566406 L 530.308594 302.640625 L 532.105469 303.820312 L 527.363281 307.207031 L 524.527344 303.867188 L 523.910156 304.550781 L 524.589844 304.535156 L 524.980469 305.667969 L 523.476562 305.570312 L 524.847656 306.53125 L 525.375 309.128906 L 522.425781 311.988281 L 522.761719 308.867188 L 521.707031 309.996094 L 522.417969 310.425781 L 521.96875 312.03125 L 520.804688 311.695312 L 520.828125 310.34375 L 518.96875 312.074219 L 518.820312 311.414062 L 518.210938 311.542969 L 518.53125 312.433594 L 516.71875 313.769531 L 517.121094 314.070312 L 516.632812 314.621094 L 519.335938 313.671875 L 521.019531 312.308594 L 521.300781 314.164062 L 518.605469 318.992188 L 517.601562 318.894531 L 518.21875 318.628906 L 516.789062 317.941406 L 515.402344 318.78125 L 515.609375 318.039062 L 512.304688 318.644531 L 513.207031 319.472656 L 514.90625 319.027344 L 514.910156 320.332031 L 516.550781 321.398438 L 515.941406 321.40625 L 516.5625 321.863281 L 516.058594 323 L 515.210938 323.265625 L 516.195312 323.183594 L 516.722656 321.472656 L 517.898438 321.742188 L 516.675781 324.617188 L 515.757812 329.933594 L 514.085938 330.160156 L 513.648438 327.636719 L 513.492188 329.703125 L 512.242188 330.800781 L 509.097656 328.589844 L 510.738281 331.097656 L 508.765625 331.46875 L 513.402344 332.171875 L 515.613281 331.15625 L 514.621094 335.230469 L 515.300781 336.984375 L 513.640625 337.582031 L 514.164062 340.359375 L 515.484375 341.335938 L 517.496094 347.042969 L 516.664062 348.03125 L 517.914062 349.867188 L 518.984375 350.304688 L 519.710938 354.03125 L 521.914062 356.238281 L 521.628906 357.699219 L 522.832031 357.414062 L 523.75 358.484375 L 521.128906 358.558594 L 521.246094 359.113281 L 519.824219 359.742188 L 519.90625 361.277344 L 518.96875 361.386719 L 515.757812 359.851562 L 516 359.371094 L 515.25 359.289062 L 514.429688 358.054688 L 510.128906 357.742188 L 506.8125 358.121094 L 506.175781 358.722656 L 505.972656 358.074219 L 503.738281 358.539062 L 501.890625 357.816406 L 501.808594 357.082031 L 501.171875 357.605469 L 500.695312 356.644531 L 499.988281 356.777344 L 498.519531 355.539062 L 497.890625 356.019531 L 495.628906 354.996094 L 494.175781 355.539062 L 491.171875 353 L 489.5 353.488281 L 488.84375 352.804688 L 485.597656 352.617188 L 485.546875 351.148438 L 484.144531 350.0625 L 481.253906 343.6875 L 479.070312 342 L 478.921875 340.96875 L 477.667969 340.386719 L 477.644531 336.742188 L 476.960938 335.296875 L 475.375 334.414062 L 476.011719 330.671875 L 475.296875 330.457031 L 474.640625 328.207031 L 471.421875 327.484375 L 469.265625 325.167969 L 468.121094 324.910156 L 466.460938 321.035156 L 465.460938 320.78125 L 463.203125 317.785156 L 460.910156 316.992188 L 460.652344 316.175781 L 459.179688 315.492188 L 457.300781 311.445312 L 457.832031 310.921875 L 456.367188 310.140625 L 456.578125 309.148438 L 454.667969 307.816406 L 452.484375 303.0625 L 451.359375 302.570312 L 450.640625 299.28125 L 448.613281 297.632812 L 447.933594 296.082031 L 443.753906 293.699219 L 442.476562 291.6875 L 438.792969 290.90625 L 438.71875 288.742188 L 437.8125 289.839844 L 437.730469 288.328125 L 436.570312 288.335938 L 435.746094 286.015625 L 434.898438 286.292969 L 434.4375 285.738281 L 433.242188 286.390625 L 433.046875 285.410156 L 432.445312 286.417969 L 431.390625 286.6875 L 428.304688 286.476562 L 427.988281 285.777344 L 426.105469 286.488281 L 425.148438 285.929688 L 423.546875 286.792969 L 418.601562 285.191406 L 417.867188 285.988281 L 417.6875 287.644531 L 415.488281 287.453125 L 414.652344 288.285156 L 414.152344 287.71875 L 413.109375 288.773438 L 412.378906 288.582031 L 410.382812 293.269531 L 410.253906 295.78125 L 409.234375 297.097656 L 408.902344 298.902344 L 409.746094 299.6875 L 407.558594 300.664062 L 404.84375 305.355469 L 402.710938 304.90625 L 402.488281 305.367188 L 401.371094 304.097656 L 400.660156 304.535156 L 398.78125 303.824219 L 397.707031 302.328125 L 394.0625 301.660156 L 393.644531 300.851562 L 392.867188 300.917969 L 393.054688 299.820312 L 387.875 299.1875 L 385.589844 297.8125 L 384.730469 296.113281 L 381.46875 294.925781 L 378.402344 292.410156 L 377.457031 289.765625 L 375.550781 287.75 L 374.597656 280.882812 L 372.421875 278.660156 L 372.523438 278.109375 L 371.65625 277.828125 L 370.738281 274.136719 L 368.902344 272.761719 L 368.652344 271.871094 L 367.507812 271.867188 L 364.5625 269.433594 L 363.789062 269.78125 L 363.214844 269.09375 L 362.757812 269.449219 L 361.332031 268.761719 L 360.929688 267.746094 L 358.191406 265.890625 L 357.203125 264.097656 L 354.101562 262.5 Z M 557.378906 282.34375 L 559.84375 280.117188 L 560.273438 280.554688 L 554.289062 286.308594 Z M 532.21875 305.714844 L 524.75 312.734375 L 525.042969 310.40625 L 526.238281 310.007812 L 529.765625 306.636719 L 531.046875 306.304688 L 531.625 304.804688 Z M 522.816406 313.417969 L 523.859375 311.4375 L 524.601562 311.984375 L 524.433594 313.140625 L 521.289062 318.039062 L 521.570312 316.417969 L 522.800781 314.746094 L 522.3125 314.457031 Z M 519.679688 345.003906 L 518.328125 342.882812 L 517.082031 338.382812 L 516.691406 332.335938 L 518.089844 340.839844 L 521.457031 348.742188 L 523.328125 356 Z M 516.859375 330.609375 L 516.660156 332.210938 L 516.910156 327.210938 L 518.195312 324.027344 L 517.824219 322.550781 L 518.972656 323.265625 L 519.355469 321.160156 L 520.878906 318.730469 L 520.144531 318.648438 L 521.242188 318.273438 L 518.6875 324.125 Z M 516.859375 330.609375 "/>
    <path id="Utah" d="M 208.402344 119.550781 L 210.464844 38.835938 L 257.148438 39.160156 L 257.324219 60.078125 L 289.074219 59.363281 L 291.710938 143.089844 L 268.164062 143.730469 L 207.917969 143.417969 Z M 208.402344 119.550781 "/>
    <path id="Colorado" d="M 407.972656 121.632812 L 409.542969 135.316406 L 343.023438 140.808594 L 291.710938 143.089844 L 289.074219 59.363281 L 354.332031 55.757812 L 400.15625 51.222656 Z M 407.972656 121.632812 "/>
    <path id="New Mexico" d="M 294.410156 238.335938 L 291.710938 143.089844 L 343.023438 140.808594 L 393.351562 136.730469 L 401.585938 241.707031 L 337.894531 245.917969 L 337.445312 246.375 L 338.238281 249.746094 L 339.621094 250.339844 L 309.886719 251.574219 L 310.070312 260.839844 L 295.085938 261.296875 Z M 294.410156 238.335938 "/>
    <path id="Oregon" d="M 94.828125 30.953125 L 51.59375 25.308594 L 49.625 22.855469 L 49.328125 15.714844 L 50.503906 11.753906 L 48.71875 6.984375 L 50.253906 4.578125 L 52.742188 -1.605469 L 52.570312 -2.460938 L 55.09375 -5.484375 L 58.109375 -13.558594 L 62.214844 -30.183594 L 62.382812 -33.429688 L 65.667969 -43.171875 L 65.925781 -47.246094 L 66.644531 -47.625 L 67.191406 -46.816406 L 67.75 -47.269531 L 66.589844 -48.929688 L 67.273438 -51.703125 L 67.152344 -56.839844 L 68.480469 -58.144531 L 68.273438 -62.253906 L 70.644531 -59.9375 L 70.515625 -61.71875 L 71.433594 -61.925781 L 71.949219 -60.992188 L 72.644531 -60.984375 L 75.0625 -61.941406 L 77.011719 -59.691406 L 78.679688 -59.445312 L 79.855469 -60.121094 L 81.597656 -59.277344 L 83.566406 -57.371094 L 84.515625 -54.347656 L 84.355469 -48.089844 L 90.78125 -44.964844 L 94.160156 -45.535156 L 98.429688 -47.339844 L 102.613281 -47.226562 L 105.621094 -46.378906 L 107.097656 -45.546875 L 107.523438 -44.113281 L 109.71875 -44.972656 L 111.523438 -44.398438 L 115.945312 -46.195312 L 118.464844 -44.773438 L 121.992188 -45.042969 L 125.3125 -46.636719 L 130.023438 -47.039062 L 131.449219 -48.1875 L 138.035156 -47.828125 L 140.484375 -49.15625 L 170.582031 -46.785156 L 172.480469 -42.980469 L 173.511719 -42.90625 L 175.511719 -41.28125 L 176.667969 -38.25 L 173.363281 -32.75 L 172.164062 -28.660156 L 170.261719 -26.242188 L 170.425781 -24.199219 L 169.886719 -23.148438 L 168.507812 -21.289062 L 167.160156 -20.808594 L 165.296875 -16.417969 L 164.023438 -15.203125 L 163.722656 -13.476562 L 164.535156 -10.550781 L 167.207031 -10.25 L 167.304688 -9.210938 L 168.4375 -8.058594 L 167.21875 -6.609375 L 167.796875 -5.320312 L 165.953125 -0.933594 L 163.933594 36.882812 L 127.480469 34.328125 Z M 94.828125 30.953125 "/>
    <path id="Wyoming" d="M 366.96875 39.816406 L 368.328125 54.375 L 323.691406 57.789062 L 257.324219 60.078125 L 256.425781 -23.628906 L 303.355469 -25.132812 L 360.328125 -29.273438 Z M 366.96875 39.816406 "/>
    <path id="Oklahoma" d="M 546.058594 160.132812 L 550.28125 187.804688 L 549.886719 188.070312 L 548.746094 187.996094 L 548.945312 187.390625 L 548.203125 187.652344 L 548.636719 187.21875 L 546.925781 187.691406 L 546.878906 187.074219 L 545.3125 187.148438 L 545.039062 186.417969 L 544.457031 186.585938 L 544.726562 186.121094 L 543.074219 186.480469 L 540.6875 184.332031 L 539.46875 184.53125 L 538.824219 183.523438 L 538.570312 184.203125 L 538.488281 183.5625 L 535.636719 183.027344 L 535.550781 184.347656 L 534.070312 184.769531 L 534.269531 185.304688 L 530.429688 185.617188 L 530.789062 185.101562 L 529.128906 184.546875 L 527.644531 185.871094 L 526.78125 185.828125 L 526.578125 186.992188 L 525.230469 187.433594 L 523.359375 186.667969 L 522.257812 187.839844 L 519.5625 188.59375 L 519.429688 189.0625 L 520.085938 188.699219 L 519.769531 189.855469 L 517.820312 190.074219 L 517.382812 191.695312 L 515.269531 190.144531 L 514.101562 190.546875 L 513.570312 189.8125 L 511.878906 189.480469 L 512.003906 188.308594 L 510.503906 188.160156 L 510.234375 189.625 L 509.308594 190.113281 L 508.324219 189.433594 L 507.230469 189.777344 L 505.703125 187.839844 L 504.730469 188.367188 L 504.707031 190.394531 L 503.359375 190.582031 L 504.011719 191.085938 L 503.398438 191.519531 L 503.675781 192.886719 L 503.15625 193.320312 L 501.773438 192.941406 L 501.226562 191.574219 L 501.871094 190.542969 L 501.34375 189.839844 L 500.332031 190.09375 L 500.125 190.890625 L 499.125 190.234375 L 498.457031 191.734375 L 497.660156 192.070312 L 496.863281 191.851562 L 496.484375 190.476562 L 494.492188 190.757812 L 493.859375 189.40625 L 492.554688 189.179688 L 489.449219 192.492188 L 487.429688 191.753906 L 487.765625 190.472656 L 487.03125 189.679688 L 485.195312 189.847656 L 484.273438 186.882812 L 483.355469 187.730469 L 480.160156 187.59375 L 478.691406 189.675781 L 475.277344 187.894531 L 472.671875 188.808594 L 468.644531 187.667969 L 466.355469 188.132812 L 465.199219 187.804688 L 464.648438 185.554688 L 463.390625 184.292969 L 461.558594 183.414062 L 460.972656 185.222656 L 458.335938 184.566406 L 457.628906 185.652344 L 456.144531 185.640625 L 451.320312 181.917969 L 450.246094 182.40625 L 445.175781 141.785156 L 394.355469 147.347656 L 393.351562 136.730469 L 409.753906 135.296875 L 453.359375 129.988281 L 486.675781 125.144531 L 534.878906 116.878906 L 536.933594 127.613281 L 544.429688 150.09375 Z M 546.058594 160.132812 "/>
    <path id="Nebraska" d="M 412.851562 70.9375 L 402.464844 72.183594 L 400.15625 51.222656 L 368.328125 54.375 L 364.386719 12.484375 L 407.859375 7.988281 L 449.914062 1.757812 L 450.71875 2.804688 L 455.890625 4.132812 L 457.847656 5.242188 L 458.90625 4.96875 L 459.773438 3.050781 L 460.8125 2.640625 L 462.972656 2.910156 L 463.667969 2.261719 L 467.433594 1.472656 L 469.746094 1.398438 L 471.777344 2.722656 L 474.167969 2.628906 L 474.445312 3.382812 L 476.996094 3.289062 L 477.296875 3.972656 L 478.894531 3.945312 L 478.839844 4.941406 L 480.929688 6.835938 L 481.78125 6.390625 L 484.335938 7.066406 L 484.363281 9.625 L 486.140625 11.226562 L 486.199219 13.21875 L 487.421875 13.960938 L 488.671875 16.382812 L 490.199219 16.855469 L 490.246094 18.195312 L 492.003906 20.316406 L 492.207031 22.160156 L 491.667969 22.480469 L 492.863281 25.679688 L 494.148438 25.453125 L 494.332031 26.609375 L 495.542969 26.808594 L 495.90625 29.402344 L 496.914062 30.054688 L 496.257812 30.164062 L 496.757812 32.117188 L 497.867188 32.503906 L 498.011719 34.972656 L 499.03125 36.773438 L 499.375 42.019531 L 501.460938 43.53125 L 501.90625 45.480469 L 503.152344 45.804688 L 503.480469 44.988281 L 503.253906 46.628906 L 505.078125 49.308594 L 504.734375 50.191406 L 505.558594 50.019531 L 507.804688 51.402344 L 509.824219 53.886719 L 509.539062 54.96875 L 511.4375 55.671875 L 459.738281 64.632812 Z M 412.851562 70.9375 "/>
    <path id="Kansas" d="M 527.199219 118.203125 L 468.5 127.8125 L 409.542969 135.316406 L 402.464844 72.183594 L 459.738281 64.632812 L 511.4375 55.671875 L 515.335938 57.75 L 517.863281 56.683594 L 518.085938 57.660156 L 518.996094 58.183594 L 518.414062 59.214844 L 519.492188 59.792969 L 518.15625 60.214844 L 516.683594 64.855469 L 520.632812 67.417969 L 520.714844 68.664062 L 522.597656 70.75 L 526.492188 71.515625 L 534.878906 116.878906 Z M 527.199219 118.203125 "/>
  </g>
  <g id="mexico" fill="none" fill-opacity="0.2" stroke-width="2.5" stroke="#505050" stroke-linejoin="round" mask="url(#mexico-mask)">
    <g>
      <path id="Mexico" d="M 192.273438 251.460938 L 192.070312 251.335938 L 191.796875 252.84375 L 192.433594 255.261719 L 190.953125 258.203125 L 190.167969 265.402344 L 191.519531 267.5 L 191.117188 268.484375 L 193.273438 270.40625 L 193.335938 276.175781 L 194.507812 279.230469 L 193.675781 285.425781 L 195.457031 289.246094 L 198.160156 291.8125 L 198.652344 294.25 L 199.769531 294.984375 L 200.515625 294.347656 L 201.832031 294.949219 L 212.089844 304.761719 L 211.726562 306.304688 L 213.835938 309.496094 L 213.375 310.535156 L 214.035156 312.957031 L 214.894531 312.910156 L 214.886719 311.8125 L 216.609375 312.007812 L 217.144531 314.886719 L 219.113281 314.117188 L 220.058594 315.128906 L 221.710938 321.140625 L 223.34375 322.160156 L 225.398438 321.800781 L 226.066406 322.84375 L 226.449219 322.539062 L 225.925781 325.839844 L 227.519531 327.640625 L 227.144531 331.148438 L 227.941406 331.828125 L 227.738281 334.609375 L 228.703125 335.410156 L 229.007812 336.902344 L 231.007812 339.074219 L 235.363281 341.132812 L 236.402344 344.621094 L 238.421875 347.46875 L 238.085938 348.421875 L 240.238281 349.894531 L 242.921875 350.664062 L 241.761719 353.195312 L 242.871094 354.46875 L 242.589844 354.8125 L 244.421875 356.207031 L 244.644531 357.183594 L 243.753906 358.542969 L 246.171875 361.742188 L 246.996094 362.3125 L 248.097656 361.28125 L 245.496094 358.574219 L 244.804688 355.285156 L 245.378906 354.84375 L 250.257812 358.984375 L 250.203125 361.886719 L 252.519531 362.730469 L 252.007812 364.832031 L 253.566406 366.789062 L 253.371094 368.183594 L 254.769531 371.449219 L 254.132812 374.390625 L 255.140625 378.253906 L 256.695312 379.25 L 257.285156 381.578125 L 258.683594 383.378906 L 260.636719 383.609375 L 260.507812 385.101562 L 262.273438 388.269531 L 262.792969 391.332031 L 264.519531 393.609375 L 265.648438 394.035156 L 267.601562 398.335938 L 266.042969 402.316406 L 267.230469 407.757812 L 269.523438 410.734375 L 274.0625 411.457031 L 273.179688 412.042969 L 272.03125 411.554688 L 272.378906 412.890625 L 273.59375 412.742188 L 274.464844 411.464844 L 273.757812 408.519531 L 274.855469 407.71875 L 275.800781 407.929688 L 276.921875 409.816406 L 279.96875 411.503906 L 280.628906 414.128906 L 281.78125 414.425781 L 283.652344 413.722656 L 284.101562 414.585938 L 283.496094 416.414062 L 286.199219 419.167969 L 286.304688 422.050781 L 290.714844 424.179688 L 290.492188 424.902344 L 291.835938 427.632812 L 291.007812 431.679688 L 288.800781 434.058594 L 286.601562 434.726562 L 283.699219 437.9375 L 280.988281 438.4375 L 278.96875 436.160156 L 277.363281 429.484375 L 274.273438 424.414062 L 268.542969 421.175781 L 260.320312 412.96875 L 251.992188 408.015625 L 250.953125 406.664062 L 249.960938 406.644531 L 248.558594 403.40625 L 247.890625 403.085938 L 247.734375 404.066406 L 245.914062 403.902344 L 245.519531 402.816406 L 245.75 403.976562 L 246.621094 404.550781 L 245.464844 404.660156 L 245.035156 401.976562 L 243.40625 399.660156 L 242.617188 398.976562 L 242.679688 399.929688 L 241.414062 399.882812 L 240.984375 397.980469 L 241.542969 398.277344 L 241.46875 397.773438 L 240.933594 397.964844 L 241.199219 399.558594 L 240.542969 400.171875 L 240.769531 399.402344 L 240.214844 398.6875 L 239.710938 398.960938 L 240.273438 397.929688 L 239.65625 397.097656 L 239.886719 395.75 L 240.546875 395.8125 L 239.902344 395.628906 L 240.066406 394.265625 L 239.367188 395.488281 L 239.332031 398.363281 L 239.179688 397.332031 L 238.644531 398.234375 L 239.007812 396.042969 L 238.507812 395.242188 L 239.253906 395.144531 L 239.6875 393.625 L 239.699219 392.902344 L 239.054688 393.039062 L 239.167969 391.578125 L 239.828125 389.417969 L 240.539062 389.378906 L 239.988281 389.09375 L 240.582031 388.605469 L 240.347656 384.773438 L 241.554688 384.519531 L 240.292969 384.554688 L 240.503906 383.816406 L 240.808594 384.148438 L 240.601562 379.242188 L 240.175781 380.058594 L 238.433594 373.894531 L 236.769531 372.246094 L 236.949219 371.441406 L 236.878906 371.402344 L 236.46875 372.347656 L 234.332031 368.410156 L 233.292969 368.070312 L 232.65625 368.703125 L 230.085938 366.832031 L 229.226562 366.9375 L 227.179688 364.992188 L 227.578125 364.503906 L 227.011719 364.867188 L 223.941406 362.429688 L 226.738281 363.957031 L 226.351562 363.457031 L 225.015625 362.425781 L 223.695312 362.335938 L 222 360.835938 L 221.921875 360.644531 L 220.949219 360.171875 L 221.125 359.707031 L 221.890625 360.574219 L 221.738281 360.210938 L 222.269531 360.105469 L 220.4375 357.804688 L 220.929688 356.820312 L 220.160156 356.8125 L 219.8125 357.65625 L 218.722656 357 L 219.628906 356.875 L 220.710938 355.535156 L 220.277344 352.714844 L 219.5 355.671875 L 218.226562 356.304688 L 218.316406 357.71875 L 214.738281 356.539062 L 215.972656 356.378906 L 215.007812 356.011719 L 214.234375 356.269531 L 214.605469 356.53125 L 213.75 356.859375 L 213.015625 358.332031 L 212.132812 358.335938 L 212.214844 358.398438 L 212.117188 358.335938 L 211.679688 358.335938 L 210.890625 357.515625 L 209.542969 356.617188 L 208.691406 354.261719 L 207.429688 353.050781 L 205.585938 352.390625 L 204.578125 352.964844 L 201.792969 349.65625 L 199.878906 349.09375 L 199.136719 349.695312 L 197.578125 348.492188 L 196.570312 348.523438 L 196.550781 347.8125 L 195.59375 347.410156 L 195.238281 343.515625 L 191.078125 341.148438 L 190.09375 339.238281 L 188.589844 338.578125 L 189.097656 338.503906 L 188.835938 337.558594 L 188.121094 338.140625 L 187.132812 337.023438 L 186.171875 337.011719 L 184.804688 334.222656 L 195.632812 336.039062 L 197.355469 335.082031 L 198.457031 335.277344 L 198.605469 334.589844 L 197.6875 334.84375 L 199.03125 333.894531 L 199.507812 334.3125 L 199.300781 336.589844 L 201.867188 338.25 L 202.960938 339.714844 L 204.148438 338.320312 L 203.289062 338.125 L 203.699219 337.886719 L 205.660156 338.601562 L 206.277344 337.707031 L 206.355469 338.863281 L 205.625 338.796875 L 206.679688 340.863281 L 207.332031 340.988281 L 207.800781 340.121094 L 206.675781 339.023438 L 206.765625 338.117188 L 207.585938 338.660156 L 206.914062 337.933594 L 206.8125 335.25 L 205.335938 334.167969 L 205.667969 335.003906 L 204.921875 336.4375 L 205.53125 336.738281 L 204.34375 336.875 L 203.65625 335.539062 L 204.175781 337.058594 L 202.707031 337.574219 L 201.457031 336.589844 L 202.101562 336.667969 L 201.582031 335.171875 L 202.511719 333.847656 L 201.914062 333.335938 L 202.371094 333.488281 L 201.871094 332.921875 L 202.210938 332.417969 L 199.871094 333.53125 L 199.992188 332.613281 L 202.539062 329.667969 L 202.835938 330.460938 L 202.160156 331.277344 L 202.890625 332.976562 L 203.207031 332.425781 L 226.695312 332.796875 L 203.210938 332.421875 L 202.777344 330.660156 L 203.476562 331.914062 L 204.351562 330.59375 L 203.15625 330.246094 L 202.90625 328.921875 L 203.949219 327.261719 L 203.941406 329.476562 L 204.195312 327.433594 L 203.84375 326.097656 L 202.753906 326.074219 L 204.324219 321.835938 L 203.371094 320.007812 L 202.253906 319.589844 L 202.183594 318 L 200.246094 317.59375 L 199.996094 316.621094 L 198.863281 316.105469 L 197.707031 313.03125 L 194.550781 311.117188 L 193.875 308.472656 L 192.238281 308.03125 L 191.785156 306.515625 L 190.507812 305.792969 L 187.761719 302.34375 L 183.746094 301.144531 L 182.660156 299.269531 L 180.367188 298.320312 L 178.960938 296.875 L 178.085938 297.035156 L 174.652344 294.011719 L 174.683594 290.976562 L 173.972656 289.964844 L 172.710938 289.867188 L 173.363281 288.042969 L 172.976562 282.554688 L 171.160156 280.351562 L 169.871094 280.554688 L 170.722656 280.109375 L 170.84375 279.167969 L 169.867188 278.082031 L 170.457031 279.398438 L 170.050781 279.800781 L 169.210938 279.222656 L 170.003906 281.089844 L 169.574219 281.183594 L 168.796875 278.792969 L 169.347656 274.941406 L 168.882812 272.011719 L 166.816406 270.582031 L 165.246094 268.339844 L 163.980469 268.210938 L 164.644531 264.414062 L 163.78125 262.445312 L 161.070312 258.34375 L 159.652344 257.6875 L 158.128906 255.710938 L 158.886719 255.128906 L 158.992188 253.503906 L 157.339844 251.699219 L 158.824219 252.289062 L 159.496094 251.332031 L 158.898438 252.273438 L 159.363281 252.808594 L 159.746094 249.5625 L 157.472656 248.382812 L 157.117188 246.90625 L 155.191406 245.84375 L 154.71875 241.65625 L 152.613281 240.109375 L 151.375 234.902344 L 194.085938 232.59375 L 192.441406 234.675781 L 192.320312 237.226562 L 258.730469 262.210938 L 310.105469 261.046875 L 309.785156 251.625 L 339.808594 250.367188 L 340.566406 251.101562 L 342.4375 251.3125 L 345.957031 256.753906 L 350.5625 258.636719 L 354.074219 262.574219 L 357.246094 264.203125 L 358.101562 266.03125 L 361.089844 268.03125 L 361.179688 268.792969 L 364.523438 269.578125 L 367.4375 271.859375 L 368.535156 271.878906 L 369.160156 273.332031 L 370.132812 273.445312 L 371.601562 277.9375 L 374.503906 280.933594 L 375.328125 287.507812 L 377.621094 290.378906 L 378.871094 293.308594 L 381.398438 295.089844 L 384.597656 296.128906 L 385.574219 297.941406 L 387.75 299.1875 L 392.800781 300.160156 L 392.921875 301.003906 L 394.121094 301.832031 L 397.160156 302.121094 L 398.785156 303.972656 L 400.863281 304.769531 L 401.488281 304.28125 L 402.410156 305.535156 L 405.515625 305.207031 L 405.703125 303.601562 L 406.816406 302.683594 L 407.417969 300.957031 L 409.734375 299.839844 L 408.9375 299.136719 L 409.230469 297.160156 L 410.359375 296.0625 L 410.339844 293.433594 L 412.476562 288.582031 L 413.308594 288.699219 L 414.355469 287.863281 L 414.761719 288.375 L 415.308594 287.515625 L 417.65625 287.796875 L 417.953125 285.976562 L 418.710938 285.230469 L 423.445312 286.769531 L 425.105469 285.988281 L 426.007812 286.589844 L 427.375 285.984375 L 427.96875 286.320312 L 427.984375 285.839844 L 428.277344 286.472656 L 431.300781 286.761719 L 432.539062 286.316406 L 433.015625 285.386719 L 433.257812 286.472656 L 434.660156 285.71875 L 434.953125 286.523438 L 435.789062 286.035156 L 435.5 286.535156 L 436.671875 288.464844 L 437.730469 288.324219 L 437.851562 289.910156 L 438.835938 288.820312 L 438.851562 290.984375 L 442.578125 291.984375 L 443.710938 293.757812 L 447.523438 295.710938 L 448.4375 297.550781 L 450.390625 298.761719 L 451.457031 302.738281 L 453.644531 304.851562 L 454.597656 307.796875 L 456.6875 309.261719 L 457.03125 310.703125 L 458.019531 310.945312 L 457.433594 311.496094 L 459.625 315.949219 L 461.058594 317.1875 L 463.433594 317.933594 L 465.652344 320.960938 L 466.546875 321.136719 L 468.070312 324.984375 L 469.332031 325.351562 L 471.34375 327.574219 L 472.90625 328.09375 L 473.636719 327.714844 L 475.371094 329.113281 L 475.257812 330.542969 L 476.195312 330.972656 L 476.007812 333.894531 L 475.421875 334.472656 L 477.363281 335.617188 L 477.875 340.515625 L 481.453125 343.851562 L 483.898438 348.449219 L 484.105469 350.191406 L 485.617188 351.136719 L 485.453125 352.449219 L 486.019531 352.96875 L 488.328125 352.789062 L 488.867188 353.363281 L 489.140625 352.84375 L 489.722656 353.582031 L 491.523438 353.152344 L 494.289062 355.625 L 495.734375 355.007812 L 497.582031 355.914062 L 498.722656 355.496094 L 499.921875 356.816406 L 500.871094 356.523438 L 501.59375 357.738281 L 502.023438 357.203125 L 501.984375 357.765625 L 503.78125 358.578125 L 505.972656 357.980469 L 506.144531 358.738281 L 507 358.007812 L 511.335938 357.59375 L 512.183594 358.253906 L 514.453125 357.96875 L 515.289062 359.296875 L 516.101562 359.398438 L 515.816406 359.816406 L 516.71875 359.792969 L 517.15625 360.671875 L 518.449219 360.589844 L 519.082031 361.472656 L 519.335938 360.988281 L 519.511719 361.484375 L 520.140625 361.253906 L 520.011719 359.789062 L 521.699219 359.160156 L 521.480469 358.660156 L 524.230469 358.191406 L 524.238281 364.46875 L 520.671875 374.335938 L 519.972656 374.257812 L 521.28125 371.554688 L 520.761719 371.472656 L 520.828125 371.328125 L 519.792969 371.714844 L 520.800781 370.648438 L 519.550781 370.597656 L 519.738281 369.875 L 519.125 370.433594 L 518.039062 369.472656 L 517.253906 370.460938 L 517.933594 370.242188 L 518.59375 370.792969 L 518.398438 371.503906 L 518.746094 371.203125 L 519.207031 371.867188 L 517.824219 371.746094 L 518.351562 373.53125 L 517.683594 373.640625 L 517.535156 372.664062 L 516.820312 373.21875 L 516.25 372.742188 L 516.574219 371.921875 L 515.9375 371.773438 L 514.78125 372.214844 L 514.945312 373.371094 L 515.21875 372.734375 L 514.808594 374.582031 L 513.332031 373.847656 L 514.648438 375.125 L 515.167969 374.839844 L 515.257812 375.78125 L 515.992188 376.210938 L 515.582031 378.179688 L 514.632812 378.523438 L 515.589844 378.335938 L 514.917969 379.390625 L 515.484375 379.699219 L 514.523438 381.011719 L 515.429688 380.574219 L 516.960938 381.574219 L 515.84375 382.4375 L 515.402344 382.035156 L 515.675781 383.023438 L 515.144531 383.230469 L 516.078125 384.042969 L 515.007812 384.976562 L 516.179688 384.828125 L 515.746094 385.078125 L 516.210938 385.203125 L 516.113281 386.425781 L 515.214844 387.132812 L 516.355469 386.660156 L 515.792969 387.425781 L 516.429688 387.214844 L 516.15625 390.9375 L 515.503906 390.664062 L 515.476562 389.492188 L 514.511719 389.800781 L 514.355469 389.09375 L 513.609375 390.445312 L 514.15625 390.984375 L 514.675781 390.539062 L 513.964844 391.699219 L 514.523438 392.628906 L 515.355469 392.714844 L 514.4375 392.730469 L 515.492188 394.667969 L 515.355469 392.625 L 516.164062 391.761719 L 516.445312 399.589844 L 516.082031 400.027344 L 516.132812 399.175781 L 515.363281 399.320312 L 516.175781 400.933594 L 516.449219 399.960938 L 517.097656 405.902344 L 517.765625 405.824219 L 517.550781 403.617188 L 517.941406 406.199219 L 516.949219 406.097656 L 517.566406 406.378906 L 517.570312 406.492188 L 517.925781 406.269531 L 518.023438 413.984375 L 517.902344 413.488281 L 517.519531 413.914062 L 518.03125 414.078125 L 519.117188 425.136719 L 518.664062 427.246094 L 518.640625 427.484375 L 518.589844 427.59375 L 518.121094 429.777344 L 518.375 428.042969 L 517.136719 430.609375 L 517.878906 432.425781 L 518.035156 429.703125 L 518.335938 433.671875 L 517.589844 434.125 L 518.339844 433.878906 L 517.882812 434.230469 L 518.511719 436.429688 L 518.269531 434.472656 L 519.464844 437.699219 L 520.28125 438.332031 L 520.136719 440.195312 L 522.179688 444.53125 L 520.648438 442.410156 L 522.015625 444.917969 L 522.160156 447.574219 L 523.34375 451.066406 L 525.828125 454.996094 L 527.105469 454.703125 L 527.558594 455.183594 L 527.8125 457.515625 L 528.957031 458.738281 L 528.574219 457.226562 L 529.707031 454.480469 L 529.515625 453.292969 L 524.296875 448.4375 L 522.214844 444.597656 L 525.527344 448.652344 L 530.5625 452.414062 L 530.203125 455.277344 L 529.144531 458.933594 L 529.375 459.179688 L 535.296875 471.320312 L 551.8125 487.59375 L 553.835938 492.609375 L 553.421875 492.9375 L 555.253906 495.160156 L 554.875 496.773438 L 556.105469 498.796875 L 555.585938 498.742188 L 558.855469 500.585938 L 559.648438 500.386719 L 559.367188 500.726562 L 560.550781 501.898438 L 560.074219 503.109375 L 563.074219 503.640625 L 564.226562 507.117188 L 565.710938 508.234375 L 568.167969 508.84375 L 568.058594 509.519531 L 565.5 508.578125 L 566.84375 509.988281 L 566.015625 510.738281 L 567.085938 510.578125 L 567.175781 509.882812 L 568.238281 509.960938 L 568.328125 508.917969 L 572.167969 510.183594 L 580.011719 509.628906 L 582.136719 510.785156 L 583.234375 512.234375 L 587.976562 512.597656 L 589.867188 515.554688 L 592.40625 517.570312 L 592.980469 519.449219 L 595.507812 520.289062 L 599.4375 519.367188 L 608.339844 515.71875 L 607.929688 516.875 L 609.351562 516.722656 L 610.582031 516.121094 L 610.335938 515.203125 L 610.90625 514.785156 L 613.683594 514.609375 L 614.121094 514.050781 L 613.703125 513.121094 L 617.878906 512.128906 L 616.707031 512.066406 L 617.140625 511.914062 L 622.667969 511.085938 L 621.925781 511.691406 L 622.667969 511.410156 L 622.171875 511.933594 L 622.453125 512.785156 L 623.605469 512.222656 L 623.398438 513.242188 L 624.5 511.882812 L 622.6875 511.5 L 622.871094 511.050781 L 628.019531 510.464844 L 630.375 508.839844 L 631.804688 506.195312 L 637.730469 504.496094 L 646.824219 502.75 L 649.164062 504.382812 L 648.929688 505.140625 L 647.679688 505.417969 L 647.492188 504.464844 L 646.816406 505.277344 L 646.171875 504.988281 L 646.15625 505.46875 L 646.777344 505.347656 L 646.503906 506.328125 L 646.199219 505.738281 L 645.425781 506.773438 L 647.1875 506.757812 L 647.003906 505.285156 L 647.902344 505.914062 L 648.40625 505.53125 L 649.574219 506.703125 L 655.210938 507.433594 L 656.640625 507.15625 L 657.085938 505.972656 L 660.171875 504.527344 L 660.734375 504.195312 L 662.035156 499.714844 L 660.496094 498.917969 L 659.792969 499.65625 L 658.359375 498.996094 L 658.707031 497.652344 L 659.246094 497.625 L 658.761719 497.300781 L 663.851562 493.257812 L 658.804688 496.613281 L 657.882812 498.410156 L 657.417969 498.535156 L 657.820312 497.613281 L 656.726562 499.675781 L 656.171875 499.574219 L 658.078125 497.078125 L 663.222656 493.496094 L 670.179688 486.332031 L 670.96875 484.929688 L 670.460938 480.539062 L 670.828125 479.023438 L 670.238281 478.039062 L 670.945312 476.097656 L 673.820312 473.296875 L 674.722656 471.257812 L 673.605469 468.96875 L 672.796875 461.179688 L 672.160156 460.085938 L 672.691406 459.894531 L 672.0625 459.421875 L 672.773438 456.238281 L 672.460938 454.625 L 673.058594 452.871094 L 673.453125 448.867188 L 674.566406 447.007812 L 678.449219 443.714844 L 683.199219 441.4375 L 682.433594 441.375 L 683.300781 440.859375 L 686.148438 439.761719 L 684.34375 440.832031 L 684.789062 440.867188 L 686.789062 439.992188 L 686.140625 439.667969 L 703.613281 434.457031 L 707.523438 432.25 L 707.574219 431.59375 L 706.472656 432.730469 L 708 430.898438 L 712.222656 429.300781 L 714.933594 429.078125 L 717.46875 427.6875 L 716.644531 427.515625 L 717.375 427.125 L 721.15625 426.851562 L 719.25 427.582031 L 723.886719 427.546875 L 725.695312 428.5625 L 729.269531 428.15625 L 727.632812 427.90625 L 731.453125 427.992188 L 731.847656 428.5625 L 732.695312 428.160156 L 737.253906 428.597656 L 737.292969 427.976562 L 738.375 428.304688 L 737.929688 427.882812 L 739.359375 426.976562 L 739.390625 425.546875 L 738.703125 425.179688 L 739.132812 424.433594 L 741.1875 424.710938 L 742.070312 425.550781 L 741.542969 424.496094 L 744.300781 427.640625 L 745.554688 430.734375 L 746.222656 431.03125 L 745.890625 430.414062 L 746.449219 428.972656 L 746.882812 432.449219 L 748.441406 433.210938 L 748.023438 435.632812 L 747.339844 435.933594 L 746.660156 440.289062 L 742.863281 446.667969 L 739.546875 450.53125 L 737.375 455.890625 L 736.734375 459.394531 L 736.90625 460.996094 L 738.421875 463.492188 L 737.949219 466.03125 L 737.507812 465.621094 L 738.398438 463.515625 L 737.429688 462.34375 L 737.90625 464.261719 L 737.285156 465.515625 L 735.59375 466.183594 L 734.328125 470.363281 L 733.816406 470.179688 L 734.390625 469.914062 L 734.449219 468.671875 L 732.589844 469.347656 L 732.792969 471.167969 L 734.550781 471.84375 L 734.410156 473.191406 L 735.652344 471.585938 L 736.96875 471.089844 L 737.839844 471.496094 L 738.25 470.660156 L 737.503906 470.351562 L 739.527344 470.324219 L 739.308594 469.535156 L 738.699219 469.882812 L 738.734375 468.941406 L 739.859375 470.054688 L 739.648438 472.902344 L 738.070312 474.855469 L 737.054688 474.957031 L 737.714844 474.828125 L 737.691406 474.148438 L 736.558594 474.886719 L 735.800781 475.691406 L 735.605469 477.335938 L 734.976562 477.125 L 735.648438 478.246094 L 734.789062 479.1875 L 735.484375 479.050781 L 736.074219 480.058594 L 737.945312 476.96875 L 739.089844 476.28125 L 738.851562 477.921875 L 739.234375 476.289062 L 739.4375 476.75 L 739.570312 476.214844 L 740.0625 476.445312 L 738.445312 479.082031 L 738.613281 481.84375 L 736.351562 490.886719 L 736.203125 497.492188 L 735.195312 499.90625 L 735.195312 502.800781 L 734.359375 502.324219 L 734.726562 501.796875 L 733.941406 502.324219 L 733.941406 499.355469 L 732.523438 498.5625 L 732.5625 497.652344 L 729.375 497.039062 L 730.410156 492.597656 L 729.855469 492.007812 L 730.011719 490.308594 L 728.890625 489.539062 L 728.621094 488.316406 L 727.613281 489.539062 L 727.160156 491.757812 L 726.816406 490.691406 L 725.902344 492.25 L 725.996094 492.898438 L 726.964844 492.171875 L 724.824219 497.332031 L 720.835938 497.863281 L 719.964844 498.773438 L 717.226562 508.191406 L 714.539062 511.59375 L 714.804688 512.941406 L 710.460938 510.402344 L 708.144531 512.113281 L 708.476562 514.953125 L 669.550781 519.722656 L 670.789062 531.992188 L 661.335938 533.261719 L 663.558594 534.839844 L 664.96875 534.585938 L 665.195312 535.578125 L 667.523438 537.6875 L 668.558594 537.804688 L 670.246094 540.191406 L 672.027344 540.882812 L 672.441406 540.019531 L 672.273438 540.835938 L 673.011719 540.796875 L 673.46875 541.632812 L 676.027344 541.835938 L 678.046875 543.160156 L 679.433594 544.886719 L 679.640625 545.890625 L 679.128906 546.011719 L 680.226562 546.234375 L 680.039062 547.609375 L 680.859375 547.6875 L 680.382812 548.371094 L 682.261719 548.164062 L 683.761719 548.449219 L 683.699219 549.304688 L 685.773438 549.339844 L 686.289062 550.238281 L 685.417969 550.429688 L 685.605469 551.511719 L 684.980469 551.875 L 685.378906 552.8125 L 684.804688 553.046875 L 685.367188 553.355469 L 684.929688 554.367188 L 685.617188 554.828125 L 685.039062 556.222656 L 685.75 556.273438 L 685.414062 556.96875 L 657.980469 559.625 L 649.320312 578.566406 L 653.019531 582.515625 L 651.320312 584.605469 L 651.636719 586.726562 L 650.84375 587.984375 L 651.96875 591.574219 L 650.683594 594.652344 L 635.917969 582.203125 L 636.164062 581.714844 L 636.3125 581.757812 L 635.933594 581.0625 L 636.023438 581.796875 L 635.105469 581.445312 L 635.683594 582.003906 L 627.433594 575.214844 L 625.117188 573.734375 L 625.164062 573.769531 L 625.042969 573.6875 L 618.253906 569.359375 L 611.367188 566.121094 L 612.996094 565.828125 L 612.597656 564.523438 L 611.992188 563.957031 L 608.003906 563.449219 L 607.011719 561.378906 L 605.203125 562.324219 L 602.53125 561.457031 L 601.5 560.253906 L 600.765625 560.675781 L 600.980469 561.648438 L 600.304688 561.585938 L 601.515625 562.125 L 600.324219 562.136719 L 603.625 563.339844 L 602.300781 562.789062 L 605.0625 562.78125 L 606.511719 563.609375 L 605.457031 563.578125 L 608.476562 564.832031 L 606.9375 564.0625 L 607.890625 564.042969 L 609.308594 565.632812 L 610.703125 566.09375 L 602.148438 563.332031 L 594.414062 562.75 L 594.269531 562.355469 L 596.660156 561.207031 L 597.210938 559.761719 L 595.164062 559.316406 L 592.707031 561.550781 L 592.359375 561.070312 L 593.222656 560.238281 L 591.570312 558.230469 L 590.757812 558.160156 L 589.777344 558.6875 L 589.046875 560.507812 L 587.808594 560.71875 L 587.167969 561.855469 L 589.371094 562.394531 L 587.027344 562.183594 L 586.429688 562.890625 L 593.957031 562.832031 L 585.191406 563.84375 L 585.582031 564.472656 L 583.066406 565.132812 L 583.535156 565.253906 L 583.09375 565.953125 L 581.5 566.707031 L 581.320312 568.015625 L 579.996094 569.085938 L 579.242188 569.085938 L 579.546875 568.734375 L 577.074219 569.550781 L 575.378906 570.835938 L 573.089844 571.402344 L 573.054688 571.917969 L 569.214844 573.160156 L 563.730469 576.746094 L 559.78125 576.746094 L 557.109375 577.789062 L 554.074219 576.703125 L 550.679688 576.492188 L 542.605469 572.921875 L 531.101562 572.652344 L 522.234375 568.011719 L 514.84375 566.636719 L 509.894531 561.789062 L 507.171875 562.410156 L 498.320312 560.351562 L 491.664062 559.980469 L 487.292969 558.113281 L 487.753906 557.894531 L 486.910156 557.726562 L 487.1875 556.832031 L 486.101562 557.480469 L 484.585938 555.875 L 462.171875 549.589844 L 462.265625 548.730469 L 459.144531 546.316406 L 453.824219 544.542969 L 454.070312 543.699219 L 452.757812 542.570312 L 451.789062 542.828125 L 451.757812 542.246094 L 451.359375 542.628906 L 450.621094 541.832031 L 449.6875 541.867188 L 449.84375 541.015625 L 447.625 539.214844 L 446.773438 537.683594 L 443.0625 535.75 L 440.347656 535.574219 L 439.21875 536.765625 L 438.574219 536.183594 L 438.996094 536.925781 L 438.503906 537.128906 L 432.75 535.265625 L 426.878906 534.429688 L 421.34375 532.242188 L 414.582031 530.964844 L 411.839844 529.710938 L 409.855469 526.019531 L 407.207031 524.289062 L 407.722656 523.648438 L 407.347656 522.945312 L 402.007812 518.71875 L 394.410156 515.988281 L 395.179688 514.71875 L 393.898438 514.488281 L 393.757812 513.898438 L 392.152344 514.699219 L 390.660156 513.675781 L 387.046875 513.023438 L 387.128906 512.476562 L 387.785156 512.714844 L 387.066406 512.070312 L 384.660156 511.835938 L 384.859375 510.46875 L 383.296875 511 L 380.171875 508.855469 L 380.378906 508.164062 L 379.230469 507.082031 L 378.835938 505.214844 L 375.253906 502.882812 L 369.253906 494.382812 L 369.148438 491.734375 L 366.976562 489.785156 L 366.140625 487.882812 L 368.460938 486.222656 L 373.523438 485.429688 L 374.878906 483.929688 L 374.886719 482.34375 L 372.75 480.285156 L 371.449219 480.855469 L 368.929688 480.222656 L 369.902344 479.640625 L 373.148438 474.433594 L 373.957031 474.683594 L 374.632812 473.902344 L 374.914062 470.8125 L 374.152344 467.863281 L 375.226562 465.472656 L 374.417969 464.160156 L 373.65625 464.433594 L 369.988281 462.183594 L 368.457031 458.414062 L 365.972656 455.03125 L 365.828125 450.683594 L 368.082031 453.101562 L 368.460938 452.933594 L 367.910156 452.546875 L 368.707031 452.703125 L 368.75 452.757812 L 369.101562 451.660156 L 367.328125 450.554688 L 367.84375 451.8125 L 367.042969 451.109375 L 367.101562 449.929688 L 366.480469 450.457031 L 366.21875 450.023438 L 364.617188 442.550781 L 364.789062 442.128906 L 364.539062 441.867188 L 364.476562 441.726562 L 364.359375 444.429688 L 364.75 444.734375 L 364.519531 442.5625 L 366.175781 450.535156 L 365.628906 450.46875 L 364.597656 446.417969 L 363.117188 443.464844 L 363.933594 444.101562 L 360.886719 439.902344 L 357.511719 437.457031 L 357.9375 437.125 L 357.394531 437.328125 L 351.761719 431.53125 L 349.765625 430.429688 L 350.515625 429.75 L 351.847656 430.945312 L 351.542969 430.480469 L 350.355469 429.523438 L 349.5625 430.457031 L 349.679688 429.625 L 348.210938 427.851562 L 348.300781 427.109375 L 344.097656 422.28125 L 341.851562 420.808594 L 342.003906 419.65625 L 340.148438 416.902344 L 334.191406 411.765625 L 337.566406 414.292969 L 334.699219 411.679688 L 336.8125 412.871094 L 334.78125 411.386719 L 335.074219 410.765625 L 334.304688 410.425781 L 334.597656 411.457031 L 333.867188 411.253906 L 322.175781 403.746094 L 322.550781 403.421875 L 328.34375 407.160156 L 326.960938 405.914062 L 328.144531 406.515625 L 328.476562 405.570312 L 326.96875 403.085938 L 325.804688 403.28125 L 326.609375 403.714844 L 325.417969 404.636719 L 324.441406 403.382812 L 323.195312 403.6875 L 323.332031 403.015625 L 318.761719 400.453125 L 318.699219 399.796875 L 318.707031 400.59375 L 320.386719 401.941406 L 318.324219 400.558594 L 317.980469 399 L 316.953125 397.9375 L 318.402344 398.636719 L 318.917969 397.484375 L 317.898438 396.699219 L 318.292969 394.097656 L 317.390625 393.5 L 316.835938 391.667969 L 315.527344 390.875 L 315.617188 391.308594 L 314.941406 391.210938 L 313.21875 389.335938 L 311.964844 389.460938 L 311.878906 388.335938 L 310.902344 388.050781 L 310.640625 389.683594 L 307.097656 386.492188 L 307.65625 387.246094 L 303.652344 386.105469 L 305.328125 385.984375 L 306.144531 386.550781 L 305.136719 385.273438 L 303.839844 385.460938 L 303.542969 384.132812 L 302.824219 384.992188 L 303.4375 382.824219 L 303.0625 382.304688 L 302.28125 382.746094 L 301.355469 381.746094 L 300.605469 382.117188 L 301.019531 383.253906 L 300.308594 384.273438 L 299.304688 383.191406 L 298.328125 383.507812 L 298.863281 384.0625 L 298.046875 384.164062 L 296.570312 382.457031 L 297.171875 382.941406 L 297.453125 382.367188 L 297.675781 383.023438 L 297.5 382.210938 L 297.871094 382.667969 L 298.34375 382.296875 L 297.636719 381.964844 L 297.945312 381.457031 L 298.578125 382.121094 L 299.023438 381.816406 L 299.167969 382.5 L 299.40625 381.03125 L 300.238281 380.867188 L 299.960938 379.757812 L 298.5 380.105469 L 297.65625 381.734375 L 297.710938 381.257812 L 297.261719 381.769531 L 296.53125 381.21875 L 296.839844 381.960938 L 295.953125 381.640625 L 295.109375 379.753906 L 293.828125 379.289062 L 294.382812 380.433594 L 293.757812 380.488281 L 295.234375 380.847656 L 295.792969 382.175781 L 294.066406 380.65625 L 291.324219 380.667969 L 292.738281 380.269531 L 291.699219 380.335938 L 292.054688 379.988281 L 293.320312 380.375 L 293.417969 379.019531 L 291.644531 377.753906 L 291.214844 379.757812 L 290.542969 377.160156 L 291.117188 374.527344 L 290.273438 374.445312 L 290.394531 373.148438 L 291.003906 373.171875 L 290.492188 372.972656 L 291.65625 370.890625 L 291.519531 370.96875 L 293.804688 366.449219 L 293.109375 370.144531 L 294.503906 365.859375 L 295.539062 366.625 L 295.140625 367.789062 L 295.578125 367.625 L 296.445312 369.097656 L 296.21875 367.890625 L 296.785156 367.027344 L 295.9375 366.804688 L 295.003906 364.738281 L 294.539062 364.488281 L 294.859375 365.554688 L 294.027344 364.730469 L 293.707031 363.128906 L 293.605469 366.375 L 293.242188 362.28125 L 290.722656 359.410156 L 289.199219 358.859375 L 290.246094 359.054688 L 289.222656 357.589844 L 288.757812 358.0625 L 288.378906 357.296875 L 287.867188 358.175781 L 288.757812 358.421875 L 287.707031 358.527344 L 289.011719 359.128906 L 286.199219 358.644531 L 285.5 359.097656 L 283.007812 357.664062 L 280.4375 352.476562 L 281.570312 353.71875 L 280.980469 351.058594 L 279.945312 350.171875 L 278.480469 349.84375 L 278.320312 350.769531 L 276.503906 349.945312 L 277.0625 349.789062 L 273.773438 349.300781 L 271.394531 347.007812 L 269.625 346.480469 L 271.066406 346.21875 L 270.09375 344.5 L 268.894531 344.820312 L 269.742188 343.964844 L 268.988281 344.328125 L 269.230469 343.53125 L 268.917969 343.824219 L 268.636719 343.128906 L 269.246094 342.976562 L 268.59375 342.539062 L 268.300781 343.375 L 268.5625 341.652344 L 267.570312 339.519531 L 267.746094 338.59375 L 267.945312 338.589844 L 268.011719 337.503906 L 268.953125 337.265625 L 267.996094 336.789062 L 268.210938 334.90625 L 269.566406 334.65625 L 267.011719 333.675781 L 267.714844 334.578125 L 265.75 333.628906 L 263.320312 333.542969 L 264.210938 333.359375 L 263.703125 332.675781 L 262.335938 333.878906 L 263.28125 333.789062 L 262.65625 335.078125 L 261.527344 334.476562 L 261.089844 332.339844 L 259.386719 332.730469 L 259.488281 333.261719 L 258.644531 333.089844 L 258.6875 332.496094 L 255.859375 330.644531 L 253.34375 326.140625 L 252.054688 325.164062 L 252.496094 324.027344 L 247.394531 322.242188 L 246.191406 319.082031 L 242.941406 315.945312 L 243.910156 315.367188 L 244.339844 316.253906 L 244.847656 315.167969 L 244.09375 315.230469 L 244.007812 314.648438 L 243.773438 315.234375 L 243.574219 314.660156 L 243.625 315.296875 L 241.484375 313.851562 L 240.167969 311.832031 L 238.914062 311.582031 L 239.042969 308.539062 L 237.855469 307.132812 L 238.25 305.8125 L 237.808594 304.488281 L 236.113281 304.242188 L 235.933594 304.8125 L 234.550781 303.675781 L 235.148438 300.824219 L 231.496094 296.023438 L 229.980469 292.269531 L 228.480469 291.753906 L 228.3125 285.871094 L 227.40625 284.570312 L 226.410156 284.351562 L 226.746094 282.691406 L 226.175781 280.605469 L 224.144531 278.769531 L 222.46875 275.660156 L 221.757812 272.941406 L 222.425781 269.902344 L 221.796875 267.824219 L 222.507812 269.394531 L 223.097656 268.359375 L 223.015625 265.699219 L 219.582031 263.039062 L 219.238281 263.597656 L 220.175781 263.976562 L 212.976562 262.070312 L 212.464844 258.625 L 208.085938 255.78125 L 207.753906 256.246094 L 206.757812 255.449219 L 206.414062 256.941406 L 207.046875 257.097656 L 206.253906 257.84375 L 205.753906 257.449219 L 205.847656 258.5 L 203.261719 258.335938 L 195.875 252.773438 L 194.0625 252.574219 L 192.636719 251.6875 L 194.546875 253.484375 L 194.851562 254.585938 L 193.027344 253.972656 L 192.019531 252.679688 Z M 238.128906 311.601562 L 238.59375 311.394531 L 236.972656 314.992188 L 237.421875 315.765625 L 236.367188 316.195312 L 231.320312 313.46875 L 233.050781 311.976562 L 232.777344 309.574219 L 233.691406 306.839844 L 234.601562 306.996094 L 237.105469 305.78125 L 237.035156 308.011719 L 238.492188 310.476562 Z M 216.535156 306.550781 L 212.988281 302.105469 L 213.613281 299.121094 L 215.121094 299.636719 L 216.59375 301.132812 L 217.347656 302.664062 L 217.070312 304.339844 L 220.699219 304.980469 L 220.535156 308.144531 L 220.992188 309.410156 L 221.886719 309.605469 L 221.570312 311.089844 Z M 216.535156 306.550781 "/>
    </g>
  </g>
  <g id="lo-co-states" fill="none" fill-opacity="0.35" stroke-width="2.5" stroke="#505050" stroke-linejoin="round" mask="url(#non-lo-co-mask)">
    <g>
      <path id="California" d="M 72.160156 109.933594 L 72.21875 111.179688 L 70.289062 109.601562 L 69.664062 110.542969 L 68.671875 110.4375 L 68.105469 109.578125 L 68.84375 111.050781 L 68.152344 112.390625 L 69.140625 113.265625 L 68.214844 114.25 L 68.507812 116.355469 L 67.523438 116.5 L 65.21875 114.429688 L 64.769531 114.644531 L 62.878906 112.007812 L 61.292969 111.332031 L 60.601562 112.097656 L 59.710938 111.910156 L 61.300781 108.71875 L 60.75 105.585938 L 59.84375 105.539062 L 59 102.464844 L 56.386719 99.710938 L 50.425781 90.886719 L 51.378906 88.511719 L 50.101562 81.804688 L 51.636719 77.644531 L 51.058594 71.699219 L 47.703125 65.378906 L 44.113281 61.617188 L 44.484375 60.058594 L 43.902344 57.667969 L 50.050781 46.917969 L 49.859375 43.664062 L 51.652344 39.957031 L 52.296875 36.960938 L 51.746094 31.121094 L 50.34375 29.859375 L 51.59375 25.308594 L 117.453125 33.40625 L 111.640625 96.164062 L 197.078125 184.953125 L 196.898438 187.527344 L 199.597656 191.066406 L 200.078125 193.398438 L 201.042969 194.726562 L 201.007812 196.335938 L 204.332031 198.390625 L 205.273438 200.347656 L 200.242188 203.785156 L 199.878906 205.300781 L 198.289062 206.613281 L 198.546875 211.992188 L 197.820312 212.511719 L 197.878906 215.078125 L 195.777344 217.972656 L 194.375 218.101562 L 194.714844 219.339844 L 194.128906 220.300781 L 195.121094 221.117188 L 194.433594 224.710938 L 195.238281 225.914062 L 197.757812 226.210938 L 198.652344 227.277344 L 198.707031 230.046875 L 197.542969 230.761719 L 197.457031 231.566406 L 196.128906 232.476562 L 194.542969 232.117188 L 151.304688 234.796875 L 150.222656 230.910156 L 151.503906 233.398438 L 151.515625 231.804688 L 150.261719 230.480469 L 149.324219 231.671875 L 148.851562 228.054688 L 149.429688 227.308594 L 148.371094 222.566406 L 147.066406 219.925781 L 135.449219 208.484375 L 133.035156 207.78125 L 132.242188 209.203125 L 130.21875 208.351562 L 130.285156 205.316406 L 128.230469 201.9375 L 123.90625 202.050781 L 121.296875 201.414062 L 116.625 198.847656 L 115.886719 196.859375 L 112.335938 193.714844 L 110.257812 192.679688 L 105.664062 192.570312 L 103.292969 191.179688 L 101.074219 190.785156 L 95.53125 190.941406 L 94.746094 189.207031 L 92.546875 187.941406 L 93.476562 185.238281 L 93.058594 184.019531 L 93.640625 182.046875 L 92.730469 180.949219 L 93.894531 177.433594 L 93.644531 176.03125 L 89.929688 174.234375 L 90.109375 169.628906 L 88.160156 168.839844 L 85.847656 164.964844 L 83.796875 164.042969 L 83.070312 161.058594 L 81.238281 159.210938 L 77.707031 152.46875 L 74.703125 149.488281 L 74.070312 143.566406 L 74.941406 142.433594 L 75.617188 143.199219 L 76.699219 142.453125 L 77.871094 138.949219 L 76.125 135.726562 L 73.097656 135.714844 L 71.328125 134.390625 L 67.824219 128.9375 L 68.519531 126.605469 L 67.945312 123.839844 L 66.972656 122.804688 L 67.71875 117.359375 L 69.402344 117.003906 L 70.113281 118.855469 L 69.621094 121.257812 L 73.773438 125.058594 L 75.703125 125.09375 L 73.816406 124.113281 L 72.582031 118.921875 L 70.808594 117.804688 L 71.15625 115.433594 L 70.132812 114.945312 L 70.148438 113.582031 L 71.644531 112.871094 L 76.640625 112.527344 L 81.574219 113.773438 L 82.394531 112.535156 L 83.753906 112.507812 L 84.175781 113.199219 L 84.226562 111.640625 L 82.390625 112.3125 L 82.457031 110.773438 L 80.285156 112.71875 L 78.300781 112.375 L 77.097656 110.828125 L 72.828125 111.808594 Z M 72.121094 109.820312 L 71.765625 108.820312 L 71.351562 109.039062 Z M 126.546875 213.535156 L 130.535156 215.257812 L 131.429688 217.492188 L 128.789062 216.960938 L 128.457031 214.949219 L 127.15625 214.550781 Z M 129.972656 227.667969 L 128.734375 227.867188 L 125.84375 223.167969 L 126.359375 222.882812 Z M 105.148438 199.484375 L 108.554688 200.882812 L 110.273438 200.289062 L 111.101562 200.796875 L 110.773438 201.363281 L 107.683594 202 L 105.335938 201.753906 L 104.664062 200.933594 L 104.972656 200.386719 L 104.078125 199.738281 Z M 99.664062 202.238281 L 98.566406 200.316406 L 101.96875 199.953125 L 103.269531 202.027344 L 100.632812 202.933594 Z M 99.664062 202.238281 "/>
    </g>
    <g>
      <path id="Nevada" d="M 124.453125 109.53125 L 111.640625 96.164062 L 117.453125 33.40625 L 164.347656 36.90625 L 210.464844 38.835938 L 207.667969 159.746094 L 206.03125 163.355469 L 204.699219 163.835938 L 203.007812 162.855469 L 202.890625 161.820312 L 201.8125 160.964844 L 200.726562 161.566406 L 199.277344 160.8125 L 197.722656 161.046875 L 195.882812 162.167969 L 195.6875 164.21875 L 196.890625 166.496094 L 196.339844 169.574219 L 197.105469 172.136719 L 196.496094 174.117188 L 198.257812 180.351562 L 197.996094 182.023438 L 196.890625 182.441406 L 197.558594 183.351562 L 196.882812 184.046875 L 197.078125 184.953125 Z M 124.453125 109.53125 "/>
    </g>
    <g>
      <path id="Arizona" d="M 197.757812 226.210938 L 195.238281 225.914062 L 194.433594 224.710938 L 195.121094 221.117188 L 194.128906 220.300781 L 194.714844 219.339844 L 194.375 218.101562 L 195.777344 217.972656 L 197.878906 215.078125 L 197.820312 212.511719 L 198.546875 211.992188 L 198.289062 206.613281 L 199.878906 205.300781 L 200.242188 203.785156 L 205.273438 200.347656 L 204.332031 198.390625 L 201.007812 196.335938 L 201.042969 194.726562 L 200.078125 193.398438 L 199.597656 191.066406 L 196.898438 187.527344 L 196.882812 184.046875 L 197.558594 183.351562 L 196.890625 182.441406 L 197.996094 182.023438 L 198.257812 180.351562 L 196.496094 174.117188 L 197.105469 172.136719 L 196.339844 169.574219 L 196.890625 166.496094 L 195.6875 164.21875 L 195.882812 162.167969 L 197.722656 161.046875 L 199.277344 160.8125 L 200.726562 161.566406 L 201.8125 160.964844 L 204.246094 163.800781 L 206.03125 163.355469 L 207.667969 159.746094 L 207.917969 143.417969 L 268.164062 143.730469 L 291.710938 143.089844 L 295.085938 261.296875 L 258.746094 262.074219 L 192.140625 237.371094 L 192.433594 234.683594 L 194.210938 232.242188 L 196.699219 232.257812 L 198.707031 230.046875 L 198.652344 227.277344 Z M 197.757812 226.210938 "/>
    </g>
  </g>
  <g id="co-basin-polygon" fill="#B22C2C" fill-opacity="0.3" stroke-width="2.5" stroke="#B22C2C" stroke-linejoin="round">
    <g>
      <path id="Upper-Colorado-river-basin" d="M 316.605469 124.574219 L 315.964844 126.117188 L 317.675781 128.808594 L 319.097656 127.535156 L 320.855469 127.273438 L 320.515625 127.808594 L 321.59375 129.351562 L 322.847656 128.410156 L 324.171875 129.769531 L 327.339844 129.691406 L 327.636719 131.042969 L 331.324219 132.347656 L 331.632812 132.753906 L 330.609375 134.3125 L 331.375 134.800781 L 330.902344 135.632812 L 332.652344 136.894531 L 332.835938 138.34375 L 332.21875 138.839844 L 332.269531 140.429688 L 331.222656 140.511719 L 330.601562 142.203125 L 331.214844 143.414062 L 328.421875 145.585938 L 327.355469 145.648438 L 327.277344 147.761719 L 326.457031 148.757812 L 327.296875 151.738281 L 326.382812 153.46875 L 327.636719 155.429688 L 327.65625 158.332031 L 326.535156 158.597656 L 325.976562 160.351562 L 324.402344 161.480469 L 321.179688 161.574219 L 318.796875 166.28125 L 314.191406 168.234375 L 312.996094 171.089844 L 310.964844 172.539062 L 310.070312 171.648438 L 307.78125 172.105469 L 307.863281 170.828125 L 306.761719 171.082031 L 305.820312 170.417969 L 304.71875 170.96875 L 304.167969 170.195312 L 302.488281 169.886719 L 300.230469 169.90625 L 298.320312 172.144531 L 297.160156 170.894531 L 294.847656 170.21875 L 293.929688 167.238281 L 294.824219 166 L 295.859375 165.773438 L 295.769531 162.507812 L 294.9375 162.492188 L 293.640625 164.300781 L 291.941406 163.421875 L 289.730469 166.496094 L 287.421875 166.238281 L 285.820312 167.96875 L 284.582031 168.488281 L 283.914062 167.945312 L 282.683594 169.59375 L 282.011719 169.054688 L 281.09375 169.75 L 278.671875 168.027344 L 279.03125 166.945312 L 276.816406 162.40625 L 279.253906 158.75 L 278.773438 156.394531 L 277.421875 156.257812 L 275.363281 154.292969 L 274.789062 154.882812 L 273.09375 154.15625 L 271.507812 150.8125 L 269.167969 150.839844 L 267.683594 153.015625 L 267.234375 150.742188 L 266.011719 149.210938 L 266.164062 147.925781 L 264.996094 147.949219 L 262.273438 151.960938 L 260.234375 152.253906 L 259.726562 153.285156 L 258.132812 154.097656 L 256.578125 153.621094 L 256.613281 153.105469 L 254.257812 153.359375 L 253.621094 154.148438 L 251.671875 151.492188 L 249.578125 153.503906 L 249.667969 151.578125 L 248.375 150.054688 L 249.089844 146.527344 L 247.96875 146.074219 L 244.976562 149.640625 L 243.503906 148.582031 L 242.03125 148.6875 L 241.3125 147.015625 L 240.242188 146.535156 L 240.457031 143.261719 L 238.484375 141.390625 L 238.785156 139.945312 L 236.945312 136.914062 L 237.277344 136.03125 L 236.726562 135.160156 L 238.199219 133.820312 L 237.789062 132.980469 L 238.285156 131.5 L 239.65625 131.253906 L 239.957031 129.398438 L 241.507812 128.308594 L 242.386719 129.019531 L 244.296875 128.503906 L 243.988281 124.671875 L 244.484375 123.984375 L 245.660156 123.464844 L 246.417969 124.109375 L 246.722656 123.585938 L 246.949219 121.382812 L 243.996094 120.050781 L 244.699219 118.5 L 243.957031 116.074219 L 247.320312 107.964844 L 250.816406 106.21875 L 250.433594 103.804688 L 251.371094 102.789062 L 250.128906 100.71875 L 250.78125 99.296875 L 250.652344 97.40625 L 251.269531 96.5625 L 251.273438 94.550781 L 253.269531 92.332031 L 253.644531 90.632812 L 252.625 84.492188 L 253.28125 83.925781 L 255.46875 85.257812 L 255.953125 83.191406 L 257.023438 82.472656 L 255.054688 79.890625 L 254.386719 79.980469 L 254.695312 77.472656 L 253.238281 74.949219 L 253.519531 74.472656 L 254.257812 74.726562 L 254.679688 72.195312 L 255.292969 72.460938 L 255.988281 71.261719 L 259.511719 70.011719 L 258.574219 68.949219 L 259.285156 68.644531 L 259.917969 65.664062 L 261.273438 66 L 263.207031 64.953125 L 262.777344 62.695312 L 263.4375 61.304688 L 262.410156 60.433594 L 262.800781 59.210938 L 262.136719 58.65625 L 262.773438 56.519531 L 262.273438 55.960938 L 261.648438 56.335938 L 261.683594 55.53125 L 261.027344 55.691406 L 260.859375 52.335938 L 259.484375 52.554688 L 260.113281 49.652344 L 259.171875 46.730469 L 260.257812 45.144531 L 263.113281 45.535156 L 264.234375 42.699219 L 263.070312 40.890625 L 260.941406 39.855469 L 261.035156 32.292969 L 263.503906 31.292969 L 261.859375 26.699219 L 262.496094 28.023438 L 263.738281 27.667969 L 263.257812 22.195312 L 264.066406 22.371094 L 264.242188 21.851562 L 263.140625 18.074219 L 264.238281 18.070312 L 264.523438 18.714844 L 265.824219 17.03125 L 268.417969 16.59375 L 269.738281 15.695312 L 269.871094 13.523438 L 270.511719 13 L 270.226562 12.265625 L 269.101562 11.996094 L 268.824219 11.066406 L 270.292969 9.949219 L 271.09375 10.292969 L 271.890625 8.46875 L 274.726562 9.917969 L 277.539062 10.117188 L 277.902344 13.261719 L 279.875 16.199219 L 279.914062 17.445312 L 282.753906 18.765625 L 283.59375 20.550781 L 285.289062 21.785156 L 284.9375 22.410156 L 286.5625 23.007812 L 287.21875 25.257812 L 285.605469 27.863281 L 290.179688 30.320312 L 291.300781 32.839844 L 295.234375 31.515625 L 297.8125 33.339844 L 299.992188 33.441406 L 300.933594 32.867188 L 301.050781 31.808594 L 302.394531 32.015625 L 303.394531 30.882812 L 304.746094 30.855469 L 304.398438 30.128906 L 305 29.351562 L 305.640625 29.472656 L 305.402344 31.171875 L 306.453125 31.359375 L 307.046875 32.378906 L 309.277344 32.140625 L 310.773438 30.871094 L 310.992188 31.773438 L 312.703125 32.351562 L 314.984375 32.703125 L 315.976562 31.65625 L 316.824219 31.914062 L 316.855469 33.5 L 318.363281 33.445312 L 318.84375 33.886719 L 318.320312 34.722656 L 319.105469 34.886719 L 318.019531 36.964844 L 318.71875 39.613281 L 317.074219 39.902344 L 315.769531 38.25 L 314.714844 41.078125 L 315.074219 42.519531 L 313.570312 44.644531 L 314.722656 45.101562 L 313.730469 46.820312 L 315.878906 46.980469 L 316.253906 48.367188 L 315.554688 49.054688 L 315.714844 49.804688 L 316.601562 50.273438 L 317.777344 49.667969 L 319.035156 51.117188 L 318.625 51.792969 L 319.300781 53.265625 L 321.640625 54.332031 L 321.203125 55.433594 L 323.304688 56.210938 L 322.503906 57.386719 L 323.816406 57.664062 L 323.988281 59.3125 L 325.855469 60.335938 L 326.59375 59.941406 L 327.175781 60.644531 L 327.589844 61.894531 L 326.691406 65.65625 L 328.488281 70.5 L 329.75 70.734375 L 330.414062 69.71875 L 331.238281 71.035156 L 332.625 70.6875 L 333.464844 71.273438 L 334.0625 70.550781 L 334.679688 71.308594 L 337.992188 70.035156 L 338.980469 70.5 L 339.8125 69.339844 L 339.890625 67.734375 L 340.460938 67.492188 L 341.242188 67.699219 L 341.699219 69.621094 L 344.195312 72.203125 L 343.738281 73.507812 L 344.667969 74.933594 L 344.558594 76.703125 L 343.804688 77.203125 L 343.960938 80.863281 L 342.925781 81.867188 L 340.925781 81.960938 L 341.078125 83.207031 L 340.460938 83.949219 L 340.734375 84.808594 L 342.859375 85.359375 L 342.039062 86.605469 L 342.347656 87.484375 L 341.746094 87.5 L 339.34375 91.230469 L 336.144531 90.976562 L 335.113281 91.75 L 333.109375 91.246094 L 332.738281 92.597656 L 331.621094 93.039062 L 331.894531 95.125 L 330.507812 97.363281 L 330.496094 99.5625 L 331.15625 99.363281 L 332.722656 101.125 L 334.992188 100.972656 L 334.683594 102.171875 L 333.632812 102.878906 L 333.742188 104.90625 L 333.203125 105.546875 L 334.746094 107.21875 L 335.21875 109.503906 L 336.921875 110.773438 L 337.0625 112.589844 L 335.886719 112.863281 L 335.582031 114.050781 L 334.011719 114.253906 L 332.804688 113.632812 L 331.28125 117.507812 L 330.113281 118.691406 L 328.753906 118.804688 L 328.082031 121.441406 L 327.183594 121.785156 L 325.5625 121.179688 L 324.902344 121.808594 L 320.628906 122.207031 L 319.363281 123.972656 Z M 316.605469 124.574219 "/>
    </g>
    <g>
      <path id="Lower-Colorado-river-basin" d="M 299.847656 258.023438 L 300.480469 260.804688 L 299.351562 263.230469 L 299.613281 264.242188 L 298.601562 265.722656 L 299.039062 267.621094 L 298.488281 268.15625 L 297.039062 267.777344 L 295.515625 269.050781 L 295.207031 270.417969 L 294.332031 270.273438 L 293.773438 271.3125 L 291.929688 272.414062 L 289.921875 271.71875 L 287.554688 272.425781 L 286.71875 274.835938 L 286.960938 276.078125 L 285.785156 276.773438 L 286.6875 278.816406 L 285.988281 278.980469 L 285.640625 280.085938 L 284.570312 279.789062 L 284.339844 278.609375 L 282.707031 278.164062 L 280.679688 273.769531 L 280.785156 271.820312 L 278.871094 270.308594 L 278.53125 268.570312 L 274.253906 268.640625 L 272.066406 269.59375 L 271.222656 269.09375 L 270.355469 271.15625 L 268.855469 271.863281 L 268.851562 273.558594 L 266.925781 276.410156 L 264.59375 276.511719 L 264.8125 278.257812 L 263.304688 281.097656 L 263.652344 282.859375 L 259.589844 284.992188 L 258.023438 288.492188 L 256.871094 289.578125 L 257.617188 290.984375 L 257.035156 292.054688 L 255.550781 291.792969 L 253.5625 293.378906 L 253.285156 287.71875 L 251.765625 287.667969 L 250.035156 288.871094 L 248.886719 288.835938 L 248.140625 289.914062 L 244.261719 289.539062 L 241.921875 288.441406 L 241.757812 289.101562 L 240.152344 289.789062 L 238.859375 288.617188 L 236.117188 288.324219 L 234.855469 288.980469 L 235.375 288.054688 L 234.367188 285.730469 L 235.558594 286.109375 L 236.601562 284.78125 L 234.644531 279.28125 L 232.253906 277.699219 L 231.75 276.675781 L 230.835938 276.542969 L 230.359375 277.167969 L 227.355469 277.441406 L 225.738281 279.171875 L 224.160156 278.96875 L 221.664062 272.902344 L 222.316406 270.332031 L 221.78125 267.722656 L 222.890625 266.890625 L 222.214844 265 L 221.960938 265.683594 L 220.316406 263.695312 L 219.523438 264.011719 L 212.957031 262.066406 L 212.707031 258.847656 L 209.089844 256.335938 L 206.300781 257.855469 L 205.910156 257.527344 L 205.828125 258.503906 L 203.28125 258.347656 L 195.992188 252.832031 L 194.09375 252.585938 L 192.570312 251.191406 L 191.832031 251.714844 L 191.78125 252.667969 L 192.402344 254.777344 L 188.65625 253.242188 L 186.921875 253.566406 L 186.242188 254.84375 L 185.609375 254.460938 L 186.296875 252.394531 L 185.519531 252.070312 L 185.523438 251.0625 L 186.109375 250.40625 L 183.925781 248.027344 L 183.222656 244.175781 L 181.359375 242.933594 L 182.285156 241.402344 L 182.257812 240.511719 L 181.414062 240.027344 L 185.820312 237.027344 L 186.210938 237.523438 L 189.496094 236.957031 L 191.40625 235.804688 L 191.785156 234.226562 L 193.542969 233.324219 L 193.90625 230.582031 L 192.6875 228.945312 L 194.339844 227.308594 L 193.828125 227.34375 L 193.675781 226.320312 L 192.574219 225.769531 L 191.902344 224.390625 L 190.105469 223.484375 L 189.09375 223.761719 L 185.410156 221.789062 L 185.691406 219.957031 L 183.910156 217.140625 L 183.824219 215.480469 L 185.070312 216.1875 L 185.238281 217.449219 L 188.726562 218.546875 L 190.789062 218.457031 L 192.949219 215.484375 L 192.769531 212.878906 L 191.214844 209.902344 L 191.691406 210.003906 L 192.804688 208.34375 L 195.539062 208.660156 L 196.496094 207.484375 L 195.941406 206.636719 L 195.953125 204.183594 L 193.332031 201.4375 L 192.34375 199.207031 L 193.230469 197.359375 L 192.417969 196.289062 L 192.46875 192.699219 L 193.816406 190.558594 L 193.679688 189.367188 L 192.480469 187.648438 L 190.1875 186.375 L 189.582031 186.617188 L 189.007812 184.765625 L 187.824219 183.5625 L 188.851562 183.054688 L 185.453125 180.929688 L 185.105469 179.96875 L 185.464844 178.875 L 186.980469 178.285156 L 187.003906 177.566406 L 188.613281 176.046875 L 188.753906 174.464844 L 187.9375 172.839844 L 190 172.554688 L 191.847656 174.328125 L 193.351562 174.085938 L 193.8125 171.136719 L 192.984375 170.09375 L 193.980469 169.640625 L 195.191406 167.699219 L 195.464844 165.9375 L 195.296875 164.710938 L 194.730469 165.105469 L 193.296875 163.910156 L 192.113281 164.777344 L 190.65625 164.601562 L 190.445312 166.3125 L 189.625 167.34375 L 188.851562 166.179688 L 187.605469 166.707031 L 185.617188 165.710938 L 184.925781 166.378906 L 183.828125 164.484375 L 182.394531 164.136719 L 183.039062 162.609375 L 182.089844 160.585938 L 182.324219 159.664062 L 180.085938 158.324219 L 179.46875 156.707031 L 180.285156 152.886719 L 182.015625 150.429688 L 182.675781 147.933594 L 185.894531 147.988281 L 188.664062 149.191406 L 190.011719 146.632812 L 189.667969 140.269531 L 188.355469 139.226562 L 187.609375 139.582031 L 186.300781 135.941406 L 186.480469 134.394531 L 185.125 133.066406 L 184.976562 131.929688 L 186.0625 128.464844 L 187.730469 128.042969 L 188.101562 125.839844 L 189.449219 125.1875 L 189.316406 124.351562 L 190.078125 124.03125 L 190.351562 122.539062 L 191.199219 121.777344 L 190.414062 119.753906 L 187.699219 117.289062 L 187.796875 116.542969 L 184.558594 114.261719 L 186.972656 112.445312 L 186.402344 111.164062 L 188.191406 108.523438 L 188.050781 105.164062 L 188.515625 104.730469 L 187.085938 102.648438 L 186.261719 102.710938 L 186.507812 98.9375 L 187.15625 98.453125 L 187.902344 99.316406 L 189.226562 98.917969 L 191.582031 96.609375 L 192.035156 94.773438 L 194.324219 97.054688 L 195.304688 103.132812 L 194.671875 103.488281 L 194.3125 106.613281 L 193.472656 107.835938 L 194.722656 110.738281 L 193.332031 113.179688 L 193.855469 113.835938 L 193.316406 115.1875 L 194.660156 116.667969 L 193.832031 118.09375 L 194.308594 122.511719 L 193.585938 123.546875 L 193.121094 128.949219 L 191.6875 132.09375 L 192.601562 135.136719 L 192.183594 136.765625 L 193.019531 137.804688 L 193.640625 137.28125 L 195.277344 138.085938 L 195.921875 137.515625 L 197.355469 134.089844 L 196.648438 131.910156 L 196.953125 131.011719 L 198.34375 128.210938 L 199.761719 128.15625 L 199.28125 121.082031 L 198.082031 117.917969 L 198.59375 116.078125 L 199.238281 116.570312 L 202.382812 116.449219 L 203.101562 117.464844 L 203.730469 114.835938 L 204.429688 114.308594 L 205.171875 115.863281 L 207.402344 116.71875 L 208.402344 120.203125 L 208.367188 123.726562 L 207.070312 124.785156 L 206.941406 126.292969 L 205.878906 126.847656 L 205.28125 128.515625 L 206.550781 129.84375 L 207.539062 129.292969 L 208.191406 129.738281 L 207.933594 130.710938 L 209.136719 131.394531 L 209.101562 132.164062 L 210.578125 133.625 L 212.09375 132.683594 L 213.613281 133.640625 L 214.707031 132.75 L 215.996094 133.917969 L 217.402344 134.09375 L 219.214844 132.78125 L 219.878906 131.347656 L 221.035156 132.304688 L 222.445312 131.808594 L 224.257812 132.628906 L 226.054688 131.152344 L 226.585938 131.757812 L 227.785156 131.316406 L 228.628906 132.910156 L 230.042969 133.40625 L 230.464844 134.9375 L 231.375 135.234375 L 232.738281 133.320312 L 234.289062 133.851562 L 235.78125 133.222656 L 235.542969 135.027344 L 236.820312 134.929688 L 236.945312 136.914062 L 238.785156 139.945312 L 238.484375 141.390625 L 240.457031 143.261719 L 240.304688 146.648438 L 241.3125 147.015625 L 242.03125 148.6875 L 243.503906 148.582031 L 244.976562 149.640625 L 247.96875 146.074219 L 249.089844 146.527344 L 248.375 150.054688 L 249.667969 151.578125 L 249.636719 153.570312 L 251.464844 151.472656 L 253.621094 154.148438 L 254.257812 153.359375 L 256.613281 153.105469 L 256.578125 153.621094 L 258.132812 154.097656 L 259.726562 153.285156 L 260.234375 152.253906 L 262.273438 151.960938 L 264.585938 148.253906 L 266.085938 147.878906 L 266.011719 149.210938 L 267.234375 150.742188 L 267.445312 152.902344 L 269.167969 150.839844 L 271.453125 150.789062 L 273.09375 154.15625 L 274.789062 154.882812 L 275.363281 154.292969 L 277.421875 156.257812 L 278.773438 156.394531 L 279.253906 158.75 L 276.816406 162.40625 L 279.03125 166.945312 L 278.671875 168.027344 L 280.441406 169.449219 L 281.359375 169.746094 L 282.011719 169.054688 L 282.683594 169.59375 L 283.914062 167.945312 L 284.582031 168.488281 L 285.820312 167.96875 L 287.421875 166.238281 L 289.730469 166.496094 L 291.941406 163.421875 L 292.410156 163.257812 L 292.722656 164.191406 L 293.882812 164.234375 L 295.390625 162.484375 L 296.171875 164.777344 L 295.859375 165.773438 L 294.824219 166 L 293.929688 167.238281 L 294.847656 170.21875 L 297.160156 170.894531 L 298.320312 172.144531 L 300.28125 169.898438 L 304.167969 170.195312 L 304.71875 170.96875 L 305.820312 170.417969 L 306.761719 171.082031 L 307.863281 170.828125 L 308.148438 171.730469 L 306.433594 174.773438 L 303.953125 177.222656 L 304.460938 177.808594 L 304.074219 179.046875 L 304.457031 180.417969 L 307.601562 181.796875 L 308.234375 183.152344 L 309.648438 184.082031 L 308.496094 184.789062 L 307.199219 187.722656 L 305.582031 189.210938 L 305.613281 191.609375 L 304.714844 191.292969 L 304.160156 193.273438 L 304.816406 193.933594 L 305.894531 193.542969 L 306.414062 195.804688 L 307.386719 196.351562 L 308.171875 196.011719 L 308.738281 197.339844 L 310.910156 198.355469 L 309.761719 199.109375 L 307.269531 203.742188 L 304.640625 205.289062 L 304.824219 207.054688 L 303.851562 207.480469 L 304.632812 208.933594 L 303.667969 209.410156 L 303.488281 210.71875 L 304.347656 210.871094 L 303.414062 212.160156 L 304.628906 213.011719 L 303.035156 213.695312 L 305.078125 214.703125 L 307.824219 212.421875 L 311.988281 211.726562 L 311.824219 210.570312 L 313.558594 211.058594 L 314.898438 210.71875 L 315.824219 211.226562 L 315.0625 212.65625 L 315.707031 213.421875 L 315.664062 215.023438 L 314.519531 216.585938 L 315.539062 218.214844 L 315.050781 219.164062 L 315.5625 219.914062 L 314.710938 221.695312 L 315.265625 222.144531 L 315.035156 222.992188 L 313.144531 223.957031 L 310.84375 227.738281 L 309.761719 227.859375 L 308.648438 229.253906 L 306.449219 229.746094 L 307.039062 230.703125 L 306.796875 233.492188 L 305.25 234.90625 L 305.726562 236.488281 L 308.820312 239.066406 L 309.503906 240.625 L 309.28125 244.972656 L 310.289062 246.328125 L 309.707031 247.0625 L 310.046875 247.695312 L 309.398438 247.097656 L 307.328125 247.308594 L 305.511719 248.238281 L 303.339844 245.242188 L 300.648438 245.335938 L 301.300781 247.769531 L 300.457031 249.675781 L 301.738281 253.777344 L 300.847656 255.332031 L 301.859375 255.519531 L 301.261719 256.902344 L 299.640625 256.699219 Z M 299.847656 258.023438 "/>
    </g>
  </g>
  <g id="co-river-polyline" fill="none" stroke-width="4.5" stroke="#1975d1" stroke-linejoin="round" style="stroke-linejoin:round;stroke-linecap:round">
    <g>
      <path id="Colorado-river" d="M 340.726562 68.242188 L 341.011719 74.253906 L 339.855469 75.253906 L 333.917969 76.898438 L 327.066406 80.664062 L 324.269531 81.324219 L 321.960938 86.300781 L 319.09375 88.292969 L 316.566406 88.171875 L 309.839844 89.578125 L 306.292969 91.320312 L 304.058594 93.585938 L 302.359375 98.078125 L 298.257812 99.65625 L 292.382812 97.105469 L 289.652344 98.945312 L 285.453125 107.082031 L 279.277344 113.742188 L 279.320312 115.65625 L 278.0625 118.019531 L 274.074219 122.605469 L 272.246094 123.554688 L 271.679688 125.066406 L 269.035156 124.859375 L 267.90625 128.460938 L 265.039062 131.667969 L 262.582031 136.863281 L 261.515625 136.792969 L 259.695312 140.976562 L 252.511719 143.699219 L 249.046875 146.542969 L 244.832031 153.886719 L 244.566406 155.800781 L 245.511719 160.710938 L 244.773438 163.210938 L 243.421875 163.875 L 240.652344 162.625 L 238.816406 162.625 L 235.589844 159.53125 L 234.640625 160.527344 L 233.429688 159.4375 L 234.65625 157.277344 L 233.515625 156.523438 L 231.296875 156.339844 L 229.53125 157.910156 L 223.027344 160.671875 L 221.453125 162.398438 L 219.828125 162.542969 L 219.398438 168.867188 L 217.691406 169.671875 L 213.191406 167.015625 L 211.429688 163.402344 L 209.757812 162.449219 L 208.117188 160.167969 L 206.679688 161.050781 L 205.742188 163.695312 L 203.703125 163.898438 L 202.085938 160.941406 L 198.4375 160.929688 L 195.566406 162.097656 L 196.785156 166.726562 L 196.132812 168.289062 L 196.699219 172.222656 L 196.371094 174.296875 L 198.109375 180.59375 L 198.128906 182.429688 L 197.03125 182.566406 L 196.898438 187.394531 L 199.542969 191.382812 L 201.0625 196.832031 L 202.566406 197.371094 L 205 199.839844 L 205.128906 200.90625 L 201.46875 202.777344 L 201.15625 203.660156 L 200.039062 203.75 L 199.738281 205.75 L 198.070312 207.203125 L 198.425781 211.035156 L 197.589844 215.917969 L 195.773438 218.25 L 194.652344 218.261719 L 195.09375 222.652344 L 194.394531 225.054688 L 195.039062 225.847656 L 198.082031 226.460938 L 198.503906 228.933594 L 198.039062 230.539062 L 196.601562 230.789062 L 196.222656 233.351562 L 193.835938 233.101562 L 192.441406 234.933594 L 192.140625 237.519531 L 190.050781 237.59375 L 189.667969 239.542969 L 187.722656 242.90625 L 185.632812 243.78125 L 185.308594 244.664062 L 185.820312 246.304688 L 187.851562 247.710938 L 188.296875 248.824219 L 192.035156 251.40625 "/>
    </g>
  </g>
  <defs>
    <radialGradient id="Gradient">
      <stop offset="0" stop-color="white" stop-opacity="1"/>
      <stop offset="0.35" stop-color="white" stop-opacity="1"/>
      <stop offset="1" stop-color="white" stop-opacity="0"/>
    </radialGradient>
  </defs>
  <defs>
    <radialGradient id="Gradient">
      <stop offset="0" stop-color="white" stop-opacity="1"/>
      <stop offset="0.35" stop-color="white" stop-opacity="1"/>
      <stop offset="1" stop-color="white" stop-opacity="0"/>
    </radialGradient>
    <mask id="non-lo-co-mask">
      <circle r="300" stroke="none" fill="url(#Gradient)" cx="220" cy="200"/>
    </mask>
    <mask id="mexico-mask">
      <circle r="300" stroke="none" fill="url(#Gradient)" cx="300" cy="200"/>
    </mask>
  </defs>
  <text x="320" y="230" fill="#B22C2C" text-anchor="start">Lower Colorado Basin</text>
  <text x="338" y="130" fill="#B22C2C" text-anchor="start">Upper Colorado Basin</text>
  <text x="345" y="70" fill="#1975d1" text-anchor="start">Colorado River</text>
</svg>
 