<?xml version="1.0" encoding="UTF-8"?>
<svg xmlns="http://www.w3.org/2000/svg" xmlns:xlink="http://www.w3.org/1999/xlink" preserveAspectRatio="xMinYMin meet" viewBox="0 0 540 547" version="1.1">
  <g id="delete_group"/>
  <g id="mexico" fill="none" stroke-width="2.5" stroke="#BBBBBB" stroke-linejoin="round">
    <g>
      <path id="Mexico" d="M 153.597656 367.347656 L 153.296875 367.160156 L 152.890625 369.410156 L 153.835938 373.011719 L 151.628906 377.394531 L 150.464844 388.128906 L 152.472656 391.257812 L 151.878906 392.722656 L 155.085938 395.585938 L 155.179688 404.1875 L 156.925781 408.742188 L 155.691406 417.976562 L 158.34375 423.667969 L 162.371094 427.496094 L 163.105469 431.125 L 164.769531 432.222656 L 165.882812 431.273438 L 167.847656 432.171875 L 183.136719 446.796875 L 182.597656 449.09375 L 185.738281 453.851562 L 185.050781 455.40625 L 186.039062 459.011719 L 187.320312 458.941406 L 187.308594 457.308594 L 189.878906 457.601562 L 190.675781 461.890625 L 193.605469 460.742188 L 195.015625 462.25 L 197.476562 471.210938 L 199.914062 472.730469 L 202.976562 472.195312 L 203.972656 473.75 L 204.542969 473.300781 L 203.761719 478.214844 L 206.136719 480.898438 L 205.578125 486.128906 L 206.769531 487.140625 L 206.464844 491.289062 L 207.898438 492.484375 L 208.355469 494.707031 L 211.335938 497.941406 L 217.828125 501.011719 L 219.378906 506.214844 L 222.386719 510.460938 L 221.890625 511.875 L 225.09375 514.078125 L 229.097656 515.21875 L 227.367188 518.996094 L 229.023438 520.894531 L 228.605469 521.402344 L 231.332031 523.480469 L 231.660156 524.941406 L 230.332031 526.964844 L 233.9375 531.734375 L 235.167969 532.582031 L 236.8125 531.050781 L 232.933594 527.011719 L 231.902344 522.113281 L 232.757812 521.449219 L 240.035156 527.621094 L 239.949219 531.949219 L 243.402344 533.207031 L 242.636719 536.34375 L 244.964844 539.257812 L 244.671875 541.332031 L 246.757812 546.203125 L 245.808594 550.589844 L 247.3125 556.347656 L 249.628906 557.832031 L 250.507812 561.304688 L 252.59375 563.988281 L 255.503906 564.332031 L 255.308594 566.554688 L 257.941406 571.273438 L 258.714844 575.839844 L 261.289062 579.234375 L 262.972656 579.867188 L 265.882812 586.28125 L 263.558594 592.214844 L 265.332031 600.324219 L 268.746094 604.761719 L 275.515625 605.839844 L 274.199219 606.710938 L 272.488281 605.984375 L 273.007812 607.976562 L 274.8125 607.757812 L 276.117188 605.851562 L 275.058594 601.460938 L 276.695312 600.265625 L 278.109375 600.578125 L 279.773438 603.394531 L 284.320312 605.910156 L 285.300781 609.824219 L 287.023438 610.265625 L 289.808594 609.214844 L 290.480469 610.5 L 289.574219 613.230469 L 293.605469 617.335938 L 293.761719 621.632812 L 300.339844 624.800781 L 300.007812 625.878906 L 302.007812 629.953125 L 300.777344 635.984375 L 297.484375 639.53125 L 294.203125 640.527344 L 289.878906 645.308594 L 285.835938 646.058594 L 282.828125 642.664062 L 280.4375 632.707031 L 275.828125 625.15625 L 267.289062 620.324219 L 255.03125 608.09375 L 242.617188 600.710938 L 241.070312 598.695312 L 239.589844 598.664062 L 237.5 593.835938 L 236.503906 593.363281 L 236.269531 594.824219 L 233.554688 594.578125 L 232.96875 592.960938 L 233.3125 594.691406 L 234.609375 595.542969 L 232.886719 595.710938 L 232.246094 591.707031 L 229.816406 588.253906 L 228.640625 587.234375 L 228.738281 588.660156 L 226.851562 588.589844 L 226.207031 585.753906 L 227.042969 586.195312 L 226.933594 585.445312 L 226.136719 585.726562 L 226.527344 588.105469 L 225.546875 589.019531 L 225.886719 587.871094 L 225.0625 586.808594 L 224.3125 587.210938 L 225.148438 585.675781 L 224.230469 584.4375 L 224.570312 582.425781 L 225.554688 582.519531 L 224.59375 582.242188 L 224.839844 580.210938 L 223.796875 582.035156 L 223.746094 586.320312 L 223.519531 584.78125 L 222.71875 586.128906 L 223.261719 582.863281 L 222.515625 581.667969 L 223.628906 581.527344 L 224.277344 579.261719 L 224.292969 578.179688 L 223.332031 578.386719 L 223.5 576.210938 L 224.480469 572.988281 L 225.542969 572.929688 L 224.726562 572.503906 L 225.609375 571.777344 L 225.261719 566.066406 L 227.058594 565.6875 L 225.175781 565.738281 L 225.492188 564.640625 L 225.945312 565.132812 L 225.640625 557.820312 L 225.003906 559.039062 L 222.40625 549.847656 L 219.925781 547.390625 L 220.191406 546.191406 L 220.089844 546.136719 L 219.480469 547.542969 L 216.292969 541.675781 L 214.742188 541.164062 L 213.796875 542.109375 L 209.964844 539.320312 L 208.679688 539.480469 L 205.628906 536.578125 L 206.222656 535.847656 L 205.382812 536.390625 L 200.800781 532.757812 L 204.976562 535.035156 L 204.394531 534.289062 L 202.40625 532.75 L 200.441406 532.617188 L 197.910156 530.382812 L 197.792969 530.101562 L 196.34375 529.394531 L 196.605469 528.699219 L 197.746094 529.992188 L 197.519531 529.449219 L 198.3125 529.292969 L 195.578125 525.863281 L 196.3125 524.398438 L 195.167969 524.386719 L 194.648438 525.644531 L 193.023438 524.667969 L 194.371094 524.480469 L 195.988281 522.484375 L 195.339844 518.277344 L 194.183594 522.683594 L 192.285156 523.628906 L 192.421875 525.738281 L 187.085938 523.976562 L 188.925781 523.738281 L 187.488281 523.195312 L 186.332031 523.578125 L 186.890625 523.96875 L 185.613281 524.453125 L 184.515625 526.652344 L 183.203125 526.652344 L 183.324219 526.75 L 183.179688 526.652344 L 182.527344 526.652344 L 181.351562 525.433594 L 179.34375 524.09375 L 178.074219 520.582031 L 176.191406 518.777344 L 173.441406 517.792969 L 171.9375 518.648438 L 167.785156 513.714844 L 164.9375 512.878906 L 163.828125 513.773438 L 161.507812 511.980469 L 160.003906 512.027344 L 159.972656 510.972656 L 158.550781 510.371094 L 158.019531 504.566406 L 151.820312 501.035156 L 150.351562 498.1875 L 148.109375 497.203125 L 148.863281 497.09375 L 148.476562 495.6875 L 147.410156 496.554688 L 145.9375 494.886719 L 144.503906 494.867188 L 142.464844 490.714844 L 158.609375 493.421875 L 161.175781 491.996094 L 162.816406 492.289062 L 163.039062 491.261719 L 161.667969 491.640625 L 163.671875 490.226562 L 164.382812 490.847656 L 164.070312 494.242188 L 167.898438 496.71875 L 169.53125 498.902344 L 171.300781 496.820312 L 170.019531 496.53125 L 170.628906 496.175781 L 173.550781 497.242188 L 174.472656 495.910156 L 174.59375 497.628906 L 173.5 497.53125 L 175.070312 500.613281 L 176.042969 500.800781 L 176.742188 499.507812 L 175.066406 497.871094 L 175.199219 496.515625 L 176.421875 497.332031 L 175.421875 496.246094 L 175.269531 492.242188 L 173.070312 490.632812 L 173.5625 491.878906 L 172.453125 494.015625 L 173.359375 494.460938 L 171.59375 494.664062 L 170.566406 492.675781 L 171.34375 494.9375 L 169.148438 495.710938 L 167.289062 494.242188 L 168.25 494.359375 L 167.476562 492.125 L 168.863281 490.152344 L 167.972656 489.390625 L 168.652344 489.621094 L 167.90625 488.777344 L 168.410156 488.023438 L 164.921875 489.679688 L 165.101562 488.316406 L 168.902344 483.925781 L 169.34375 485.105469 L 168.335938 486.324219 L 169.425781 488.855469 L 169.898438 488.035156 L 204.910156 488.585938 L 169.902344 488.03125 L 169.257812 485.402344 L 170.300781 487.269531 L 171.601562 485.304688 L 169.820312 484.785156 L 169.449219 482.8125 L 171 480.335938 L 170.992188 483.640625 L 171.367188 480.59375 L 170.847656 478.601562 L 169.21875 478.566406 L 171.5625 472.25 L 170.140625 469.523438 L 168.472656 468.902344 L 168.371094 466.527344 L 165.484375 465.929688 L 165.109375 464.476562 L 163.421875 463.707031 L 161.695312 459.128906 L 156.992188 456.269531 L 155.984375 452.328125 L 153.542969 451.671875 L 152.871094 449.414062 L 150.964844 448.339844 L 146.875 443.195312 L 140.886719 441.402344 L 139.269531 438.613281 L 135.847656 437.195312 L 133.753906 435.042969 L 132.453125 435.28125 L 127.332031 430.777344 L 127.382812 426.253906 L 126.320312 424.742188 L 124.441406 424.59375 L 125.410156 421.875 L 124.835938 413.695312 L 122.128906 410.410156 L 120.207031 410.714844 L 121.476562 410.050781 L 121.65625 408.648438 L 120.199219 407.027344 L 121.078125 408.996094 L 120.476562 409.589844 L 119.222656 408.726562 L 120.40625 411.511719 L 119.761719 411.652344 L 118.605469 408.089844 L 119.425781 402.34375 L 118.734375 397.980469 L 115.652344 395.847656 L 113.308594 392.503906 L 111.425781 392.316406 L 112.417969 386.65625 L 111.125 383.722656 L 107.085938 377.605469 L 104.972656 376.632812 L 102.703125 373.683594 L 103.835938 372.8125 L 103.992188 370.390625 L 101.527344 367.703125 L 103.738281 368.582031 L 104.738281 367.15625 L 103.851562 368.5625 L 104.542969 369.355469 L 105.117188 364.519531 L 101.726562 362.761719 L 101.195312 360.558594 L 98.324219 358.976562 L 97.621094 352.730469 L 94.480469 350.429688 L 92.632812 342.667969 L 156.300781 339.226562 L 153.851562 342.328125 L 153.667969 346.132812 L 252.664062 383.371094 L 329.238281 381.636719 L 328.765625 367.59375 L 373.515625 365.71875 L 374.644531 366.8125 L 377.433594 367.128906 L 382.683594 375.238281 L 389.542969 378.039062 L 394.78125 383.910156 L 399.507812 386.339844 L 400.78125 389.066406 L 405.238281 392.046875 L 405.371094 393.183594 L 410.355469 394.351562 L 414.699219 397.753906 L 416.339844 397.78125 L 417.269531 399.949219 L 418.722656 400.117188 L 420.90625 406.8125 L 425.234375 411.28125 L 426.464844 421.082031 L 429.882812 425.359375 L 431.746094 429.726562 L 435.511719 432.382812 L 440.28125 433.933594 L 441.738281 436.632812 L 444.976562 438.488281 L 452.507812 439.941406 L 452.691406 441.195312 L 454.472656 442.433594 L 459.003906 442.863281 L 461.429688 445.625 L 464.523438 446.808594 L 465.457031 446.085938 L 466.828125 447.949219 L 471.464844 447.460938 L 471.738281 445.070312 L 473.398438 443.699219 L 474.292969 441.125 L 477.746094 439.460938 L 476.5625 438.414062 L 476.996094 435.46875 L 478.683594 433.828125 L 478.652344 429.914062 L 481.835938 422.683594 L 483.074219 422.851562 L 484.636719 421.609375 L 485.242188 422.371094 L 486.058594 421.09375 L 489.558594 421.507812 L 490.003906 418.792969 L 491.128906 417.6875 L 498.1875 419.980469 L 500.660156 418.8125 L 502.007812 419.710938 L 504.046875 418.808594 L 504.929688 419.308594 L 504.953125 418.59375 L 505.386719 419.535156 L 509.894531 419.964844 L 511.742188 419.300781 L 512.453125 417.917969 L 512.816406 419.535156 L 514.90625 418.410156 L 515.339844 419.613281 L 516.585938 418.882812 L 516.15625 419.628906 L 517.902344 422.507812 L 519.480469 422.292969 L 519.65625 424.660156 L 521.128906 423.035156 L 521.152344 426.257812 L 526.703125 427.75 L 528.394531 430.394531 L 534.078125 433.304688 L 535.441406 436.046875 L 538.351562 437.855469 L 539.9375 443.785156 L 543.199219 446.933594 L 544.625 451.324219 L 547.738281 453.503906 L 548.246094 455.65625 L 549.722656 456.019531 L 548.847656 456.835938 L 552.117188 463.476562 L 554.25 465.324219 L 557.792969 466.429688 L 561.101562 470.945312 L 562.4375 471.207031 L 564.703125 476.945312 L 566.585938 477.492188 L 569.582031 480.804688 L 571.910156 481.574219 L 573.003906 481.015625 L 575.589844 483.097656 L 575.417969 485.226562 L 576.816406 485.867188 L 576.539062 490.226562 L 575.660156 491.089844 L 578.554688 492.792969 L 579.324219 500.097656 L 584.652344 505.0625 L 588.296875 511.921875 L 588.609375 514.511719 L 590.859375 515.925781 L 590.617188 517.878906 L 591.457031 518.65625 L 594.898438 518.386719 L 595.703125 519.242188 L 596.113281 518.46875 L 596.980469 519.570312 L 599.667969 518.925781 L 603.789062 522.613281 L 605.941406 521.695312 L 608.691406 523.046875 L 610.394531 522.421875 L 612.183594 524.390625 L 613.597656 523.953125 L 614.671875 525.765625 L 615.316406 524.96875 L 615.257812 525.804688 L 617.9375 527.015625 L 621.203125 526.125 L 621.460938 527.257812 L 622.730469 526.167969 L 629.195312 525.546875 L 630.457031 526.53125 L 633.84375 526.109375 L 635.089844 528.089844 L 636.300781 528.238281 L 635.875 528.863281 L 637.222656 528.828125 L 637.875 530.136719 L 639.800781 530.015625 L 640.742188 531.328125 L 641.121094 530.613281 L 641.386719 531.351562 L 642.320312 531.003906 L 642.128906 528.820312 L 644.640625 527.882812 L 644.316406 527.140625 L 648.417969 526.4375 L 648.429688 535.796875 L 643.113281 550.507812 L 642.070312 550.390625 L 644.019531 546.359375 L 643.25 546.238281 L 643.347656 546.027344 L 641.804688 546.597656 L 643.308594 545.011719 L 641.441406 544.933594 L 641.71875 543.859375 L 640.808594 544.691406 L 639.191406 543.253906 L 638.019531 544.730469 L 639.035156 544.40625 L 640.015625 545.226562 L 639.726562 546.28125 L 640.242188 545.835938 L 640.929688 546.828125 L 638.867188 546.644531 L 639.652344 549.308594 L 638.65625 549.46875 L 638.4375 548.011719 L 637.371094 548.84375 L 636.523438 548.132812 L 637.007812 546.910156 L 636.058594 546.683594 L 634.332031 547.34375 L 634.574219 549.066406 L 634.984375 548.121094 L 634.375 550.871094 L 632.171875 549.78125 L 634.136719 551.679688 L 634.910156 551.257812 L 635.046875 552.664062 L 636.136719 553.300781 L 635.527344 556.238281 L 634.113281 556.746094 L 635.535156 556.46875 L 634.535156 558.039062 L 635.378906 558.503906 L 633.949219 560.457031 L 635.300781 559.804688 L 637.582031 561.296875 L 635.914062 562.582031 L 635.257812 561.984375 L 635.664062 563.453125 L 634.875 563.761719 L 636.265625 564.976562 L 634.671875 566.367188 L 636.414062 566.148438 L 635.769531 566.519531 L 636.464844 566.703125 L 636.316406 568.527344 L 634.976562 569.582031 L 636.679688 568.875 L 635.839844 570.015625 L 636.792969 569.703125 L 636.378906 575.253906 L 635.40625 574.847656 L 635.371094 573.097656 L 633.929688 573.558594 L 633.695312 572.503906 L 632.585938 574.519531 L 633.402344 575.324219 L 634.171875 574.65625 L 633.113281 576.386719 L 633.949219 577.769531 L 635.1875 577.902344 L 633.820312 577.925781 L 635.390625 580.8125 L 635.191406 577.765625 L 636.394531 576.480469 L 636.8125 588.148438 L 636.273438 588.804688 L 636.347656 587.53125 L 635.199219 587.746094 L 636.414062 590.152344 L 636.820312 588.703125 L 637.78125 597.5625 L 638.78125 597.441406 L 638.460938 594.152344 L 639.042969 598.003906 L 637.566406 597.851562 L 638.488281 598.273438 L 638.488281 598.441406 L 639.019531 598.105469 L 639.164062 609.605469 L 638.984375 608.867188 L 638.414062 609.503906 L 639.175781 609.746094 L 640.792969 626.234375 L 640.121094 629.375 L 640.085938 629.734375 L 640.007812 629.894531 L 639.3125 633.148438 L 639.6875 630.5625 L 637.84375 634.386719 L 638.949219 637.09375 L 639.183594 633.035156 L 639.628906 638.953125 L 638.519531 639.628906 L 639.636719 639.265625 L 638.957031 639.785156 L 639.890625 643.0625 L 639.53125 640.148438 L 641.316406 644.957031 L 642.53125 645.902344 L 642.316406 648.675781 L 645.363281 655.140625 L 643.078125 651.980469 L 645.117188 655.714844 L 645.335938 659.679688 L 647.097656 664.878906 L 650.796875 670.738281 L 652.703125 670.300781 L 653.378906 671.019531 L 653.753906 674.492188 L 655.464844 676.316406 L 654.894531 674.0625 L 656.578125 669.96875 L 656.292969 668.203125 L 648.519531 660.964844 L 645.414062 655.242188 L 650.347656 661.28125 L 657.855469 666.894531 L 657.316406 671.15625 L 655.742188 676.609375 L 656.085938 676.976562 L 664.910156 695.070312 L 689.53125 719.328125 L 692.546875 726.808594 L 691.929688 727.296875 L 694.664062 730.609375 L 694.09375 733.011719 L 695.929688 736.027344 L 695.15625 735.945312 L 700.03125 738.695312 L 701.214844 738.398438 L 700.792969 738.90625 L 702.558594 740.652344 L 701.847656 742.460938 L 706.316406 743.246094 L 708.039062 748.433594 L 710.246094 750.097656 L 713.910156 751.003906 L 713.746094 752.011719 L 709.933594 750.613281 L 711.9375 752.707031 L 710.703125 753.828125 L 712.300781 753.59375 L 712.433594 752.554688 L 714.011719 752.667969 L 714.152344 751.117188 L 719.875 753 L 731.566406 752.175781 L 734.734375 753.898438 L 736.371094 756.058594 L 743.4375 756.601562 L 746.253906 761.007812 L 750.039062 764.011719 L 750.898438 766.8125 L 754.664062 768.066406 L 760.519531 766.691406 L 773.792969 761.253906 L 773.179688 762.976562 L 775.300781 762.75 L 777.136719 761.855469 L 776.769531 760.484375 L 777.617188 759.859375 L 781.757812 759.601562 L 782.410156 758.769531 L 781.789062 757.378906 L 788.011719 755.902344 L 786.261719 755.804688 L 786.910156 755.582031 L 795.148438 754.347656 L 794.042969 755.25 L 795.148438 754.832031 L 794.414062 755.613281 L 794.828125 756.882812 L 796.546875 756.039062 L 796.242188 757.5625 L 797.878906 755.53125 L 795.179688 754.964844 L 795.457031 754.296875 L 803.125 753.421875 L 806.636719 750.996094 L 808.773438 747.054688 L 817.601562 744.523438 L 831.15625 741.917969 L 834.644531 744.351562 L 834.296875 745.488281 L 832.433594 745.898438 L 832.152344 744.476562 L 831.144531 745.6875 L 830.183594 745.257812 L 830.164062 745.976562 L 831.089844 745.796875 L 830.679688 747.257812 L 830.226562 746.375 L 829.074219 747.921875 L 831.699219 747.894531 L 831.429688 745.703125 L 832.765625 746.640625 L 833.511719 746.066406 L 835.257812 747.8125 L 843.660156 748.902344 L 845.792969 748.488281 L 846.453125 746.722656 L 851.054688 744.570312 L 851.894531 744.074219 L 853.832031 737.394531 L 851.535156 736.207031 L 850.492188 737.3125 L 848.351562 736.324219 L 848.871094 734.324219 L 849.675781 734.28125 L 848.949219 733.796875 L 856.539062 727.769531 L 849.019531 732.773438 L 847.636719 735.453125 L 846.949219 735.636719 L 847.546875 734.265625 L 845.917969 737.335938 L 845.089844 737.1875 L 847.933594 733.46875 L 855.597656 728.125 L 865.972656 717.449219 L 867.148438 715.359375 L 866.386719 708.8125 L 866.9375 706.554688 L 866.058594 705.085938 L 867.113281 702.195312 L 871.394531 698.019531 L 872.746094 694.980469 L 871.074219 691.566406 L 869.875 679.957031 L 868.925781 678.324219 L 869.714844 678.039062 L 868.78125 677.332031 L 869.839844 672.59375 L 869.375 670.1875 L 870.265625 667.574219 L 870.851562 661.601562 L 872.507812 658.832031 L 878.296875 653.925781 L 885.378906 650.527344 L 884.238281 650.433594 L 885.53125 649.667969 L 889.777344 648.03125 L 887.082031 649.625 L 887.746094 649.675781 L 890.730469 648.375 L 889.765625 647.894531 L 915.804688 640.125 L 921.636719 636.832031 L 921.710938 635.851562 L 920.066406 637.550781 L 922.347656 634.820312 L 928.640625 632.433594 L 932.679688 632.105469 L 936.457031 630.03125 L 935.234375 629.777344 L 936.324219 629.195312 L 941.957031 628.785156 L 939.117188 629.875 L 946.027344 629.820312 L 948.722656 631.339844 L 954.050781 630.734375 L 951.613281 630.363281 L 957.304688 630.488281 L 957.890625 631.339844 L 959.160156 630.738281 L 965.953125 631.386719 L 966.011719 630.464844 L 967.625 630.953125 L 966.957031 630.324219 L 969.089844 628.972656 L 969.140625 626.84375 L 968.109375 626.292969 L 968.75 625.183594 L 971.8125 625.597656 L 973.132812 626.847656 L 972.347656 625.277344 L 976.460938 629.960938 L 978.324219 634.574219 L 979.320312 635.015625 L 978.828125 634.097656 L 979.660156 631.945312 L 980.308594 637.132812 L 982.632812 638.265625 L 982.003906 641.875 L 980.988281 642.324219 L 979.976562 648.816406 L 974.3125 658.328125 L 969.371094 664.082031 L 966.136719 672.074219 L 965.179688 677.292969 L 965.433594 679.683594 L 967.691406 683.40625 L 966.992188 687.1875 L 966.332031 686.578125 L 967.660156 683.4375 L 966.214844 681.6875 L 966.925781 684.550781 L 966.003906 686.417969 L 963.480469 687.414062 L 961.589844 693.644531 L 960.832031 693.371094 L 961.6875 692.976562 L 961.773438 691.125 L 959 692.132812 L 959.304688 694.84375 L 961.925781 695.851562 L 961.714844 697.863281 L 963.566406 695.472656 L 965.527344 694.726562 L 966.828125 695.335938 L 967.4375 694.085938 L 966.324219 693.628906 L 969.339844 693.585938 L 969.015625 692.410156 L 968.105469 692.929688 L 968.160156 691.527344 L 969.835938 693.1875 L 969.519531 697.433594 L 967.171875 700.34375 L 965.652344 700.496094 L 966.640625 700.296875 L 966.605469 699.289062 L 964.917969 700.386719 L 963.785156 701.589844 L 963.496094 704.042969 L 962.558594 703.726562 L 963.5625 705.394531 L 962.277344 706.800781 L 963.316406 706.597656 L 964.195312 708.097656 L 966.984375 703.492188 L 968.6875 702.464844 L 968.332031 704.910156 L 968.90625 702.480469 L 969.207031 703.167969 L 969.402344 702.367188 L 970.140625 702.714844 L 967.726562 706.644531 L 967.980469 710.761719 L 964.609375 724.238281 L 964.382812 734.082031 L 962.886719 737.683594 L 962.882812 742 L 961.636719 741.285156 L 962.1875 740.5 L 961.011719 741.285156 L 961.015625 736.859375 L 958.898438 735.679688 L 958.960938 734.320312 L 954.207031 733.410156 L 955.75 726.785156 L 954.921875 725.910156 L 955.15625 723.375 L 953.488281 722.230469 L 953.085938 720.410156 L 951.582031 722.230469 L 950.910156 725.535156 L 950.394531 723.945312 L 949.035156 726.273438 L 949.171875 727.234375 L 950.617188 726.152344 L 947.421875 733.847656 L 941.480469 734.640625 L 940.179688 735.992188 L 936.097656 750.03125 L 932.089844 755.105469 L 932.492188 757.113281 L 926.015625 753.324219 L 922.558594 755.878906 L 923.058594 760.113281 L 865.03125 767.222656 L 866.878906 785.511719 L 852.789062 787.402344 L 856.101562 789.757812 L 858.203125 789.375 L 858.542969 790.855469 L 862.015625 794 L 863.550781 794.171875 L 866.066406 797.734375 L 868.722656 798.761719 L 869.34375 797.476562 L 869.089844 798.691406 L 870.191406 798.636719 L 870.875 799.878906 L 874.683594 800.183594 L 877.699219 802.15625 L 879.761719 804.734375 L 880.070312 806.230469 L 879.308594 806.40625 L 880.945312 806.738281 L 880.664062 808.785156 L 881.890625 808.902344 L 881.179688 809.921875 L 883.980469 809.613281 L 886.21875 810.042969 L 886.125 811.316406 L 889.214844 811.367188 L 889.984375 812.707031 L 888.6875 812.992188 L 888.964844 814.605469 L 888.035156 815.148438 L 888.628906 816.546875 L 887.769531 816.894531 L 888.609375 817.351562 L 887.957031 818.863281 L 888.980469 819.546875 L 888.121094 821.628906 L 889.183594 821.703125 L 888.679688 822.742188 L 847.789062 826.703125 L 834.875 854.9375 L 840.394531 860.824219 L 837.859375 863.9375 L 838.332031 867.097656 L 837.152344 868.972656 L 838.828125 874.324219 L 836.910156 878.914062 L 814.898438 860.359375 L 815.269531 859.628906 L 815.488281 859.6875 L 814.921875 858.65625 L 815.058594 859.75 L 813.6875 859.226562 L 814.550781 860.058594 L 802.257812 849.9375 L 798.800781 847.734375 L 798.871094 847.785156 L 798.6875 847.664062 L 788.574219 841.210938 L 778.304688 836.382812 L 780.734375 835.945312 L 780.136719 834.003906 L 779.234375 833.15625 L 773.289062 832.402344 L 771.8125 829.3125 L 769.117188 830.726562 L 765.132812 829.429688 L 763.597656 827.636719 L 762.5 828.269531 L 762.820312 829.714844 L 761.816406 829.625 L 763.617188 830.425781 L 761.84375 830.445312 L 766.761719 832.238281 L 764.789062 831.417969 L 768.90625 831.40625 L 771.066406 832.636719 L 769.492188 832.59375 L 774 834.460938 L 771.703125 833.3125 L 773.121094 833.289062 L 775.238281 835.65625 L 777.316406 836.34375 L 764.5625 832.222656 L 753.035156 831.355469 L 752.816406 830.769531 L 756.378906 829.058594 L 757.207031 826.90625 L 754.152344 826.242188 L 750.488281 829.570312 L 749.972656 828.855469 L 751.261719 827.617188 L 748.792969 824.621094 L 747.582031 824.519531 L 746.125 825.304688 L 745.03125 828.015625 L 743.183594 828.328125 L 742.230469 830.023438 L 745.515625 830.828125 L 742.019531 830.511719 L 741.132812 831.570312 L 752.355469 831.480469 L 739.285156 832.988281 L 739.867188 833.921875 L 736.117188 834.914062 L 736.820312 835.089844 L 736.15625 836.136719 L 733.785156 837.257812 L 733.519531 839.210938 L 731.539062 840.804688 L 730.417969 840.804688 L 730.871094 840.28125 L 727.191406 841.496094 L 724.664062 843.410156 L 721.25 844.257812 L 721.195312 845.027344 L 715.472656 846.878906 L 707.296875 852.21875 L 701.40625 852.222656 L 697.425781 853.773438 L 692.902344 852.15625 L 687.84375 851.839844 L 675.8125 846.519531 L 658.660156 846.117188 L 645.441406 839.199219 L 634.421875 837.152344 L 627.050781 829.925781 L 622.988281 830.851562 L 609.792969 827.785156 L 599.875 827.230469 L 593.359375 824.445312 L 594.046875 824.121094 L 592.789062 823.871094 L 593.199219 822.539062 L 591.585938 823.503906 L 589.320312 821.109375 L 555.914062 811.742188 L 556.050781 810.460938 L 551.398438 806.863281 L 543.46875 804.21875 L 543.835938 802.957031 L 541.878906 801.277344 L 540.4375 801.664062 L 540.390625 800.796875 L 539.796875 801.367188 L 538.695312 800.179688 L 537.304688 800.230469 L 537.535156 798.964844 L 534.226562 796.277344 L 532.960938 793.992188 L 527.429688 791.113281 L 523.378906 790.847656 L 521.695312 792.628906 L 520.738281 791.757812 L 521.363281 792.863281 L 520.632812 793.167969 L 512.058594 790.390625 L 503.304688 789.144531 L 495.050781 785.882812 L 484.976562 783.980469 L 480.882812 782.109375 L 477.929688 776.609375 L 473.980469 774.027344 L 474.753906 773.074219 L 474.1875 772.027344 L 466.230469 765.726562 L 454.902344 761.652344 L 456.054688 759.761719 L 454.144531 759.417969 L 453.933594 758.539062 L 451.539062 759.730469 L 449.3125 758.207031 L 443.929688 757.234375 L 444.050781 756.417969 L 445.035156 756.777344 L 443.960938 755.8125 L 440.375 755.464844 L 440.667969 753.425781 L 438.339844 754.214844 L 433.683594 751.019531 L 433.988281 749.988281 L 432.28125 748.378906 L 431.691406 745.59375 L 426.355469 742.117188 L 417.410156 729.453125 L 417.25 725.503906 L 414.011719 722.59375 L 412.765625 719.757812 L 416.226562 717.289062 L 423.773438 716.101562 L 425.792969 713.871094 L 425.800781 711.503906 L 422.617188 708.4375 L 420.679688 709.289062 L 416.921875 708.34375 L 418.375 707.476562 L 423.214844 699.714844 L 424.421875 700.082031 L 425.425781 698.917969 L 425.84375 694.316406 L 424.710938 689.921875 L 426.308594 686.355469 L 425.109375 684.398438 L 423.96875 684.804688 L 418.5 681.453125 L 416.21875 675.835938 L 412.515625 670.792969 L 412.304688 664.308594 L 415.660156 667.914062 L 416.226562 667.664062 L 415.40625 667.089844 L 416.59375 667.320312 L 416.660156 667.402344 L 417.183594 665.765625 L 414.539062 664.121094 L 415.304688 665.992188 L 414.109375 664.945312 L 414.199219 663.1875 L 413.277344 663.972656 L 412.886719 663.328125 L 410.496094 652.191406 L 410.753906 651.558594 L 410.378906 651.167969 L 410.289062 650.960938 L 410.109375 654.988281 L 410.695312 655.441406 L 410.351562 652.207031 L 412.820312 664.085938 L 412.007812 663.992188 L 410.46875 657.953125 L 408.261719 653.550781 L 409.480469 654.5 L 404.9375 648.242188 L 399.90625 644.597656 L 400.539062 644.101562 L 399.730469 644.402344 L 391.335938 635.761719 L 388.359375 634.121094 L 389.476562 633.109375 L 391.460938 634.890625 L 391.007812 634.195312 L 389.238281 632.769531 L 388.054688 634.160156 L 388.230469 632.921875 L 386.039062 630.277344 L 386.175781 629.171875 L 379.910156 621.976562 L 376.5625 619.78125 L 376.789062 618.0625 L 374.023438 613.953125 L 365.140625 606.300781 L 370.175781 610.066406 L 365.902344 606.171875 L 369.050781 607.945312 L 366.023438 605.734375 L 366.460938 604.808594 L 365.3125 604.300781 L 365.746094 605.839844 L 364.664062 605.535156 L 347.230469 594.347656 L 347.792969 593.863281 L 356.425781 599.433594 L 354.367188 597.578125 L 356.132812 598.472656 L 356.628906 597.0625 L 354.375 593.363281 L 352.640625 593.652344 L 353.84375 594.300781 L 352.070312 595.671875 L 350.605469 593.800781 L 348.75 594.257812 L 348.957031 593.253906 L 342.144531 589.4375 L 342.050781 588.460938 L 342.0625 589.644531 L 344.566406 591.652344 L 341.492188 589.59375 L 340.980469 587.269531 L 339.449219 585.683594 L 341.605469 586.730469 L 342.378906 585.011719 L 340.859375 583.84375 L 341.441406 579.960938 L 340.097656 579.074219 L 339.269531 576.34375 L 337.320312 575.160156 L 337.457031 575.804688 L 336.453125 575.660156 L 333.882812 572.863281 L 332.015625 573.054688 L 331.882812 571.378906 L 330.429688 570.949219 L 330.039062 573.382812 L 324.757812 568.628906 L 325.589844 569.75 L 319.625 568.050781 L 322.121094 567.871094 L 323.335938 568.714844 L 321.835938 566.8125 L 319.898438 567.09375 L 319.460938 565.113281 L 318.390625 566.390625 L 319.304688 563.160156 L 318.742188 562.386719 L 317.582031 563.042969 L 316.195312 561.554688 L 315.078125 562.105469 L 315.699219 563.796875 L 314.640625 565.316406 L 313.144531 563.707031 L 311.683594 564.179688 L 312.480469 565.003906 L 311.265625 565.160156 L 309.066406 562.609375 L 309.960938 563.335938 L 310.382812 562.476562 L 310.710938 563.457031 L 310.449219 562.242188 L 311.003906 562.921875 L 311.707031 562.371094 L 310.652344 561.875 L 311.117188 561.121094 L 312.054688 562.113281 L 312.722656 561.65625 L 312.941406 562.671875 L 313.292969 560.484375 L 314.535156 560.242188 L 314.121094 558.589844 L 311.941406 559.105469 L 310.683594 561.535156 L 310.765625 560.824219 L 310.097656 561.585938 L 309.003906 560.769531 L 309.46875 561.875 L 308.148438 561.390625 L 306.890625 558.578125 L 304.976562 557.890625 L 305.804688 559.597656 L 304.871094 559.675781 L 307.070312 560.210938 L 307.90625 562.191406 L 305.332031 559.925781 L 301.246094 559.945312 L 303.351562 559.351562 L 301.800781 559.449219 L 302.332031 558.929688 L 304.21875 559.507812 L 304.367188 557.488281 L 301.71875 555.601562 L 301.078125 558.589844 L 300.082031 554.71875 L 300.9375 550.789062 L 299.675781 550.667969 L 299.859375 548.734375 L 300.765625 548.769531 L 300.007812 548.476562 L 301.738281 545.371094 L 301.535156 545.488281 L 304.945312 538.75 L 303.910156 544.253906 L 305.984375 537.871094 L 307.53125 539.015625 L 306.933594 540.75 L 307.585938 540.5 L 308.882812 542.699219 L 308.539062 540.898438 L 309.382812 539.613281 L 308.121094 539.277344 L 306.730469 536.203125 L 306.035156 535.828125 L 306.515625 537.417969 L 305.273438 536.1875 L 304.792969 533.800781 L 304.644531 538.640625 L 304.105469 532.535156 L 300.347656 528.257812 L 298.078125 527.4375 L 299.636719 527.726562 L 298.113281 525.542969 L 297.417969 526.246094 L 296.851562 525.109375 L 296.09375 526.417969 L 297.421875 526.785156 L 295.855469 526.941406 L 297.796875 527.839844 L 293.605469 527.113281 L 292.566406 527.789062 L 288.847656 525.65625 L 285.015625 517.925781 L 286.703125 519.773438 L 285.824219 515.8125 L 284.28125 514.488281 L 282.097656 513.996094 L 281.863281 515.375 L 279.152344 514.148438 L 279.984375 513.917969 L 275.085938 513.1875 L 271.539062 509.773438 L 268.902344 508.984375 L 271.046875 508.59375 L 269.597656 506.03125 L 267.808594 506.511719 L 269.078125 505.234375 L 267.949219 505.773438 L 268.3125 504.585938 L 267.847656 505.023438 L 267.429688 503.992188 L 268.335938 503.765625 L 267.363281 503.109375 L 266.925781 504.359375 L 267.316406 501.789062 L 265.835938 498.613281 L 266.097656 497.230469 L 266.394531 497.222656 L 266.496094 495.601562 L 267.894531 495.25 L 266.472656 494.539062 L 266.792969 491.730469 L 268.8125 491.359375 L 265.007812 489.894531 L 266.050781 491.242188 L 263.121094 489.828125 L 259.5 489.699219 L 260.832031 489.425781 L 260.074219 488.40625 L 258.035156 490.199219 L 259.445312 490.066406 L 258.511719 491.988281 L 256.832031 491.089844 L 256.175781 487.910156 L 253.636719 488.488281 L 253.789062 489.28125 L 252.535156 489.023438 L 252.597656 488.140625 L 248.382812 485.382812 L 244.628906 478.667969 L 242.707031 477.210938 L 243.367188 475.515625 L 235.765625 472.855469 L 233.96875 468.144531 L 229.125 463.46875 L 230.570312 462.605469 L 231.210938 463.929688 L 231.964844 462.308594 L 230.84375 462.402344 L 230.714844 461.535156 L 230.363281 462.40625 L 230.066406 461.550781 L 230.144531 462.5 L 226.953125 460.347656 L 224.988281 457.339844 L 223.125 456.964844 L 223.3125 452.429688 L 221.546875 450.332031 L 222.132812 448.363281 L 221.472656 446.390625 L 218.949219 446.023438 L 218.683594 446.875 L 216.621094 445.179688 L 217.507812 440.929688 L 212.0625 433.773438 L 209.804688 428.175781 L 207.570312 427.40625 L 207.316406 418.640625 L 205.96875 416.703125 L 204.484375 416.371094 L 204.984375 413.902344 L 204.132812 410.789062 L 201.109375 408.054688 L 198.609375 403.417969 L 197.550781 399.363281 L 198.542969 394.835938 L 197.609375 391.738281 L 198.664062 394.078125 L 199.542969 392.539062 L 199.421875 388.574219 L 194.304688 384.605469 L 193.789062 385.4375 L 195.1875 386 L 184.460938 383.164062 L 183.695312 378.027344 L 177.171875 373.789062 L 176.675781 374.480469 L 175.1875 373.292969 L 174.679688 375.515625 L 175.621094 375.75 L 174.4375 376.859375 L 173.695312 376.277344 L 173.832031 377.835938 L 169.980469 377.597656 L 158.96875 369.300781 L 156.265625 369.007812 L 154.140625 367.683594 L 156.984375 370.363281 L 157.441406 372.003906 L 154.722656 371.09375 L 153.21875 369.164062 Z M 221.953125 456.992188 L 222.648438 456.683594 L 220.226562 462.046875 L 220.894531 463.199219 L 219.324219 463.84375 L 211.800781 459.777344 L 214.382812 457.554688 L 213.976562 453.96875 L 215.335938 449.898438 L 216.695312 450.132812 L 220.425781 448.320312 L 220.320312 451.644531 L 222.492188 455.316406 Z M 189.761719 449.460938 L 184.476562 442.839844 L 185.410156 438.390625 L 187.65625 439.15625 L 189.855469 441.390625 L 190.976562 443.671875 L 190.5625 446.167969 L 195.972656 447.121094 L 195.726562 451.839844 L 196.40625 453.730469 L 197.742188 454.019531 L 197.269531 456.230469 Z M 189.761719 449.460938 "/>
    </g>
  </g>
  <g id="lo-co-states" fill="none" stroke-width="2.5" stroke="#BBBBBB" stroke-linejoin="round">
    <g>
      <path id="California" d="M -25.441406 156.386719 L -25.355469 158.242188 L -28.234375 155.890625 L -29.164062 157.292969 L -30.644531 157.132812 L -31.488281 155.855469 L -30.386719 158.050781 L -31.417969 160.050781 L -29.945312 161.351562 L -31.324219 162.816406 L -30.882812 165.960938 L -32.355469 166.175781 L -35.785156 163.089844 L -36.460938 163.40625 L -39.277344 159.480469 L -41.644531 158.46875 L -42.671875 159.613281 L -44 159.335938 L -41.628906 154.574219 L -42.453125 149.902344 L -43.800781 149.835938 L -45.058594 145.25 L -48.957031 141.148438 L -57.839844 127.996094 L -56.417969 124.457031 L -58.324219 114.453125 L -56.035156 108.257812 L -56.898438 99.394531 L -61.898438 89.96875 L -67.25 84.363281 L -66.695312 82.042969 L -67.566406 78.480469 L -58.398438 62.449219 L -58.683594 57.605469 L -56.015625 52.078125 L -55.050781 47.613281 L -55.871094 38.910156 L -57.960938 37.023438 L -56.097656 30.242188 L 42.070312 42.3125 L 33.40625 135.863281 L 160.757812 268.207031 L 160.496094 272.050781 L 164.515625 277.320312 L 165.234375 280.796875 L 166.667969 282.78125 L 166.621094 285.175781 L 171.574219 288.238281 L 172.980469 291.15625 L 165.476562 296.28125 L 164.933594 298.539062 L 162.566406 300.5 L 162.953125 308.515625 L 161.871094 309.285156 L 161.957031 313.113281 L 158.824219 317.429688 L 156.730469 317.625 L 157.238281 319.46875 L 156.367188 320.902344 L 157.847656 322.117188 L 156.820312 327.472656 L 158.019531 329.265625 L 161.773438 329.710938 L 163.105469 331.300781 L 163.1875 335.429688 L 161.457031 336.492188 L 161.324219 337.691406 L 159.34375 339.046875 L 156.984375 338.515625 L 92.527344 342.507812 L 90.917969 336.714844 L 92.828125 340.425781 L 92.84375 338.046875 L 90.976562 336.078125 L 89.582031 337.847656 L 88.875 332.457031 L 89.734375 331.34375 L 88.15625 324.277344 L 86.210938 320.339844 L 68.898438 303.285156 L 65.300781 302.238281 L 64.113281 304.359375 L 61.097656 303.089844 L 61.199219 298.5625 L 58.132812 293.527344 L 51.691406 293.695312 L 47.804688 292.746094 L 40.835938 288.921875 L 39.734375 285.957031 L 34.441406 281.269531 L 31.347656 279.730469 L 24.5 279.5625 L 20.960938 277.492188 L 17.65625 276.902344 L 9.390625 277.140625 L 8.222656 274.554688 L 4.949219 272.664062 L 6.332031 268.632812 L 5.707031 266.820312 L 6.578125 263.878906 L 5.21875 262.238281 L 6.957031 257 L 6.578125 254.914062 L 1.046875 252.234375 L 1.3125 245.367188 L -1.59375 244.1875 L -5.039062 238.414062 L -8.097656 237.042969 L -9.183594 232.59375 L -11.910156 229.835938 L -17.175781 219.785156 L -21.652344 215.347656 L -22.59375 206.515625 L -21.296875 204.828125 L -20.292969 205.96875 L -18.675781 204.855469 L -16.933594 199.636719 L -19.53125 194.835938 L -24.046875 194.816406 L -26.683594 192.839844 L -31.90625 184.714844 L -30.871094 181.238281 L -31.726562 177.113281 L -33.175781 175.570312 L -32.058594 167.453125 L -29.550781 166.921875 L -28.496094 169.6875 L -29.230469 173.261719 L -23.035156 178.933594 L -20.164062 178.984375 L -22.976562 177.519531 L -24.8125 169.78125 L -27.460938 168.117188 L -26.941406 164.582031 L -28.464844 163.855469 L -28.441406 161.824219 L -26.207031 160.765625 L -18.761719 160.253906 L -11.410156 162.109375 L -10.183594 160.261719 L -8.160156 160.21875 L -7.53125 161.253906 L -7.457031 158.925781 L -10.195312 159.933594 L -10.09375 157.640625 L -13.332031 160.535156 L -16.289062 160.023438 L -18.082031 157.71875 L -24.445312 159.179688 Z M -25.5 156.214844 L -26.03125 154.726562 L -26.648438 155.050781 Z M 55.628906 310.816406 L 61.574219 313.382812 L 62.902344 316.710938 L 58.96875 315.921875 L 58.472656 312.921875 L 56.539062 312.328125 Z M 60.734375 331.882812 L 58.886719 332.179688 L 54.582031 325.171875 L 55.347656 324.75 Z M 23.734375 289.871094 L 28.804688 291.957031 L 31.367188 291.070312 L 32.605469 291.828125 L 32.117188 292.675781 L 27.507812 293.621094 L 24.007812 293.253906 L 23.007812 292.035156 L 23.464844 291.214844 L 22.136719 290.25 Z M 15.554688 293.972656 L 13.921875 291.109375 L 18.992188 290.570312 L 20.929688 293.660156 L 17 295.015625 Z M 15.554688 293.972656 "/>
    </g>
    <g>
      <path id="Nevada" d="M 52.503906 155.789062 L 33.40625 135.863281 L 42.070312 42.3125 L 111.972656 47.53125 L 180.714844 50.40625 L 176.546875 230.632812 L 174.109375 236.015625 L 172.121094 236.730469 L 169.601562 235.269531 L 169.425781 233.730469 L 167.820312 232.457031 L 166.199219 233.347656 L 164.035156 232.230469 L 161.722656 232.574219 L 158.980469 234.246094 L 158.6875 237.304688 L 160.484375 240.699219 L 159.660156 245.289062 L 160.800781 249.105469 L 159.894531 252.0625 L 162.519531 261.351562 L 162.128906 263.839844 L 160.480469 264.464844 L 161.476562 265.820312 L 160.46875 266.859375 L 160.757812 268.207031 Z M 52.503906 155.789062 "/>
    </g>
    <g>
      <path id="Arizona" d="M 161.773438 329.710938 L 158.019531 329.265625 L 156.820312 327.472656 L 157.847656 322.117188 L 156.367188 320.902344 L 157.238281 319.46875 L 156.730469 317.625 L 158.824219 317.429688 L 161.957031 313.113281 L 161.871094 309.285156 L 162.953125 308.515625 L 162.566406 300.5 L 164.933594 298.539062 L 165.476562 296.28125 L 172.980469 291.15625 L 171.574219 288.238281 L 166.621094 285.175781 L 166.667969 282.78125 L 165.234375 280.796875 L 164.515625 277.320312 L 160.496094 272.050781 L 160.46875 266.859375 L 161.476562 265.820312 L 160.480469 264.464844 L 162.128906 263.839844 L 162.519531 261.351562 L 159.894531 252.0625 L 160.800781 249.105469 L 159.660156 245.289062 L 160.484375 240.699219 L 158.6875 237.304688 L 158.980469 234.246094 L 161.722656 232.574219 L 164.035156 232.230469 L 166.199219 233.347656 L 167.820312 232.457031 L 171.445312 236.683594 L 174.109375 236.015625 L 176.546875 230.632812 L 176.917969 206.300781 L 266.722656 206.761719 L 301.820312 205.808594 L 306.855469 382.011719 L 252.683594 383.167969 L 153.402344 346.347656 L 153.839844 342.339844 L 156.488281 338.703125 L 160.195312 338.722656 L 163.1875 335.429688 L 163.105469 331.300781 Z M 161.773438 329.710938 "/>
    </g>
    <g>
      <path id="Texas" d="M 388.3125 377.171875 L 382.433594 374.847656 L 377.472656 367.101562 L 371.175781 364.792969 L 369.992188 359.765625 L 370.664062 359.085938 L 465.601562 352.808594 L 459.167969 266.867188 L 454.070312 212.25 L 530.425781 203.839844 L 538.132812 264.414062 L 539.738281 263.683594 L 546.929688 269.238281 L 549.140625 269.25 L 550.195312 267.632812 L 554.125 268.613281 L 554.996094 265.914062 L 559.601562 269.105469 L 560.84375 272.757812 L 565.558594 272.257812 L 571.566406 273.957031 L 575.445312 272.597656 L 580.535156 275.25 L 582.722656 272.144531 L 587.488281 272.351562 L 588.859375 271.085938 L 590.234375 275.503906 L 592.964844 275.257812 L 593.949219 276.085938 L 593.527344 278.042969 L 594.214844 278.867188 L 597.015625 279.324219 L 601.199219 274.507812 L 603.144531 274.847656 L 604.089844 276.863281 L 607.058594 276.445312 L 607.621094 278.492188 L 608.8125 278.820312 L 610 278.316406 L 610.996094 276.085938 L 612.488281 277.0625 L 613.652344 275.378906 L 615.089844 276.539062 L 614.128906 278.082031 L 616.019531 280.738281 L 617.640625 280.402344 L 617.363281 277.996094 L 618.28125 277.351562 L 617.304688 276.601562 L 619.316406 276.324219 L 619.351562 273.296875 L 620.800781 272.515625 L 623.078125 275.402344 L 624.707031 274.890625 L 626.171875 275.902344 L 627.554688 275.171875 L 627.957031 272.992188 L 630.191406 273.214844 L 630.007812 274.960938 L 632.527344 275.453125 L 633.320312 276.546875 L 635.0625 275.949219 L 638.207031 278.261719 L 638.863281 275.84375 L 641.765625 275.519531 L 642.238281 273.796875 L 641.257812 274.335938 L 641.460938 273.636719 L 645.476562 272.511719 L 647.117188 270.765625 L 649.910156 271.90625 L 651.914062 271.246094 L 652.222656 269.511719 L 653.507812 269.582031 L 655.71875 267.605469 L 658.195312 268.433594 L 657.660156 269.199219 L 663.382812 268.738281 L 663.082031 267.933594 L 665.289062 267.308594 L 665.421875 265.34375 L 669.671875 266.136719 L 669.796875 267.09375 L 670.171875 266.078125 L 671.132812 267.582031 L 672.949219 267.285156 L 676.507812 270.484375 L 678.96875 269.949219 L 678.570312 270.644531 L 679.4375 270.394531 L 679.46875 271.335938 L 682.175781 271.375 L 681.949219 272.269531 L 684.796875 271.585938 L 684.152344 272.234375 L 685.257812 271.839844 L 684.957031 272.746094 L 686.089844 272.304688 L 686.023438 273.035156 L 688.300781 272.132812 L 688.0625 273.222656 L 689.425781 273.996094 L 690.289062 273.300781 L 689.800781 274.359375 L 690.519531 274.644531 L 693.816406 272.605469 L 694.039062 273.574219 L 695.871094 272.199219 L 696.136719 273.023438 L 697.863281 272.164062 L 699.367188 272.816406 L 708.054688 322.40625 L 712.285156 324.957031 L 714.554688 327.59375 L 716.195312 330.28125 L 715.757812 334.328125 L 717.496094 335.882812 L 719.59375 335.953125 L 718.546875 337.28125 L 722.335938 340.292969 L 721.394531 342.460938 L 723.535156 343.492188 L 724.515625 346.269531 L 726.265625 345.785156 L 726.617188 347.691406 L 725.882812 348.648438 L 727.667969 350.367188 L 726.144531 351.480469 L 726.21875 352.671875 L 727.726562 353.738281 L 726.816406 355.523438 L 727.621094 357.285156 L 726.203125 360.234375 L 726.542969 362.109375 L 724.71875 363.953125 L 725.53125 365.199219 L 724.3125 365.746094 L 724.054688 367.160156 L 725.671875 370.265625 L 724.40625 373.375 L 726.367188 374.910156 L 726.34375 377.441406 L 727.601562 379.59375 L 727.25 382.527344 L 726.210938 384.488281 L 723.597656 385.417969 L 721.859375 391.339844 L 725.855469 395.402344 L 719.4375 396.449219 L 703.433594 406.820312 L 701.421875 409.375 L 700.808594 408.839844 L 703.246094 405.476562 L 706.003906 403.160156 L 708.074219 403.351562 L 708.757812 401.960938 L 707.671875 402.511719 L 706.011719 401.664062 L 699.976562 403.90625 L 701.667969 399.738281 L 701.371094 396.652344 L 700.195312 395.582031 L 697.753906 397.035156 L 696.59375 400.183594 L 690.355469 396.71875 L 693.699219 400.257812 L 693.585938 404.195312 L 696.734375 405.640625 L 694.929688 407.207031 L 695.996094 406.914062 L 695.945312 408.238281 L 697.054688 408.203125 L 696.824219 407.335938 L 697.777344 408.773438 L 700.027344 409.359375 L 697.792969 408.949219 L 697.996094 411.6875 L 696.453125 411.359375 L 693.851562 415.980469 L 691.203125 416.234375 L 691.46875 418.878906 L 690.617188 419.402344 L 689.777344 423.648438 L 678.742188 433.382812 L 678.953125 432.519531 L 671.773438 435.53125 L 671.542969 437.757812 L 678.242188 433.710938 L 665.09375 442.976562 L 670.660156 438.730469 L 670.636719 436.894531 L 663.871094 440.460938 L 663.722656 439.648438 L 665.945312 438.890625 L 663.519531 438.453125 L 665.472656 434.054688 L 664.089844 436.699219 L 662.128906 437.773438 L 662.363281 436.210938 L 660.125 439.453125 L 658.867188 436.128906 L 657.964844 436.703125 L 657.152344 435.421875 L 657.882812 437.191406 L 658.597656 436.378906 L 658.507812 439 L 659.84375 439.746094 L 656.824219 441.863281 L 658.167969 440.390625 L 657.4375 438.585938 L 656.871094 440.527344 L 655.859375 439 L 654.273438 439.636719 L 653.503906 434.191406 L 653.875 437.933594 L 653.34375 437.144531 L 651.816406 437.445312 L 651.585938 438.609375 L 653.308594 440.171875 L 653.476562 442.238281 L 654.636719 441.597656 L 657.164062 443.457031 L 655.167969 444.898438 L 656.457031 445.015625 L 657.476562 443.632812 L 660.15625 445.390625 L 653.089844 450.441406 L 648.859375 445.464844 L 647.941406 446.480469 L 648.949219 446.460938 L 649.539062 448.148438 L 647.292969 448.003906 L 649.335938 449.4375 L 650.125 453.304688 L 645.726562 457.570312 L 646.230469 452.917969 L 644.65625 454.601562 L 645.714844 455.238281 L 645.042969 457.632812 L 643.308594 457.132812 L 643.34375 455.117188 L 640.578125 457.699219 L 640.351562 456.714844 L 639.445312 456.902344 L 639.921875 458.230469 L 637.222656 460.226562 L 637.820312 460.671875 L 637.09375 461.492188 L 641.125 460.082031 L 643.628906 458.046875 L 644.050781 460.8125 L 640.03125 468.007812 L 638.539062 467.867188 L 639.453125 467.472656 L 637.324219 466.445312 L 635.257812 467.699219 L 635.566406 466.59375 L 630.644531 467.492188 L 631.988281 468.726562 L 634.515625 468.0625 L 634.523438 470.007812 L 636.96875 471.597656 L 636.0625 471.609375 L 636.988281 472.289062 L 636.238281 473.984375 L 634.972656 474.382812 L 636.4375 474.261719 L 637.226562 471.707031 L 638.976562 472.105469 L 637.15625 476.398438 L 635.785156 484.320312 L 633.292969 484.660156 L 632.644531 480.894531 L 632.410156 483.976562 L 630.546875 485.609375 L 625.863281 482.316406 L 628.304688 486.054688 L 625.363281 486.609375 L 632.277344 487.652344 L 635.574219 486.144531 L 634.09375 492.21875 L 635.105469 494.832031 L 632.628906 495.71875 L 633.414062 499.863281 L 635.382812 501.316406 L 638.378906 509.824219 L 637.136719 511.296875 L 639 514.03125 L 640.597656 514.683594 L 641.679688 520.238281 L 644.96875 523.53125 L 644.542969 525.707031 L 646.332031 525.28125 L 647.703125 526.875 L 643.792969 526.984375 L 643.964844 527.816406 L 641.847656 528.753906 L 641.972656 531.042969 L 640.574219 531.207031 L 635.789062 528.914062 L 636.148438 528.203125 L 635.03125 528.074219 L 633.808594 526.238281 L 627.394531 525.769531 L 622.457031 526.335938 L 621.503906 527.230469 L 621.199219 526.265625 L 617.875 526.957031 L 615.121094 525.882812 L 614.992188 524.785156 L 614.046875 525.566406 L 613.335938 524.136719 L 612.28125 524.332031 L 610.09375 522.488281 L 609.15625 523.207031 L 605.78125 521.675781 L 603.617188 522.492188 L 599.136719 518.703125 L 596.648438 519.429688 L 595.671875 518.414062 L 590.828125 518.132812 L 590.757812 515.945312 L 588.664062 514.328125 L 584.355469 504.820312 L 581.097656 502.304688 L 580.882812 500.765625 L 579.011719 499.898438 L 578.976562 494.464844 L 577.957031 492.316406 L 575.59375 491 L 576.539062 485.421875 L 575.476562 485.097656 L 574.5 481.746094 L 569.703125 480.671875 L 566.488281 477.21875 L 564.777344 476.828125 L 562.304688 471.054688 L 560.8125 470.675781 L 557.449219 466.210938 L 554.03125 465.03125 L 553.648438 463.8125 L 551.453125 462.792969 L 548.652344 456.761719 L 549.445312 455.980469 L 547.261719 454.816406 L 547.578125 453.339844 L 544.726562 451.351562 L 541.472656 444.261719 L 539.796875 443.53125 L 538.722656 438.628906 L 535.703125 436.175781 L 534.691406 433.863281 L 528.457031 430.308594 L 526.554688 427.308594 L 521.066406 426.144531 L 520.957031 422.917969 L 519.601562 424.558594 L 519.480469 422.304688 L 517.75 422.3125 L 516.523438 418.855469 L 515.257812 419.269531 L 514.574219 418.441406 L 512.789062 419.417969 L 512.5 417.953125 L 511.601562 419.457031 L 510.03125 419.859375 L 505.433594 419.539062 L 504.957031 418.503906 L 502.152344 419.558594 L 500.726562 418.726562 L 498.335938 420.015625 L 490.964844 417.625 L 489.875 418.816406 L 489.605469 421.28125 L 486.324219 421 L 485.082031 422.238281 L 484.335938 421.390625 L 482.78125 422.964844 L 481.691406 422.679688 L 478.714844 429.667969 L 478.527344 433.414062 L 477 435.375 L 476.511719 438.066406 L 477.765625 439.234375 L 474.507812 440.691406 L 470.460938 447.679688 L 467.277344 447.011719 L 466.945312 447.699219 L 465.28125 445.808594 L 464.222656 446.460938 L 461.421875 445.402344 L 459.816406 443.171875 L 454.386719 442.175781 L 453.765625 440.96875 L 452.605469 441.070312 L 452.886719 439.429688 L 445.164062 438.488281 L 441.757812 436.4375 L 440.480469 433.90625 L 435.613281 432.136719 L 431.046875 428.386719 L 429.632812 424.441406 L 426.792969 421.441406 L 425.371094 411.203125 L 422.128906 407.894531 L 422.28125 407.066406 L 420.988281 406.652344 L 419.621094 401.144531 L 416.882812 399.097656 L 416.511719 397.769531 L 414.800781 397.765625 L 410.417969 394.136719 L 409.261719 394.65625 L 408.40625 393.632812 L 407.726562 394.160156 L 405.597656 393.136719 L 405 391.625 L 400.917969 388.859375 L 399.445312 386.183594 L 394.824219 383.800781 Z M 697.832031 413.378906 L 701.503906 410.0625 L 702.144531 410.714844 L 693.226562 419.289062 Z M 660.324219 448.21875 L 649.191406 458.679688 L 649.628906 455.210938 L 651.410156 454.617188 L 656.667969 449.589844 L 658.578125 449.097656 L 659.441406 446.863281 Z M 646.308594 459.703125 L 647.867188 456.75 L 648.96875 457.5625 L 648.71875 459.285156 L 644.03125 466.589844 L 644.453125 464.171875 L 646.289062 461.683594 L 645.558594 461.25 Z M 641.632812 506.785156 L 639.621094 503.621094 L 637.761719 496.917969 L 637.179688 487.902344 L 639.265625 500.578125 L 644.28125 512.359375 L 647.070312 523.171875 Z M 637.433594 485.324219 L 637.132812 487.714844 L 637.503906 480.261719 L 639.421875 475.519531 L 638.871094 473.3125 L 640.578125 474.382812 L 641.152344 471.242188 L 643.425781 467.621094 L 642.328125 467.5 L 643.960938 466.9375 L 640.15625 475.660156 Z M 637.433594 485.324219 "/>
    </g>
    <g>
      <path id="Utah" d="M 177.644531 170.71875 L 180.714844 50.40625 L 250.304688 50.890625 L 250.5625 82.074219 L 297.890625 81.003906 L 301.820312 205.808594 L 266.722656 206.761719 L 176.917969 206.300781 Z M 177.644531 170.71875 "/>
    </g>
    <g>
      <path id="Colorado" d="M 475.125 173.824219 L 477.460938 194.222656 L 378.308594 202.40625 L 301.820312 205.808594 L 297.890625 81.003906 L 395.164062 75.628906 L 463.472656 68.871094 Z M 475.125 173.824219 "/>
    </g>
    <g>
      <path id="New Mexico" d="M 305.84375 347.78125 L 301.820312 205.808594 L 378.308594 202.40625 L 453.328125 196.328125 L 465.601562 352.808594 L 370.664062 359.085938 L 369.992188 359.765625 L 371.175781 364.792969 L 373.234375 365.675781 L 328.914062 367.511719 L 329.1875 381.332031 L 306.855469 382.011719 Z M 305.84375 347.78125 "/>
    </g>
    <g>
      <path id="Oregon" d="M 8.34375 38.65625 L -56.097656 30.242188 L -59.03125 26.585938 L -59.480469 15.941406 L -57.726562 10.035156 L -60.386719 2.925781 L -58.09375 -0.65625 L -54.386719 -9.878906 L -54.644531 -11.152344 L -50.882812 -15.660156 L -46.390625 -27.695312 L -40.269531 -52.476562 L -40.019531 -57.3125 L -35.121094 -71.835938 L -34.738281 -77.90625 L -33.667969 -78.476562 L -32.847656 -77.269531 L -32.015625 -77.941406 L -33.746094 -80.421875 L -32.730469 -84.550781 L -32.90625 -92.210938 L -30.929688 -94.15625 L -31.234375 -100.28125 L -27.699219 -96.828125 L -27.894531 -99.480469 L -26.527344 -99.789062 L -25.757812 -98.398438 L -24.71875 -98.386719 L -21.113281 -99.8125 L -18.210938 -96.457031 L -15.726562 -96.09375 L -13.972656 -97.097656 L -11.375 -95.84375 L -8.441406 -92.996094 L -7.027344 -88.496094 L -7.261719 -79.164062 L 2.3125 -74.507812 L 7.347656 -75.359375 L 13.714844 -78.046875 L 19.949219 -77.878906 L 24.4375 -76.613281 L 26.632812 -75.375 L 27.269531 -73.242188 L 30.542969 -74.515625 L 33.230469 -73.664062 L 39.820312 -76.34375 L 43.578125 -74.222656 L 48.839844 -74.625 L 53.789062 -77 L 60.808594 -77.601562 L 62.933594 -79.308594 L 72.753906 -78.777344 L 76.398438 -80.757812 L 121.265625 -77.222656 L 124.097656 -71.550781 L 125.632812 -71.441406 L 128.617188 -69.015625 L 130.335938 -64.496094 L 125.414062 -56.300781 L 123.625 -50.203125 L 120.792969 -46.601562 L 121.03125 -43.554688 L 120.230469 -41.988281 L 118.175781 -39.214844 L 116.164062 -38.496094 L 113.386719 -31.953125 L 111.492188 -30.144531 L 111.042969 -27.570312 L 112.25 -23.210938 L 116.230469 -22.761719 L 116.378906 -21.210938 L 118.070312 -19.492188 L 116.253906 -17.335938 L 117.113281 -15.414062 L 114.367188 -8.875 L 111.355469 47.496094 L 57.019531 43.6875 Z M 8.34375 38.65625 "/>
    </g>
    <g>
      <path id="Wyoming" d="M 414 51.867188 L 416.027344 73.566406 L 349.492188 78.65625 L 250.5625 82.074219 L 249.222656 -42.703125 L 319.179688 -44.941406 L 404.101562 -51.117188 Z M 414 51.867188 "/>
    </g>
    <g>
      <path id="Oklahoma" d="M 680.953125 231.210938 L 687.25 272.464844 L 686.660156 272.859375 L 684.957031 272.746094 L 685.257812 271.839844 L 684.152344 272.234375 L 684.796875 271.585938 L 682.25 272.292969 L 682.175781 271.375 L 679.84375 271.480469 L 679.4375 270.394531 L 678.570312 270.644531 L 678.96875 269.949219 L 676.507812 270.484375 L 672.949219 267.285156 L 671.132812 267.582031 L 670.171875 266.078125 L 669.796875 267.09375 L 669.671875 266.136719 L 665.421875 265.34375 L 665.289062 267.308594 L 663.082031 267.933594 L 663.382812 268.738281 L 657.660156 269.199219 L 658.195312 268.433594 L 655.71875 267.605469 L 653.507812 269.582031 L 652.222656 269.511719 L 651.914062 271.246094 L 649.910156 271.90625 L 647.117188 270.765625 L 645.476562 272.511719 L 641.460938 273.636719 L 641.257812 274.335938 L 642.238281 273.796875 L 641.765625 275.519531 L 638.863281 275.84375 L 638.207031 278.261719 L 635.0625 275.949219 L 633.320312 276.546875 L 632.527344 275.453125 L 630.007812 274.960938 L 630.191406 273.214844 L 627.957031 272.992188 L 627.554688 275.171875 L 626.171875 275.902344 L 624.707031 274.890625 L 623.078125 275.402344 L 620.800781 272.515625 L 619.351562 273.296875 L 619.316406 276.324219 L 617.304688 276.601562 L 618.28125 277.351562 L 617.363281 277.996094 L 617.777344 280.035156 L 617.007812 280.679688 L 614.941406 280.117188 L 614.128906 278.082031 L 615.089844 276.539062 L 614.304688 275.496094 L 612.792969 275.875 L 612.488281 277.0625 L 610.996094 276.085938 L 610 278.316406 L 608.8125 278.820312 L 607.621094 278.492188 L 607.058594 276.445312 L 604.089844 276.863281 L 603.144531 274.847656 L 601.199219 274.507812 L 596.574219 279.449219 L 593.5625 278.34375 L 594.066406 276.4375 L 592.964844 275.257812 L 590.234375 275.503906 L 588.859375 271.085938 L 587.488281 272.351562 L 582.722656 272.144531 L 580.535156 275.25 L 575.445312 272.597656 L 571.566406 273.957031 L 565.558594 272.257812 L 562.148438 272.949219 L 560.425781 272.460938 L 559.601562 269.105469 L 557.730469 267.226562 L 554.996094 265.914062 L 554.125 268.613281 L 550.195312 267.632812 L 549.140625 269.25 L 546.929688 269.238281 L 539.738281 263.683594 L 538.132812 264.414062 L 530.574219 203.863281 L 454.824219 212.15625 L 453.328125 196.328125 L 477.78125 194.195312 L 542.777344 186.277344 L 592.441406 179.058594 L 664.289062 166.738281 L 667.351562 182.742188 L 678.527344 216.25 Z M 680.953125 231.210938 "/>
    </g>
    <g>
      <path id="Nebraska" d="M 482.394531 98.257812 L 466.910156 100.113281 L 463.472656 68.871094 L 416.027344 73.566406 L 410.152344 11.128906 L 474.953125 4.425781 L 537.640625 -4.859375 L 538.839844 -3.304688 L 546.546875 -1.320312 L 549.46875 0.332031 L 551.046875 -0.078125 L 552.335938 -2.9375 L 553.886719 -3.550781 L 557.105469 -3.144531 L 558.140625 -4.109375 L 563.757812 -5.289062 L 567.203125 -5.398438 L 570.234375 -3.425781 L 573.796875 -3.5625 L 574.210938 -2.4375 L 578.011719 -2.578125 L 578.457031 -1.558594 L 580.839844 -1.601562 L 580.757812 -0.117188 L 583.875 2.707031 L 585.144531 2.042969 L 588.953125 3.050781 L 588.992188 6.867188 L 591.640625 9.253906 L 591.726562 12.21875 L 593.550781 13.328125 L 595.410156 16.9375 L 597.691406 17.640625 L 597.761719 19.640625 L 600.382812 22.800781 L 600.679688 25.550781 L 599.878906 26.027344 L 601.660156 30.792969 L 603.578125 30.460938 L 603.847656 32.183594 L 605.65625 32.476562 L 606.199219 36.34375 L 607.695312 37.316406 L 606.722656 37.476562 L 607.46875 40.394531 L 609.121094 40.96875 L 609.335938 44.648438 L 610.859375 47.335938 L 611.367188 55.152344 L 614.476562 57.402344 L 615.136719 60.3125 L 616.996094 60.792969 L 617.488281 59.574219 L 617.148438 62.023438 L 619.871094 66.019531 L 619.355469 67.332031 L 620.582031 67.078125 L 623.929688 69.136719 L 626.941406 72.839844 L 626.519531 74.457031 L 629.347656 75.5 L 552.289062 88.863281 Z M 482.394531 98.257812 "/>
    </g>
    <g>
      <path id="Kansas" d="M 652.84375 168.710938 L 565.347656 183.039062 L 477.460938 194.222656 L 466.910156 100.113281 L 552.289062 88.863281 L 629.347656 75.5 L 635.15625 78.597656 L 638.929688 77.007812 L 639.257812 78.46875 L 640.617188 79.246094 L 639.746094 80.785156 L 641.355469 81.648438 L 639.363281 82.273438 L 637.171875 89.191406 L 643.058594 93.011719 L 643.179688 94.867188 L 645.984375 97.976562 L 651.789062 99.121094 L 664.289062 166.738281 Z M 652.84375 168.710938 "/>
    </g>
  </g>
  <g id="co-river-polyline" fill="none" stroke-width="3.5" stroke="#0066CC" stroke-linejoin="round" style="stroke-linejoin:round;stroke-linecap:round">
    <g>
      <path id="Colorado-river" d="M 374.882812 94.238281 L 375.308594 103.203125 L 373.589844 104.691406 L 364.738281 107.144531 L 354.523438 112.753906 L 350.355469 113.742188 L 346.914062 121.160156 L 342.640625 124.125 L 338.871094 123.945312 L 328.847656 126.042969 L 323.5625 128.640625 L 320.226562 132.015625 L 317.691406 138.714844 L 311.578125 141.0625 L 302.824219 137.265625 L 298.75 140.007812 L 292.492188 152.132812 L 283.285156 162.0625 L 283.351562 164.917969 L 281.476562 168.4375 L 275.535156 175.273438 L 272.808594 176.691406 L 271.964844 178.941406 L 268.023438 178.636719 L 266.335938 184.003906 L 262.0625 188.785156 L 258.398438 196.527344 L 256.8125 196.421875 L 254.101562 202.660156 L 243.390625 206.714844 L 238.226562 210.957031 L 231.945312 221.898438 L 231.546875 224.753906 L 232.957031 232.074219 L 231.855469 235.796875 L 229.839844 236.792969 L 225.710938 234.925781 L 222.976562 234.925781 L 218.164062 230.316406 L 216.75 231.800781 L 214.949219 230.175781 L 216.777344 226.957031 L 215.074219 225.832031 L 211.765625 225.5625 L 209.136719 227.898438 L 199.445312 232.015625 L 197.09375 234.59375 L 194.671875 234.804688 L 194.03125 244.230469 L 191.484375 245.433594 L 184.777344 241.472656 L 182.152344 236.085938 L 179.664062 234.667969 L 177.214844 231.265625 L 175.074219 232.582031 L 173.671875 236.527344 L 170.640625 236.828125 L 168.226562 232.421875 L 162.789062 232.402344 L 158.503906 234.144531 L 160.328125 241.039062 L 159.351562 243.371094 L 160.199219 249.234375 L 159.707031 252.328125 L 162.296875 261.714844 L 162.328125 264.449219 L 160.6875 264.652344 L 160.492188 271.851562 L 164.4375 277.792969 L 166.699219 285.917969 L 168.945312 286.71875 L 172.570312 290.402344 L 172.757812 291.992188 L 167.304688 294.78125 L 166.839844 296.09375 L 165.171875 296.230469 L 164.722656 299.210938 L 162.242188 301.378906 L 162.769531 307.089844 L 161.523438 314.367188 L 158.816406 317.84375 L 157.148438 317.859375 L 157.800781 324.40625 L 156.761719 327.988281 L 157.722656 329.171875 L 162.257812 330.082031 L 162.886719 333.769531 L 162.191406 336.160156 L 160.050781 336.535156 L 159.488281 340.351562 L 155.929688 339.984375 L 153.847656 342.710938 L 153.398438 346.5625 L 150.289062 346.675781 L 149.714844 349.582031 L 146.816406 354.597656 L 143.699219 355.898438 L 143.214844 357.214844 L 143.980469 359.664062 L 147.003906 361.757812 L 147.671875 363.417969 L 153.242188 367.265625 "/>
    </g>
  </g>
  <g id="bboxes" fill="none" stroke="none">
    <path id="hooverBbox" d="M 158.414062 236.753906 L 158.433594 235.972656 L 159.242188 235.996094 L 159.222656 236.777344 Z M 158.414062 236.753906 "/>
    <path id="davisBbox" d="M 161.652344 262.230469 L 161.671875 261.503906 L 162.605469 261.53125 L 162.585938 262.257812 Z M 161.652344 262.230469 "/>
    <path id="needlesBbox" d="M 159.835938 277.421875 L 159.980469 272.183594 L 165.308594 272.324219 L 165.175781 277.5625 Z M 159.835938 277.421875 "/>
    <path id="parkerBbox" d="M 172.25 290.640625 L 172.273438 289.652344 L 173.199219 289.671875 L 173.179688 290.664062 Z M 172.25 290.640625 "/>
    <path id="headgateBbox" d="M 168.386719 294.71875 L 168.40625 293.890625 L 169.675781 293.917969 L 169.65625 294.746094 Z M 168.386719 294.71875 "/>
    <path id="paloVerdeBbox" d="M 161.898438 308.332031 L 161.921875 307.394531 L 163.351562 307.433594 L 163.328125 308.367188 Z M 161.898438 308.332031 "/>
    <path id="outfallBbox" d="M 156.335938 321.292969 L 156.398438 318.875 L 158.53125 318.933594 L 158.46875 321.351562 Z M 156.335938 321.292969 "/>
    <path id="imperialBbox" d="M 162.253906 334.605469 L 162.292969 333.089844 L 163.65625 333.125 L 163.617188 334.636719 Z M 162.253906 334.605469 "/>
    <path id="easternBbox" d="M 177.304688 341.433594 L 177.480469 332.085938 L 190.050781 332.292969 L 189.914062 341.644531 Z M 177.304688 341.433594 "/>
    <path id="morelosBbox" d="M 150.007812 342.734375 L 150.191406 336.394531 L 179.570312 337.082031 L 179.457031 343.417969 Z M 150.007812 342.734375 "/>
    <path id="saltonBbox" d="M 129.105469 339.960938 L 129.953125 316.777344 L 151.925781 317.5 L 151.265625 340.675781 Z M 129.105469 339.960938 "/>
  </g>
  <g id="refPoints" fill="none" stroke-width="2.5" stroke="#000000">
    <path id="lasVegas" d="M 150.4375 232.785156 C 150.4375 236.382812 145.035156 236.382812 145.035156 232.785156 C 145.035156 229.183594 150.4375 229.183594 150.4375 232.785156 "/>
    <path id="mexicali" d="M 139.222656 340.339844 C 139.222656 343.941406 133.820312 343.941406 133.820312 340.339844 C 133.820312 336.742188 139.222656 336.742188 139.222656 340.339844 "/>
    <path id="phoenix" d="M 228.886719 317.398438 C 228.886719 321 223.488281 321 223.488281 317.398438 C 223.488281 313.800781 228.886719 313.800781 228.886719 317.398438 "/>
  </g>
  <text x="137.9375" y="237.785156" fill="#000000" text-anchor="end" font-size="1.5em">Las Vegas</text>
  <text x="126.722656" y="345.339844" fill="#000000" text-anchor="end" font-size="1.5em">Mexicali</text>
  <text x="241.386719" y="322.398438" fill="#000000" text-anchor="start" font-size="1.5em">Phoenix</text>
</svg>
 