<?xml version="1.0" encoding="utf-8"?>
<!-- Generator: Adobe Illustrator 18.1.1, SVG Export Plug-In . SVG Version: 6.00 Build 0)  -->
<!DOCTYPE svg PUBLIC "-//W3C//DTD SVG 1.1//EN" "http://www.w3.org/Graphics/SVG/1.1/DTD/svg11.dtd">
<svg version="1.1" id="Layer_1" xmlns="http://www.w3.org/2000/svg" xmlns:xlink="http://www.w3.org/1999/xlink" x="0px" y="0px"
	 viewBox="0 0 1007 647" enable-background="new 0 0 1007 647" xml:space="preserve">
     <script type="text/ecmascript"><![CDATA[
                         
                            function init(evt)
   {
                            if ( window.svgDocument == null )
   {
                            svgDocument = evt.target.ownerDocument;
   }
   }
                            function mouserOn(evt,elementname)
                            {
							var strname = elementname
							 document.getElementById(strname.concat("-AR")).setAttributeNS(null,"visibility",'visible');
							 document.getElementById(strname.concat("-Mexico")).setAttributeNS(null,"visibility",'visible');
							 document.getElementById(strname.concat("-NV")).setAttributeNS(null,"visibility",'visible');
							 document.getElementById(strname.concat("-circle")).setAttributeNS(null,"r",'30');
							 document.getElementById(strname.concat("-circle")).setAttributeNS(null,"fill",'#ff2500');
							 document.getElementById(strname.concat("-num")).setAttributeNS(null,"font-size","42");
							 document.getElementById(strname.concat("-paths")).setAttributeNS(null,"visibility",'visible');
							 document.getElementById(strname.concat("-level")).beginElement();

   }
                         function mouserOff(evt,elementname)
                         {
						var strname = elementname
						 document.getElementById(strname.concat("-AR")).setAttributeNS(null,"visibility",'hidden');
						 document.getElementById(strname.concat("-Mexico")).setAttributeNS(null,"visibility",'hidden');
						 document.getElementById(strname.concat("-NV")).setAttributeNS(null,"visibility",'hidden');
						 document.getElementById(strname.concat("-circle")).setAttributeNS(null,"r",'20');
						 document.getElementById(strname.concat("-num")).setAttributeNS(null,"font-size","30");
						 document.getElementById(strname.concat("-circle")).setAttributeNS(null,"fill",'#ffc966');
						 document.getElementById("normal-level").beginElement();
						 setTimeout(function(){document.getElementById(strname.concat("-paths")).setAttributeNS(null,"visibility",'hidden')},100);

}
						function shortage2start(){
          			  		var ele = document.getElementById("shortage2start");
	          			  	ele.beginElement();
}
						function shortage2end(){
          			  		var ele = document.getElementById("shortage2end");
	          			  	ele.beginElement();
}
                            ]]></script>


<g transform="translate(410,441)">
	<g id='shortage1-paths' visibility='hidden' stroke = '#bee1f6' fill = 'none'>
		<path d="M0 0 L-80 0" stroke-width="35" style='clip-path: url(#shortage1-clipPath);'/>
		<path d="M0 0 L80 -95 l150 00" stroke-width="20"/>
		<path d="M0 0 L100 95 l85 00" stroke-width="10"/>
		<path d="M0 0 L340 0 l90 -130 " stroke-width="1"/>
		<path d="M0 0 L230 40 l210 0 " stroke-width="13"/>
	</g>							
	<g id='shortage1-events' onmouseover="mouserOn(evt,'shortage1')" onmouseout="mouserOff(evt,'shortage1')">	
		<circle id='shortage1-circle' r="20" fill='#ffc966'/>
		<text id='shortage1-num' font-family="'ArialMT'" font-size="30" fill='#FFFFFF' alignment-baseline="central" text-anchor="middle">1</text>	
		<circle r="30" opacity='0'/>
	</g>
</g>
<g transform="translate(380,476)">
	<g id='shortage2-paths' visibility='hidden' stroke = '#bee1f6' fill = 'none' >
		<path d="M0 0 L-80 0" stroke-width="34">
			<animate id="shortage2start" attributeName="stroke-width" begin="indefinite" fill="freeze" from="5" to="34" dur="0.1s"/>
			<animate id="shortage2end" attributeName="stroke-width" begin="indefinite" fill="freeze" from="34" to="5" dur="0.1s"/>
		</path>
		<path d="M0 0 L20 -65 l230 -100"  stroke-width="20">
			<animate attributeName="stroke-width" begin="shortage2start.begin" fill="freeze" from="5" to="20" dur="0.1s"/>
			<animate attributeName="stroke-width" begin="shortage2end.begin" fill="freeze" from="20" to="5" dur="0.1s"/>
		</path>
		<path d="M0 0 L100 55 l105 00" stroke-width="9.4">
			<animate attributeName="stroke-width" begin="shortage2start.begin" fill="freeze" from="5" to="9.4" dur="0.1s"/>
			<animate attributeName="stroke-width" begin="shortage2end.begin" fill="freeze" from="9.4" to="5" dur="0.1s"/>
		</path>
		<path d="M0 0 L470 0" stroke-width="11">
			<animate attributeName="stroke-width" begin="shortage2start.begin" fill="freeze" from="5" to="11" dur="0.1s"/>
			<animate attributeName="stroke-width" begin="shortage2end.begin" fill="freeze" from="1" to="5" dur="0.1s"/>
		</path>
		<path d="M0 0 L240 -60 l170 0 l50 -50" stroke-width="1">
			<animate attributeName="stroke-width" begin="shortage2start.begin" fill="freeze" from="5" to="1" dur="0.1s"/>
			<animate attributeName="stroke-width" begin="shortage2end.begin" fill="freeze" from="1" to="5" dur="0.1s"/>
		</path>
	</g>
	<g id='shortage2-events' onmouseover="mouserOn(evt,'shortage2');shortage2start()" onmouseout="shortage2end();mouserOff(evt,'shortage2')">
		<circle id='shortage2-circle' r="20" fill='#ffc966'/>
		<text id='shortage2-num' font-family="'ArialMT'" font-size="30" fill='#FFFFFF' alignment-baseline="central" text-anchor="middle">2</text>
		<circle r="30" opacity='0'/>
	</g>
</g>
<g transform="translate(350,512)">
	<g id='shortage3-paths' visibility='hidden' stroke = '#bee1f6' fill = 'none'>
		<path d="M0 0 L-80 0" stroke-width="33"/>
		<path d="M0 0 L250 0" stroke-width="9.4"/>
		<path d="M0 0 L20 -65 l130 -100 l130 0" stroke-width="20"/>
		<path d="M0 0 L140 -50 l350 0" stroke-width="11"/>
		<path d="M0 0 L165 -100 l270 0 l50 -50" stroke-width="1"/>
	</g>
	<g id='shortage3-events'  onmouseover="mouserOn(evt,'shortage3')" onmouseout="mouserOff(evt,'shortage3')">	
		<circle id='shortage3-circle' r="20" fill='#ffc966'/>
		<text id='shortage3-num' font-family="'ArialMT'" font-size="30" fill='#FFFFFF' alignment-baseline="central" text-anchor="middle">3</text>
		<circle r="30" opacity='0'/>
	</g>
</g>
<polygon id='mask-for-sankey' points="66,320 66,619 258,619 414,320 " fill='#FFFFFF'/>	 
							<!--sdf ""66,320 66,440 351,440 414,320 ""-->
<path id="Mead-level" fill="#bee1f6" stroke="none" d="M66 320 L66 619 L258 619 L414 320z">
	<animate id='normal-level' attributeName='d' begin='indefinite' fill='freeze' to="M66 320 L66 619 L258 619 L414 320z" dur='1s'/>
	<animate id='shortage1-level' attributeName='d' begin='indefinite' fill='freeze' to="M66 440 L66 619 L258 619 L351 440z" dur='0.3s'/>
	<animate id='shortage2-level' attributeName='d' begin='indefinite' fill='freeze' to="M66 477 L66 619 L258 619 L333 477z" dur='0.3s'/>
	<animate id='shortage3-level' attributeName='d' begin='indefinite' fill='freeze' to="M66 508 L66 619 L258 619 L317 508z" dur='0.3s'/>
</path>


<text transform="matrix(1 0 0 1 435.0591 34.2695)" font-family="'Arial-BoldMT'" font-size="26.7525">Lake Mead</text>
<rect x="9" y="47" fill="none" stroke="#000000" stroke-width="1.979" stroke-miterlimit="10" width="989" height="591.3"/>
<g>
	<polygon id = 'res-outline' points="259.6,621 65,621 65,102 67,102 67,619 258.4,619 523.3,102 525,103 	"/>
</g>
<text transform="matrix(4.489659e-11 -1 1 4.489659e-11 33.75 469.1721)" font-family="'ArialMT'" font-size="12.612">Live Storage in million acre-feet(maf)</text>
<text transform="matrix(1 0 0 1 529.3174 112.872)" font-family="'ArialMT'" font-size="11.0737">Elevation 1,229 feet (27.6 maf)</text>
<text transform="matrix(1 0 0 1 515.4844 141.5387)" font-family="'ArialMT'" font-size="11.0737">Elevation 1,219.6 feet (26.1 maf)</text>
<text transform="matrix(1 0 0 1 488.9843 196.872)" font-family="'ArialMT'" font-size="11.0737">Elevation 1,200 feet (23.1 maf)</text>
<text transform="matrix(1 0 0 1 418.9843 324.2054)" font-family="'ArialMT'" font-size="11.0737">Elevation 1,145 feet (16.2 maf)</text>
<text transform="matrix(1 0 0 1 50.4009 623.083)" font-family="'ArialMT'" font-size="12">0</text>
<text transform="matrix(1 0 0 1 50.4009 585.333)" font-family="'ArialMT'" font-size="12">2</text>
<text transform="matrix(1 0 0 1 50.4009 548.583)" font-family="'ArialMT'" font-size="12">4</text>
<text transform="matrix(1 0 0 1 50.4009 510.583)" font-family="'ArialMT'" font-size="12">6</text>
<text transform="matrix(1 0 0 1 50.4009 475)" font-family="'ArialMT'" font-size="12">8</text>
<text transform="matrix(1 0 0 1 43.4009 437.75)" font-family="'ArialMT'" font-size="12">10</text>
<text transform="matrix(1 0 0 1 43.4009 400.75)" font-family="'ArialMT'" font-size="12">12</text>
<text transform="matrix(1 0 0 1 43.4009 364)" font-family="'ArialMT'" font-size="12">14</text>
<text transform="matrix(1 0 0 1 43.4009 327.5)" font-family="'ArialMT'" font-size="12">16</text>
<text transform="matrix(1 0 0 1 43.4009 290.5)" font-family="'ArialMT'" font-size="12">18</text>
<text transform="matrix(1 0 0 1 43.4009 254.7349)" font-family="'ArialMT'" font-size="12">20</text>
<text transform="matrix(1 0 0 1 43.4009 216.7349)" font-family="'ArialMT'" font-size="12">22</text>
<text transform="matrix(1 0 0 1 43.4009 179.9849)" font-family="'ArialMT'" font-size="12">24</text>
<text transform="matrix(1 0 0 1 43.4009 142.9849)" font-family="'ArialMT'" font-size="12">26</text>
<text transform="matrix(1 0 0 1 44.6509 106.7349)" font-family="'ArialMT'" font-size="12">28</text>
<polygon id = 'shortage3-mouse' points="66,508 66,619 258,619 315.3,508 " onmouseover="mouserOn(evt,'shortage3')" onmouseout="mouserOff(evt,'shortage3')" opacity = '0'/>
<polygon id = 'shortage2-mouse' points="66,477 66,508 317,508 333,477 " onmouseover="mouserOn(evt,'shortage2');shortage2start()" onmouseout="shortage2end();mouserOff(evt,'shortage2')" opacity = '0'/>
<polygon id = 'shortage1-mouse' points="66,440 351,440 333,477 66,477 " onmouseover="mouserOn(evt,'shortage1')" onmouseout="mouserOff(evt,'shortage1')" opacity = '0'/>
<g id='Mexico' transform="translate(420,300)scale(0.85)rotate(0)">
	<path style="fill:none;stroke-width:2;stroke-linecap:round;stroke-linejoin:round;stroke:rgb(0%,0%,0%);stroke-opacity:1;stroke-miterlimit:10;" d="M 197.675781 129.941406 L 200.761719 132.378906 L 203.835938 135.5625 L 215.441406 144.539062 L 220.253906 148.914062 L 222.859375 155.34375 L 224.953125 161.125 L 231.445312 166.464844 L 235.484375 167.742188 L 243.417969 171.722656 L 247.71875 167.898438 L 250.300781 161.4375 L 252.867188 159.910156 L 253.550781 159.910156 L 255.859375 158.359375 L 264.546875 159.984375 L 266.140625 159.960938 L 266.890625 159.878906 L 269.355469 162.140625 "/>
	<path style="fill:none;stroke-width:2;stroke-linecap:round;stroke-linejoin:round;stroke:rgb(0%,0%,0%);stroke-opacity:1;stroke-miterlimit:10;" d="M 174.464844 129.898438 L 185.925781 129.898438 L 186.390625 129.890625 L 197.675781 129.941406 "/>
	<path style="fill:none;stroke-width:2;stroke-linecap:round;stroke-linejoin:round;stroke:rgb(0%,0%,0%);stroke-opacity:1;stroke-miterlimit:10;" d="M 174.46875 136.644531 L 174.46875 133.152344 L 174.464844 129.898438 "/>
	<path style="fill:none;stroke-width:2;stroke-linecap:round;stroke-linejoin:round;stroke:rgb(0%,0%,0%);stroke-opacity:1;stroke-miterlimit:10;" d="M 135.464844 136.644531 L 155.175781 136.648438 L 166.628906 136.648438 L 174.46875 136.644531 "/>
	<path style="fill:none;stroke-width:2;stroke-linecap:round;stroke-linejoin:round;stroke:rgb(0%,0%,0%);stroke-opacity:1;stroke-miterlimit:10;" d="M 83.726562 119.105469 L 109.578125 127.664062 L 109.84375 127.757812 L 135.464844 136.644531 "/>
	<path style="fill:none;stroke-width:2;stroke-linecap:round;stroke-linejoin:round;stroke:rgb(0%,0%,0%);stroke-opacity:1;stroke-miterlimit:10;" d="M 84.972656 115.894531 L 84 117.386719 L 83.726562 119.105469 "/>
	<path style="fill:none;stroke-width:2;stroke-linecap:round;stroke-linejoin:round;stroke:rgb(0%,0%,0%);stroke-opacity:1;stroke-miterlimit:10;" d="M 51.945312 118.671875 L 68.347656 117.210938 L 84.972656 115.894531 "/>
	<path style="fill:none;stroke-width:2;stroke-linecap:round;stroke-linejoin:round;stroke:rgb(0%,0%,0%);stroke-opacity:1;stroke-miterlimit:10;" d="M 78.503906 165.171875 L 71.5625 159.367188 L 70.242188 156.207031 L 69.019531 150.789062 L 68.230469 150.160156 L 67.777344 149.988281 L 67.082031 150.476562 L 65.871094 144.125 L 64.464844 143.1875 L 63.492188 142.160156 L 63.203125 140.09375 L 58.117188 133.007812 L 57.871094 130.839844 L 59.035156 130.011719 L 56.488281 126.894531 L 54.445312 122.894531 L 51.945312 118.671875 "/>
	<path style="fill:none;stroke-width:2;stroke-linecap:round;stroke-linejoin:round;stroke:rgb(0%,0%,0%);stroke-opacity:1;stroke-miterlimit:10;" d="M 118.097656 215.132812 L 116.089844 212.339844 L 111.734375 210.128906 L 107.542969 206.269531 L 106.644531 206.285156 L 105.414062 204.839844 L 106.667969 202.125 L 104.582031 205.109375 L 101.863281 204.394531 L 99.910156 205.128906 L 95.59375 201.539062 L 94.660156 201.570312 L 91.152344 199.25 L 88.238281 197.324219 L 86.25 194.171875 L 81.460938 190.746094 L 80.503906 189.304688 L 86.113281 189.941406 L 89.515625 188.757812 L 90.246094 188.792969 L 92.003906 190.988281 L 93.070312 190.964844 L 94.457031 190.996094 L 95.132812 190.96875 L 93.40625 190.480469 L 90.757812 188.828125 L 92.445312 186.164062 L 92.882812 183.101562 L 94.039062 179.019531 L 90.226562 174.921875 L 87.269531 172.488281 L 82.683594 167.039062 L 78.503906 165.171875 "/>
	<path style="fill:none;stroke-width:2;stroke-linecap:round;stroke-linejoin:round;stroke:rgb(0%,0%,0%);stroke-opacity:1;stroke-miterlimit:10;" d="M 122.960938 200.027344 L 122.324219 202.167969 L 123.550781 205.132812 L 126.378906 207.949219 L 124.515625 203.007812 L 128.402344 206.558594 L 129.441406 208.65625 L 131.429688 216.625 L 133.820312 222.863281 L 135.84375 224.496094 L 138.933594 230.710938 L 140.445312 235.304688 L 140.316406 240.648438 L 144.40625 243.445312 L 144.722656 243.710938 L 145.453125 244.527344 L 146.492188 241.179688 L 150.320312 245.71875 L 152.511719 246.441406 L 153.34375 248.832031 L 155.175781 252.042969 L 158.023438 254.777344 L 157.601562 257.429688 L 157.535156 258.125 L 150.25 263.445312 L 146.105469 254.371094 L 137.390625 247.054688 L 129.566406 241.292969 L 127.160156 238.414062 L 125.285156 238.074219 L 122.648438 234.199219 L 122.597656 234.558594 L 121.761719 234.667969 L 121.523438 235.058594 L 121.011719 231.804688 L 120.53125 231.84375 L 120.554688 229.425781 L 121.324219 222.082031 L 121.132812 222.546875 L 120.863281 221.597656 L 118.097656 215.132812 "/>
	<path style="fill:none;stroke-width:2;stroke-linecap:round;stroke-linejoin:round;stroke:rgb(0%,0%,0%);stroke-opacity:1;stroke-miterlimit:10;" d="M 99.859375 136.398438 L 99.085938 133.75 L 95.152344 132.347656 L 94.566406 134.179688 L 92.964844 134.191406 L 80.824219 127.910156 L 83.59375 130.726562 L 83.386719 132.929688 L 83.339844 140.472656 L 84.976562 142.515625 L 85.992188 153.113281 L 88.835938 157.785156 L 90.390625 160.066406 L 90.453125 160.109375 L 90.832031 160.171875 L 95.484375 163.65625 L 100.023438 168.984375 L 101.441406 172.925781 L 102.601562 172.273438 L 104.507812 174.554688 L 106.191406 175.109375 L 107.890625 179.835938 L 109.75 179.828125 L 110.625 182.796875 L 112.707031 189.707031 L 116.746094 193.152344 L 119.550781 197.980469 L 122.960938 200.027344 "/>
	<path style="fill:none;stroke-width:2;stroke-linecap:round;stroke-linejoin:round;stroke:rgb(0%,0%,0%);stroke-opacity:1;stroke-miterlimit:10;" d="M 152.496094 205.503906 L 151 200.980469 L 147.796875 199.667969 L 144.347656 197.804688 L 143.632812 197.023438 L 142.308594 196.054688 L 141.703125 191.59375 L 141.773438 190.476562 L 142.171875 189.082031 L 142.253906 188.507812 L 141.539062 188.464844 L 138.523438 187.375 L 138.140625 187.3125 L 137.324219 188.53125 L 135.324219 187.335938 L 134.65625 187.40625 L 130.121094 180.976562 L 126.132812 178.578125 L 124.136719 176.390625 L 123.171875 175.371094 L 124.222656 175.378906 L 120.765625 172.097656 L 119.585938 167.445312 L 117.867188 167.082031 L 117.035156 165.164062 L 112.855469 157.941406 L 111.980469 155.269531 L 110.664062 152.113281 L 107.933594 147.03125 L 107.265625 140.996094 L 108.082031 139.640625 L 105.183594 137.34375 L 99.859375 136.398438 "/>
	<path style="fill:none;stroke-width:2;stroke-linecap:round;stroke-linejoin:round;stroke:rgb(0%,0%,0%);stroke-opacity:1;stroke-miterlimit:10;" d="M 213.382812 308.933594 L 209.550781 299.953125 L 215.335938 297.28125 L 213.363281 294.964844 L 212.324219 294.988281 L 211.554688 294.207031 L 215.511719 289.136719 L 215.441406 283.644531 L 212.4375 281.40625 L 209.636719 275.152344 L 208.648438 269.277344 L 204.484375 264.011719 L 198.125 256.828125 L 189.042969 245.664062 L 183.140625 240.726562 L 183.496094 240.734375 L 184.488281 240.277344 L 182.976562 238.726562 L 182.09375 239.359375 L 179.660156 238.3125 L 177.214844 235.96875 L 177.210938 235.871094 L 177.089844 234.996094 L 177.214844 231.832031 L 176.609375 234.1875 L 174.140625 231.050781 L 174.589844 231.265625 L 175.515625 231.246094 L 175.949219 231.300781 L 177.324219 231.269531 L 173.113281 229.148438 L 172.976562 227.898438 L 171.925781 228.792969 L 167.832031 225.988281 L 167.445312 225.699219 L 166.804688 224.660156 L 165.816406 223.101562 L 165.28125 223.824219 L 162.996094 224.496094 L 162.578125 222.941406 L 163.421875 222.96875 L 165.292969 220.695312 L 162.847656 222.628906 L 160.75 221.636719 L 161.070312 222.4375 L 158.773438 222.09375 L 159.488281 221.460938 L 158.253906 220.1875 L 157.773438 217.777344 L 159.675781 212.949219 L 159.671875 213.046875 L 160.449219 211.691406 L 161.605469 212.941406 L 162.167969 212.628906 L 160.707031 211.148438 L 160.304688 210.28125 L 156.308594 205.117188 L 156.703125 206.066406 L 152.496094 205.503906 "/>
	<path style="fill:none;stroke-width:2;stroke-linecap:round;stroke-linejoin:round;stroke:rgb(0%,0%,0%);stroke-opacity:1;stroke-miterlimit:10;" d="M 278.371094 349.378906 L 272.464844 346.347656 L 263.257812 339.277344 L 259.023438 336.582031 L 256.550781 337.15625 L 241.894531 332.402344 L 241.8125 332.371094 L 240.894531 332.140625 L 236.277344 326.515625 L 227.804688 320.71875 L 221.199219 317.796875 L 218.246094 315.460938 L 213.382812 308.933594 "/>
	<path style="fill:none;stroke-width:2;stroke-linecap:round;stroke-linejoin:round;stroke:rgb(0%,0%,0%);stroke-opacity:1;stroke-miterlimit:10;" d="M 362.441406 363.527344 L 360.417969 362.890625 L 361.46875 361.222656 L 360.472656 361.203125 L 358.96875 361.738281 L 357.554688 360.109375 L 355.695312 362.484375 L 357.375 362.683594 L 358.089844 363.105469 L 352.542969 364.398438 L 348.308594 367.171875 L 337.171875 371.175781 L 336.144531 371.140625 L 333.628906 371.175781 L 328.910156 369.308594 L 328.84375 369.265625 L 327.925781 368.808594 L 319.546875 366.996094 L 314.128906 364.097656 L 309.320312 362.421875 L 305.015625 359.007812 L 292.363281 355.871094 L 288.8125 353.273438 L 278.371094 349.378906 "/>
	<path style="fill:none;stroke-width:2;stroke-linecap:round;stroke-linejoin:round;stroke:rgb(0%,0%,0%);stroke-opacity:1;stroke-miterlimit:10;" d="M 362.441406 363.527344 L 369.078125 365.375 L 364.101562 362.660156 L 365.09375 362.46875 L 368.367188 363.894531 L 371.488281 365.691406 L 371.535156 365.742188 L 371.59375 366.230469 L 386.945312 379.28125 L 386.347656 378.921875 L 386.484375 379.941406 "/>
	<path style="fill:none;stroke-width:2;stroke-linecap:round;stroke-linejoin:round;stroke:rgb(0%,0%,0%);stroke-opacity:1;stroke-miterlimit:10;" d="M 393.886719 388.082031 L 390.148438 384.03125 L 390.125 384 L 386.484375 379.941406 "/>
	<path style="fill:none;stroke-width:2;stroke-linecap:round;stroke-linejoin:round;stroke:rgb(0%,0%,0%);stroke-opacity:1;stroke-miterlimit:10;" d="M 393.886719 388.082031 L 394.96875 384.589844 L 394.769531 384.039062 L 396.378906 380.152344 "/>
	<path style="fill:none;stroke-width:2;stroke-linecap:round;stroke-linejoin:round;stroke:rgb(0%,0%,0%);stroke-opacity:1;stroke-miterlimit:10;" d="M 396.378906 380.152344 L 394.769531 376.65625 L 401.789062 365.207031 L 402.726562 365.203125 L 402.773438 365.207031 L 418.636719 365.210938 "/>
	<path style="fill:none;stroke-width:2;stroke-linecap:round;stroke-linejoin:round;stroke:rgb(0%,0%,0%);stroke-opacity:1;stroke-miterlimit:10;" d="M 418.636719 365.210938 L 419.375 361.25 L 418.375 359.984375 L 415.902344 358.101562 L 415.730469 356.78125 L 415.53125 356.484375 L 410.15625 352.488281 L 405.023438 347.5 "/>
	<path style="fill:none;stroke-width:2;stroke-linecap:round;stroke-linejoin:round;stroke:rgb(0%,0%,0%);stroke-opacity:1;stroke-miterlimit:10;" d="M 405.023438 347.5 L 411.253906 346.800781 L 411.910156 339.070312 L 416.707031 339.058594 L 436.578125 339.089844 "/>
	<path style="fill:none;stroke-width:2;stroke-linecap:round;stroke-linejoin:round;stroke:rgb(0%,0%,0%);stroke-opacity:1;stroke-miterlimit:10;" d="M 436.578125 339.089844 L 436.570312 338.066406 L 436.554688 337.039062 "/>
	<path style="fill:none;stroke-width:2;stroke-linecap:round;stroke-linejoin:round;stroke:rgb(0%,0%,0%);stroke-opacity:1;stroke-miterlimit:10;" d="M 436.554688 337.039062 L 439.335938 336.972656 L 439.488281 337.210938 L 439.523438 337.277344 L 440.257812 337.746094 L 441.640625 336.550781 "/>
	<path style="fill:none;stroke-width:2;stroke-linecap:round;stroke-linejoin:round;stroke:rgb(0%,0%,0%);stroke-opacity:1;stroke-miterlimit:10;" d="M 443.800781 333.136719 L 442.601562 334.691406 L 442.585938 334.726562 L 441.640625 336.550781 "/>
	<path style="fill:none;stroke-width:2;stroke-linecap:round;stroke-linejoin:round;stroke:rgb(0%,0%,0%);stroke-opacity:1;stroke-miterlimit:10;" d="M 443.800781 333.136719 L 445.160156 329.933594 L 446.179688 329.1875 L 447.074219 329.148438 L 448.160156 329.140625 "/>
	<path style="fill:none;stroke-width:2;stroke-linecap:round;stroke-linejoin:round;stroke:rgb(0%,0%,0%);stroke-opacity:1;stroke-miterlimit:10;" d="M 448.375 329.09375 L 448.253906 329.082031 L 448.160156 329.140625 "/>
	<path style="fill:none;stroke-width:2;stroke-linecap:round;stroke-linejoin:round;stroke:rgb(0%,0%,0%);stroke-opacity:1;stroke-miterlimit:10;" d="M 464.472656 282.097656 L 468.628906 286.109375 L 469.359375 289.125 L 465.773438 296.136719 L 459.699219 304.351562 L 459.519531 307.039062 L 458.574219 309.15625 L 456.652344 311.273438 L 455.886719 311.21875 L 457.367188 313.441406 L 460.128906 312.445312 L 459.71875 312.695312 L 460.277344 312.503906 L 460.316406 312.566406 L 460.34375 312.640625 L 460.257812 313.035156 L 458.476562 314.902344 L 456.652344 317.800781 L 459.054688 316.492188 L 454.4375 332.78125 L 453.859375 331.742188 L 451.351562 328.261719 L 451.839844 324.066406 L 450.300781 325.394531 L 449.472656 325.464844 L 449.753906 325.394531 L 448.375 329.09375 "/>
	<path style="fill:none;stroke-width:2;stroke-linecap:round;stroke-linejoin:round;stroke:rgb(0%,0%,0%);stroke-opacity:1;stroke-miterlimit:10;" d="M 414.757812 315.800781 L 416.023438 309.253906 L 418.355469 306.09375 L 418.828125 295.046875 L 418.980469 294.609375 L 421.242188 290.292969 L 430.777344 286.816406 L 437.496094 285.890625 L 443.039062 284.304688 L 449.78125 282.808594 L 449.511719 282.726562 L 449.546875 282.59375 L 461.132812 284.71875 L 464.203125 283.621094 L 460.375 283.769531 L 464.472656 282.097656 "/>
	<path style="fill:none;stroke-width:2;stroke-linecap:round;stroke-linejoin:round;stroke:rgb(0%,0%,0%);stroke-opacity:1;stroke-miterlimit:10;" d="M 364.460938 334.054688 L 371.417969 332.601562 L 375.699219 330.265625 L 374.171875 330.625 L 381.144531 330.328125 L 382.265625 330.785156 L 382.175781 329.75 L 386.847656 328.195312 L 387.820312 328.226562 L 388.105469 328.714844 L 388.472656 327.105469 L 398.167969 326.050781 L 398.6875 327.492188 L 397.570312 327.316406 L 397.15625 328.277344 L 397.953125 328.269531 L 397.730469 327.78125 L 398.398438 327.824219 L 399.578125 330.285156 L 399.988281 329.300781 L 400.957031 329.363281 L 404.390625 329.355469 L 407.832031 326.929688 L 407.613281 326.84375 L 407.269531 326.15625 L 405.527344 323.910156 L 404.671875 324.347656 L 407.003906 322.019531 L 414.757812 315.800781 "/>
	<path style="fill:none;stroke-width:2;stroke-linecap:round;stroke-linejoin:round;stroke:rgb(0%,0%,0%);stroke-opacity:1;stroke-miterlimit:10;" d="M 326.089844 295.117188 L 336.875 310.742188 L 339.355469 317.378906 L 341.011719 319.601562 L 342.917969 321.796875 L 345.230469 324.1875 L 343.941406 324.050781 L 344.375 324.710938 L 344.195312 325.546875 L 344.90625 325.519531 L 346.523438 325.527344 L 346.035156 325.175781 L 353.894531 326.132812 L 357.855469 328.394531 L 362.660156 334.0625 L 364.460938 334.054688 "/>
	<path style="fill:none;stroke-width:2;stroke-linecap:round;stroke-linejoin:round;stroke:rgb(0%,0%,0%);stroke-opacity:1;stroke-miterlimit:10;" d="M 326.667969 217.007812 L 324.183594 225.660156 L 320.21875 236.046875 L 317.9375 249.730469 L 318.371094 250.699219 L 318.566406 250.621094 L 317.617188 264.480469 L 316.4375 267.636719 L 317.144531 267.097656 L 317.351562 270.824219 L 318.246094 275.328125 L 323.777344 282.390625 L 323.042969 286.617188 L 322.214844 285.648438 L 323.261719 284.285156 L 318.648438 276.726562 L 318.867188 278.507812 L 321.230469 284.355469 L 326.089844 295.117188 "/>
	<path style="fill:none;stroke-width:2;stroke-linecap:round;stroke-linejoin:round;stroke:rgb(0%,0%,0%);stroke-opacity:1;stroke-miterlimit:10;" d="M 298.683594 208.09375 L 300.851562 210.652344 L 305.253906 212.230469 L 310.5625 214.839844 L 311.65625 215.398438 L 311.753906 215.402344 L 318.066406 216.015625 L 322.441406 218.40625 L 323.824219 218.382812 L 326.667969 217.007812 "/>
	<path style="fill:none;stroke-width:2;stroke-linecap:round;stroke-linejoin:round;stroke:rgb(0%,0%,0%);stroke-opacity:1;stroke-miterlimit:10;" d="M 294.75 200.851562 L 297.539062 204.023438 L 298.683594 208.09375 "/>
	<path style="fill:none;stroke-width:2;stroke-linecap:round;stroke-linejoin:round;stroke:rgb(0%,0%,0%);stroke-opacity:1;stroke-miterlimit:10;" d="M 273.09375 164.808594 L 278.648438 171.535156 L 282.765625 180.398438 L 284.496094 183.160156 L 285.171875 183.792969 L 289.160156 189.308594 L 293.574219 192.402344 L 294.304688 197.023438 L 294.75 200.851562 "/>
	<path style="fill:none;stroke-width:2;stroke-linecap:round;stroke-linejoin:round;stroke:rgb(0%,0%,0%);stroke-opacity:1;stroke-miterlimit:10;" d="M 269.355469 162.140625 L 269.945312 162.578125 L 270.789062 163.550781 L 273.09375 164.808594 "/>
	<path style="fill:none;stroke-width:2;stroke-linecap:round;stroke-linejoin:round;stroke:rgb(0%,0%,0%);stroke-opacity:1;stroke-miterlimit:10;" d="M 163.457031 224.898438 L 166.484375 225.9375 L 163.457031 224.898438 "/>
	<path style="fill:none;stroke-width:2;stroke-linecap:round;stroke-linejoin:round;stroke:rgb(0%,0%,0%);stroke-opacity:1;stroke-miterlimit:10;" d="M 122.1875 238.554688 L 124.738281 239.117188 L 126.53125 241.03125 L 126.507812 241.109375 L 122.1875 238.554688 "/>
	<path style="fill:none;stroke-width:2;stroke-linecap:round;stroke-linejoin:round;stroke:rgb(0%,0%,0%);stroke-opacity:1;stroke-miterlimit:10;" d="M 85.902344 131.367188 L 83.949219 129.933594 L 85.902344 131.367188 "/>
	<path style="fill:none;stroke-width:2;stroke-linecap:round;stroke-linejoin:round;stroke:rgb(0%,0%,0%);stroke-opacity:1;stroke-miterlimit:10;" d="M 462.515625 325.605469 L 462.5 326.765625 L 462.519531 326.683594 L 462.515625 325.605469 "/>
	<path style="fill:none;stroke-width:2;stroke-linecap:round;stroke-linejoin:round;stroke:rgb(0%,0%,0%);stroke-opacity:1;stroke-miterlimit:10;" d="M 110.167969 176.328125 L 111.898438 177.679688 L 110.167969 176.328125 "/>
	<path style="fill:none;stroke-width:2;stroke-linecap:round;stroke-linejoin:round;stroke:rgb(0%,0%,0%);stroke-opacity:1;stroke-miterlimit:10;" d="M 84.238281 331.117188 L 84.554688 331.523438 L 84.472656 331.503906 L 84.238281 331.117188 "/>
	<path style="fill:none;stroke-width:2;stroke-linecap:round;stroke-linejoin:round;stroke:rgb(0%,0%,0%);stroke-opacity:1;stroke-miterlimit:10;" d="M 461.511719 328.433594 L 461.109375 330.019531 L 461.511719 328.433594 "/>
	<path style="fill:none;stroke-width:2;stroke-linecap:round;stroke-linejoin:round;stroke:rgb(0%,0%,0%);stroke-opacity:1;stroke-miterlimit:10;" d="M 100.507812 162.851562 L 103.527344 165.8125 L 104.285156 167.140625 L 105.929688 167.878906 L 106.859375 170.636719 L 106.886719 170.710938 L 106.855469 171 L 101.339844 166.359375 L 100.507812 162.851562 "/>
	<path style="fill:none;stroke-width:2;stroke-linecap:round;stroke-linejoin:round;stroke:rgb(0%,0%,0%);stroke-opacity:1;stroke-miterlimit:10;" d="M 322.546875 225.136719 L 321.828125 228.578125 L 318.367188 248.089844 L 318.191406 248.34375 L 318.191406 240.054688 L 317.132812 240.097656 L 317.089844 240.042969 L 317.175781 238.484375 L 318.429688 239.332031 L 318.835938 234.335938 L 319.65625 233.3125 L 318.785156 231.804688 L 319.222656 229.09375 L 317.839844 227.699219 L 317.984375 227.476562 L 319.148438 226.027344 L 319.90625 226.894531 L 320.773438 226.867188 L 321.328125 225.09375 L 322.546875 225.136719 "/>
	<path style="fill:none;stroke-width:2;stroke-linecap:round;stroke-linejoin:round;stroke:rgb(0%,0%,0%);stroke-opacity:1;stroke-miterlimit:10;" d="M 134.132812 215.566406 L 134.757812 216.285156 L 134.523438 216.703125 L 133.609375 218.246094 L 134.132812 215.566406 "/>
	<path style="fill:none;stroke-width:2;stroke-linecap:round;stroke-linejoin:round;stroke:rgb(0%,0%,0%);stroke-opacity:1;stroke-miterlimit:10;" d="M 140.210938 230.140625 L 142.304688 232.496094 L 142.261719 233.273438 L 140.210938 230.140625 "/>
	<path style="fill:none;stroke-width:2;stroke-linecap:round;stroke-linejoin:round;stroke:rgb(0%,0%,0%);stroke-opacity:1;stroke-miterlimit:10;" d="M 35.679688 172.832031 L 36.59375 172.203125 L 35.632812 169.046875 L 35.664062 168.976562 L 34.6875 168.859375 L 35.679688 172.832031 "/>
	<path style="fill:none;stroke-width:2;stroke-linecap:round;stroke-linejoin:round;stroke:rgb(0%,0%,0%);stroke-opacity:1;stroke-miterlimit:10;" d="M 120.507812 227.304688 L 120.136719 234.957031 L 121.066406 238.355469 L 120.910156 237.90625 L 120.066406 236.230469 L 118.789062 234.382812 L 120.507812 227.304688 "/>
	<path style="fill:none;stroke-width:2;stroke-linecap:round;stroke-linejoin:round;stroke:rgb(0%,0%,0%);stroke-opacity:1;stroke-miterlimit:10;" d="M 144.429688 237.789062 L 145.496094 240.132812 L 145.390625 240.339844 L 145.363281 240.417969 L 144.429688 237.789062 "/>
	<path style="fill:none;stroke-width:2;stroke-linecap:round;stroke-linejoin:round;stroke:rgb(0%,0%,0%);stroke-opacity:1;stroke-miterlimit:10;" d="M 114.046875 175.679688 L 114.882812 176.226562 L 114.867188 176.316406 L 114.046875 175.679688 "/>
	<path style="fill:none;stroke-width:2;stroke-linecap:round;stroke-linejoin:round;stroke:rgb(0%,0%,0%);stroke-opacity:1;stroke-miterlimit:10;" d="M 201.421875 286.363281 L 201.964844 287.628906 L 201.421875 286.363281 "/>
	<path style="fill:none;stroke-width:2;stroke-linecap:round;stroke-linejoin:round;stroke:rgb(0%,0%,0%);stroke-opacity:1;stroke-miterlimit:10;" d="M 403.613281 324.5625 L 400.953125 326.261719 L 400.882812 326.289062 L 403.613281 324.5625 "/>
	<path style="fill:none;stroke-width:2;stroke-linecap:round;stroke-linejoin:round;stroke:rgb(0%,0%,0%);stroke-opacity:1;stroke-miterlimit:10;" d="M 469.523438 298.003906 L 465.894531 302.136719 L 465.714844 301.242188 L 465.707031 301.152344 L 467.6875 298.074219 L 468.785156 298.03125 L 469.523438 298.003906 "/>
	<path style="fill:none;stroke-width:2;stroke-linecap:round;stroke-linejoin:round;stroke:rgb(0%,0%,0%);stroke-opacity:1;stroke-miterlimit:10;" d="M 116.332031 168.625 L 118.683594 168.460938 L 119.117188 173.332031 L 118.8125 174.953125 L 118.746094 174.988281 L 115.121094 173.816406 L 116.332031 168.625 "/>
	<path style="fill:none;stroke-width:2;stroke-linecap:round;stroke-linejoin:round;stroke:rgb(0%,0%,0%);stroke-opacity:1;stroke-miterlimit:10;" d="M 77.535156 185.550781 L 78.878906 185.507812 L 78.074219 181.074219 L 77.996094 181.039062 L 77.335938 182.160156 L 76.460938 184.558594 L 77.535156 185.550781 "/>
	<path style="fill:none;stroke-width:2;stroke-linecap:round;stroke-linejoin:round;stroke:rgb(0%,0%,0%);stroke-opacity:1;stroke-miterlimit:10;" d="M 198.34375 283.789062 L 199.996094 284.585938 L 199.761719 284.863281 L 199.734375 284.945312 L 198.492188 285.050781 L 198.34375 283.789062 "/>
	<path style="fill:none;stroke-width:2;stroke-linecap:round;stroke-linejoin:round;stroke:rgb(0%,0%,0%);stroke-opacity:1;stroke-miterlimit:10;" d="M 138.628906 316.460938 L 138.648438 317.039062 L 138.628906 316.460938 "/>
	<path style="fill:none;stroke-width:2;stroke-linecap:round;stroke-linejoin:round;stroke:rgb(0%,0%,0%);stroke-opacity:1;stroke-miterlimit:10;" d="M 195.378906 279.496094 L 195.941406 279.988281 L 195.894531 280.046875 L 195.378906 279.496094 "/>
	<path style="fill:none;stroke-width:2;stroke-linecap:round;stroke-linejoin:round;stroke:rgb(0%,0%,0%);stroke-opacity:1;stroke-miterlimit:10;" d="M 136.121094 323.378906 L 136.785156 325.507812 L 136.4375 325.648438 L 135.589844 325.105469 L 136.121094 323.378906 "/>
	<path style="fill:none;stroke-width:2;stroke-linecap:round;stroke-linejoin:round;stroke:rgb(0%,0%,0%);stroke-opacity:1;stroke-miterlimit:10;" d="M 151 240.96875 L 152.75 244.519531 L 152.65625 244.5 L 151 240.96875 "/>
	<path style="fill:none;stroke-width:2;stroke-linecap:round;stroke-linejoin:round;stroke:rgb(0%,0%,0%);stroke-opacity:1;stroke-miterlimit:10;" d="M 195.910156 281.089844 L 197.765625 281.921875 L 197.902344 283.078125 L 197.960938 283.125 L 197.503906 283.730469 L 195.910156 281.089844 "/>
</g>
<g id='states'>
<g id="California" transform="translate(490,180)rotate(-10)">
		<path style="fill:none;stroke-width:2;stroke-linecap:round;stroke-linejoin:round;stroke:rgb(0%,0%,0%);stroke-opacity:1;stroke-miterlimit:10;" d="M 157.210938 186.78125 L 154.179688 188.820312 L 151.789062 187.996094 L 150.574219 185.808594 L 145.125 186.21875 L 144.890625 183.683594 L 144.339844 182.230469 L 143.792969 182.421875 L 144.640625 183.617188 L 144.484375 185.300781 L 142.378906 182.929688 L 141.441406 183.996094 L 140.234375 183.671875 L 139.683594 182.472656 L 140.335938 184.480469 L 139.246094 186.042969 L 140.308594 187.339844 L 138.992188 188.402344 L 138.984375 191.125 L 137.738281 191.117188 L 135.265625 188.046875 L 134.671875 188.230469 L 132.808594 184.527344 L 130.972656 183.363281 L 129.984375 184.195312 L 128.921875 183.785156 L 131.445312 180.0625 L 131.324219 175.992188 L 130.21875 175.761719 L 129.726562 171.707031 L 126.996094 167.722656 L 123.984375 160.929688 L 121.25 155.417969 L 122.847656 152.601562 L 122.484375 143.878906 L 125.121094 138.921875 L 125.535156 135.238281 L 125.480469 131.300781 L 123.441406 125.828125 L 122.503906 122.671875 L 118.78125 117.234375 L 119.519531 115.339844 L 119.238281 112.207031 L 128.753906 99.800781 L 129.113281 95.660156 L 131.996094 91.316406 L 133.339844 87.652344 L 133.738281 80.171875 L 132.246094 78.3125 L 133.460938 76.664062 L 134.621094 72.800781 L 141.875 75.160156 L 147.683594 76.777344 L 153.210938 78.300781 L 170.949219 83.472656 L 186.933594 88.082031 L 197.75 91.164062 L 214.558594 95.449219 L 209.410156 116.691406 L 200.40625 154.859375 L 198.71875 162.121094 L 197.929688 165.585938 L 196.996094 169.589844 L 196.699219 170.972656 L 196.425781 172.085938 L 196.003906 173.902344 L 197.699219 176.3125 L 202.710938 183.609375 L 206.878906 189.472656 L 209.585938 193.300781 L 221.640625 210.570312 L 231.253906 224.515625 L 242.777344 240.628906 L 264.996094 271.28125 L 269.582031 277.753906 L 287.683594 302.722656 L 287.4375 302.710938 L 287.453125 304.183594 L 287.148438 304.78125 L 287.035156 305.957031 L 288.089844 307.328125 L 288.402344 309.332031 L 288.714844 309.6875 L 289.296875 309.902344 L 289.851562 310.945312 L 290.386719 313.722656 L 290.078125 313.992188 L 290.546875 314.484375 L 291.070312 315.855469 L 290.675781 317.402344 L 290.765625 317.886719 L 291.699219 318.179688 L 292.269531 318.796875 L 292.597656 319.492188 L 293.128906 319.761719 L 294.617188 321.105469 L 295.128906 321.972656 L 295.460938 322.621094 L 295.488281 323.761719 L 294.925781 323.820312 L 292.730469 325.636719 L 291.585938 325.847656 L 290.648438 326.5 L 288.582031 327.191406 L 288.179688 327.78125 L 287.875 329.046875 L 285.660156 330.417969 L 285.445312 330.722656 L 285.933594 331.550781 L 285.183594 333.105469 L 285.300781 333.695312 L 285.027344 334.078125 L 285.171875 335.574219 L 284.929688 336.308594 L 285.109375 337.28125 L 284.109375 337.804688 L 284.285156 338.300781 L 284.066406 339.441406 L 283.613281 340.488281 L 283.765625 341.070312 L 282.292969 342.1875 L 281.957031 342.757812 L 281.378906 343.132812 L 281.050781 343.867188 L 280.648438 344.347656 L 278.855469 344.253906 L 279.085938 345.882812 L 278.191406 346.992188 L 279.3125 348.210938 L 278.972656 348.929688 L 279.082031 349.347656 L 278.894531 350.867188 L 278.019531 351.933594 L 277.867188 352.636719 L 278.6875 354.308594 L 279.125 354.238281 L 279.328125 354.566406 L 279.835938 354.832031 L 281 354.769531 L 281.816406 355.15625 L 282.773438 356.675781 L 282.425781 357.75 L 282.398438 360.195312 L 280.820312 360.882812 L 280.535156 361.425781 L 280.578125 361.886719 L 280.285156 361.839844 L 280.25 362.117188 L 279.835938 362.046875 L 279.808594 362.359375 L 279.550781 362.320312 L 279.511719 362.621094 L 278.804688 362.539062 L 278.757812 362.792969 L 276.8125 362.042969 L 276.375 362.140625 L 276.109375 362.476562 L 244.933594 359.511719 L 221.929688 357.234375 L 221.207031 352.105469 L 222.410156 355.503906 L 222.683594 353.484375 L 221.324219 351.570312 L 219.957031 352.890625 L 219.949219 348.222656 L 220.796875 347.390625 L 220.246094 341.179688 L 219.042969 337.582031 L 215.722656 332.5 L 206.375 320.835938 L 203.472656 319.480469 L 202.238281 321.125 L 199.847656 319.652344 L 199.519531 318.5625 L 200.59375 317.792969 L 200.441406 315.820312 L 198.429688 311.140625 L 193.007812 310.441406 L 189.855469 309.121094 L 184.453125 304.953125 L 183.863281 302.292969 L 179.964844 297.613281 L 177.550781 295.898438 L 171.847656 294.851562 L 169.128906 292.625 L 166.433594 291.683594 L 159.511719 290.785156 L 158.832031 288.4375 L 156.316406 286.398438 L 157.929688 283.164062 L 157.617188 281.539062 L 158.675781 279.160156 L 157.734375 277.585938 L 158.597656 275.902344 L 159.78125 273.371094 L 159.707031 271.550781 L 155.40625 268.542969 L 155.238281 267.109375 L 156.574219 264.539062 L 156.421875 262.75 L 154.136719 261.363281 L 151.9375 256.007812 L 149.550781 254.4375 L 149.164062 250.519531 L 147.21875 247.816406 L 144.011719 238.59375 L 140.816406 234.234375 L 141.070312 226.621094 L 142.34375 225.359375 L 143.042969 226.460938 L 144.511719 225.730469 L 146.574219 221.527344 L 146.148438 220.542969 L 144.980469 217.113281 L 141.238281 216.5 L 139.285156 214.476562 L 137.90625 211.144531 L 135.914062 206.894531 L 137.183594 204.085938 L 136.960938 200.472656 L 135.945312 198.976562 L 137.28125 194.394531 L 137.832031 192.234375 L 139.972656 192.117188 L 140.519531 194.601562 L 139.96875 195.082031 L 139.488281 197.535156 L 143.949219 203.160156 L 146.324219 203.582031 L 144.167969 201.96875 L 143.5625 195.164062 L 141.5625 193.402344 L 142.414062 190.472656 L 141.238281 189.65625 L 141.5 187.9375 L 143.472656 187.332031 L 149.707031 187.867188 L 155.585938 190.40625 L 156.824219 188.992188 L 158.511719 189.222656 L 158.464844 190.058594 L 158.910156 190.183594 L 158.71875 188.730469 L 159.25 188.21875 L 156.855469 188.714844 Z M 170.039062 303.5 L 174.042969 305.941406 L 176.285156 305.527344 L 177.234375 306.335938 L 176.730469 306.992188 L 172.773438 307.183594 L 169.886719 306.40625 L 169.1875 305.238281 L 169.664062 304.605469 L 168.660156 303.609375 Z M 162.742188 305.894531 L 161.703125 303.246094 L 165.996094 303.460938 L 167.269531 306.34375 L 163.832031 306.96875 Z M 194.394531 325.5 L 199.097656 328.457031 L 200.1875 330.796875 L 199.847656 331.457031 L 196.628906 330.273438 L 196.550781 327.660156 L 194.992188 326.902344 Z M 196.34375 344.058594 L 194.757812 344.066406 L 193.1875 341.363281 L 191.921875 337.550781 L 192.609375 337.292969 L 193.015625 338.714844 Z "/>
</g>
<g id="Nevada" transform="translate(534,170)rotate(-10)">
	<path style="fill:none;stroke-width:2;stroke-linecap:round;stroke-linejoin:round;stroke:rgb(0%,0%,0%);stroke-opacity:1;stroke-miterlimit:10;" d="M 209.585938 193.300781 L 206.878906 189.472656 L 202.710938 183.609375 L 197.699219 176.3125 L 196.003906 173.902344 L 196.425781 172.085938 L 196.699219 170.972656 L 196.996094 169.589844 L 197.929688 165.585938 L 198.71875 162.121094 L 200.40625 154.859375 L 209.410156 116.691406 L 214.558594 95.449219 L 226.867188 98.503906 L 227.648438 98.6875 L 249.355469 103.582031 L 271.878906 108.589844 L 272.394531 108.699219 L 292.652344 112.859375 L 310.609375 116.261719 L 325.332031 118.949219 L 329.828125 119.753906 L 325.445312 146.164062 L 321.585938 169.632812 L 320.675781 174.980469 L 319.078125 184.777344 L 315.324219 207.515625 L 314.851562 210.367188 L 312.976562 221.832031 L 310.71875 236.097656 L 308.289062 252.035156 L 307.65625 256.128906 L 305.21875 272.707031 L 304.964844 273.261719 L 303.332031 274.960938 L 302.554688 276.984375 L 300.796875 277.347656 L 300.230469 277.222656 L 298.835938 275.789062 L 299.015625 275.144531 L 298.855469 274.457031 L 298.367188 273.664062 L 297.644531 273.171875 L 296.175781 273.730469 L 295.707031 273.550781 L 294.476562 272.507812 L 292.949219 272.695312 L 292.484375 272.515625 L 290.390625 273.144531 L 289.980469 273.59375 L 289.84375 274.308594 L 289.992188 274.933594 L 289.386719 276.160156 L 289.851562 278.308594 L 290.523438 279.277344 L 290.464844 279.523438 L 289.777344 280.042969 L 289.578125 282.253906 L 289.3125 283.082031 L 289.652344 284.214844 L 289.425781 285.171875 L 289.695312 285.484375 L 289.847656 286.46875 L 289.453125 287.121094 L 289.363281 288.140625 L 288.753906 288.871094 L 289.054688 290.691406 L 289.863281 293.34375 L 289.675781 294.765625 L 289.933594 297.105469 L 289.710938 298.3125 L 289.324219 299.175781 L 289.070312 299.335938 L 288.132812 299.132812 L 287.863281 299.5 L 288.554688 300.777344 L 287.589844 301.539062 L 287.683594 302.722656 L 269.582031 277.753906 L 264.996094 271.28125 L 242.777344 240.628906 L 231.253906 224.515625 L 221.640625 210.570312 Z "/>
</g>
<g id="Arizona" transform="translate(520,238)rotate(-10)">
	<path style="fill:none;stroke-width:2;stroke-linecap:round;stroke-linejoin:round;stroke:rgb(0%,0%,0%);stroke-opacity:1;stroke-miterlimit:10;" d="M 281.816406 355.15625 L 281 354.769531 L 279.835938 354.832031 L 279.328125 354.566406 L 279.125 354.238281 L 278.6875 354.308594 L 277.867188 352.636719 L 278.019531 351.933594 L 278.894531 350.867188 L 279.082031 349.347656 L 278.972656 348.929688 L 279.3125 348.210938 L 278.191406 346.992188 L 279.085938 345.882812 L 278.855469 344.253906 L 280.648438 344.347656 L 281.050781 343.867188 L 281.378906 343.132812 L 281.957031 342.757812 L 282.292969 342.1875 L 283.765625 341.070312 L 283.613281 340.488281 L 284.066406 339.441406 L 284.285156 338.300781 L 284.109375 337.804688 L 285.109375 337.28125 L 284.929688 336.308594 L 285.171875 335.574219 L 285.027344 334.078125 L 285.300781 333.695312 L 285.183594 333.105469 L 285.933594 331.550781 L 285.445312 330.722656 L 285.660156 330.417969 L 287.875 329.046875 L 288.179688 327.78125 L 288.582031 327.191406 L 290.648438 326.5 L 291.585938 325.847656 L 292.730469 325.636719 L 294.925781 323.820312 L 295.488281 323.761719 L 295.460938 322.621094 L 295.128906 321.972656 L 294.617188 321.105469 L 293.128906 319.761719 L 292.597656 319.492188 L 292.269531 318.796875 L 291.699219 318.179688 L 290.765625 317.886719 L 290.675781 317.402344 L 291.070312 315.855469 L 290.546875 314.484375 L 290.078125 313.992188 L 290.386719 313.722656 L 289.851562 310.945312 L 289.296875 309.902344 L 288.714844 309.6875 L 288.402344 309.332031 L 288.089844 307.328125 L 287.035156 305.957031 L 287.148438 304.78125 L 287.453125 304.183594 L 287.4375 302.710938 L 287.683594 302.722656 L 287.589844 301.539062 L 288.554688 300.777344 L 287.863281 299.5 L 288.132812 299.132812 L 289.070312 299.335938 L 289.324219 299.175781 L 289.710938 298.3125 L 289.933594 297.105469 L 289.675781 294.765625 L 289.863281 293.34375 L 289.054688 290.691406 L 288.753906 288.871094 L 289.363281 288.140625 L 289.453125 287.121094 L 289.847656 286.46875 L 289.695312 285.484375 L 289.425781 285.171875 L 289.652344 284.214844 L 289.3125 283.082031 L 289.578125 282.253906 L 289.777344 280.042969 L 290.464844 279.523438 L 290.523438 279.277344 L 289.851562 278.308594 L 289.386719 276.160156 L 289.992188 274.933594 L 289.84375 274.308594 L 289.980469 273.59375 L 290.390625 273.144531 L 292.484375 272.515625 L 292.949219 272.695312 L 294.476562 272.507812 L 295.707031 273.550781 L 296.175781 273.730469 L 297.644531 273.171875 L 298.367188 273.664062 L 298.855469 274.457031 L 299.015625 275.144531 L 298.835938 275.789062 L 300.230469 277.222656 L 300.796875 277.347656 L 302.554688 276.984375 L 303.332031 274.960938 L 304.964844 273.261719 L 305.21875 272.707031 L 307.65625 256.128906 L 308.289062 252.035156 L 332.402344 255.96875 L 339.953125 257.082031 L 346.398438 258.109375 L 365.058594 260.59375 L 378.117188 262.308594 L 383.550781 262.960938 L 384.1875 263.371094 L 393.847656 264.546875 L 414.019531 266.730469 L 411.386719 293.316406 L 408.703125 321.003906 L 407.722656 330.636719 L 405.625 352.097656 L 404.164062 367.4375 L 403.082031 378.722656 L 402.285156 387.675781 L 399.675781 416.800781 L 367.535156 413.292969 L 353.414062 411.566406 L 346.929688 408.140625 L 304.652344 385.527344 L 272.941406 368.253906 L 273.742188 364.902344 L 276.109375 362.476562 L 276.375 362.140625 L 276.8125 362.042969 L 278.757812 362.792969 L 278.804688 362.539062 L 279.511719 362.621094 L 279.550781 362.320312 L 279.808594 362.359375 L 279.835938 362.046875 L 280.25 362.117188 L 280.285156 361.839844 L 280.578125 361.886719 L 280.535156 361.425781 L 280.820312 360.882812 L 282.398438 360.195312 L 282.425781 357.75 L 282.773438 356.675781 Z "/>
</g>
</g>
<!-- each block is 100,000 acre-ft/year-->
<!-- CA is 44 blocks-->
<g id='normal-allocation-CA' fill="#0066CC" stroke="#0066CC" visibility='visible' stroke-width="3" transform="translate(651,243)">
	<rect width="10" height="10" rx="2" ry="2"/>
	<rect x="15" width="10" height="10" rx="2" ry="2"/>
	<rect x="30" width="10" height="10" rx="2" ry="2"/>
	<rect x="45" width="10" height="10" rx="2" ry="2"/>
	<rect y="15" width="10" height="10" rx="2" ry="2"/>
	<rect x="15" y="15" width="10" height="10" rx="2" ry="2"/>
	<rect x="30" y="15" width="10" height="10" rx="2" ry="2"/>
	<rect x="45" y="15" width="10" height="10" rx="2" ry="2"/>
	<rect y="30" width="10" height="10" rx="2" ry="2"/>
	<rect x="15" y="30" width="10" height="10" rx="2" ry="2"/>
	<rect x="30" y="30" width="10" height="10" rx="2" ry="2"/>
	<rect x="45" y="30" width="10" height="10" rx="2" ry="2"/>
	<rect y="45" width="10" height="10" rx="2" ry="2"/>
	<rect x="15" y="45" width="10" height="10" rx="2" ry="2"/>
	<rect x="30" y="45" width="10" height="10" rx="2" ry="2"/>
	<rect x="45" y="45" width="10" height="10" rx="2" ry="2"/>
	<rect y="60" width="10" height="10" rx="2" ry="2"/>
	<rect x="15" y="60" width="10" height="10" rx="2" ry="2"/>
	<rect x="30" y="60" width="10" height="10" rx="2" ry="2"/>
	<rect x="45" y="60" width="10" height="10" rx="2" ry="2"/>
	<rect x="15" y="75" width="10" height="10" rx="2" ry="2"/>
	<rect x="30" y="75" width="10" height="10" rx="2" ry="2"/>
	<rect x="45" y="75" width="10" height="10" rx="2" ry="2"/>
	<rect x="15" y="90" width="10" height="10" rx="2" ry="2"/>
	<rect x="30" y="90" width="10" height="10" rx="2" ry="2"/>
	<rect x="45" y="90" width="10" height="10" rx="2" ry="2"/>
	<rect x="60" y="90" width="10" height="10" rx="2" ry="2"/>
	<rect x="15" y="105" width="10" height="10" rx="2" ry="2"/>
	<rect x="30" y="105" width="10" height="10" rx="2" ry="2"/>
	<rect x="45" y="105" width="10" height="10" rx="2" ry="2"/>
	<rect x="60" y="105" width="10" height="10" rx="2" ry="2"/>
	<rect x="75" y="105" width="10" height="10" rx="2" ry="2"/>
	<rect x="30" y="120" width="10" height="10" rx="2" ry="2"/>
	<rect x="45" y="120" width="10" height="10" rx="2" ry="2"/>
	<rect x="60" y="120" width="10" height="10" rx="2" ry="2"/>
	<rect x="75" y="120" width="10" height="10" rx="2" ry="2"/>
	<rect x="90" y="120" width="10" height="10" rx="2" ry="2"/>
	<rect x="30" y="135" width="10" height="10" rx="2" ry="2"/>
	<rect x="45" y="135" width="10" height="10" rx="2" ry="2"/>
	<rect x="60" y="135" width="10" height="10" rx="2" ry="2"/>
	<rect x="75" y="135" width="10" height="10" rx="2" ry="2"/>
	<rect x="90" y="135" width="10" height="10" rx="2" ry="2"/>
	<rect x="45" y="150" width="10" height="10" rx="2" ry="2"/>
	<rect x="60" y="150" width="10" height="10" rx="2" ry="2"/>
	
</g>
<g id='NV-blocks'  transform="translate(800,285)">
	<g id='normal-allocation-NV' fill="#0066CC" stroke="#0066CC" visibility='visible' stroke-width="3">
		<rect width="10" height="10" rx="2" ry="2"/>
		<rect x="15" width="10" height="10" rx="2" ry="2"/>
		<rect x="30" width="10" height="10" rx="2" ry="2"/>
	</g>
	<defs>
		<clipPath id="shortage3-NV-clipPath">
	    	<rect x="30" width="10" height="2"/>
	    </clipPath>
		<clipPath id="shortage2-NV-clipPath">
	    	<rect x="30" width="10" height="1.7"/>
	    </clipPath>
		<clipPath id="shortage1-NV-clipPath">
	    	<rect x="30" width="10" height="1.3"/>
	    </clipPath>
	</defs>
	<g id='shortage3-NV' visibility='hidden' fill="#FFFFFF">
		<rect x="30" width="10" height="10" rx="2" ry="2" style='clip-path: url(#shortage3-NV-clipPath);'/>
	</g>
	<g id='shortage2-NV' visibility='hidden' fill="#FFFFFF">
		<rect x="30" width="10" height="10" rx="2" ry="2" style='clip-path: url(#shortage2-NV-clipPath);'/>
	</g>
	<g id='shortage1-NV' visibility='hidden' fill="#FFFFFF">
		<rect x="30" width="10" height="10" rx="2" ry="2" style='clip-path: url(#shortage1-NV-clipPath);'/>
	</g>
</g>
<!-- AR is 28 blocks-->
<g id='AR-blocks' transform="translate(888,455)">
	<g id='normal-allocation-AR' fill="#0066CC" stroke="#0066CC" visibility='visible' stroke-width="3">
		<rect width="10" height="10" rx="2" ry="2"/>
		<rect x="15" width="10" height="10" rx="2" ry="2"/>
		<rect x="30" width="10" height="10" rx="2" ry="2"/>
		<rect x="45" width="10" height="10" rx="2" ry="2"/>
		<rect x="60" width="10" height="10" rx="2" ry="2"/>
		<rect y="15" width="10" height="10" rx="2" ry="2"/>
		<rect x="15" y="15" width="10" height="10" rx="2" ry="2"/>
		<rect x="30" y="15" width="10" height="10" rx="2" ry="2"/>
		<rect x="45" y="15" width="10" height="10" rx="2" ry="2"/>
		<rect x="60" y="15" width="10" height="10" rx="2" ry="2"/>
		<rect y="30" width="10" height="10" rx="2" ry="2"/>
		<rect x="15" y="30" width="10" height="10" rx="2" ry="2"/>
		<rect x="30" y="30" width="10" height="10" rx="2" ry="2"/>
		<rect x="45" y="30" width="10" height="10" rx="2" ry="2"/>
		<rect x="60" y="30" width="10" height="10" rx="2" ry="2"/>
		<rect y="45" width="10" height="10" rx="2" ry="2"/>
		<rect x="15" y="45" width="10" height="10" rx="2" ry="2"/>
		<rect x="30" y="45" width="10" height="10" rx="2" ry="2"/>
		<rect x="45" y="45" width="10" height="10" rx="2" ry="2"/>
		<rect x="60" y="45" width="10" height="10" rx="2" ry="2"/>
		<rect y="60" width="10" height="10" rx="2" ry="2"/>
		<rect x="15" y="60" width="10" height="10" rx="2" ry="2"/>
		<rect x="30" y="60" width="10" height="10" rx="2" ry="2"/>
		<rect x="45" y="60" width="10" height="10" rx="2" ry="2"/>
		<rect x="60" y="60" width="10" height="10" rx="2" ry="2"/>
		<rect y="75" width="10" height="10" rx="2" ry="2"/>
		<rect x="15" y="75" width="10" height="10" rx="2" ry="2"/>
		<rect x="30" y="75" width="10" height="10" rx="2" ry="2"/>
	</g>
	<defs>
		<clipPath id="shortage3-AR-clipPath">
	    	<rect x="45" y="60" width="10" height="8"/>
	    </clipPath>
		<clipPath id="shortage1-AR-clipPath">
	    	<rect x="60" y="60" width="10" height="2"/>
	    </clipPath>
	</defs>
	<!-- shortage 3 for AR is 4.8 blocks-->
	<g id='shortage3-AR' visibility = 'hidden' fill="#FFFFFF">
		<rect x="45" y="60" width="10" height="10" rx="2" ry="2" style='clip-path: url(#shortage3-AR-clipPath);'/>
		<rect x="60" y="60" width="10" height="10" rx="2" ry="2"/>
		<rect y="75" width="10" height="10" rx="2" ry="2"/>
		<rect x="15" y="75" width="10" height="10" rx="2" ry="2"/>
		<rect x="30" y="75" width="10" height="10" rx="2" ry="2"/>
	</g>
	<g id='shortage2-AR' visibility = 'hidden' fill="#FFFFFF">
		<rect x="60" y="60" width="10" height="10" rx="2" ry="2"/>
		<rect y="75" width="10" height="10" rx="2" ry="2"/>
		<rect x="15" y="75" width="10" height="10" rx="2" ry="2"/>
		<rect x="30" y="75" width="10" height="10" rx="2" ry="2"/>
	</g>
	<g id='shortage1-AR' visibility = 'hidden' fill="#FFFFFF">
		<rect x="60" y="60" width="10" height="10" rx="2" ry="2" style='clip-path: url(#shortage1-AR-clipPath);'/>
		<rect y="75" width="10" height="10" rx="2" ry="2"/>
		<rect x="15" y="75" width="10" height="10" rx="2" ry="2"/>
		<rect x="30" y="75" width="10" height="10" rx="2" ry="2"/>
	</g>
</g>
<!-- Mexico is 15 blocks-->
<g id='Mexico-blocks' transform="translate(610,505)">
	<g id='normal-allocation-Mexico' fill="#0066CC" stroke="#0066CC" visibility='visible' stroke-width="3">
		<rect width="10" height="10" rx="2" ry="2"/>
		<rect x="15" width="10" height="10" rx="2" ry="2"/>
		<rect x="30" width="10" height="10" rx="2" ry="2"/>
		<rect x="45" width="10" height="10" rx="2" ry="2"/>
		<rect x="60" width="10" height="10" rx="2" ry="2"/>
		<rect y="15" width="10" height="10" rx="2" ry="2"/>
		<rect x="15" y="15" width="10" height="10" rx="2" ry="2"/>
		<rect x="30" y="15" width="10" height="10" rx="2" ry="2"/>
		<rect x="45" y="15" width="10" height="10" rx="2" ry="2"/>
		<rect x="60" y="15" width="10" height="10" rx="2" ry="2"/>
		<rect y="30" width="10" height="10" rx="2" ry="2"/>
		<rect x="15" y="30" width="10" height="10" rx="2" ry="2"/>
		<rect x="30" y="30" width="10" height="10" rx="2" ry="2"/>
		<rect x="45" y="30" width="10" height="10" rx="2" ry="2"/>
		<rect x="60" y="30" width="10" height="10" rx="2" ry="2"/>
	</g>
	<defs>
		<clipPath id="shortage3-Mexico-clipPath">
	    	<rect x="60" y="30" width="10" height="2.5"/>
	    </clipPath>
		<clipPath id="shortage2-Mexico-clipPath">
	    	<rect x="60" y="30" width="10" height="7"/>
	    </clipPath>
		<clipPath id="shortage1-Mexico-clipPath">
	    	<rect x="60" y="30" width="10" height="5"/>
	    </clipPath>
	</defs>
	<g id='shortage3-Mexico' visibility='hidden' fill="#FFFFFF">
		<rect x="45" y="30" width="10" height="10" rx="2" ry="2"/>
		<rect x="60" y="30" width="10" height="10" style='clip-path: url(#shortage3-Mexico-clipPath);' rx="2" ry="2"/>
	</g>
	<g id='shortage2-Mexico' visibility='hidden' fill="#FFFFFF">
		<rect x="60" y="30" width="10" height="10" style='clip-path: url(#shortage2-Mexico-clipPath);' rx="2" ry="2"/>
	</g>
	<g id='shortage1-Mexico' visibility='hidden' fill="#FFFFFF">
		<rect x="60" y="30" width="10" height="10" style='clip-path: url(#shortage1-Mexico-clipPath);' rx="2" ry="2"/>
	</g>
</g>
</svg>
