<?xml version="1.0" encoding="utf-8"?>
<!-- Generator: Adobe Illustrator 18.1.1, SVG Export Plug-In . SVG Version: 6.00 Build 0)  -->
<!DOCTYPE svg PUBLIC "-//W3C//DTD SVG 1.1//EN" "http://www.w3.org/Graphics/SVG/1.1/DTD/svg11.dtd">
<svg version="1.1" id="Layer_1" xmlns="http://www.w3.org/2000/svg" xmlns:xlink="http://www.w3.org/1999/xlink" x="0px" y="0px"
	 viewBox="0 0 1007 647" enable-background="new 0 0 1007 647" xml:space="preserve">
     <script type="text/ecmascript"><![CDATA[
                         
                            function init(evt)
   {
                            if ( window.svgDocument == null )
   {
                            svgDocument = evt.target.ownerDocument;
   }
   }
                            function mouserOn(evt,elementname)
                            {
							var strname = elementname
                             document.getElementById(strname.concat("-overlay")).setAttributeNS(null,"visibility",'visible');
							 document.getElementById(strname.concat("-box")).setAttributeNS(null,'fill','#EEE8AA');
							 document.getElementById(strname.concat("-table")).setAttributeNS(null,'fill','#EEE8AA');
							 document.getElementById(strname.concat("-emphasis")).setAttributeNS(null,"visibility",'visible');

   }
                         function mouserOff(evt,elementname)
                         {
						var strname = elementname
                          document.getElementById(strname.concat("-overlay")).setAttributeNS(null,"visibility",'hidden');
						 document.getElementById(strname.concat("-box")).setAttributeNS(null,'fill','none');
						 document.getElementById(strname.concat("-table")).setAttributeNS(null,'fill','none');
						 document.getElementById(strname.concat("-emphasis")).setAttributeNS(null,"visibility",'hidden');

}
                            ]]></script>	 
<polygon id = 'shortage3' opacity="0.15" fill="#0071BC" points="66,508 66,619 258,619 315.3,508 "/>
<polygon id = 'shortage2' opacity="0.3" fill="#0071BC" points="66,477 66,508 317,508 333,477 "/>
<polygon id = 'shortage1' opacity="0.5" fill="#0071BC" points="66,440 351,440 333,477 66,477 "/>
<polygon id = 'normal' opacity="0.7" fill="#0071BC" points="66,320 66,440 351,440 414,320 "/>
<polygon id = 'surplus' opacity="0.85" fill="#0071BC" points="66,192 66,320 412,320 479,191 "/>
<polygon id = 'flood-surplus' fill="#0071BC" points="65,102 65,194 479,194 525,103 "/>
<polygon id = 'shortage3-overlay' fill="#708090" opacity = '0.6' points="65,102 65,508 317,508 525,103 " visibility = 'hidden'/>
<polygon id = 'shortage2-overlay' fill="#708090" opacity = '0.6' points="65,102 65,477 333,477 525,103 " visibility = 'hidden'/>
<polygon id = 'shortage1-overlay' fill="#708090" opacity = '0.6' points="65,102 65,440 351,440 525,103 " visibility = 'hidden'/>
<polygon id = 'shortage1-emphasis' opacity="1" fill="#0066CC" points="65,440 65,619 258,619 351,440 " visibility = 'hidden'/>
<polygon id = 'shortage1-mouse' points="66,440 351,440 333,477 66,477 " onmouseover="mouserOn(evt,'shortage1')" onmouseout="mouserOff(evt,'shortage1')" opacity = '0'/>
<polygon id = 'shortage2-emphasis' opacity="1" fill="#0066CC" points="65,477 65,619 258,619 333,477 " visibility = 'hidden'/>
<polygon id = 'shortage2-mouse' points="66,477 66,508 317,508 333,477 " onmouseover="mouserOn(evt,'shortage2')" onmouseout="mouserOff(evt,'shortage2')" opacity = '0'/>
<polygon id = 'shortage3-emphasis' opacity="1" fill="#0066CC" points="65,508 65,619 258,619 317,508 " visibility = 'hidden'/>
<polygon id = 'shortage3-mouse' points="66,508 66,619 258,619 315.3,508 " onmouseover="mouserOn(evt,'shortage3')" onmouseout="mouserOff(evt,'shortage3')" opacity = '0'/>
<text transform="matrix(1 0 0 1 435.0591 34.2695)" font-family="'Arial-BoldMT'" font-size="26.7525">Lake Mead</text>
<rect x="9" y="47" fill="none" stroke="#000000" stroke-width="1.979" stroke-miterlimit="10" width="989" height="591.3"/>
<g>
	<g>
		<rect x="66" y="192" fill="#FFFFFF" width="20" height="2"/>
	</g>
	<g>
		<rect x="92" y="192" fill="#FFFFFF" width="17" height="2"/>
	</g>
	<g>
		<rect x="114" y="192" fill="#FFFFFF" width="17" height="2"/>
	</g>
	<g>
		<rect x="138" y="192" fill="#FFFFFF" width="17" height="2"/>
	</g>
	<g>
		<rect x="162" y="192" fill="#FFFFFF" width="17" height="2"/>
	</g>
	<g>
		<rect x="186" y="192" fill="#FFFFFF" width="17" height="2"/>
	</g>
	<g>
		<rect x="209" y="192" fill="#FFFFFF" width="17" height="2"/>
	</g>
	<g>
		<rect x="232" y="192" fill="#FFFFFF" width="17" height="2"/>
	</g>
	<g>
		<rect x="255" y="192" fill="#FFFFFF" width="17" height="2"/>
	</g>
	<g>
		<rect x="278" y="192" fill="#FFFFFF" width="17" height="2"/>
	</g>
	<g>
		<rect x="302" y="192" fill="#FFFFFF" width="17" height="2"/>
	</g>
	<g>
		<rect x="326" y="192" fill="#FFFFFF" width="17" height="2"/>
	</g>
	<g>
		<rect x="348" y="192" fill="#FFFFFF" width="17" height="2"/>
	</g>
	<g>
		<rect x="372" y="192" fill="#FFFFFF" width="17" height="2"/>
	</g>
	<g>
		<rect x="395" y="192" fill="#FFFFFF" width="17" height="2"/>
	</g>
	<g>
		<rect x="419" y="192" fill="#FFFFFF" width="17" height="2"/>
	</g>
	<g>
		<rect x="442" y="192" fill="#FFFFFF" width="17" height="2"/>
	</g>
	<g>
		<rect x="465" y="191" fill="#FFFFFF" width="14" height="2"/>
	</g>
</g>
<g>
	<g>
		<rect x="66" y="318" fill="#FFFFFF" width="20" height="2"/>
	</g>
	<g>
		<rect x="92" y="318" fill="#FFFFFF" width="17" height="2"/>
	</g>
	<g>
		<rect x="114" y="318" fill="#FFFFFF" width="17" height="2"/>
	</g>
	<g>
		<rect x="138" y="318" fill="#FFFFFF" width="17" height="2"/>
	</g>
	<g>
		<rect x="162" y="318" fill="#FFFFFF" width="17" height="2"/>
	</g>
	<g>
		<rect x="186" y="318" fill="#FFFFFF" width="17" height="2"/>
	</g>
	<g>
		<rect x="209" y="318" fill="#FFFFFF" width="17" height="2"/>
	</g>
	<g>
		<rect x="232" y="318" fill="#FFFFFF" width="17" height="2"/>
	</g>
	<g>
		<rect x="255" y="318" fill="#FFFFFF" width="17" height="2"/>
	</g>
	<g>
		<rect x="278" y="318" fill="#FFFFFF" width="17" height="2"/>
	</g>
	<g>
		<rect x="302" y="318" fill="#FFFFFF" width="17" height="2"/>
	</g>
	<g>
		<rect x="326" y="318" fill="#FFFFFF" width="17" height="2"/>
	</g>
	<g>
		<rect x="348" y="318" fill="#FFFFFF" width="17" height="2"/>
	</g>
	<g>
		<rect x="372" y="318" fill="#FFFFFF" width="17" height="2"/>
	</g>
	<g>
		<rect x="395" y="318" fill="#FFFFFF" width="17" height="2"/>
	</g>
</g>
<g>
	<g>
		<rect x="66" y="440" fill="#FFFFFF" width="20" height="2"/>
	</g>
	<g>
		<rect x="92" y="440" fill="#FFFFFF" width="17" height="2"/>
	</g>
	<g>
		<rect x="114" y="440" fill="#FFFFFF" width="17" height="2"/>
	</g>
	<g>
		<rect x="138" y="440" fill="#FFFFFF" width="17" height="2"/>
	</g>
	<g>
		<rect x="162" y="440" fill="#FFFFFF" width="17" height="2"/>
	</g>
	<g>
		<rect x="186" y="440" fill="#FFFFFF" width="17" height="2"/>
	</g>
	<g>
		<rect x="209" y="440" fill="#FFFFFF" width="17" height="2"/>
	</g>
	<g>
		<rect x="232" y="440" fill="#FFFFFF" width="17" height="2"/>
	</g>
	<g>
		<rect x="255" y="440" fill="#FFFFFF" width="17" height="2"/>
	</g>
	<g>
		<rect x="278" y="440" fill="#FFFFFF" width="17" height="2"/>
	</g>
	<g>
		<rect x="302" y="440" fill="#FFFFFF" width="17" height="2"/>
	</g>
	<g>
		<rect x="326" y="440" fill="#FFFFFF" width="17" height="2"/>
	</g>
</g>
<g>
	<g>
		<rect x="66" y="475" fill="#FFFFFF" width="20" height="2"/>
	</g>
	<g>
		<rect x="92" y="475" fill="#FFFFFF" width="17" height="2"/>
	</g>
	<g>
		<rect x="114" y="475" fill="#FFFFFF" width="17" height="2"/>
	</g>
	<g>
		<rect x="138" y="475" fill="#FFFFFF" width="17" height="2"/>
	</g>
	<g>
		<rect x="162" y="475" fill="#FFFFFF" width="17" height="2"/>
	</g>
	<g>
		<rect x="186" y="475" fill="#FFFFFF" width="17" height="2"/>
	</g>
	<g>
		<rect x="209" y="475" fill="#FFFFFF" width="17" height="2"/>
	</g>
	<g>
		<rect x="232" y="475" fill="#FFFFFF" width="17" height="2"/>
	</g>
	<g>
		<rect x="255" y="475" fill="#FFFFFF" width="17" height="2"/>
	</g>
	<g>
		<rect x="278" y="475" fill="#FFFFFF" width="17" height="2"/>
	</g>
	<g>
		<rect x="302" y="475" fill="#FFFFFF" width="17" height="2"/>
	</g>
	<g>
		<rect x="326" y="475" fill="#FFFFFF" width="7" height="2"/>
	</g>
</g>
<g>
	<g>
		<rect x="66" y="137" fill="#FFFFFF" width="20" height="2"/>
	</g>
	<g>
		<rect x="92" y="137" fill="#FFFFFF" width="17" height="2"/>
	</g>
	<g>
		<rect x="114" y="137" fill="#FFFFFF" width="17" height="2"/>
	</g>
	<g>
		<rect x="138" y="137" fill="#FFFFFF" width="17" height="2"/>
	</g>
	<g>
		<rect x="162" y="137" fill="#FFFFFF" width="17" height="2"/>
	</g>
	<g>
		<rect x="186" y="137" fill="#FFFFFF" width="17" height="2"/>
	</g>
	<g>
		<rect x="209" y="137" fill="#FFFFFF" width="17" height="2"/>
	</g>
	<g>
		<rect x="232" y="137" fill="#FFFFFF" width="17" height="2"/>
	</g>
	<g>
		<rect x="255" y="137" fill="#FFFFFF" width="17" height="2"/>
	</g>
	<g>
		<rect x="278" y="137" fill="#FFFFFF" width="17" height="2"/>
	</g>
	<g>
		<rect x="302" y="137" fill="#FFFFFF" width="17" height="2"/>
	</g>
	<g>
		<rect x="326" y="137" fill="#FFFFFF" width="17" height="2"/>
	</g>
	<g>
		<rect x="348" y="137" fill="#FFFFFF" width="17" height="2"/>
	</g>
	<g>
		<rect x="372" y="137" fill="#FFFFFF" width="17" height="2"/>
	</g>
	<g>
		<rect x="395" y="137" fill="#FFFFFF" width="17" height="2"/>
	</g>
	<g>
		<rect x="419" y="137" fill="#FFFFFF" width="17" height="2"/>
	</g>
	<g>
		<rect x="442" y="137" fill="#FFFFFF" width="17" height="2"/>
	</g>
	<g>
		<rect x="465" y="137" fill="#FFFFFF" width="17" height="2"/>
	</g>
	<g>
		<rect x="489" y="137" fill="#FFFFFF" width="17" height="2"/>
	</g>
</g>
<g>
	<g>
		<rect x="66" y="109" fill="#FFFFFF" width="20" height="2"/>
	</g>
	<g>
		<rect x="92" y="109" fill="#FFFFFF" width="17" height="2"/>
	</g>
	<g>
		<rect x="114" y="109" fill="#FFFFFF" width="17" height="2"/>
	</g>
	<g>
		<rect x="138" y="109" fill="#FFFFFF" width="17" height="2"/>
	</g>
	<g>
		<rect x="162" y="109" fill="#FFFFFF" width="17" height="2"/>
	</g>
	<g>
		<rect x="186" y="109" fill="#FFFFFF" width="17" height="2"/>
	</g>
	<g>
		<rect x="209" y="109" fill="#FFFFFF" width="17" height="2"/>
	</g>
	<g>
		<rect x="232" y="109" fill="#FFFFFF" width="17" height="2"/>
	</g>
	<g>
		<rect x="255" y="109" fill="#FFFFFF" width="17" height="2"/>
	</g>
	<g>
		<rect x="278" y="109" fill="#FFFFFF" width="17" height="2"/>
	</g>
	<g>
		<rect x="302" y="109" fill="#FFFFFF" width="17" height="2"/>
	</g>
	<g>
		<rect x="326" y="109" fill="#FFFFFF" width="17" height="2"/>
	</g>
	<g>
		<rect x="348" y="109" fill="#FFFFFF" width="17" height="2"/>
	</g>
	<g>
		<rect x="372" y="109" fill="#FFFFFF" width="17" height="2"/>
	</g>
	<g>
		<rect x="395" y="109" fill="#FFFFFF" width="17" height="2"/>
	</g>
	<g>
		<rect x="419" y="109" fill="#FFFFFF" width="17" height="2"/>
	</g>
	<g>
		<rect x="442" y="109" fill="#FFFFFF" width="17" height="2"/>
	</g>
	<g>
		<rect x="465" y="109" fill="#FFFFFF" width="17" height="2"/>
	</g>
	<g>
		<rect x="489" y="109" fill="#FFFFFF" width="17" height="2"/>
	</g>
	<g>
		<rect x="511" y="109" fill="#FFFFFF" width="9" height="2"/>
	</g>
</g>
<g>
	<rect x="66" y="506" fill="#FF1919" width="251" height="2"/>
</g>
<g>
	<polygon points="259.6,621 65,621 65,102 67,102 67,619 258.4,619 523.3,102 525,103 	"/>
</g>
<text transform="matrix(4.489659e-11 -1 1 4.489659e-11 33.75 469.1721)" font-family="'ArialMT'" font-size="12.612">Live Storage in million acre-feet(maf)</text>
<text transform="matrix(1 0 0 1 529.3174 112.872)" font-family="'ArialMT'" font-size="11.0737">Elevation 1,229 feet (27.6 maf)</text>
<text transform="matrix(1 0 0 1 515.4844 141.5387)" font-family="'ArialMT'" font-size="11.0737">Elevation 1,219.6 feet (26.1 maf)</text>
<text transform="matrix(1 0 0 1 488.9843 196.872)" font-family="'ArialMT'" font-size="11.0737">Elevation 1,200 feet (23.1 maf)</text>
<rect id = 'shortage1-box' x="357.9" y="431.3" fill="none" stroke="#000000" stroke-width="2" stroke-miterlimit="10" width="152.1" height="19.7"/>
<rect id = 'shortage2-box' x="337.9" y="466.4" fill="none" stroke="#000000" stroke-width="2" stroke-miterlimit="10" width="152.1" height="19.7"/>
<rect id = 'shortage3-box' x="322.9" y="498.2" fill="none" stroke="#000000" stroke-width="2" stroke-miterlimit="10" width="152.1" height="19.7"/>
<text transform="matrix(1 0 0 1 418.9843 324.2054)" font-family="'ArialMT'" font-size="11.0737">Elevation 1,145 feet (16.2 maf)</text>
<text id='shortage1-text' transform="matrix(1 0 0 1 360.4843 444.5387)" font-family="'ArialMT'" font-size="11.0737">Elevation 1,075 feet (9.6 maf)</text>
<text id='shortage2-text' transform="matrix(1 0 0 1 340.651 480.2054)" font-family="'ArialMT'" font-size="11.0737">Elevation 1,050 feet (7.7 maf)</text>
<text id='shortage3-text' transform="matrix(1 0 0 1 326.3178 512.2053)" font-family="'ArialMT'" font-size="11.0737">Elevation 1,025 feet (6.0 maf)</text>
<rect x="357.9" y="431.3" opacity='0' stroke-width="2" stroke-miterlimit="10" width="152.1" height="19.7" onmouseover="mouserOn(evt,'shortage1')" onmouseout="mouserOff(evt,'shortage1')" />
<rect x="337.9" y="466.4" opacity='0' stroke-width="2" stroke-miterlimit="10" width="152.1" height="19.7" onmouseover="mouserOn(evt,'shortage2')" onmouseout="mouserOff(evt,'shortage2')" />
<rect x="322.9" y="498.2" opacity='0' stroke-width="2" stroke-miterlimit="10" width="152.1" height="19.7" onmouseover="mouserOn(evt,'shortage3')" onmouseout="mouserOff(evt,'shortage3')" />
<text transform="matrix(1 0 0 1 268.9845 619.9999)" font-family="'ArialMT'" font-size="11.0737">Elevation 895 feet (0.0 maf)</text>
<text transform="matrix(1 0 0 1 75.9848 158.9785)" fill="#FFFFFF" font-family="'ArialMT'" font-size="12.3634">Flood Control Surplus or Quantified Surplus Condition</text>
<text transform="matrix(1 0 0 1 75.9858 174.037)" fill="#FFFFFF" font-family="'ArialMT'" font-size="11.266">Deliver &gt; 7.5 maf</text>
<text transform="matrix(1 0 0 1 75.9858 270.037)" fill="#FFFFFF" font-family="'ArialMT'" font-size="11.266">Deliver &gt; 7.5 maf</text>
<text transform="matrix(1 0 0 1 75.9858 393.287)" fill="#FFFFFF" font-family="'ArialMT'" font-size="11.266">Deliver ≥ 7.5 maf</text>
<text transform="matrix(1 0 0 1 75.9858 470.9552)" fill="#333333" font-family="'ArialMT'" font-size="11.266">Deliver 7.167 maf</text>
<text transform="matrix(1 0 0 1 75.9858 504.2052)" fill="#333333" font-family="'ArialMT'" font-size="11.266">Deliver 7.083 maf</text>
<text transform="matrix(1 0 0 1 75.9858 544.7052)" fill="#333333" font-family="'ArialMT'" font-size="11.266">Deliver 7.000 maf; further measures</text>
<text transform="matrix(1 0 0 1 75.9858 558.2242)" fill="#333333" font-family="'ArialMT'" font-size="11.266">may be undertaken</text>
<text transform="matrix(0.583 0 0 0.583 172.434 554.4728)" fill="#333333" font-family="'ArialMT'" font-size="11.266">1</text>
<text transform="matrix(1 0 0 1 75.9844 254.7349)" fill="#FFFFFF" font-family="'ArialMT'" font-size="12.0788">Domestic Surplus or ICS Surplus Condition</text>
<text transform="matrix(1 0 0 1 76.9844 377.9849)" fill="#FFFFFF" font-family="'ArialMT'" font-size="12.0788">Normal or ICS Surplus Condition</text>
<text transform="matrix(1 0 0 1 74.7344 456.04)" fill="#333333" font-family="'ArialMT'" font-size="12.4344">Shortage Condition - Tier 1</text>
<text transform="matrix(1 0 0 1 74.7344 488.79)" fill="#333333" font-family="'ArialMT'" font-size="12.4344">Shortage Condition - Tier 2</text>
<text transform="matrix(1 0 0 1 75.9844 529.29)" fill="#333333" font-family="'ArialMT'" font-size="12.4344">Shortage Condition - Tier 3</text>
<text transform="matrix(1 0 0 1 50.4009 623.083)" font-family="'ArialMT'" font-size="12">0</text>
<text transform="matrix(1 0 0 1 50.4009 585.333)" font-family="'ArialMT'" font-size="12">2</text>
<text transform="matrix(1 0 0 1 50.4009 548.583)" font-family="'ArialMT'" font-size="12">4</text>
<text transform="matrix(1 0 0 1 50.4009 510.583)" font-family="'ArialMT'" font-size="12">6</text>
<text transform="matrix(1 0 0 1 50.4009 475)" font-family="'ArialMT'" font-size="12">8</text>
<text transform="matrix(1 0 0 1 43.4009 437.75)" font-family="'ArialMT'" font-size="12">10</text>
<text transform="matrix(1 0 0 1 43.4009 400.75)" font-family="'ArialMT'" font-size="12">12</text>
<text transform="matrix(1 0 0 1 43.4009 364)" font-family="'ArialMT'" font-size="12">14</text>
<text transform="matrix(1 0 0 1 43.4009 327.5)" font-family="'ArialMT'" font-size="12">16</text>
<text transform="matrix(1 0 0 1 43.4009 290.5)" font-family="'ArialMT'" font-size="12">18</text>
<text transform="matrix(1 0 0 1 43.4009 254.7349)" font-family="'ArialMT'" font-size="12">20</text>
<text transform="matrix(1 0 0 1 43.4009 216.7349)" font-family="'ArialMT'" font-size="12">22</text>
<text transform="matrix(1 0 0 1 43.4009 179.9849)" font-family="'ArialMT'" font-size="12">24</text>
<text transform="matrix(1 0 0 1 43.4009 142.9849)" font-family="'ArialMT'" font-size="12">26</text>
<text transform="matrix(1 0 0 1 44.6509 106.7349)" font-family="'ArialMT'" font-size="12">28</text>
<rect x="553" y="378" fill="none" stroke="#000000" stroke-width="2" stroke-miterlimit="10" width="431" height="32.4"/>
<rect id = 'shortage1-table' x="553" y="410.6" fill="none" stroke="#000000" stroke-width="2" stroke-miterlimit="10" width="431" height="40.4"/>
<rect id = 'shortage2-table' x="553" y="451.4" fill="none" stroke="#000000" stroke-width="2" stroke-miterlimit="10" width="431" height="40.4"/>
<rect id = 'shortage3-table' x="553" y="492.4" fill="none" stroke="#000000" stroke-width="2" stroke-miterlimit="10" width="431" height="40.4"/>
<text transform="matrix(1 0 0 1 587.8484 400.1637)" font-family="'ArialMT'" font-size="16">Nevada</text>
<text transform="matrix(1 0 0 1 730.2196 400.1637)" font-family="'ArialMT'" font-size="16">Arizona</text>
<text transform="matrix(1 0 0 1 884.197 400.1637)" font-family="'ArialMT'" font-size="16">Mexico</text>
<text transform="matrix(1 0 0 1 590.954 435.0175)" font-family="'ArialMT'" font-size="16">13,000</text>
<text transform="matrix(1 0 0 1 728.4142 435.0173)" font-family="'ArialMT'" font-size="16">320,000</text>
<text transform="matrix(1 0 0 1 885.0685 435.0173)" font-family="'ArialMT'" font-size="16">50,000</text>
<text transform="matrix(1 0 0 1 590.954 475.8971)" font-family="'ArialMT'" font-size="16">17,000</text>
<text transform="matrix(1 0 0 1 728.4142 475.8969)" font-family="'ArialMT'" font-size="16">400,000</text>
<text transform="matrix(1 0 0 1 885.0685 475.8969)" font-family="'ArialMT'" font-size="16">70,000</text>
<text transform="matrix(1 0 0 1 590.954 516.8705)" font-family="'ArialMT'" font-size="16">20,000</text>
<text transform="matrix(1 0 0 1 728.4142 516.8702)" font-family="'ArialMT'" font-size="16">480,000</text>
<text transform="matrix(1 0 0 1 880.6188 516.8702)" font-family="'ArialMT'" font-size="16">125,000</text>
<rect x="553" y="410.6" opacity = "0" stroke-width="2" stroke-miterlimit="10" width="431" height="40.4" onmouseover="mouserOn(evt,'shortage1')" onmouseout="mouserOff(evt,'shortage1')" />
<rect x="553" y="451.4" opacity = "0" stroke-width="2" stroke-miterlimit="10" width="431" height="40.4" onmouseover="mouserOn(evt,'shortage2')" onmouseout="mouserOff(evt,'shortage2')" />
<rect x="553" y="492.4" opacity = "0" stroke-width="2" stroke-miterlimit="10" width="431" height="40.4" onmouseover="mouserOn(evt,'shortage3')" onmouseout="mouserOff(evt,'shortage3')" />
<line fill="none" stroke="#000000" stroke-width="2" stroke-miterlimit="10" x1="679" y1="378" x2="679" y2="532"/>
<line fill="none" stroke="#000000" stroke-width="2" stroke-miterlimit="10" x1="836" y1="378" x2="836" y2="532"/>
<line fill="none" stroke="#000000" stroke-width="2.2038" stroke-miterlimit="10" x1="510" y1="437.8" x2="553" y2="438"/>
<line fill="none" stroke="#000000" stroke-width="2" stroke-miterlimit="10" x1="490" y1="477" x2="553" y2="477"/>
<line fill="none" stroke="#000000" stroke-width="2" stroke-miterlimit="10" x1="475" y1="508" x2="553" y2="508"/>
<rect x="553" y="340" fill="none" stroke="#000000" stroke-width="2.1611" stroke-miterlimit="10" width="431" height="37.6"/>
<text transform="matrix(0.583 0 0 0.583 563.2842 363.9973)" font-family="'Arial-BoldMT'" font-size="24.6459">Share Shortage to States and Delivery Reduction for Mexico</text>
</svg>
