<?xml version="1.0" encoding="UTF-8"?>
<svg xmlns="http://www.w3.org/2000/svg" xmlns:xlink="http://www.w3.org/1999/xlink" width="540pt" height="511pt" viewBox="0 0 540 511" version="1.1">
<g id="surface396">
<rect x="0" y="0" width="540" height="511" style="fill:rgb(100%,100%,100%);fill-opacity:1;stroke:none;"/>
<rect x="0" y="0" width="540" height="511" style="fill:rgb(100%,100%,100%);fill-opacity:1;stroke:none;"/>
<path style="fill:none;stroke-width:0.75;stroke-linecap:round;stroke-linejoin:round;stroke:rgb(100%,100%,100%);stroke-opacity:1;stroke-miterlimit:10;" d="M 0 511 L 540 511 L 540 0 L 0 0 Z "/>
<path style="fill:none;stroke-width:0.75;stroke-linecap:round;stroke-linejoin:round;stroke:rgb(89.803922%,89.803922%,89.803922%);stroke-opacity:1;stroke-miterlimit:10;" d="M 339.359375 251.296875 L 335.175781 249.644531 L 331.644531 244.132812 L 327.160156 242.484375 L 326.320312 238.910156 L 326.800781 238.425781 L 394.371094 233.957031 L 389.789062 172.789062 L 386.164062 133.914062 L 440.507812 127.929688 L 445.996094 171.042969 L 447.136719 170.523438 L 452.253906 174.476562 L 453.828125 174.484375 L 454.582031 173.332031 L 457.375 174.03125 L 457.996094 172.109375 L 461.273438 174.382812 L 462.160156 176.980469 L 465.511719 176.625 L 469.789062 177.832031 L 472.550781 176.867188 L 476.171875 178.753906 L 477.730469 176.542969 L 481.121094 176.691406 L 482.097656 175.789062 L 483.074219 178.9375 L 485.019531 178.757812 L 485.722656 179.351562 L 485.421875 180.742188 L 485.910156 181.328125 L 487.902344 181.65625 L 490.878906 178.226562 L 492.265625 178.46875 L 492.9375 179.902344 L 495.050781 179.605469 L 495.453125 181.0625 L 496.300781 181.296875 L 497.144531 180.9375 L 497.855469 179.347656 L 498.914062 180.046875 L 499.746094 178.847656 L 500.769531 179.671875 L 500.085938 180.769531 L 501.429688 182.660156 L 502.582031 182.421875 L 502.386719 180.710938 L 503.039062 180.25 L 502.34375 179.71875 L 503.777344 179.519531 L 503.800781 177.367188 L 504.832031 176.808594 L 506.453125 178.863281 L 507.613281 178.5 L 508.65625 179.21875 L 509.640625 178.699219 L 509.925781 177.148438 L 511.515625 177.304688 L 511.386719 178.546875 L 513.179688 178.902344 L 513.742188 179.679688 L 514.984375 179.253906 L 517.222656 180.898438 L 517.6875 179.175781 L 519.753906 178.949219 L 520.089844 177.722656 L 519.394531 178.105469 L 519.539062 177.609375 L 522.394531 176.804688 L 523.5625 175.566406 L 525.550781 176.375 L 526.976562 175.90625 L 527.195312 174.671875 L 528.113281 174.71875 L 529.6875 173.316406 L 531.449219 173.902344 L 531.066406 174.449219 L 535.140625 174.121094 L 534.925781 173.546875 L 536.496094 173.105469 L 536.589844 171.703125 L 539.613281 172.269531 L 539.703125 172.949219 L 539.96875 172.226562 L 540.65625 173.296875 L 541.949219 173.085938 L 544.480469 175.363281 L 546.230469 174.984375 L 545.949219 175.476562 L 546.566406 175.300781 L 546.589844 175.96875 L 548.515625 175.996094 L 548.355469 176.632812 L 550.382812 176.148438 L 549.921875 176.609375 L 550.710938 176.328125 L 550.496094 176.972656 L 551.300781 176.660156 L 551.253906 177.179688 L 552.875 176.539062 L 552.707031 177.3125 L 553.675781 177.859375 L 554.289062 177.367188 L 553.941406 178.121094 L 554.453125 178.324219 L 556.800781 176.871094 L 556.957031 177.5625 L 558.261719 176.582031 L 558.453125 177.171875 L 559.679688 176.558594 L 560.75 177.023438 L 566.933594 212.316406 L 569.945312 214.132812 L 571.558594 216.011719 L 572.726562 217.921875 L 572.417969 220.804688 L 573.652344 221.910156 L 575.148438 221.960938 L 574.402344 222.90625 L 577.101562 225.046875 L 576.429688 226.589844 L 577.953125 227.324219 L 578.652344 229.304688 L 579.898438 228.957031 L 580.148438 230.3125 L 579.625 230.996094 L 580.894531 232.21875 L 579.808594 233.011719 L 579.863281 233.859375 L 580.933594 234.621094 L 580.289062 235.886719 L 580.859375 237.140625 L 579.851562 239.242188 L 580.09375 240.578125 L 578.796875 241.886719 L 579.375 242.777344 L 578.507812 243.164062 L 578.320312 244.171875 L 579.472656 246.382812 L 578.570312 248.59375 L 579.96875 249.6875 L 579.953125 251.488281 L 580.847656 253.023438 L 580.597656 255.109375 L 579.859375 256.503906 L 577.996094 257.164062 L 576.761719 261.382812 L 579.605469 264.273438 L 575.035156 265.019531 L 563.644531 272.402344 L 562.214844 274.21875 L 561.777344 273.835938 L 563.511719 271.441406 L 565.476562 269.796875 L 566.945312 269.929688 L 567.433594 268.941406 L 566.660156 269.332031 L 565.480469 268.730469 L 561.1875 270.324219 L 562.390625 267.359375 L 562.175781 265.164062 L 561.339844 264.398438 L 559.605469 265.433594 L 558.777344 267.675781 L 554.339844 265.210938 L 556.71875 267.730469 L 556.636719 270.53125 L 558.878906 271.558594 L 557.59375 272.675781 L 558.351562 272.464844 L 558.316406 273.40625 L 559.105469 273.382812 L 558.941406 272.765625 L 559.621094 273.789062 L 561.222656 274.207031 L 559.632812 273.914062 L 559.777344 275.863281 L 558.679688 275.632812 L 556.824219 278.917969 L 554.941406 279.101562 L 555.128906 280.980469 L 554.523438 281.355469 L 553.925781 284.375 L 546.070312 291.304688 L 546.222656 290.691406 L 541.113281 292.835938 L 540.945312 294.417969 L 545.714844 291.539062 L 536.359375 298.132812 L 540.320312 295.109375 L 540.300781 293.804688 L 535.488281 296.34375 L 535.378906 295.761719 L 536.964844 295.226562 L 535.238281 294.914062 L 536.628906 291.785156 L 535.644531 293.667969 L 534.246094 294.429688 L 534.414062 293.320312 L 532.820312 295.625 L 531.925781 293.261719 L 531.285156 293.667969 L 530.703125 292.757812 L 531.226562 294.015625 L 531.734375 293.4375 L 531.667969 295.304688 L 532.621094 295.835938 L 530.46875 297.339844 L 531.429688 296.292969 L 530.910156 295.007812 L 530.507812 296.390625 L 529.785156 295.304688 L 528.65625 295.757812 L 528.105469 291.878906 L 528.371094 294.542969 L 527.992188 293.980469 L 526.910156 294.199219 L 526.742188 295.023438 L 527.96875 296.136719 L 528.089844 297.609375 L 528.914062 297.152344 L 530.714844 298.476562 L 529.292969 299.503906 L 530.210938 299.585938 L 530.933594 298.601562 L 532.84375 299.851562 L 527.8125 303.449219 L 524.800781 299.90625 L 524.148438 300.628906 L 524.867188 300.613281 L 525.285156 301.8125 L 523.6875 301.710938 L 525.140625 302.730469 L 525.703125 305.484375 L 522.574219 308.519531 L 522.929688 305.207031 L 521.8125 306.40625 L 522.5625 306.863281 L 522.085938 308.566406 L 520.851562 308.210938 L 520.875 306.777344 L 518.90625 308.613281 L 518.746094 307.914062 L 518.101562 308.046875 L 518.441406 308.992188 L 516.519531 310.414062 L 516.945312 310.726562 L 516.429688 311.3125 L 519.296875 310.308594 L 521.082031 308.859375 L 521.378906 310.828125 L 518.519531 315.949219 L 517.457031 315.847656 L 518.109375 315.566406 L 516.589844 314.835938 L 515.121094 315.730469 L 515.339844 314.941406 L 511.835938 315.582031 L 512.792969 316.460938 L 514.59375 315.988281 L 514.597656 317.375 L 516.339844 318.503906 L 515.695312 318.511719 L 516.355469 318.996094 L 515.820312 320.203125 L 514.917969 320.484375 L 515.960938 320.398438 L 516.523438 318.582031 L 517.769531 318.867188 L 516.472656 321.921875 L 515.496094 327.558594 L 513.722656 327.800781 L 513.261719 325.121094 L 513.097656 327.316406 L 511.769531 328.476562 L 508.433594 326.132812 L 510.171875 328.796875 L 508.082031 329.191406 L 513 329.933594 L 515.347656 328.855469 L 514.292969 333.179688 L 515.011719 335.042969 L 513.25 335.671875 L 513.808594 338.621094 L 515.210938 339.65625 L 517.34375 345.710938 L 516.460938 346.761719 L 517.785156 348.707031 L 518.921875 349.171875 L 519.691406 353.125 L 522.03125 355.46875 L 521.730469 357.015625 L 523.003906 356.714844 L 523.980469 357.847656 L 521.195312 357.925781 L 521.320312 358.519531 L 519.8125 359.183594 L 519.898438 360.816406 L 518.90625 360.929688 L 515.5 359.300781 L 515.757812 358.792969 L 514.960938 358.703125 L 514.089844 357.394531 L 509.527344 357.0625 L 506.011719 357.464844 L 505.332031 358.101562 L 505.117188 357.414062 L 502.75 357.90625 L 500.789062 357.144531 L 500.699219 356.363281 L 500.023438 356.914062 L 499.519531 355.898438 L 498.765625 356.039062 L 497.210938 354.726562 L 496.542969 355.238281 L 494.140625 354.148438 L 492.601562 354.726562 L 489.414062 352.03125 L 487.644531 352.550781 L 486.945312 351.824219 L 483.5 351.625 L 483.449219 350.070312 L 481.960938 348.917969 L 478.890625 342.152344 L 476.574219 340.359375 L 476.417969 339.265625 L 475.089844 338.648438 L 475.0625 334.78125 L 474.339844 333.25 L 472.65625 332.316406 L 473.328125 328.34375 L 472.574219 328.113281 L 471.878906 325.726562 L 468.460938 324.960938 L 466.175781 322.503906 L 464.957031 322.226562 L 463.199219 318.117188 L 462.136719 317.847656 L 459.742188 314.671875 L 457.308594 313.832031 L 457.035156 312.964844 L 455.476562 312.238281 L 453.480469 307.945312 L 454.042969 307.390625 L 452.492188 306.5625 L 452.714844 305.507812 L 450.6875 304.09375 L 448.371094 299.050781 L 447.175781 298.527344 L 446.414062 295.039062 L 444.265625 293.292969 L 443.542969 291.648438 L 439.105469 289.117188 L 437.753906 286.984375 L 433.847656 286.15625 L 433.765625 283.855469 L 432.804688 285.023438 L 432.71875 283.417969 L 431.484375 283.425781 L 430.613281 280.964844 L 429.710938 281.257812 L 429.226562 280.671875 L 427.953125 281.363281 L 427.75 280.324219 L 427.109375 281.394531 L 425.992188 281.679688 L 422.71875 281.453125 L 422.382812 280.714844 L 420.382812 281.464844 L 419.367188 280.875 L 417.667969 281.792969 L 412.421875 280.089844 L 411.644531 280.9375 L 411.453125 282.691406 L 409.117188 282.492188 L 408.234375 283.371094 L 407.703125 282.769531 L 406.597656 283.890625 L 405.820312 283.6875 L 403.703125 288.660156 L 403.570312 291.328125 L 402.484375 292.722656 L 402.132812 294.640625 L 403.027344 295.472656 L 400.707031 296.507812 L 397.828125 301.480469 L 395.5625 301.003906 L 395.328125 301.496094 L 394.140625 300.148438 L 393.390625 300.613281 L 391.394531 299.859375 L 390.253906 298.273438 L 386.386719 297.5625 L 385.945312 296.707031 L 385.117188 296.777344 L 385.320312 295.609375 L 379.824219 294.941406 L 377.398438 293.480469 L 376.488281 291.675781 L 373.027344 290.417969 L 369.773438 287.75 L 368.769531 284.941406 L 366.75 282.808594 L 365.734375 275.519531 L 363.429688 273.164062 L 363.535156 272.574219 L 362.617188 272.28125 L 361.644531 268.359375 L 359.691406 266.902344 L 359.429688 265.957031 L 358.214844 265.953125 L 355.09375 263.371094 L 354.269531 263.742188 L 353.660156 263.015625 L 353.179688 263.386719 L 351.660156 262.660156 L 351.238281 261.582031 L 348.332031 259.617188 L 347.285156 257.710938 L 343.996094 256.015625 Z M 559.660156 277.066406 L 562.269531 274.707031 L 562.726562 275.171875 L 556.378906 281.273438 Z M 532.964844 301.867188 L 525.039062 309.3125 L 525.351562 306.84375 L 526.617188 306.417969 L 530.359375 302.839844 L 531.71875 302.488281 L 532.335938 300.898438 Z M 522.988281 310.039062 L 524.09375 307.9375 L 524.882812 308.515625 L 524.703125 309.742188 L 521.367188 314.941406 L 521.664062 313.21875 L 522.972656 311.449219 L 522.453125 311.140625 Z M 519.660156 343.546875 L 518.226562 341.296875 L 516.902344 336.523438 L 516.488281 330.109375 L 517.972656 339.128906 L 521.546875 347.515625 L 523.527344 355.214844 Z M 516.667969 328.273438 L 516.457031 329.976562 L 516.722656 324.671875 L 518.085938 321.296875 L 517.691406 319.726562 L 518.910156 320.488281 L 519.316406 318.25 L 520.933594 315.675781 L 520.15625 315.589844 L 521.316406 315.1875 L 518.609375 321.394531 Z "/>
<path style="fill:none;stroke-width:0.75;stroke-linecap:round;stroke-linejoin:round;stroke:rgb(89.803922%,89.803922%,89.803922%);stroke-opacity:1;stroke-miterlimit:10;" d="M 189.417969 104.355469 L 191.601562 18.722656 L 241.132812 19.066406 L 241.316406 41.261719 L 275.003906 40.5 L 277.800781 129.332031 L 252.816406 130.007812 L 188.902344 129.679688 Z "/>
<path style="fill:none;stroke-width:0.75;stroke-linecap:round;stroke-linejoin:round;stroke:rgb(89.803922%,89.803922%,89.803922%);stroke-opacity:1;stroke-miterlimit:10;" d="M 401.148438 106.566406 L 402.8125 121.085938 L 332.238281 126.910156 L 277.800781 129.332031 L 275.003906 40.5 L 344.238281 36.675781 L 392.855469 31.867188 Z "/>
<path style="fill:none;stroke-width:0.75;stroke-linecap:round;stroke-linejoin:round;stroke:rgb(89.803922%,89.803922%,89.803922%);stroke-opacity:1;stroke-miterlimit:10;" d="M 280.664062 230.378906 L 277.800781 129.332031 L 332.238281 126.910156 L 385.632812 122.582031 L 394.371094 233.957031 L 326.800781 238.425781 L 326.320312 238.910156 L 327.160156 242.484375 L 328.628906 243.117188 L 297.082031 244.421875 L 297.277344 254.257812 L 281.382812 254.742188 Z "/>
<path style="fill:none;stroke-width:0.75;stroke-linecap:round;stroke-linejoin:round;stroke:rgb(89.803922%,89.803922%,89.803922%);stroke-opacity:1;stroke-miterlimit:10;" d="M 68.917969 10.363281 L 23.050781 4.371094 L 20.964844 1.769531 L 20.644531 -5.804688 L 21.894531 -10.011719 L 20 -15.070312 L 21.632812 -17.621094 L 24.269531 -24.183594 L 24.085938 -25.089844 L 26.761719 -28.300781 L 29.960938 -36.867188 L 34.320312 -54.503906 L 34.496094 -57.945312 L 37.980469 -68.28125 L 38.253906 -72.605469 L 39.019531 -73.007812 L 39.597656 -72.148438 L 40.191406 -72.628906 L 38.960938 -74.390625 L 39.683594 -77.332031 L 39.558594 -82.785156 L 40.964844 -84.167969 L 40.746094 -88.527344 L 43.265625 -86.070312 L 43.125 -87.957031 L 44.097656 -88.179688 L 44.648438 -87.1875 L 45.386719 -87.179688 L 47.953125 -88.195312 L 50.015625 -85.804688 L 51.789062 -85.546875 L 53.035156 -86.261719 L 54.882812 -85.367188 L 56.972656 -83.34375 L 57.976562 -80.140625 L 57.8125 -73.5 L 64.625 -70.183594 L 68.210938 -70.789062 L 72.742188 -72.703125 L 77.179688 -72.582031 L 80.371094 -71.683594 L 81.9375 -70.800781 L 82.390625 -69.28125 L 84.71875 -70.191406 L 86.632812 -69.582031 L 91.320312 -71.492188 L 93.996094 -69.980469 L 97.742188 -70.269531 L 101.261719 -71.957031 L 106.257812 -72.386719 L 107.773438 -73.601562 L 114.761719 -73.222656 L 117.355469 -74.632812 L 149.292969 -72.117188 L 151.304688 -68.078125 L 152.398438 -68 L 154.519531 -66.277344 L 155.746094 -63.058594 L 152.242188 -57.222656 L 150.96875 -52.882812 L 148.953125 -50.320312 L 149.121094 -48.152344 L 148.550781 -47.039062 L 147.089844 -45.066406 L 145.660156 -44.554688 L 143.683594 -39.894531 L 142.332031 -38.609375 L 142.015625 -36.777344 L 142.875 -33.671875 L 145.707031 -33.355469 L 145.8125 -32.25 L 147.015625 -31.027344 L 145.722656 -29.492188 L 146.335938 -28.125 L 144.378906 -23.46875 L 142.238281 16.652344 L 103.5625 13.941406 Z "/>
<path style="fill:none;stroke-width:0.75;stroke-linecap:round;stroke-linejoin:round;stroke:rgb(89.803922%,89.803922%,89.803922%);stroke-opacity:1;stroke-miterlimit:10;" d="M 357.644531 19.761719 L 359.085938 35.207031 L 311.726562 38.832031 L 241.316406 41.261719 L 240.363281 -47.546875 L 290.152344 -49.140625 L 350.597656 -53.535156 Z "/>
<path style="fill:none;stroke-width:0.75;stroke-linecap:round;stroke-linejoin:round;stroke:rgb(89.803922%,89.803922%,89.803922%);stroke-opacity:1;stroke-miterlimit:10;" d="M 547.644531 147.410156 L 552.125 176.773438 L 551.707031 177.050781 L 550.496094 176.972656 L 550.710938 176.328125 L 549.921875 176.609375 L 550.382812 176.148438 L 548.566406 176.648438 L 548.515625 175.996094 L 546.855469 176.074219 L 546.566406 175.300781 L 545.949219 175.476562 L 546.230469 174.984375 L 544.480469 175.363281 L 541.949219 173.085938 L 540.65625 173.296875 L 539.96875 172.226562 L 539.703125 172.949219 L 539.613281 172.269531 L 536.589844 171.703125 L 536.496094 173.105469 L 534.925781 173.546875 L 535.140625 174.121094 L 531.066406 174.449219 L 531.449219 173.902344 L 529.6875 173.316406 L 528.113281 174.71875 L 527.195312 174.671875 L 526.976562 175.90625 L 525.550781 176.375 L 523.5625 175.566406 L 522.394531 176.804688 L 519.539062 177.609375 L 519.394531 178.105469 L 520.089844 177.722656 L 519.753906 178.949219 L 517.6875 179.175781 L 517.222656 180.898438 L 514.984375 179.253906 L 513.742188 179.679688 L 513.179688 178.902344 L 511.386719 178.546875 L 511.515625 177.304688 L 509.925781 177.148438 L 509.640625 178.699219 L 508.65625 179.21875 L 507.613281 178.5 L 506.453125 178.863281 L 504.832031 176.808594 L 503.800781 177.367188 L 503.777344 179.519531 L 502.34375 179.71875 L 503.039062 180.25 L 502.386719 180.710938 L 502.679688 182.160156 L 502.132812 182.621094 L 500.664062 182.21875 L 500.085938 180.769531 L 500.769531 179.671875 L 500.207031 178.929688 L 499.132812 179.199219 L 498.914062 180.046875 L 497.855469 179.347656 L 497.144531 180.9375 L 496.300781 181.296875 L 495.453125 181.0625 L 495.050781 179.605469 L 492.9375 179.902344 L 492.265625 178.46875 L 490.878906 178.226562 L 487.585938 181.742188 L 485.445312 180.957031 L 485.804688 179.601562 L 485.019531 178.757812 L 483.074219 178.9375 L 482.097656 175.789062 L 481.121094 176.691406 L 477.730469 176.542969 L 476.171875 178.753906 L 472.550781 176.867188 L 469.789062 177.832031 L 465.511719 176.625 L 463.085938 177.117188 L 461.859375 176.769531 L 461.273438 174.382812 L 459.941406 173.042969 L 457.996094 172.109375 L 457.375 174.03125 L 454.582031 173.332031 L 453.828125 174.484375 L 452.253906 174.476562 L 447.136719 170.523438 L 445.996094 171.042969 L 440.613281 127.945312 L 386.699219 133.847656 L 385.632812 122.582031 L 403.039062 121.0625 L 449.300781 115.429688 L 484.644531 110.292969 L 535.785156 101.523438 L 537.964844 112.914062 L 545.917969 136.761719 Z "/>
<path style="fill:none;stroke-width:0.75;stroke-linecap:round;stroke-linejoin:round;stroke:rgb(89.803922%,89.803922%,89.803922%);stroke-opacity:1;stroke-miterlimit:10;" d="M 406.320312 52.78125 L 395.300781 54.101562 L 392.855469 31.867188 L 359.085938 35.207031 L 354.902344 -9.230469 L 401.027344 -14.003906 L 445.644531 -20.613281 L 446.496094 -19.503906 L 451.984375 -18.09375 L 454.0625 -16.917969 L 455.183594 -17.210938 L 456.101562 -19.242188 L 457.207031 -19.679688 L 459.496094 -19.390625 L 460.234375 -20.078125 L 464.230469 -20.917969 L 466.683594 -20.996094 L 468.839844 -19.589844 L 471.378906 -19.6875 L 471.671875 -18.886719 L 474.378906 -18.988281 L 474.691406 -18.261719 L 476.390625 -18.292969 L 476.332031 -17.234375 L 478.550781 -15.226562 L 479.453125 -15.699219 L 482.164062 -14.980469 L 482.191406 -12.265625 L 484.078125 -10.566406 L 484.136719 -8.457031 L 485.4375 -7.667969 L 486.761719 -5.097656 L 488.382812 -4.597656 L 488.433594 -3.171875 L 490.300781 -0.925781 L 490.511719 1.03125 L 489.941406 1.371094 L 491.210938 4.765625 L 492.574219 4.527344 L 492.765625 5.753906 L 494.054688 5.960938 L 494.4375 8.714844 L 495.503906 9.40625 L 494.8125 9.523438 L 495.34375 11.597656 L 496.519531 12.003906 L 496.671875 14.625 L 497.753906 16.539062 L 498.117188 22.101562 L 500.332031 23.703125 L 500.800781 25.773438 L 502.125 26.113281 L 502.472656 25.25 L 502.230469 26.992188 L 504.167969 29.835938 L 503.804688 30.769531 L 504.675781 30.589844 L 507.058594 32.054688 L 509.203125 34.691406 L 508.902344 35.839844 L 510.914062 36.585938 L 456.066406 46.09375 Z "/>
<path style="fill:none;stroke-width:0.75;stroke-linecap:round;stroke-linejoin:round;stroke:rgb(89.803922%,89.803922%,89.803922%);stroke-opacity:1;stroke-miterlimit:10;" d="M 527.636719 102.925781 L 465.363281 113.125 L 402.8125 121.085938 L 395.300781 54.101562 L 456.066406 46.09375 L 510.914062 36.585938 L 515.050781 38.789062 L 517.734375 37.660156 L 517.96875 38.695312 L 518.9375 39.25 L 518.316406 40.34375 L 519.460938 40.960938 L 518.046875 41.40625 L 516.484375 46.328125 L 520.671875 49.046875 L 520.761719 50.371094 L 522.757812 52.582031 L 526.886719 53.394531 L 535.785156 101.523438 Z "/>
<path style="fill:none;stroke-width:0.75;stroke-linecap:round;stroke-linejoin:round;stroke:rgb(0%,0%,0%);stroke-opacity:1;stroke-miterlimit:10;" d="M 172.300781 244.304688 L 172.085938 244.171875 L 171.800781 245.773438 L 172.472656 248.335938 L 170.902344 251.457031 L 170.070312 259.097656 L 171.5 261.324219 L 171.078125 262.367188 L 173.363281 264.402344 L 173.429688 270.527344 L 174.671875 273.765625 L 173.792969 280.339844 L 175.679688 284.390625 L 178.546875 287.117188 L 179.070312 289.699219 L 180.253906 290.480469 L 181.046875 289.804688 L 182.445312 290.445312 L 193.328125 300.855469 L 192.941406 302.488281 L 195.179688 305.875 L 194.691406 306.980469 L 195.390625 309.546875 L 196.304688 309.496094 L 196.296875 308.332031 L 198.125 308.542969 L 198.691406 311.597656 L 200.777344 310.777344 L 201.78125 311.851562 L 203.53125 318.230469 L 205.269531 319.3125 L 207.445312 318.929688 L 208.15625 320.039062 L 208.5625 319.714844 L 208.007812 323.214844 L 209.695312 325.125 L 209.300781 328.847656 L 210.144531 329.566406 L 209.929688 332.519531 L 210.953125 333.371094 L 211.277344 334.953125 L 213.398438 337.253906 L 218.019531 339.441406 L 219.121094 343.144531 L 221.261719 346.164062 L 220.910156 347.171875 L 223.191406 348.738281 L 226.039062 349.550781 L 224.808594 352.242188 L 225.984375 353.589844 L 225.6875 353.953125 L 227.628906 355.433594 L 227.863281 356.472656 L 226.917969 357.914062 L 229.484375 361.308594 L 230.359375 361.910156 L 231.53125 360.820312 L 228.769531 357.945312 L 228.035156 354.457031 L 228.644531 353.984375 L 233.824219 358.378906 L 233.761719 361.460938 L 236.21875 362.355469 L 235.675781 364.585938 L 237.332031 366.664062 L 237.125 368.136719 L 238.609375 371.605469 L 237.933594 374.726562 L 239.003906 378.824219 L 240.652344 379.882812 L 241.277344 382.351562 L 242.761719 384.261719 L 244.835938 384.507812 L 244.695312 386.089844 L 246.566406 389.449219 L 247.117188 392.699219 L 248.953125 395.113281 L 250.148438 395.566406 L 252.222656 400.132812 L 250.566406 404.351562 L 251.828125 410.125 L 254.257812 413.28125 L 259.074219 414.050781 L 258.140625 414.671875 L 256.921875 414.15625 L 257.292969 415.570312 L 258.578125 415.417969 L 259.503906 414.058594 L 258.753906 410.933594 L 259.914062 410.085938 L 260.921875 410.304688 L 262.109375 412.308594 L 265.34375 414.101562 L 266.042969 416.886719 L 267.265625 417.199219 L 269.25 416.453125 L 269.726562 417.367188 L 269.085938 419.308594 L 271.953125 422.234375 L 272.0625 425.289062 L 276.746094 427.546875 L 276.507812 428.3125 L 277.933594 431.214844 L 277.054688 435.507812 L 274.710938 438.03125 L 272.378906 438.738281 L 269.300781 442.144531 L 266.421875 442.675781 L 264.28125 440.261719 L 262.578125 433.175781 L 259.296875 427.796875 L 253.222656 424.359375 L 244.496094 415.65625 L 235.664062 410.402344 L 234.558594 408.964844 L 233.507812 408.941406 L 232.019531 405.507812 L 231.308594 405.171875 L 231.140625 406.210938 L 229.210938 406.035156 L 228.796875 404.886719 L 229.039062 406.113281 L 229.960938 406.722656 L 228.734375 406.839844 L 228.277344 403.992188 L 226.550781 401.535156 L 225.714844 400.808594 L 225.78125 401.824219 L 224.441406 401.773438 L 223.980469 399.753906 L 224.574219 400.070312 L 224.496094 399.535156 L 223.929688 399.734375 L 224.210938 401.429688 L 223.511719 402.078125 L 223.753906 401.261719 L 223.167969 400.503906 L 222.632812 400.792969 L 223.230469 399.699219 L 222.574219 398.816406 L 222.816406 397.386719 L 223.519531 397.453125 L 222.832031 397.257812 L 223.007812 395.8125 L 222.269531 397.109375 L 222.230469 400.160156 L 222.066406 399.0625 L 221.5 400.023438 L 221.886719 397.699219 L 221.355469 396.847656 L 222.144531 396.746094 L 222.605469 395.132812 L 222.621094 394.363281 L 221.9375 394.511719 L 222.054688 392.960938 L 222.753906 390.667969 L 223.507812 390.625 L 222.929688 390.324219 L 223.554688 389.808594 L 223.308594 385.742188 L 224.585938 385.472656 L 223.246094 385.507812 L 223.472656 384.726562 L 223.796875 385.078125 L 223.578125 379.875 L 223.125 380.742188 L 221.277344 374.199219 L 219.511719 372.449219 L 219.699219 371.597656 L 219.628906 371.558594 L 219.191406 372.558594 L 216.925781 368.382812 L 215.820312 368.019531 L 215.148438 368.691406 L 212.421875 366.707031 L 211.507812 366.820312 L 209.335938 364.753906 L 209.757812 364.234375 L 209.160156 364.621094 L 205.898438 362.035156 L 208.871094 363.65625 L 208.457031 363.125 L 207.042969 362.03125 L 205.640625 361.933594 L 203.84375 360.34375 L 203.757812 360.144531 L 202.726562 359.640625 L 202.914062 359.144531 L 203.726562 360.066406 L 203.5625 359.679688 L 204.125 359.570312 L 202.183594 357.125 L 202.707031 356.085938 L 201.890625 356.078125 L 201.519531 356.972656 L 200.363281 356.277344 L 201.324219 356.144531 L 202.472656 354.722656 L 202.011719 351.730469 L 201.1875 354.867188 L 199.839844 355.539062 L 199.933594 357.039062 L 196.136719 355.785156 L 197.449219 355.617188 L 196.425781 355.226562 L 195.601562 355.5 L 196 355.78125 L 195.089844 356.125 L 194.308594 357.691406 L 193.375 357.691406 L 193.460938 357.757812 L 193.355469 357.691406 L 192.894531 357.691406 L 192.054688 356.820312 L 190.625 355.867188 L 189.722656 353.367188 L 188.382812 352.085938 L 186.425781 351.386719 L 185.355469 351.992188 L 182.402344 348.480469 L 180.371094 347.886719 L 179.585938 348.523438 L 177.933594 347.246094 L 176.863281 347.28125 L 176.839844 346.527344 L 175.828125 346.101562 L 175.449219 341.96875 L 171.039062 339.457031 L 169.992188 337.429688 L 168.394531 336.730469 L 168.933594 336.652344 L 168.65625 335.648438 L 167.898438 336.265625 L 166.851562 335.082031 L 165.828125 335.066406 L 164.378906 332.109375 L 175.867188 334.039062 L 177.695312 333.023438 L 178.863281 333.230469 L 179.019531 332.5 L 178.046875 332.769531 L 179.472656 331.761719 L 179.980469 332.207031 L 179.757812 334.621094 L 182.480469 336.382812 L 183.644531 337.9375 L 184.902344 336.457031 L 183.992188 336.25 L 184.421875 336 L 186.503906 336.757812 L 187.160156 335.808594 L 187.246094 337.03125 L 186.46875 336.960938 L 187.585938 339.15625 L 188.277344 339.289062 L 188.777344 338.367188 L 187.582031 337.203125 L 187.675781 336.242188 L 188.546875 336.820312 L 187.835938 336.046875 L 187.726562 333.199219 L 186.160156 332.050781 L 186.511719 332.9375 L 185.722656 334.460938 L 186.367188 334.777344 L 185.109375 334.921875 L 184.378906 333.503906 L 184.933594 335.117188 L 183.371094 335.667969 L 182.046875 334.621094 L 182.730469 334.707031 L 182.179688 333.113281 L 183.167969 331.710938 L 182.53125 331.167969 L 183.015625 331.332031 L 182.484375 330.730469 L 182.84375 330.195312 L 180.363281 331.375 L 180.492188 330.402344 L 183.195312 327.277344 L 183.507812 328.117188 L 182.792969 328.988281 L 183.566406 330.789062 L 183.90625 330.203125 L 208.824219 330.59375 L 183.90625 330.199219 L 183.449219 328.328125 L 184.191406 329.660156 L 185.117188 328.257812 L 183.851562 327.890625 L 183.582031 326.488281 L 184.6875 324.726562 L 184.683594 327.074219 L 184.949219 324.90625 L 184.578125 323.492188 L 183.421875 323.464844 L 185.089844 318.96875 L 184.078125 317.027344 L 182.890625 316.585938 L 182.816406 314.898438 L 180.761719 314.46875 L 180.496094 313.433594 L 179.296875 312.886719 L 178.066406 309.628906 L 174.71875 307.59375 L 174 304.789062 L 172.265625 304.324219 L 171.785156 302.714844 L 170.429688 301.949219 L 167.519531 298.289062 L 163.257812 297.015625 L 162.105469 295.027344 L 159.667969 294.019531 L 158.179688 292.488281 L 157.253906 292.65625 L 153.605469 289.449219 L 153.644531 286.230469 L 152.890625 285.15625 L 151.550781 285.050781 L 152.238281 283.113281 L 151.832031 277.292969 L 149.90625 274.953125 L 148.535156 275.171875 L 149.4375 274.699219 L 149.570312 273.699219 L 148.53125 272.546875 L 149.15625 273.945312 L 148.726562 274.371094 L 147.835938 273.757812 L 148.679688 275.738281 L 148.21875 275.839844 L 147.398438 273.304688 L 147.980469 269.214844 L 147.488281 266.109375 L 145.296875 264.589844 L 143.628906 262.210938 L 142.289062 262.078125 L 142.992188 258.046875 L 142.074219 255.960938 L 139.199219 251.605469 L 137.695312 250.914062 L 136.078125 248.816406 L 136.882812 248.195312 L 136.996094 246.472656 L 135.242188 244.558594 L 136.8125 245.183594 L 137.527344 244.167969 L 136.894531 245.167969 L 137.386719 245.734375 L 137.796875 242.292969 L 135.382812 241.039062 L 135.007812 239.472656 L 132.960938 238.347656 L 132.460938 233.902344 L 130.226562 232.261719 L 128.910156 226.738281 L 174.226562 224.289062 L 172.480469 226.496094 L 172.351562 229.203125 L 242.8125 255.707031 L 297.3125 254.472656 L 296.976562 244.480469 L 328.828125 243.144531 L 329.632812 243.921875 L 331.617188 244.148438 L 335.351562 249.921875 L 340.234375 251.917969 L 343.960938 256.09375 L 347.328125 257.820312 L 348.234375 259.765625 L 351.40625 261.886719 L 351.5 262.695312 L 355.046875 263.523438 L 358.140625 265.945312 L 359.308594 265.964844 L 359.96875 267.511719 L 361.003906 267.628906 L 362.558594 272.394531 L 365.640625 275.574219 L 366.511719 282.550781 L 368.945312 285.59375 L 370.273438 288.703125 L 372.953125 290.59375 L 376.347656 291.695312 L 377.382812 293.617188 L 379.691406 294.9375 L 385.050781 295.972656 L 385.179688 296.867188 L 386.449219 297.746094 L 389.671875 298.050781 L 391.402344 300.019531 L 393.601562 300.863281 L 394.265625 300.34375 L 395.242188 301.671875 L 398.542969 301.328125 L 398.738281 299.621094 L 399.921875 298.648438 L 400.554688 296.816406 L 403.015625 295.632812 L 402.171875 294.886719 L 402.480469 292.789062 L 403.679688 291.621094 L 403.660156 288.835938 L 405.925781 283.691406 L 406.804688 283.8125 L 407.917969 282.925781 L 408.347656 283.46875 L 408.929688 282.558594 L 411.421875 282.855469 L 411.738281 280.921875 L 412.539062 280.132812 L 417.5625 281.765625 L 419.324219 280.933594 L 420.28125 281.574219 L 421.734375 280.933594 L 422.359375 281.289062 L 422.378906 280.78125 L 422.6875 281.449219 L 425.894531 281.753906 L 427.210938 281.285156 L 427.714844 280.300781 L 427.972656 281.449219 L 429.460938 280.648438 L 429.769531 281.503906 L 430.65625 280.984375 L 430.351562 281.515625 L 431.59375 283.5625 L 432.714844 283.414062 L 432.84375 285.097656 L 433.890625 283.941406 L 433.90625 286.234375 L 437.859375 287.296875 L 439.0625 289.179688 L 443.109375 291.25 L 444.078125 293.203125 L 446.148438 294.488281 L 447.277344 298.707031 L 449.601562 300.949219 L 450.613281 304.074219 L 452.828125 305.625 L 453.191406 307.160156 L 454.242188 307.414062 L 453.621094 308 L 455.949219 312.722656 L 457.464844 314.039062 L 459.984375 314.828125 L 462.34375 318.039062 L 463.292969 318.226562 L 464.902344 322.308594 L 466.246094 322.699219 L 468.378906 325.058594 L 470.035156 325.605469 L 470.8125 325.207031 L 472.652344 326.6875 L 472.53125 328.203125 L 473.527344 328.664062 L 473.328125 331.761719 L 472.703125 332.375 L 474.765625 333.589844 L 475.308594 338.789062 L 479.105469 342.324219 L 481.699219 347.203125 L 481.921875 349.050781 L 483.519531 350.054688 L 483.347656 351.445312 L 483.945312 352 L 486.398438 351.804688 L 486.96875 352.414062 L 487.261719 351.863281 L 487.878906 352.648438 L 489.789062 352.191406 L 492.722656 354.816406 L 494.257812 354.164062 L 496.214844 355.121094 L 497.425781 354.679688 L 498.699219 356.078125 L 499.703125 355.769531 L 500.472656 357.058594 L 500.925781 356.492188 L 500.886719 357.085938 L 502.792969 357.949219 L 505.117188 357.3125 L 505.300781 358.121094 L 506.207031 357.34375 L 510.808594 356.902344 L 511.707031 357.605469 L 514.113281 357.300781 L 515.003906 358.710938 L 515.863281 358.816406 L 515.558594 359.265625 L 516.519531 359.238281 L 516.984375 360.167969 L 518.355469 360.082031 L 519.027344 361.019531 L 519.292969 360.507812 L 519.484375 361.035156 L 520.148438 360.789062 L 520.011719 359.234375 L 521.800781 358.566406 L 521.570312 358.035156 L 524.488281 357.539062 L 524.496094 364.199219 L 520.710938 374.667969 L 519.96875 374.585938 L 521.359375 371.714844 L 520.808594 371.628906 L 520.878906 371.476562 L 519.78125 371.886719 L 520.851562 370.757812 L 519.523438 370.699219 L 519.722656 369.9375 L 519.070312 370.527344 L 517.921875 369.507812 L 517.085938 370.558594 L 517.808594 370.324219 L 518.507812 370.910156 L 518.300781 371.660156 L 518.671875 371.34375 L 519.15625 372.050781 L 517.691406 371.917969 L 518.25 373.8125 L 517.542969 373.929688 L 517.386719 372.890625 L 516.625 373.484375 L 516.023438 372.976562 L 516.367188 372.109375 L 515.691406 371.949219 L 514.464844 372.417969 L 514.636719 373.644531 L 514.925781 372.96875 L 514.492188 374.925781 L 512.925781 374.152344 L 514.324219 375.503906 L 514.875 375.203125 L 514.96875 376.203125 L 515.746094 376.65625 L 515.3125 378.746094 L 514.304688 379.109375 L 515.320312 378.914062 L 514.609375 380.027344 L 515.207031 380.359375 L 514.1875 381.75 L 515.152344 381.285156 L 516.777344 382.347656 L 515.589844 383.261719 L 515.121094 382.835938 L 515.410156 383.882812 L 514.851562 384.101562 L 515.839844 384.96875 L 514.703125 385.957031 L 515.945312 385.800781 L 515.488281 386.066406 L 515.980469 386.195312 L 515.875 387.496094 L 514.921875 388.242188 L 516.132812 387.742188 L 515.535156 388.554688 L 516.214844 388.328125 L 515.921875 392.28125 L 515.226562 391.992188 L 515.203125 390.746094 L 514.175781 391.074219 L 514.011719 390.324219 L 513.21875 391.757812 L 513.800781 392.332031 L 514.351562 391.855469 L 513.597656 393.089844 L 514.191406 394.074219 L 515.070312 394.164062 L 514.097656 394.183594 L 515.21875 396.238281 L 515.074219 394.070312 L 515.929688 393.15625 L 516.230469 401.460938 L 515.84375 401.925781 L 515.894531 401.019531 L 515.082031 401.171875 L 515.945312 402.886719 L 516.234375 401.855469 L 516.917969 408.160156 L 517.628906 408.074219 L 517.402344 405.730469 L 517.816406 408.472656 L 516.765625 408.363281 L 517.421875 408.664062 L 517.421875 408.785156 L 517.800781 408.546875 L 517.902344 416.730469 L 517.773438 416.203125 L 517.367188 416.65625 L 517.910156 416.832031 L 519.0625 428.566406 L 518.582031 430.800781 L 518.558594 431.054688 L 518.503906 431.171875 L 518.007812 433.488281 L 518.273438 431.648438 L 516.960938 434.367188 L 517.746094 436.296875 L 517.917969 433.40625 L 518.234375 437.617188 L 517.445312 438.101562 L 518.238281 437.839844 L 517.753906 438.210938 L 518.417969 440.542969 L 518.164062 438.46875 L 519.433594 441.890625 L 520.300781 442.5625 L 520.144531 444.539062 L 522.3125 449.140625 L 520.6875 446.890625 L 522.140625 449.550781 L 522.292969 452.371094 L 523.546875 456.070312 L 526.183594 460.242188 L 527.539062 459.929688 L 528.019531 460.445312 L 528.289062 462.914062 L 529.503906 464.210938 L 529.097656 462.609375 L 530.296875 459.695312 L 530.09375 458.4375 L 524.558594 453.285156 L 522.351562 449.210938 L 525.863281 453.511719 L 531.207031 457.503906 L 530.824219 460.539062 L 529.703125 464.421875 L 529.945312 464.683594 L 536.226562 477.5625 L 553.75 494.824219 L 555.898438 500.148438 L 555.457031 500.496094 L 557.402344 502.855469 L 557 504.566406 L 558.304688 506.710938 L 557.753906 506.652344 L 561.222656 508.613281 L 562.066406 508.398438 L 561.765625 508.757812 L 563.023438 510.003906 L 562.515625 511.289062 L 565.699219 511.851562 L 566.921875 515.539062 L 568.496094 516.726562 L 571.101562 517.371094 L 570.984375 518.085938 L 568.273438 517.089844 L 569.695312 518.585938 L 568.820312 519.382812 L 569.957031 519.210938 L 570.050781 518.472656 L 571.175781 518.554688 L 571.273438 517.453125 L 575.347656 518.792969 L 583.667969 518.203125 L 585.921875 519.429688 L 587.089844 520.96875 L 592.117188 521.355469 L 594.125 524.492188 L 596.816406 526.628906 L 597.429688 528.621094 L 600.109375 529.515625 L 604.277344 528.535156 L 613.722656 524.664062 L 613.285156 525.894531 L 614.796875 525.730469 L 616.101562 525.09375 L 615.84375 524.117188 L 616.445312 523.671875 L 619.394531 523.492188 L 619.859375 522.898438 L 619.414062 521.90625 L 623.84375 520.859375 L 622.597656 520.789062 L 623.058594 520.628906 L 628.921875 519.75 L 628.136719 520.394531 L 628.921875 520.09375 L 628.398438 520.652344 L 628.695312 521.554688 L 629.917969 520.957031 L 629.699219 522.039062 L 630.867188 520.59375 L 628.945312 520.191406 L 629.140625 519.714844 L 634.601562 519.089844 L 637.097656 517.367188 L 638.621094 514.558594 L 644.902344 512.757812 L 654.550781 510.90625 L 657.035156 512.636719 L 656.785156 513.445312 L 655.460938 513.734375 L 655.261719 512.726562 L 654.542969 513.585938 L 653.859375 513.28125 L 653.84375 513.792969 L 654.503906 513.664062 L 654.210938 514.703125 L 653.890625 514.074219 L 653.070312 515.175781 L 654.9375 515.15625 L 654.746094 513.597656 L 655.695312 514.265625 L 656.230469 513.855469 L 657.472656 515.097656 L 663.453125 515.875 L 664.96875 515.578125 L 665.441406 514.324219 L 668.714844 512.792969 L 669.3125 512.4375 L 670.691406 507.683594 L 669.054688 506.839844 L 668.3125 507.625 L 666.789062 506.921875 L 667.160156 505.5 L 667.730469 505.46875 L 667.214844 505.125 L 672.617188 500.835938 L 667.265625 504.398438 L 666.28125 506.300781 L 665.792969 506.433594 L 666.21875 505.457031 L 665.058594 507.644531 L 664.46875 507.539062 L 666.492188 504.890625 L 671.949219 501.089844 L 679.332031 493.488281 L 680.167969 492 L 679.628906 487.34375 L 680.019531 485.734375 L 679.394531 484.6875 L 680.144531 482.632812 L 683.191406 479.660156 L 684.152344 477.496094 L 682.964844 475.066406 L 682.109375 466.804688 L 681.433594 465.640625 L 681.996094 465.4375 L 681.328125 464.9375 L 682.082031 461.5625 L 681.753906 459.851562 L 682.386719 457.988281 L 682.804688 453.738281 L 683.984375 451.765625 L 688.105469 448.273438 L 693.144531 445.855469 L 692.332031 445.789062 L 693.253906 445.242188 L 696.273438 444.082031 L 694.355469 445.214844 L 694.828125 445.25 L 696.953125 444.324219 L 696.265625 443.980469 L 714.800781 438.453125 L 718.949219 436.109375 L 719.003906 435.414062 L 717.832031 436.621094 L 719.457031 434.679688 L 723.933594 432.980469 L 726.808594 432.746094 L 729.5 431.269531 L 728.628906 431.089844 L 729.402344 430.675781 L 733.414062 430.382812 L 731.394531 431.15625 L 736.3125 431.121094 L 738.230469 432.199219 L 742.023438 431.769531 L 740.285156 431.503906 L 744.335938 431.59375 L 744.753906 432.199219 L 745.65625 431.773438 L 750.492188 432.234375 L 750.535156 431.578125 L 751.683594 431.925781 L 751.207031 431.476562 L 752.726562 430.515625 L 752.761719 429 L 752.027344 428.609375 L 752.484375 427.820312 L 754.664062 428.113281 L 755.605469 429.003906 L 755.042969 427.886719 L 757.96875 431.21875 L 759.296875 434.503906 L 760.007812 434.816406 L 759.65625 434.164062 L 760.25 432.632812 L 760.710938 436.320312 L 762.363281 437.128906 L 761.917969 439.699219 L 761.191406 440.015625 L 760.472656 444.640625 L 756.441406 451.40625 L 752.925781 455.503906 L 750.621094 461.191406 L 749.941406 464.90625 L 750.125 466.609375 L 751.730469 469.257812 L 751.230469 471.949219 L 750.761719 471.515625 L 751.707031 469.28125 L 750.679688 468.035156 L 751.183594 470.070312 L 750.527344 471.402344 L 748.730469 472.109375 L 747.386719 476.546875 L 746.847656 476.351562 L 747.457031 476.070312 L 747.519531 474.753906 L 745.542969 475.46875 L 745.757812 477.398438 L 747.625 478.117188 L 747.476562 479.546875 L 748.792969 477.84375 L 750.191406 477.316406 L 751.113281 477.75 L 751.550781 476.859375 L 750.757812 476.535156 L 752.902344 476.503906 L 752.671875 475.667969 L 752.023438 476.039062 L 752.066406 475.039062 L 753.257812 476.21875 L 753.03125 479.242188 L 751.359375 481.3125 L 750.28125 481.421875 L 750.984375 481.28125 L 750.957031 480.5625 L 749.753906 481.34375 L 748.949219 482.199219 L 748.742188 483.945312 L 748.074219 483.722656 L 748.789062 484.910156 L 747.875 485.910156 L 748.617188 485.765625 L 749.242188 486.832031 L 751.226562 483.554688 L 752.4375 482.824219 L 752.1875 484.5625 L 752.59375 482.835938 L 752.808594 483.324219 L 752.949219 482.753906 L 753.472656 483 L 751.753906 485.796875 L 751.933594 488.726562 L 749.535156 498.320312 L 749.375 505.328125 L 748.308594 507.890625 L 748.308594 510.960938 L 747.421875 510.453125 L 747.8125 509.894531 L 746.976562 510.453125 L 746.980469 507.304688 L 745.472656 506.464844 L 745.515625 505.496094 L 742.132812 504.847656 L 743.230469 500.132812 L 742.640625 499.511719 L 742.808594 497.703125 L 741.621094 496.890625 L 741.332031 495.59375 L 740.265625 496.890625 L 739.785156 499.242188 L 739.421875 498.113281 L 738.449219 499.769531 L 738.546875 500.453125 L 739.578125 499.683594 L 737.304688 505.160156 L 733.074219 505.722656 L 732.148438 506.6875 L 729.242188 516.679688 L 726.390625 520.289062 L 726.675781 521.71875 L 722.066406 519.023438 L 719.609375 520.839844 L 719.960938 523.855469 L 678.660156 528.914062 L 679.976562 541.933594 L 669.949219 543.277344 L 672.308594 544.953125 L 673.800781 544.683594 L 674.042969 545.734375 L 676.515625 547.972656 L 677.609375 548.097656 L 679.398438 550.628906 L 681.289062 551.363281 L 681.730469 550.449219 L 681.550781 551.3125 L 682.335938 551.273438 L 682.820312 552.15625 L 685.535156 552.375 L 687.679688 553.777344 L 689.148438 555.613281 L 689.367188 556.675781 L 688.824219 556.800781 L 689.988281 557.039062 L 689.789062 558.496094 L 690.660156 558.582031 L 690.15625 559.304688 L 692.148438 559.085938 L 693.742188 559.390625 L 693.675781 560.296875 L 695.875 560.335938 L 696.421875 561.289062 L 695.5 561.492188 L 695.699219 562.636719 L 695.035156 563.027344 L 695.457031 564.019531 L 694.84375 564.265625 L 695.441406 564.59375 L 694.980469 565.667969 L 695.707031 566.15625 L 695.097656 567.636719 L 695.851562 567.691406 L 695.492188 568.429688 L 666.390625 571.25 L 657.199219 591.34375 L 661.125 595.535156 L 659.324219 597.75 L 659.660156 600 L 658.820312 601.332031 L 660.011719 605.144531 L 658.648438 608.410156 L 642.980469 595.203125 L 643.242188 594.683594 L 643.398438 594.726562 L 642.996094 593.992188 L 643.09375 594.769531 L 642.117188 594.394531 L 642.734375 594.992188 L 633.980469 587.785156 L 631.523438 586.21875 L 631.574219 586.253906 L 631.441406 586.167969 L 624.242188 581.574219 L 616.933594 578.136719 L 618.664062 577.828125 L 618.238281 576.445312 L 617.597656 575.84375 L 613.363281 575.304688 L 612.3125 573.109375 L 610.394531 574.113281 L 607.558594 573.191406 L 606.46875 571.914062 L 605.6875 572.363281 L 605.914062 573.394531 L 605.199219 573.328125 L 606.480469 573.898438 L 605.21875 573.914062 L 608.71875 575.1875 L 607.316406 574.605469 L 610.246094 574.597656 L 611.78125 575.472656 L 610.664062 575.441406 L 613.871094 576.769531 L 612.238281 575.953125 L 613.246094 575.9375 L 614.75 577.621094 L 616.230469 578.109375 L 607.15625 575.179688 L 598.949219 574.5625 L 598.792969 574.144531 L 601.332031 572.925781 L 601.917969 571.394531 L 599.742188 570.921875 L 597.136719 573.289062 L 596.769531 572.78125 L 597.6875 571.898438 L 595.929688 569.769531 L 595.066406 569.695312 L 594.03125 570.253906 L 593.253906 572.183594 L 591.9375 572.40625 L 591.261719 573.613281 L 593.597656 574.183594 L 591.109375 573.960938 L 590.480469 574.714844 L 598.464844 574.648438 L 589.160156 575.722656 L 589.578125 576.386719 L 586.90625 577.09375 L 587.40625 577.21875 L 586.9375 577.960938 L 585.246094 578.761719 L 585.058594 580.152344 L 583.648438 581.285156 L 582.851562 581.285156 L 583.171875 580.914062 L 580.554688 581.78125 L 578.753906 583.140625 L 576.324219 583.742188 L 576.289062 584.289062 L 572.214844 585.609375 L 566.394531 589.410156 L 562.203125 589.414062 L 559.371094 590.515625 L 556.148438 589.367188 L 552.550781 589.140625 L 543.984375 585.355469 L 531.777344 585.066406 L 522.367188 580.144531 L 514.527344 578.6875 L 509.28125 573.542969 L 506.390625 574.203125 L 497 572.019531 L 489.9375 571.625 L 485.300781 569.640625 L 485.789062 569.410156 L 484.894531 569.234375 L 485.1875 568.285156 L 484.039062 568.972656 L 482.425781 567.269531 L 458.648438 560.601562 L 458.746094 559.6875 L 455.433594 557.128906 L 449.789062 555.246094 L 450.050781 554.347656 L 448.660156 553.152344 L 447.632812 553.429688 L 447.597656 552.8125 L 447.179688 553.214844 L 446.394531 552.371094 L 445.402344 552.40625 L 445.570312 551.503906 L 443.214844 549.59375 L 442.3125 547.96875 L 438.375 545.917969 L 435.492188 545.730469 L 434.296875 546.996094 L 433.613281 546.378906 L 434.058594 547.164062 L 433.539062 547.378906 L 427.433594 545.402344 L 421.207031 544.519531 L 415.332031 542.195312 L 408.160156 540.839844 L 405.246094 539.511719 L 403.144531 535.59375 L 400.332031 533.757812 L 400.882812 533.078125 L 400.480469 532.332031 L 394.816406 527.847656 L 386.753906 524.949219 L 387.574219 523.605469 L 386.214844 523.359375 L 386.0625 522.734375 L 384.363281 523.582031 L 382.777344 522.496094 L 378.945312 521.804688 L 379.03125 521.222656 L 379.730469 521.480469 L 378.964844 520.792969 L 376.414062 520.546875 L 376.625 519.09375 L 374.964844 519.65625 L 371.652344 517.382812 L 371.871094 516.648438 L 370.65625 515.503906 L 370.234375 513.519531 L 366.4375 511.046875 L 360.070312 502.03125 L 359.953125 499.222656 L 357.652344 497.152344 L 356.765625 495.132812 L 359.226562 493.375 L 364.597656 492.527344 L 366.035156 490.941406 L 366.042969 489.257812 L 363.773438 487.074219 L 362.398438 487.679688 L 359.722656 487.007812 L 360.757812 486.390625 L 364.199219 480.867188 L 365.058594 481.128906 L 365.773438 480.300781 L 366.070312 477.023438 L 365.265625 473.894531 L 366.402344 471.359375 L 365.550781 469.964844 L 364.738281 470.253906 L 360.847656 467.867188 L 359.222656 463.871094 L 356.585938 460.28125 L 356.433594 455.664062 L 358.824219 458.230469 L 359.226562 458.054688 L 358.644531 457.644531 L 359.488281 457.808594 L 359.535156 457.867188 L 359.90625 456.703125 L 358.023438 455.53125 L 358.570312 456.863281 L 357.722656 456.121094 L 357.785156 454.867188 L 357.128906 455.425781 L 356.847656 454.96875 L 355.148438 447.039062 L 355.332031 446.589844 L 355.066406 446.3125 L 355 446.164062 L 354.875 449.03125 L 355.289062 449.355469 L 355.046875 447.050781 L 356.800781 455.507812 L 356.222656 455.441406 L 355.128906 451.140625 L 353.558594 448.011719 L 354.425781 448.683594 L 351.191406 444.230469 L 347.613281 441.636719 L 348.0625 441.285156 L 347.484375 441.5 L 341.511719 435.347656 L 339.390625 434.179688 L 340.1875 433.460938 L 341.601562 434.726562 L 341.277344 434.234375 L 340.019531 433.21875 L 339.175781 434.207031 L 339.300781 433.324219 L 337.742188 431.445312 L 337.835938 430.65625 L 333.378906 425.535156 L 330.996094 423.972656 L 331.15625 422.75 L 329.1875 419.828125 L 322.867188 414.378906 L 326.453125 417.058594 L 323.410156 414.285156 L 325.652344 415.550781 L 323.496094 413.976562 L 323.804688 413.316406 L 322.988281 412.957031 L 323.296875 414.050781 L 322.527344 413.835938 L 310.121094 405.871094 L 310.519531 405.527344 L 316.664062 409.492188 L 315.199219 408.167969 L 316.457031 408.808594 L 316.808594 407.804688 L 315.203125 405.171875 L 313.96875 405.375 L 314.824219 405.835938 L 313.5625 406.8125 L 312.523438 405.484375 L 311.199219 405.808594 L 311.347656 405.09375 L 306.5 402.375 L 306.433594 401.679688 L 306.441406 402.523438 L 308.222656 403.953125 L 306.035156 402.488281 L 305.671875 400.832031 L 304.582031 399.707031 L 306.117188 400.449219 L 306.667969 399.226562 L 305.585938 398.394531 L 306 395.632812 L 305.042969 395 L 304.453125 393.058594 L 303.066406 392.214844 L 303.164062 392.675781 L 302.449219 392.570312 L 300.621094 390.582031 L 299.289062 390.714844 L 299.195312 389.523438 L 298.160156 389.21875 L 297.882812 390.949219 L 294.125 387.566406 L 294.714844 388.363281 L 290.472656 387.15625 L 292.246094 387.027344 L 293.113281 387.625 L 292.042969 386.273438 L 290.667969 386.472656 L 290.355469 385.0625 L 289.59375 385.972656 L 290.242188 383.671875 L 289.84375 383.121094 L 289.015625 383.589844 L 288.03125 382.53125 L 287.234375 382.921875 L 287.675781 384.128906 L 286.921875 385.210938 L 285.859375 384.0625 L 284.820312 384.398438 L 285.386719 384.984375 L 284.523438 385.097656 L 282.957031 383.28125 L 283.59375 383.796875 L 283.894531 383.1875 L 284.128906 383.886719 L 283.941406 383.019531 L 284.335938 383.503906 L 284.835938 383.113281 L 284.085938 382.757812 L 284.414062 382.222656 L 285.085938 382.929688 L 285.558594 382.605469 L 285.714844 383.328125 L 285.964844 381.769531 L 286.847656 381.597656 L 286.554688 380.417969 L 285.003906 380.785156 L 284.109375 382.519531 L 284.164062 382.011719 L 283.691406 382.550781 L 282.914062 381.972656 L 283.242188 382.757812 L 282.300781 382.414062 L 281.40625 380.414062 L 280.046875 379.925781 L 280.632812 381.136719 L 279.972656 381.195312 L 281.535156 381.574219 L 282.128906 382.984375 L 280.300781 381.371094 L 277.390625 381.386719 L 278.890625 380.964844 L 277.785156 381.035156 L 278.164062 380.664062 L 279.503906 381.074219 L 279.609375 379.636719 L 277.726562 378.292969 L 277.273438 380.421875 L 276.5625 377.664062 L 277.171875 374.871094 L 276.273438 374.78125 L 276.402344 373.40625 L 277.050781 373.429688 L 276.507812 373.222656 L 277.738281 371.011719 L 277.597656 371.097656 L 280.023438 366.300781 L 279.285156 370.21875 L 280.765625 365.675781 L 281.863281 366.488281 L 281.441406 367.722656 L 281.902344 367.546875 L 282.824219 369.109375 L 282.582031 367.828125 L 283.183594 366.914062 L 282.285156 366.675781 L 281.292969 364.488281 L 280.800781 364.21875 L 281.140625 365.351562 L 280.257812 364.476562 L 279.914062 362.777344 L 279.808594 366.222656 L 279.425781 361.878906 L 276.75 358.832031 L 275.136719 358.25 L 276.246094 358.457031 L 275.160156 356.898438 L 274.664062 357.402344 L 274.261719 356.589844 L 273.722656 357.523438 L 274.667969 357.785156 L 273.550781 357.898438 L 274.9375 358.535156 L 271.949219 358.019531 L 271.210938 358.5 L 268.566406 356.980469 L 265.839844 351.476562 L 267.039062 352.792969 L 266.414062 349.972656 L 265.316406 349.03125 L 263.761719 348.683594 L 263.59375 349.664062 L 261.664062 348.789062 L 262.257812 348.625 L 258.769531 348.105469 L 256.246094 345.675781 L 254.371094 345.117188 L 255.894531 344.835938 L 254.863281 343.015625 L 253.59375 343.355469 L 254.496094 342.445312 L 253.691406 342.828125 L 253.949219 341.984375 L 253.621094 342.296875 L 253.320312 341.558594 L 253.964844 341.398438 L 253.273438 340.933594 L 252.964844 341.820312 L 253.242188 339.992188 L 252.1875 337.730469 L 252.375 336.75 L 252.585938 336.746094 L 252.65625 335.589844 L 253.652344 335.339844 L 252.640625 334.832031 L 252.867188 332.835938 L 254.308594 332.570312 L 251.597656 331.527344 L 252.339844 332.484375 L 250.257812 331.480469 L 247.675781 331.386719 L 248.625 331.191406 L 248.085938 330.464844 L 246.636719 331.746094 L 247.636719 331.648438 L 246.972656 333.015625 L 245.777344 332.378906 L 245.3125 330.113281 L 243.503906 330.527344 L 243.613281 331.09375 L 242.71875 330.90625 L 242.765625 330.28125 L 239.765625 328.316406 L 237.09375 323.535156 L 235.726562 322.5 L 236.195312 321.292969 L 230.785156 319.398438 L 229.503906 316.046875 L 226.058594 312.71875 L 227.085938 312.105469 L 227.542969 313.046875 L 228.078125 311.894531 L 227.28125 311.960938 L 227.191406 311.339844 L 226.941406 311.964844 L 226.730469 311.355469 L 226.785156 312.03125 L 224.515625 310.496094 L 223.117188 308.355469 L 221.785156 308.089844 L 221.921875 304.863281 L 220.664062 303.371094 L 221.082031 301.96875 L 220.613281 300.5625 L 218.816406 300.300781 L 218.625 300.90625 L 217.15625 299.699219 L 217.789062 296.675781 L 213.914062 291.582031 L 212.308594 287.597656 L 210.71875 287.050781 L 210.539062 280.8125 L 209.578125 279.433594 L 208.519531 279.199219 L 208.878906 277.4375 L 208.269531 275.226562 L 206.117188 273.277344 L 204.339844 269.980469 L 203.585938 267.09375 L 204.292969 263.871094 L 203.628906 261.664062 L 204.378906 263.328125 L 205.003906 262.234375 L 204.917969 259.414062 L 201.277344 256.589844 L 200.910156 257.179688 L 201.90625 257.582031 L 194.269531 255.5625 L 193.722656 251.90625 L 189.078125 248.890625 L 188.726562 249.382812 L 187.667969 248.535156 L 187.304688 250.121094 L 187.980469 250.285156 L 187.136719 251.078125 L 186.605469 250.660156 L 186.703125 251.769531 L 183.964844 251.601562 L 176.125 245.695312 L 174.199219 245.488281 L 172.6875 244.546875 L 174.714844 246.453125 L 175.039062 247.617188 L 173.105469 246.972656 L 172.035156 245.597656 Z M 220.953125 308.109375 L 221.449219 307.890625 L 219.726562 311.707031 L 220.203125 312.527344 L 219.082031 312.984375 L 213.730469 310.09375 L 215.566406 308.507812 L 215.277344 305.957031 L 216.246094 303.058594 L 217.210938 303.226562 L 219.867188 301.9375 L 219.792969 304.300781 L 221.335938 306.917969 Z M 198.042969 302.75 L 194.28125 298.035156 L 194.945312 294.871094 L 196.542969 295.414062 L 198.105469 297.003906 L 198.90625 298.628906 L 198.613281 300.40625 L 202.464844 301.085938 L 202.285156 304.441406 L 202.773438 305.785156 L 203.722656 305.992188 L 203.382812 307.566406 Z "/>
<path style="fill:none;stroke-width:0.75;stroke-linecap:round;stroke-linejoin:round;stroke:rgb(0%,0%,0%);stroke-opacity:1;stroke-miterlimit:10;" d="M 44.871094 94.152344 L 44.933594 95.476562 L 42.882812 93.800781 L 42.222656 94.796875 L 41.171875 94.6875 L 40.566406 93.777344 L 41.351562 95.339844 L 40.617188 96.761719 L 41.667969 97.6875 L 40.6875 98.730469 L 40.996094 100.96875 L 39.953125 101.121094 L 37.507812 98.925781 L 37.027344 99.152344 L 35.023438 96.355469 L 33.339844 95.636719 L 32.609375 96.449219 L 31.664062 96.253906 L 33.347656 92.867188 L 32.761719 89.539062 L 31.804688 89.492188 L 30.910156 86.230469 L 28.132812 83.308594 L 21.8125 73.949219 L 22.824219 71.425781 L 21.46875 64.308594 L 23.097656 59.898438 L 22.480469 53.589844 L 18.921875 46.882812 L 15.113281 42.890625 L 15.507812 41.242188 L 14.890625 38.703125 L 21.414062 27.296875 L 21.210938 23.847656 L 23.113281 19.914062 L 23.796875 16.734375 L 23.214844 10.539062 L 21.726562 9.199219 L 23.050781 4.371094 L 92.921875 12.964844 L 86.753906 79.546875 L 177.398438 173.742188 L 177.210938 176.476562 L 180.074219 180.230469 L 180.585938 182.703125 L 181.605469 184.113281 L 181.570312 185.820312 L 185.097656 188 L 186.097656 190.074219 L 180.757812 193.722656 L 180.371094 195.332031 L 178.6875 196.726562 L 178.960938 202.429688 L 178.191406 202.980469 L 178.25 205.703125 L 176.019531 208.777344 L 174.53125 208.914062 L 174.894531 210.226562 L 174.273438 211.246094 L 175.324219 212.113281 L 174.597656 215.925781 L 175.449219 217.199219 L 178.121094 217.515625 L 179.070312 218.648438 L 179.128906 221.585938 L 177.894531 222.34375 L 177.800781 223.195312 L 176.394531 224.164062 L 174.710938 223.785156 L 128.835938 226.625 L 127.691406 222.503906 L 129.050781 225.140625 L 129.058594 223.449219 L 127.734375 222.046875 L 126.738281 223.308594 L 126.234375 219.472656 L 126.847656 218.679688 L 125.726562 213.652344 L 124.339844 210.847656 L 112.019531 198.707031 L 109.457031 197.964844 L 108.613281 199.472656 L 106.464844 198.570312 L 106.539062 195.347656 L 104.355469 191.765625 L 99.769531 191.882812 L 97.003906 191.207031 L 92.046875 188.484375 L 91.261719 186.375 L 87.492188 183.039062 L 85.289062 181.941406 L 80.417969 181.824219 L 77.898438 180.351562 L 75.546875 179.929688 L 69.664062 180.097656 L 68.832031 178.257812 L 66.5 176.914062 L 67.488281 174.046875 L 67.042969 172.753906 L 67.660156 170.660156 L 66.695312 169.496094 L 67.929688 165.765625 L 67.664062 164.28125 L 63.726562 162.375 L 63.914062 157.484375 L 61.847656 156.648438 L 59.394531 152.535156 L 57.214844 151.558594 L 56.445312 148.394531 L 54.503906 146.433594 L 50.753906 139.277344 L 47.570312 136.117188 L 46.898438 129.835938 L 47.824219 128.632812 L 48.535156 129.445312 L 49.6875 128.652344 L 50.929688 124.9375 L 49.078125 121.519531 L 45.863281 121.507812 L 43.988281 120.101562 L 40.269531 114.316406 L 41.007812 111.84375 L 40.398438 108.90625 L 39.367188 107.808594 L 40.160156 102.03125 L 41.945312 101.652344 L 42.699219 103.621094 L 42.175781 106.167969 L 46.585938 110.199219 L 48.628906 110.238281 L 46.628906 109.195312 L 45.320312 103.6875 L 43.433594 102.503906 L 43.804688 99.988281 L 42.71875 99.46875 L 42.738281 98.023438 L 44.324219 97.273438 L 49.625 96.90625 L 54.855469 98.230469 L 55.730469 96.910156 L 57.171875 96.882812 L 57.617188 97.621094 L 57.671875 95.960938 L 55.722656 96.679688 L 55.796875 95.046875 L 53.492188 97.109375 L 51.386719 96.742188 L 50.109375 95.101562 L 45.582031 96.144531 Z M 44.828125 94.03125 L 44.453125 92.972656 L 44.011719 93.203125 Z M 102.570312 204.070312 L 106.804688 205.894531 L 107.75 208.265625 L 104.949219 207.703125 L 104.597656 205.566406 L 103.21875 205.144531 Z M 106.207031 219.0625 L 104.890625 219.273438 L 101.828125 214.285156 L 102.375 213.988281 Z M 79.871094 189.160156 L 83.480469 190.644531 L 85.304688 190.015625 L 86.1875 190.554688 L 85.835938 191.15625 L 82.558594 191.832031 L 80.066406 191.566406 L 79.355469 190.699219 L 79.679688 190.117188 L 78.734375 189.429688 Z M 74.050781 192.082031 L 72.886719 190.042969 L 76.496094 189.660156 L 77.878906 191.859375 L 75.078125 192.820312 Z "/>
<path style="fill:none;stroke-width:0.75;stroke-linecap:round;stroke-linejoin:round;stroke:rgb(0%,0%,0%);stroke-opacity:1;stroke-miterlimit:10;" d="M 100.351562 93.726562 L 86.753906 79.546875 L 92.921875 12.964844 L 142.675781 16.675781 L 191.601562 18.722656 L 188.636719 147 L 186.898438 150.828125 L 185.488281 151.339844 L 183.695312 150.296875 L 183.566406 149.203125 L 182.425781 148.296875 L 181.269531 148.929688 L 179.730469 148.136719 L 178.085938 148.382812 L 176.132812 149.570312 L 175.925781 151.746094 L 177.203125 154.164062 L 176.617188 157.429688 L 177.429688 160.144531 L 176.785156 162.25 L 178.652344 168.863281 L 178.375 170.636719 L 177.199219 171.078125 L 177.910156 172.042969 L 177.191406 172.785156 L 177.398438 173.742188 Z "/>
<path style="fill:none;stroke-width:0.75;stroke-linecap:round;stroke-linejoin:round;stroke:rgb(0%,0%,0%);stroke-opacity:1;stroke-miterlimit:10;" d="M 178.121094 217.515625 L 175.449219 217.199219 L 174.597656 215.925781 L 175.324219 212.113281 L 174.273438 211.246094 L 174.894531 210.226562 L 174.53125 208.914062 L 176.019531 208.777344 L 178.25 205.703125 L 178.191406 202.980469 L 178.960938 202.429688 L 178.6875 196.726562 L 180.371094 195.332031 L 180.757812 193.722656 L 186.097656 190.074219 L 185.097656 188 L 181.570312 185.820312 L 181.605469 184.113281 L 180.585938 182.703125 L 180.074219 180.230469 L 177.210938 176.476562 L 177.191406 172.785156 L 177.910156 172.042969 L 177.199219 171.078125 L 178.375 170.636719 L 178.652344 168.863281 L 176.785156 162.25 L 177.429688 160.144531 L 176.617188 157.429688 L 177.203125 154.164062 L 175.925781 151.746094 L 176.132812 149.570312 L 178.085938 148.382812 L 179.730469 148.136719 L 181.269531 148.929688 L 182.425781 148.296875 L 185.003906 151.304688 L 186.898438 150.828125 L 188.636719 147 L 188.902344 129.679688 L 252.816406 130.007812 L 277.800781 129.332031 L 281.382812 254.742188 L 242.828125 255.566406 L 172.164062 229.359375 L 172.472656 226.507812 L 174.359375 223.917969 L 177 223.929688 L 179.128906 221.585938 L 179.070312 218.648438 Z "/>
</g>
</svg>
