<?xml version="1.0" encoding="utf-8"?>
<!-- Generator: Adobe Illustrator 18.1.1, SVG Export Plug-In . SVG Version: 6.00 Build 0)  -->
<!DOCTYPE svg PUBLIC "-//W3C//DTD SVG 1.1//EN" "http://www.w3.org/Graphics/SVG/1.1/DTD/svg11.dtd">
<svg version="1.1" id="Layer_1" xmlns="http://www.w3.org/2000/svg" xmlns:xlink="http://www.w3.org/1999/xlink" x="0px" y="0px"
	 viewBox="0 0 764 293" enable-background="new 0 0 764 293" xml:space="preserve">
<g>
	<rect x="7.1" y="8.6" fill="none" stroke="#000000" stroke-width="2.3787" stroke-miterlimit="10" width="750.7" height="51.4"/>
	
		<rect x="6.7" y="67.5" fill="#97B798" stroke="#000000" stroke-width="2.3787" stroke-miterlimit="10" width="167.4" height="77.6"/>
	<rect x="6.7" y="145.1" fill="none" stroke="#000000" stroke-width="2.3787" stroke-miterlimit="10" width="167.4" height="38.8"/>
	<rect x="6.7" y="183.9" fill="none" stroke="#000000" stroke-width="2.3787" stroke-miterlimit="10" width="167.4" height="52.5"/>
	<rect x="6.7" y="236.4" fill="none" stroke="#000000" stroke-width="2.3787" stroke-miterlimit="10" width="167.4" height="50"/>
	
		<rect x="196" y="67.5" fill="#F7A69F" stroke="#000000" stroke-width="2.3787" stroke-miterlimit="10" width="167.4" height="77.6"/>
	<rect x="196" y="145.1" fill="none" stroke="#000000" stroke-width="2.3787" stroke-miterlimit="10" width="167.4" height="53.8"/>
	<rect x="196" y="198.9" fill="none" stroke="#000000" stroke-width="2.3787" stroke-miterlimit="10" width="167.4" height="52.5"/>
	<rect x="196" y="251.4" fill="none" stroke="#000000" stroke-width="2.3787" stroke-miterlimit="10" width="167.4" height="35"/>
	
		<rect x="385" y="67.5" fill="#E4E1CD" stroke="#000000" stroke-width="2.3787" stroke-miterlimit="10" width="167.4" height="77.6"/>
	<rect x="385" y="145.1" fill="none" stroke="#000000" stroke-width="2.3787" stroke-miterlimit="10" width="167.4" height="38.8"/>
	<rect x="385" y="183.9" fill="none" stroke="#000000" stroke-width="2.3787" stroke-miterlimit="10" width="167.4" height="52.5"/>
	<rect x="385" y="236.4" fill="none" stroke="#000000" stroke-width="2.3787" stroke-miterlimit="10" width="167.4" height="50"/>
	
		<rect x="570.3" y="67.5" fill="#92CCE0" stroke="#000000" stroke-width="2.3787" stroke-miterlimit="10" width="187.7" height="77.6"/>
	
		<rect x="570.3" y="197.9" fill="none" stroke="#000000" stroke-width="2.3787" stroke-miterlimit="10" width="187.7" height="38.8"/>
	
		<rect x="570.3" y="145.7" fill="none" stroke="#000000" stroke-width="2.3787" stroke-miterlimit="10" width="187.7" height="52.5"/>
	<rect x="570.3" y="236.4" fill="none" stroke="#000000" stroke-width="2.3787" stroke-miterlimit="10" width="187.7" height="50"/>
	<g>
		<path d="M308.1,31.3c0,3.5-1.2,6.9-3.4,9.1c-1.8,1.7-4.2,2.8-7.1,2.8c-5,0-7.8-3.5-7.8-8c0-3.5,1.3-6.9,3.5-9.1
			c1.8-1.7,4.3-2.7,7-2.7C305.4,23.3,308.1,26.7,308.1,31.3z M296.5,28.2c-1.5,1.5-2.4,4.5-2.4,6.8c0,2.7,1.2,4.7,4,4.7
			c1.2,0,2.3-0.5,3.2-1.4c1.5-1.5,2.3-4.7,2.3-6.9c0-2.4-0.9-4.7-3.9-4.7C298.6,26.7,297.4,27.3,296.5,28.2z"/>
		<path d="M307.9,48.5l2.7-14.2c0.3-1.7,0.7-4,0.8-5.4h3.7l-0.3,2h0.1c1.1-1.5,2.8-2.3,4.5-2.3c3,0,4.5,2.4,4.5,5.3
			c0,4.8-3.2,9.3-8.1,9.3c-1.1,0-2.1-0.3-2.6-0.6h-0.1l-1.1,5.9H307.9z M313.7,39.4c0.5,0.4,1.1,0.7,1.9,0.7c2.2,0,3.9-3.1,3.9-5.9
			c0-1.1-0.5-2.3-1.8-2.3c-1.5,0-3,1.7-3.5,4.5L313.7,39.4z"/>
		<path d="M336.8,42c-1.6,0.8-3.7,1.1-5.2,1.1c-4,0-6-2.3-6-5.9c0-4.3,3.1-8.7,8.1-8.7c2.8,0,4.9,1.6,4.9,4.2c0,3.6-3.5,4.9-9,4.7
			c0,0.4,0.1,1,0.4,1.4c0.5,0.7,1.5,1.1,2.7,1.1c1.5,0,2.8-0.3,3.9-0.9L336.8,42z M333.2,31.6c-1.9,0-3,1.6-3.3,2.9
			c3.2,0,4.8-0.4,4.8-1.7C334.7,32.1,334.1,31.6,333.2,31.6z"/>
		<path d="M339.5,42.8l1.8-9.4c0.3-1.8,0.6-3.3,0.7-4.5h3.7l-0.3,2.3h0.1c1.3-1.8,3.1-2.6,4.9-2.6c2.3,0,3.6,1.4,3.6,3.8
			c0,0.6-0.1,1.7-0.2,2.4l-1.5,8.1H348l1.5-7.7c0.1-0.5,0.1-1.1,0.1-1.6c0-1-0.3-1.7-1.4-1.7c-1.3,0-2.9,1.7-3.5,4.8l-1.2,6.2H339.5
			z"/>
		<path d="M363.8,42.8L363,23.6h4.1l0,8.6c0,2.3-0.1,4.5-0.1,6.2h0.1c0.7-1.9,1.4-3.8,2.3-6.2l3.5-8.6h4.5l-0.1,8.6
			c0,2.3-0.1,4.2-0.2,6.1h0.1c0.7-2,1.4-4.1,2.1-6.1l3.3-8.6h4.3l-8.5,19.2H374l-0.1-7.9c0-2.3,0.1-4.2,0.2-6.4H374
			c-0.7,2.1-1.4,4.1-2.3,6.5l-3.3,7.8H363.8z"/>
		<path d="M393.1,42.8c0-0.8,0.1-1.8,0.2-2.8h-0.1c-1.3,2.3-3.1,3.1-4.7,3.1c-2.5,0-4.2-1.9-4.2-4.8c0-4.7,3.1-9.7,10-9.7
			c1.7,0,3.5,0.3,4.6,0.7l-1.5,7.3c-0.3,1.8-0.6,4.5-0.5,6.3H393.1z M394.3,31.8c-0.3-0.1-0.7-0.1-1.1-0.1c-2.7,0-4.6,3.3-4.6,5.8
			c0,1.4,0.5,2.3,1.7,2.3c1.2,0,2.7-1.4,3.4-4.8L394.3,31.8z"/>
		<path d="M407.8,25l-0.7,3.9h3l-0.6,3.1h-3l-0.9,4.7c-0.1,0.6-0.2,1.3-0.2,1.8c0,0.7,0.3,1.2,1.2,1.2c0.4,0,0.8,0,1.1-0.1l-0.5,3.2
			c-0.5,0.2-1.5,0.3-2.4,0.3c-2.5,0-3.6-1.3-3.6-3c0-0.8,0.1-1.5,0.3-2.6l1.1-5.6h-1.8l0.6-3.1h1.8l0.6-2.9L407.8,25z"/>
		<path d="M421.4,42c-1.6,0.8-3.7,1.1-5.2,1.1c-4,0-6-2.3-6-5.9c0-4.3,3.1-8.7,8.1-8.7c2.8,0,4.9,1.6,4.9,4.2c0,3.6-3.5,4.9-9,4.7
			c0,0.4,0.1,1,0.4,1.4c0.5,0.7,1.5,1.1,2.7,1.1c1.5,0,2.8-0.3,3.9-0.9L421.4,42z M417.7,31.6c-1.9,0-3,1.6-3.3,2.9
			c3.2,0,4.8-0.4,4.8-1.7C419.2,32.1,418.7,31.6,417.7,31.6z"/>
		<path d="M424,42.8l1.6-8.3c0.4-2.1,0.6-4.4,0.7-5.6h3.6c-0.1,0.9-0.2,1.9-0.3,2.9h0.1c1-1.9,2.5-3.2,4.4-3.2c0.3,0,0.5,0,0.8,0
			l-0.8,4c-0.2,0-0.4,0-0.7,0c-2.6,0-3.9,2.3-4.4,5.1l-1,5.2H424z"/>
		<path d="M442.8,42.8L442,23.6h4.1l0,8.6c0,2.3-0.1,4.5-0.1,6.2h0.1c0.7-1.9,1.4-3.8,2.3-6.2l3.5-8.6h4.5l-0.1,8.6
			c0,2.3-0.1,4.2-0.2,6.1h0.1c0.7-2,1.4-4.1,2.1-6.1l3.3-8.6h4.3l-8.5,19.2H453l-0.1-7.9c0-2.3,0.1-4.2,0.2-6.4H453
			c-0.7,2.1-1.4,4.1-2.3,6.5l-3.3,7.8H442.8z"/>
		<path d="M475,42c-1.6,0.8-3.7,1.1-5.2,1.1c-4,0-6-2.3-6-5.9c0-4.3,3.1-8.7,8.1-8.7c2.8,0,4.9,1.6,4.9,4.2c0,3.6-3.5,4.9-9,4.7
			c0,0.4,0.1,1,0.4,1.4c0.5,0.7,1.5,1.1,2.7,1.1c1.5,0,2.8-0.3,3.9-0.9L475,42z M471.4,31.6c-1.9,0-3,1.6-3.3,2.9
			c3.2,0,4.8-0.4,4.8-1.7C472.9,32.1,472.4,31.6,471.4,31.6z"/>
		<path d="M485.6,22.6l-1.7,8h0.1c1-1.2,2.6-2,4.3-2c2.9,0,4.2,2.4,4.2,4.8c0,4.5-3,9.7-9.2,9.7c-3.3,0-5-1.4-5-3.9
			c0-0.9,0.1-1.7,0.3-2.5l2.8-14.1H485.6z M482.7,37c-0.1,0.5-0.2,0.9-0.1,1.5c0,1,0.6,1.5,1.6,1.5c2.4,0,4.1-3.3,4.1-5.8
			c0-1.3-0.6-2.4-1.8-2.4c-1.5,0-2.9,1.5-3.4,3.9L482.7,37z"/>
	</g>
	<g>
		<path d="M45.3,87.3l1.4,5.3c0.3,1.2,0.6,2.2,0.8,3.3h0.1c0.2-1,0.6-2.2,0.9-3.3l1.7-5.3h1.6l1.6,5.2c0.4,1.2,0.7,2.3,0.9,3.4h0.1
			c0.2-1,0.4-2.1,0.8-3.4l1.5-5.2h1.9L55,97.7h-1.7l-1.6-4.9c-0.4-1.2-0.7-2.2-0.9-3.4h0c-0.3,1.2-0.6,2.3-0.9,3.4l-1.7,4.9h-1.7
			l-3.1-10.4H45.3z"/>
		<path d="M65.9,97.7l-0.1-1.3h-0.1c-0.6,0.8-1.7,1.5-3.2,1.5c-2.1,0-3.2-1.5-3.2-3c0-2.5,2.2-3.9,6.2-3.9v-0.2
			c0-0.9-0.2-2.4-2.4-2.4c-1,0-2,0.3-2.7,0.8L60.1,88c0.9-0.6,2.1-0.9,3.4-0.9c3.2,0,3.9,2.2,3.9,4.2v3.9c0,0.9,0,1.8,0.2,2.5H65.9z
			 M65.6,92.4c-2.1,0-4.4,0.3-4.4,2.3c0,1.2,0.8,1.8,1.8,1.8c1.3,0,2.2-0.9,2.5-1.7c0.1-0.2,0.1-0.4,0.1-0.6V92.4z"/>
		<path d="M72.7,84.3v3h2.7v1.4h-2.7v5.6c0,1.3,0.4,2,1.4,2c0.5,0,0.9-0.1,1.1-0.1l0.1,1.4c-0.4,0.1-0.9,0.3-1.7,0.3
			c-0.9,0-1.6-0.3-2-0.8c-0.5-0.6-0.7-1.5-0.7-2.7v-5.7h-1.6v-1.4h1.6v-2.5L72.7,84.3z"/>
		<path d="M78.4,92.8c0,2.5,1.7,3.6,3.6,3.6c1.3,0,2.2-0.2,2.9-0.5l0.3,1.3c-0.7,0.3-1.8,0.6-3.4,0.6c-3.2,0-5.1-2.1-5.1-5.2
			c0-3.1,1.8-5.6,4.9-5.6c3.4,0,4.3,3,4.3,4.9c0,0.4,0,0.7-0.1,0.9H78.4z M83.9,91.5c0-1.2-0.5-3.1-2.6-3.1c-1.9,0-2.7,1.8-2.9,3.1
			H83.9z"/>
		<path d="M88.1,90.5c0-1.2,0-2.3-0.1-3.2h1.6l0.1,2h0.1c0.5-1.4,1.6-2.3,2.9-2.3c0.2,0,0.4,0,0.5,0.1v1.8c-0.2,0-0.4-0.1-0.6-0.1
			c-1.3,0-2.3,1-2.5,2.4c0,0.3-0.1,0.6-0.1,0.9v5.5h-1.9V90.5z"/>
		<path d="M108.6,82.5V95c0,0.9,0,2,0.1,2.7H107l-0.1-1.8h0c-0.6,1.2-1.8,2-3.5,2c-2.5,0-4.4-2.1-4.4-5.3c0-3.4,2.1-5.6,4.6-5.6
			c1.6,0,2.7,0.8,3.1,1.6h0v-6.2H108.6z M106.7,91.5c0-0.2,0-0.6-0.1-0.8c-0.3-1.2-1.3-2.2-2.7-2.2c-1.9,0-3.1,1.7-3.1,4
			c0,2.1,1,3.8,3.1,3.8c1.3,0,2.4-0.8,2.8-2.2c0.1-0.3,0.1-0.5,0.1-0.8V91.5z"/>
		<path d="M117.4,97.7l-0.1-1.3h-0.1c-0.6,0.8-1.7,1.5-3.2,1.5c-2.1,0-3.2-1.5-3.2-3c0-2.5,2.2-3.9,6.2-3.9v-0.2
			c0-0.9-0.2-2.4-2.4-2.4c-1,0-2,0.3-2.7,0.8l-0.4-1.2c0.9-0.6,2.1-0.9,3.4-0.9c3.2,0,3.9,2.2,3.9,4.2v3.9c0,0.9,0,1.8,0.2,2.5
			H117.4z M117.2,92.4c-2.1,0-4.4,0.3-4.4,2.3c0,1.2,0.8,1.8,1.8,1.8c1.3,0,2.2-0.9,2.5-1.7c0.1-0.2,0.1-0.4,0.1-0.6V92.4z"/>
		<path d="M124.2,84.3v3h2.7v1.4h-2.7v5.6c0,1.3,0.4,2,1.4,2c0.5,0,0.9-0.1,1.1-0.1l0.1,1.4c-0.4,0.1-0.9,0.3-1.7,0.3
			c-0.9,0-1.6-0.3-2-0.8c-0.5-0.6-0.7-1.5-0.7-2.7v-5.7h-1.6v-1.4h1.6v-2.5L124.2,84.3z"/>
		<path d="M134.8,97.7l-0.1-1.3h-0.1c-0.6,0.8-1.7,1.5-3.2,1.5c-2.1,0-3.2-1.5-3.2-3c0-2.5,2.2-3.9,6.2-3.9v-0.2
			c0-0.9-0.2-2.4-2.4-2.4c-1,0-2,0.3-2.7,0.8L129,88c0.9-0.6,2.1-0.9,3.4-0.9c3.2,0,3.9,2.2,3.9,4.2v3.9c0,0.9,0,1.8,0.2,2.5H134.8z
			 M134.5,92.4c-2.1,0-4.4,0.3-4.4,2.3c0,1.2,0.8,1.8,1.8,1.8c1.3,0,2.2-0.9,2.5-1.7c0.1-0.2,0.1-0.4,0.1-0.6V92.4z"/>
		<path d="M65,122.9c-0.8,0.3-2.1,0.6-3.8,0.6c-3.8,0-6.4-2.3-6.4-6.1c0-3.2,1.5-5.8,3.6-7.2c1.5-1,3.3-1.5,5.3-1.5
			c1.6,0,2.7,0.4,3.1,0.6l-0.8,2.5c-0.4-0.2-1.4-0.5-2.6-0.5c-1.2,0-2.4,0.4-3.3,1.1c-1.2,1-2,2.6-2,4.6c0,2.3,1.3,3.8,3.8,3.8
			c1,0,2-0.2,2.7-0.5L65,122.9z"/>
		<path d="M73.2,123.3c0-0.6,0.1-1.3,0.1-2.1h-0.1c-1,1.7-2.3,2.3-3.5,2.3c-1.9,0-3.2-1.5-3.2-3.6c0-3.5,2.3-7.3,7.5-7.3
			c1.2,0,2.6,0.2,3.5,0.5l-1.1,5.5c-0.3,1.3-0.4,3.4-0.4,4.7H73.2z M74.1,115.1c-0.2,0-0.5-0.1-0.8-0.1c-2,0-3.4,2.4-3.4,4.4
			c0,1,0.4,1.7,1.3,1.7c0.9,0,2.1-1,2.5-3.6L74.1,115.1z"/>
		<path d="M84.2,109.9l-0.6,2.9h2.2l-0.4,2.3h-2.2l-0.7,3.6c-0.1,0.4-0.2,1-0.2,1.3c0,0.5,0.2,0.9,0.9,0.9c0.3,0,0.6,0,0.9,0
			l-0.4,2.4c-0.4,0.1-1.2,0.2-1.8,0.2c-1.8,0-2.7-0.9-2.7-2.2c0-0.6,0.1-1.2,0.2-1.9l0.8-4.2h-1.3l0.4-2.3h1.3l0.4-2.2L84.2,109.9z"
			/>
		<path d="M92.5,123.3c0-0.6,0.1-1.3,0.1-2.1h-0.1c-1,1.7-2.3,2.3-3.5,2.3c-1.9,0-3.2-1.5-3.2-3.6c0-3.5,2.3-7.3,7.5-7.3
			c1.2,0,2.6,0.2,3.5,0.5l-1.1,5.5c-0.3,1.3-0.4,3.4-0.4,4.7H92.5z M93.4,115.1c-0.2,0-0.5-0.1-0.8-0.1c-2,0-3.4,2.4-3.4,4.4
			c0,1,0.4,1.7,1.3,1.7c0.9,0,2.1-1,2.5-3.6L93.4,115.1z"/>
		<path d="M97.5,123.3l2.9-15.2h3.1l-2.9,15.2H97.5z"/>
		<path d="M114.2,116.9c0,3.8-2.6,6.6-6.3,6.6c-2.7,0-4.4-1.7-4.4-4.3c0-3.6,2.5-6.6,6.3-6.6C112.6,112.6,114.2,114.6,114.2,116.9z
			 M106.7,119.2c0,1.2,0.6,2,1.7,2c1.7,0,2.6-2.5,2.6-4.3c0-1-0.4-2-1.6-2C107.6,115,106.7,117.6,106.7,119.2z"/>
		<path d="M115.9,124.8c0.6,0.3,1.9,0.6,2.7,0.6c1.5,0,2.7-0.7,3.1-2.8l0.2-0.9h0c-0.8,1-1.8,1.5-3,1.5c-2.1,0-3.3-1.7-3.4-3.7
			c0-3.5,2.5-6.9,7-6.9c1.5,0,2.8,0.3,3.9,0.7l-1.6,8.6c-0.4,1.9-0.9,3.6-2.2,4.6c-1.1,0.9-2.7,1.2-4,1.2c-1.4,0-2.7-0.3-3.4-0.7
			L115.9,124.8z M123.1,115.2c-0.2-0.1-0.7-0.2-1.1-0.2c-1.9,0-3.2,2.1-3.2,4.1c0,1,0.5,1.8,1.4,1.8c1,0,2-1.1,2.4-2.9L123.1,115.2z
			"/>
	</g>
	<g>
		<path d="M211.4,89.4l1.4,5.3c0.3,1.2,0.6,2.2,0.8,3.3h0.1c0.2-1,0.6-2.2,0.9-3.3l1.7-5.3h1.6l1.6,5.2c0.4,1.2,0.7,2.3,0.9,3.4h0.1
			c0.2-1,0.4-2.1,0.8-3.4l1.5-5.2h1.9l-3.3,10.4h-1.7l-1.6-4.9c-0.4-1.2-0.7-2.2-0.9-3.4h0c-0.3,1.2-0.6,2.3-0.9,3.4l-1.7,4.9h-1.7
			l-3.1-10.4H211.4z"/>
		<path d="M232.1,99.8l-0.1-1.3h-0.1c-0.6,0.8-1.7,1.5-3.2,1.5c-2.1,0-3.2-1.5-3.2-3c0-2.5,2.2-3.9,6.2-3.9V93
			c0-0.9-0.2-2.4-2.4-2.4c-1,0-2,0.3-2.7,0.8l-0.4-1.2c0.9-0.6,2.1-0.9,3.4-0.9c3.2,0,3.9,2.2,3.9,4.2v3.9c0,0.9,0,1.8,0.2,2.5
			H232.1z M231.8,94.5c-2.1,0-4.4,0.3-4.4,2.3c0,1.2,0.8,1.8,1.8,1.8c1.3,0,2.2-0.9,2.5-1.7c0.1-0.2,0.1-0.4,0.1-0.6V94.5z"/>
		<path d="M238.8,86.4v3h2.7v1.4h-2.7v5.6c0,1.3,0.4,2,1.4,2c0.5,0,0.9-0.1,1.1-0.1l0.1,1.4c-0.4,0.1-0.9,0.3-1.7,0.3
			c-0.9,0-1.6-0.3-2-0.8c-0.5-0.6-0.7-1.5-0.7-2.7v-5.7h-1.6v-1.4h1.6v-2.5L238.8,86.4z"/>
		<path d="M244.6,94.9c0,2.5,1.7,3.6,3.6,3.6c1.3,0,2.2-0.2,2.9-0.5l0.3,1.3c-0.7,0.3-1.8,0.6-3.4,0.6c-3.2,0-5.1-2.1-5.1-5.2
			c0-3.1,1.8-5.6,4.9-5.6c3.4,0,4.3,3,4.3,4.9c0,0.4,0,0.7-0.1,0.9H244.6z M250.1,93.6c0-1.2-0.5-3.1-2.6-3.1
			c-1.9,0-2.7,1.8-2.9,3.1H250.1z"/>
		<path d="M254.2,92.7c0-1.2,0-2.3-0.1-3.2h1.6l0.1,2h0.1c0.5-1.4,1.6-2.3,2.9-2.3c0.2,0,0.4,0,0.5,0.1V91c-0.2,0-0.4-0.1-0.6-0.1
			c-1.3,0-2.3,1-2.5,2.4c0,0.3-0.1,0.6-0.1,0.9v5.5h-1.9V92.7z"/>
		<path d="M274.7,84.6v12.5c0,0.9,0,2,0.1,2.7h-1.7L273,98h0c-0.6,1.2-1.8,2-3.5,2c-2.5,0-4.4-2.1-4.4-5.3c0-3.4,2.1-5.6,4.6-5.6
			c1.6,0,2.7,0.8,3.1,1.6h0v-6.2H274.7z M272.8,93.6c0-0.2,0-0.6-0.1-0.8c-0.3-1.2-1.3-2.2-2.7-2.2c-1.9,0-3.1,1.7-3.1,4
			c0,2.1,1,3.8,3.1,3.8c1.3,0,2.4-0.8,2.8-2.2c0.1-0.3,0.1-0.5,0.1-0.8V93.6z"/>
		<path d="M283.6,99.8l-0.1-1.3h-0.1c-0.6,0.8-1.7,1.5-3.2,1.5c-2.1,0-3.2-1.5-3.2-3c0-2.5,2.2-3.9,6.2-3.9V93
			c0-0.9-0.2-2.4-2.4-2.4c-1,0-2,0.3-2.7,0.8l-0.4-1.2c0.9-0.6,2.1-0.9,3.4-0.9c3.2,0,3.9,2.2,3.9,4.2v3.9c0,0.9,0,1.8,0.2,2.5
			H283.6z M283.3,94.5c-2.1,0-4.4,0.3-4.4,2.3c0,1.2,0.8,1.8,1.8,1.8c1.3,0,2.2-0.9,2.5-1.7c0.1-0.2,0.1-0.4,0.1-0.6V94.5z"/>
		<path d="M290.3,86.4v3h2.7v1.4h-2.7v5.6c0,1.3,0.4,2,1.4,2c0.5,0,0.9-0.1,1.1-0.1l0.1,1.4c-0.4,0.1-0.9,0.3-1.7,0.3
			c-0.9,0-1.6-0.3-2-0.8c-0.5-0.6-0.7-1.5-0.7-2.7v-5.7h-1.6v-1.4h1.6v-2.5L290.3,86.4z"/>
		<path d="M300.9,99.8l-0.1-1.3h-0.1c-0.6,0.8-1.7,1.5-3.2,1.5c-2.1,0-3.2-1.5-3.2-3c0-2.5,2.2-3.9,6.2-3.9V93
			c0-0.9-0.2-2.4-2.4-2.4c-1,0-2,0.3-2.7,0.8l-0.4-1.2c0.9-0.6,2.1-0.9,3.4-0.9c3.2,0,3.9,2.2,3.9,4.2v3.9c0,0.9,0,1.8,0.2,2.5
			H300.9z M300.6,94.5c-2.1,0-4.4,0.3-4.4,2.3c0,1.2,0.8,1.8,1.8,1.8c1.3,0,2.2-0.9,2.5-1.7c0.1-0.2,0.1-0.4,0.1-0.6V94.5z"/>
		<path d="M312.9,96l-1.7,3.7h-3.3l7-14.4h4l1.7,14.4h-3.2L317,96H312.9z M316.9,93.7l-0.3-3.1c-0.1-0.8-0.1-1.9-0.2-2.8h0
			c-0.4,0.9-0.8,2-1.2,2.8l-1.4,3.1H316.9z"/>
		<path d="M322.4,97c0.6,0.3,1.7,0.7,2.7,0.7c0.9,0,1.3-0.4,1.3-0.9c0-0.5-0.3-0.9-1.3-1.3c-1.2-0.6-2.2-1.5-2.2-2.8
			c0-2.2,1.9-3.6,4.6-3.6c1.2,0,2.2,0.2,2.7,0.5l-0.7,2.2c-0.4-0.2-1.2-0.5-2.1-0.5c-0.8,0-1.4,0.4-1.4,0.9c0,0.4,0.4,0.8,1.3,1.2
			c1.1,0.6,2.3,1.4,2.3,2.9c0,2.4-2,3.7-4.8,3.7c-1.3,0-2.6-0.3-3.2-0.8L322.4,97z"/>
		<path d="M341.7,99.8c0-0.6,0.1-1.3,0.1-2.1h-0.1c-1,1.7-2.3,2.3-3.5,2.3c-1.9,0-3.2-1.5-3.2-3.6c0-3.5,2.3-7.3,7.5-7.3
			c1.2,0,2.6,0.2,3.5,0.5l-1.1,5.5c-0.3,1.3-0.4,3.4-0.4,4.7H341.7z M342.6,91.5c-0.2,0-0.5-0.1-0.8-0.1c-2,0-3.4,2.4-3.4,4.4
			c0,1,0.4,1.7,1.3,1.7c0.9,0,2.1-1,2.5-3.6L342.6,91.5z"/>
		<path d="M247.4,122.1c0.9,0.5,2.1,0.9,3.4,0.9c1.2,0,2.3-0.6,2.3-1.7c0-0.8-0.6-1.3-1.9-2c-1.5-0.8-3-1.9-3-3.8
			c0-2.9,2.5-4.7,5.7-4.7c1.8,0,2.8,0.4,3.4,0.7l-1,2.6c-0.5-0.3-1.5-0.7-2.7-0.6c-1.4,0-2.2,0.7-2.2,1.5c0,0.8,0.9,1.3,2.1,2
			c1.8,0.9,2.9,2.1,2.9,3.8c0,3.2-2.7,4.9-5.9,4.9c-2,0-3.4-0.5-4.1-1L247.4,122.1z"/>
		<path d="M266.5,124.9c-1.2,0.6-2.7,0.8-3.9,0.8c-3,0-4.5-1.7-4.5-4.4c0-3.2,2.3-6.5,6.1-6.5c2.1,0,3.6,1.2,3.6,3.1
			c0,2.7-2.6,3.6-6.8,3.5c0,0.3,0.1,0.8,0.3,1.1c0.4,0.5,1.1,0.8,2,0.8c1.1,0,2.1-0.3,2.9-0.7L266.5,124.9z M263.8,117
			c-1.4,0-2.2,1.2-2.5,2.2c2.4,0,3.6-0.3,3.6-1.3C264.9,117.4,264.5,117,263.8,117z"/>
		<path d="M268.5,125.5l1.2-6.2c0.3-1.6,0.4-3.3,0.5-4.2h2.7c-0.1,0.7-0.1,1.4-0.2,2.1h0.1c0.7-1.4,1.9-2.4,3.3-2.4
			c0.2,0,0.4,0,0.6,0l-0.6,3c-0.2,0-0.3,0-0.5,0c-2,0-2.9,1.8-3.3,3.8l-0.7,3.9H268.5z"/>
		<path d="M280.7,115l0.5,4.6c0.1,1.3,0.2,2.1,0.3,2.8h0.1c0.3-0.7,0.6-1.5,1.2-2.8l2.1-4.6h3.4l-5.8,10.5h-3.1l-1.8-10.5H280.7z"/>
		<path d="M287.8,125.5l2-10.5h3.1l-2,10.5H287.8z M290.2,112.2c0-1,0.8-1.8,1.8-1.8c0.9,0,1.5,0.6,1.5,1.5c0,1.1-0.8,1.7-1.8,1.7
			C290.9,113.7,290.2,113.1,290.2,112.2z"/>
		<path d="M301.2,125.2c-0.7,0.3-1.7,0.5-3,0.5c-2.6,0-4.4-1.6-4.4-4.3c0-3.7,2.8-6.6,6.8-6.6c0.9,0,1.7,0.2,2.1,0.4l-0.8,2.4
			c-0.4-0.1-0.8-0.3-1.4-0.3c-2.2,0-3.6,1.9-3.6,3.8c0,1.4,0.9,2.2,2.1,2.2c0.9,0,1.5-0.2,2.1-0.4L301.2,125.2z"/>
		<path d="M311.3,124.9c-1.2,0.6-2.7,0.8-3.9,0.8c-3,0-4.5-1.7-4.5-4.4c0-3.2,2.3-6.5,6.1-6.5c2.1,0,3.6,1.2,3.6,3.1
			c0,2.7-2.6,3.6-6.8,3.5c0,0.3,0.1,0.8,0.3,1.1c0.4,0.5,1.1,0.8,2,0.8c1.1,0,2.1-0.3,2.9-0.7L311.3,124.9z M308.6,117
			c-1.4,0-2.2,1.2-2.5,2.2c2.4,0,3.6-0.3,3.6-1.3C309.8,117.4,309.3,117,308.6,117z"/>
	</g>
	<g>
		<path d="M434.5,93.7h-5.1l-0.7,3.5h5.8l-0.5,2.6h-8.8l2.7-14.4h8.5l-0.5,2.6h-5.4l-0.6,3.1h5.1L434.5,93.7z"/>
		<path d="M436.1,99.8l1.3-7.1c0.3-1.3,0.4-2.5,0.6-3.4h2.7l-0.2,1.7h0c1-1.4,2.3-2,3.7-2c1.7,0,2.7,1,2.7,2.8
			c0,0.5-0.1,1.3-0.2,1.8l-1.2,6.1h-3.1l1.1-5.8c0.1-0.4,0.1-0.8,0.1-1.2c0-0.7-0.3-1.2-1-1.2c-1,0-2.2,1.3-2.6,3.6l-0.9,4.6H436.1z
			"/>
		<path d="M448.2,99.8l1.2-6.2c0.3-1.6,0.4-3.3,0.5-4.2h2.7c-0.1,0.7-0.1,1.4-0.2,2.1h0.1c0.7-1.4,1.9-2.4,3.3-2.4
			c0.2,0,0.4,0,0.6,0l-0.6,3c-0.2,0-0.3,0-0.5,0c-2,0-2.9,1.8-3.3,3.8l-0.7,3.9H448.2z"/>
		<path d="M456.1,99.8l2-10.5h3.1l-2,10.5H456.1z M458.5,86.5c0-1,0.8-1.8,1.8-1.8c0.9,0,1.5,0.6,1.5,1.5c0,1.1-0.8,1.7-1.8,1.7
			C459.1,88,458.5,87.4,458.5,86.5z"/>
		<path d="M469.5,99.5c-0.7,0.3-1.7,0.5-3,0.5c-2.6,0-4.4-1.6-4.4-4.3c0-3.7,2.8-6.6,6.8-6.6c0.9,0,1.7,0.2,2.1,0.4l-0.8,2.4
			c-0.4-0.1-0.8-0.3-1.4-0.3c-2.2,0-3.6,1.9-3.6,3.8c0,1.4,0.9,2.2,2.1,2.2c0.9,0,1.5-0.2,2.1-0.4L469.5,99.5z"/>
		<path d="M471.1,99.8l2.9-15.2h3.1l-1.2,6.1l0,0c0.9-1,1.9-1.6,3.3-1.6c1.6,0,2.6,1,2.6,2.8c0,0.5-0.1,1.3-0.2,1.9l-1.1,6h-3.1
			l1.1-5.7c0.1-0.4,0.1-0.9,0.1-1.3c0-0.7-0.3-1.2-1.1-1.2c-1.1,0-2.2,1.3-2.6,3.4l-0.9,4.8H471.1z"/>
		<path d="M483.1,99.8l2-10.5h3.1l-2,10.5H483.1z M485.5,86.5c0-1,0.8-1.8,1.8-1.8c0.9,0,1.5,0.6,1.5,1.5c0,1.1-0.8,1.7-1.8,1.7
			C486.2,88,485.5,87.4,485.5,86.5z"/>
		<path d="M488.8,99.8l1.3-7.1c0.3-1.3,0.4-2.5,0.6-3.4h2.7l-0.2,1.7h0c1-1.4,2.3-2,3.7-2c1.7,0,2.7,1,2.7,2.8
			c0,0.5-0.1,1.3-0.2,1.8l-1.2,6.1h-3.1l1.1-5.8c0.1-0.4,0.1-0.8,0.1-1.2c0-0.7-0.3-1.2-1-1.2c-1,0-2.2,1.3-2.6,3.6l-0.9,4.6H488.8z
			"/>
		<path d="M501.5,101.2c0.6,0.3,1.9,0.6,2.7,0.6c1.5,0,2.7-0.7,3.1-2.8l0.2-0.9h0c-0.8,1-1.8,1.5-3,1.5c-2.1,0-3.3-1.7-3.4-3.7
			c0-3.5,2.5-6.9,7-6.9c1.5,0,2.8,0.3,3.9,0.7l-1.6,8.6c-0.4,1.9-0.9,3.6-2.2,4.6c-1.1,0.9-2.7,1.2-4,1.2c-1.4,0-2.7-0.3-3.4-0.7
			L501.5,101.2z M508.7,91.6c-0.2-0.1-0.7-0.2-1.1-0.2c-1.9,0-3.2,2.1-3.2,4.1c0,1,0.5,1.8,1.4,1.8c1,0,2-1.1,2.4-2.9L508.7,91.6z"
			/>
		<path d="M423.2,125.5l-3.7-14.4h2l1.7,7.3c0.4,1.8,0.8,3.6,1.1,5h0c0.2-1.4,0.7-3.1,1.2-5l1.9-7.3h1.9l1.8,7.3
			c0.4,1.7,0.8,3.4,1,4.9h0c0.3-1.6,0.7-3.2,1.2-5l1.9-7.3h1.9l-4.1,14.4h-1.9l-1.8-7.5c-0.4-1.8-0.7-3.3-0.9-4.7h0
			c-0.3,1.4-0.6,2.8-1.1,4.7l-2.1,7.5H423.2z"/>
		<path d="M444,125.5l-0.1-1.3h-0.1c-0.6,0.8-1.7,1.5-3.2,1.5c-2.1,0-3.2-1.5-3.2-3c0-2.5,2.2-3.9,6.2-3.9v-0.2
			c0-0.9-0.2-2.4-2.4-2.4c-1,0-2,0.3-2.7,0.8l-0.4-1.2c0.9-0.6,2.1-0.9,3.4-0.9c3.2,0,3.9,2.2,3.9,4.2v3.9c0,0.9,0,1.8,0.2,2.5H444z
			 M443.7,120.2c-2.1,0-4.4,0.3-4.4,2.3c0,1.2,0.8,1.8,1.8,1.8c1.3,0,2.2-0.9,2.5-1.7c0.1-0.2,0.1-0.4,0.1-0.6V120.2z"/>
		<path d="M450.7,112.1v3h2.7v1.4h-2.7v5.6c0,1.3,0.4,2,1.4,2c0.5,0,0.9-0.1,1.1-0.1l0.1,1.4c-0.4,0.1-0.9,0.3-1.7,0.3
			c-0.9,0-1.6-0.3-2-0.8c-0.5-0.6-0.7-1.5-0.7-2.7v-5.7h-1.6v-1.4h1.6v-2.5L450.7,112.1z"/>
		<path d="M456.5,120.6c0,2.5,1.7,3.6,3.6,3.6c1.3,0,2.2-0.2,2.9-0.5l0.3,1.3c-0.7,0.3-1.8,0.6-3.4,0.6c-3.2,0-5.1-2.1-5.1-5.2
			c0-3.1,1.8-5.6,4.9-5.6c3.4,0,4.3,3,4.3,4.9c0,0.4,0,0.7-0.1,0.9H456.5z M462,119.3c0-1.2-0.5-3.1-2.6-3.1c-1.9,0-2.7,1.8-2.9,3.1
			H462z"/>
		<path d="M466.1,118.3c0-1.2,0-2.3-0.1-3.2h1.6l0.1,2h0.1c0.5-1.4,1.6-2.3,2.9-2.3c0.2,0,0.4,0,0.5,0.1v1.8c-0.2,0-0.4-0.1-0.6-0.1
			c-1.3,0-2.3,1-2.5,2.4c0,0.3-0.1,0.6-0.1,0.9v5.5h-1.9V118.3z"/>
		<path d="M477.7,111.2c1.1-0.2,2.5-0.3,4-0.3c2.7,0,4.6,0.6,5.8,1.8c1.3,1.2,2,2.8,2,5.2c0,2.4-0.7,4.3-2.1,5.6
			c-1.3,1.3-3.6,2.1-6.4,2.1c-1.3,0-2.4-0.1-3.4-0.2V111.2z M479.6,124c0.5,0.1,1.2,0.1,1.9,0.1c4,0,6.1-2.2,6.1-6.1
			c0-3.4-1.9-5.6-5.8-5.6c-1,0-1.7,0.1-2.2,0.2V124z"/>
		<path d="M497.7,125.5l-0.1-1.3h-0.1c-0.6,0.8-1.7,1.5-3.2,1.5c-2.1,0-3.2-1.5-3.2-3c0-2.5,2.2-3.9,6.2-3.9v-0.2
			c0-0.9-0.2-2.4-2.4-2.4c-1,0-2,0.3-2.7,0.8l-0.4-1.2c0.9-0.6,2.1-0.9,3.4-0.9c3.2,0,3.9,2.2,3.9,4.2v3.9c0,0.9,0,1.8,0.2,2.5
			H497.7z M497.4,120.2c-2.1,0-4.4,0.3-4.4,2.3c0,1.2,0.8,1.8,1.8,1.8c1.3,0,2.2-0.9,2.5-1.7c0.1-0.2,0.1-0.4,0.1-0.6V120.2z"/>
		<path d="M504.4,112.1v3h2.7v1.4h-2.7v5.6c0,1.3,0.4,2,1.4,2c0.5,0,0.9-0.1,1.1-0.1l0.1,1.4c-0.4,0.1-0.9,0.3-1.7,0.3
			c-0.9,0-1.6-0.3-2-0.8c-0.5-0.6-0.7-1.5-0.7-2.7v-5.7H501v-1.4h1.6v-2.5L504.4,112.1z"/>
		<path d="M515,125.5l-0.1-1.3h-0.1c-0.6,0.8-1.7,1.5-3.2,1.5c-2.1,0-3.2-1.5-3.2-3c0-2.5,2.2-3.9,6.2-3.9v-0.2
			c0-0.9-0.2-2.4-2.4-2.4c-1,0-2,0.3-2.7,0.8l-0.4-1.2c0.9-0.6,2.1-0.9,3.4-0.9c3.2,0,3.9,2.2,3.9,4.2v3.9c0,0.9,0,1.8,0.2,2.5H515z
			 M514.7,120.2c-2.1,0-4.4,0.3-4.4,2.3c0,1.2,0.8,1.8,1.8,1.8c1.3,0,2.2-0.9,2.5-1.7c0.1-0.2,0.1-0.4,0.1-0.6V120.2z"/>
	</g>
	<g>
		<path d="M597.4,87.4l1.4,5.3c0.3,1.2,0.6,2.2,0.8,3.3h0.1c0.2-1,0.6-2.2,0.9-3.3l1.7-5.3h1.6l1.6,5.2c0.4,1.2,0.7,2.3,0.9,3.4h0.1
			c0.2-1,0.4-2.1,0.8-3.4l1.5-5.2h1.9l-3.3,10.4h-1.7l-1.6-4.9c-0.4-1.2-0.7-2.2-0.9-3.4h0c-0.3,1.2-0.6,2.3-0.9,3.4l-1.7,4.9h-1.7
			l-3.1-10.4H597.4z"/>
		<path d="M618,97.8l-0.2-1.3h-0.1c-0.6,0.8-1.7,1.5-3.2,1.5c-2.1,0-3.2-1.5-3.2-3c0-2.5,2.2-3.9,6.2-3.9V91c0-0.9-0.2-2.4-2.4-2.4
			c-1,0-2,0.3-2.7,0.8l-0.4-1.2c0.9-0.6,2.1-0.9,3.4-0.9c3.2,0,3.9,2.2,3.9,4.2v3.9c0,0.9,0,1.8,0.2,2.5H618z M617.8,92.5
			c-2.1,0-4.4,0.3-4.4,2.3c0,1.2,0.8,1.8,1.8,1.8c1.3,0,2.2-0.9,2.5-1.7c0.1-0.2,0.1-0.4,0.1-0.6V92.5z"/>
		<path d="M624.8,84.4v3h2.7v1.4h-2.7v5.6c0,1.3,0.4,2,1.4,2c0.5,0,0.9-0.1,1.1-0.1l0.1,1.4c-0.4,0.1-0.9,0.3-1.7,0.3
			c-0.9,0-1.6-0.3-2-0.8c-0.5-0.6-0.7-1.5-0.7-2.7v-5.7h-1.6v-1.4h1.6v-2.5L624.8,84.4z"/>
		<path d="M630.5,92.9c0,2.5,1.7,3.6,3.6,3.6c1.3,0,2.2-0.2,2.9-0.5l0.3,1.3c-0.7,0.3-1.8,0.6-3.4,0.6c-3.2,0-5.1-2.1-5.1-5.2
			c0-3.1,1.8-5.6,4.9-5.6c3.4,0,4.3,3,4.3,4.9c0,0.4,0,0.7-0.1,0.9H630.5z M636.1,91.6c0-1.2-0.5-3.1-2.6-3.1
			c-1.9,0-2.7,1.8-2.9,3.1H636.1z"/>
		<path d="M640.2,90.6c0-1.2,0-2.3-0.1-3.2h1.6l0.1,2h0.1c0.5-1.4,1.6-2.3,2.9-2.3c0.2,0,0.4,0,0.5,0.1V89c-0.2,0-0.4-0.1-0.6-0.1
			c-1.3,0-2.3,1-2.5,2.4c0,0.3-0.1,0.6-0.1,0.9v5.5h-1.9V90.6z"/>
		<path d="M660.7,82.6v12.5c0,0.9,0,2,0.1,2.7h-1.7L659,96h0c-0.6,1.2-1.8,2-3.5,2c-2.5,0-4.4-2.1-4.4-5.3c0-3.4,2.1-5.6,4.6-5.6
			c1.6,0,2.7,0.8,3.1,1.6h0v-6.2H660.7z M658.8,91.6c0-0.2,0-0.6-0.1-0.8c-0.3-1.2-1.3-2.2-2.7-2.2c-1.9,0-3.1,1.7-3.1,4
			c0,2.1,1,3.8,3.1,3.8c1.3,0,2.4-0.8,2.8-2.2c0.1-0.3,0.1-0.5,0.1-0.8V91.6z"/>
		<path d="M669.6,97.8l-0.2-1.3h-0.1c-0.6,0.8-1.7,1.5-3.2,1.5c-2.1,0-3.2-1.5-3.2-3c0-2.5,2.2-3.9,6.2-3.9V91
			c0-0.9-0.2-2.4-2.4-2.4c-1,0-2,0.3-2.7,0.8l-0.4-1.2c0.9-0.6,2.1-0.9,3.4-0.9c3.2,0,3.9,2.2,3.9,4.2v3.9c0,0.9,0,1.8,0.2,2.5
			H669.6z M669.3,92.5c-2.1,0-4.4,0.3-4.4,2.3c0,1.2,0.8,1.8,1.8,1.8c1.3,0,2.2-0.9,2.5-1.7c0.1-0.2,0.1-0.4,0.1-0.6V92.5z"/>
		<path d="M676.3,84.4v3h2.7v1.4h-2.7v5.6c0,1.3,0.4,2,1.4,2c0.5,0,0.9-0.1,1.1-0.1l0.1,1.4c-0.4,0.1-0.9,0.3-1.7,0.3
			c-0.9,0-1.6-0.3-2-0.8c-0.5-0.6-0.7-1.5-0.7-2.7v-5.7h-1.6v-1.4h1.6v-2.5L676.3,84.4z"/>
		<path d="M686.9,97.8l-0.2-1.3h-0.1c-0.6,0.8-1.7,1.5-3.2,1.5c-2.1,0-3.2-1.5-3.2-3c0-2.5,2.2-3.9,6.2-3.9V91
			c0-0.9-0.2-2.4-2.4-2.4c-1,0-2,0.3-2.7,0.8l-0.4-1.2c0.9-0.6,2.1-0.9,3.4-0.9c3.2,0,3.9,2.2,3.9,4.2v3.9c0,0.9,0,1.8,0.2,2.5
			H686.9z M686.6,92.5c-2.1,0-4.4,0.3-4.4,2.3c0,1.2,0.8,1.8,1.8,1.8c1.3,0,2.2-0.9,2.5-1.7c0.1-0.2,0.1-0.4,0.1-0.6V92.5z"/>
		<path d="M701.7,97.8l-0.2-1.3h-0.1c-0.6,0.8-1.7,1.5-3.2,1.5c-2.1,0-3.2-1.5-3.2-3c0-2.5,2.2-3.9,6.2-3.9V91
			c0-0.9-0.2-2.4-2.4-2.4c-1,0-2,0.3-2.7,0.8l-0.4-1.2c0.9-0.6,2.1-0.9,3.4-0.9c3.2,0,3.9,2.2,3.9,4.2v3.9c0,0.9,0,1.8,0.2,2.5
			H701.7z M701.5,92.5c-2.1,0-4.4,0.3-4.4,2.3c0,1.2,0.8,1.8,1.8,1.8c1.3,0,2.2-0.9,2.5-1.7c0.1-0.2,0.1-0.4,0.1-0.6V92.5z"/>
		<path d="M706.3,90.2c0-1.1,0-1.9-0.1-2.8h1.7l0.1,1.7h0c0.5-1,1.7-1.9,3.4-1.9c1.4,0,3.7,0.9,3.7,4.4v6.2h-1.9v-6
			c0-1.7-0.6-3.1-2.4-3.1c-1.2,0-2.2,0.9-2.5,1.9c-0.1,0.2-0.1,0.6-0.1,0.9v6.2h-1.9V90.2z"/>
		<path d="M727.2,82.6v12.5c0,0.9,0,2,0.1,2.7h-1.7l-0.1-1.8h0c-0.6,1.2-1.8,2-3.5,2c-2.5,0-4.4-2.1-4.4-5.3c0-3.4,2.1-5.6,4.6-5.6
			c1.6,0,2.7,0.8,3.1,1.6h0v-6.2H727.2z M725.3,91.6c0-0.2,0-0.6-0.1-0.8c-0.3-1.2-1.3-2.2-2.7-2.2c-1.9,0-3.1,1.7-3.1,4
			c0,2.1,1,3.8,3.1,3.8c1.3,0,2.4-0.8,2.8-2.2c0.1-0.3,0.1-0.5,0.1-0.8V91.6z"/>
		<path d="M586.1,110.1v3h2.7v1.4h-2.7v5.6c0,1.3,0.4,2,1.4,2c0.5,0,0.9-0.1,1.1-0.1l0.1,1.4c-0.4,0.1-0.9,0.3-1.7,0.3
			c-0.9,0-1.6-0.3-2-0.8c-0.5-0.6-0.7-1.5-0.7-2.7v-5.7h-1.6v-1.4h1.6v-2.5L586.1,110.1z"/>
		<path d="M600.2,118.2c0,3.8-2.7,5.5-5.2,5.5c-2.8,0-5-2.1-5-5.3c0-3.5,2.3-5.5,5.1-5.5C598.2,112.9,600.2,115,600.2,118.2z
			 M591.9,118.3c0,2.3,1.3,4,3.1,4c1.8,0,3.1-1.7,3.1-4c0-1.8-0.9-4-3.1-4S591.9,116.3,591.9,118.3z"/>
		<path d="M611.9,118.2c0,3.8-2.7,5.5-5.2,5.5c-2.8,0-5-2.1-5-5.3c0-3.5,2.3-5.5,5.1-5.5C609.9,112.9,611.9,115,611.9,118.2z
			 M603.7,118.3c0,2.3,1.3,4,3.1,4c1.8,0,3.1-1.7,3.1-4c0-1.8-0.9-4-3.1-4C604.7,114.3,603.7,116.3,603.7,118.3z"/>
		<path d="M614.3,108.3h1.9v15.2h-1.9V108.3z"/>
		<path d="M619.1,121.5c0.6,0.4,1.5,0.7,2.5,0.7c1.4,0,2-0.7,2-1.5c0-0.9-0.5-1.4-1.9-1.9c-1.9-0.7-2.7-1.7-2.7-2.9
			c0-1.7,1.3-3,3.6-3c1,0,2,0.3,2.5,0.6l-0.5,1.4c-0.4-0.3-1.2-0.6-2.1-0.6c-1.1,0-1.7,0.6-1.7,1.4c0,0.9,0.6,1.2,2,1.8
			c1.8,0.7,2.7,1.6,2.7,3.1c0,1.8-1.4,3.1-3.9,3.1c-1.1,0-2.2-0.3-2.9-0.7L619.1,121.5z"/>
		<path d="M642.7,123.5l0.9-6c0.2-1.6,0.6-3.6,1-5.6h-0.1c-0.8,1.9-1.7,3.9-2.5,5.4l-3,5.9h-2.4l-0.5-5.8c-0.1-1.6-0.2-3.6-0.3-5.5
			h0c-0.4,1.9-0.8,4.1-1.2,5.6l-1.4,6h-2.8l3.6-14.4h4.1l0.4,5.5c0.1,1.3,0.2,3,0.3,4.6h0.1c0.6-1.6,1.3-3.3,1.9-4.6l2.7-5.5h4.2
			l-1.9,14.4H642.7z"/>
		<path d="M654.9,123.5c0-0.6,0.1-1.3,0.1-2.1H655c-1,1.7-2.3,2.3-3.5,2.3c-1.9,0-3.2-1.5-3.2-3.6c0-3.5,2.3-7.3,7.5-7.3
			c1.2,0,2.6,0.2,3.5,0.5l-1.1,5.5c-0.3,1.3-0.5,3.4-0.4,4.7H654.9z M655.8,115.2c-0.2,0-0.5-0.1-0.8-0.1c-2,0-3.4,2.4-3.4,4.4
			c0,1,0.4,1.7,1.3,1.7c0.9,0,2.1-1,2.5-3.6L655.8,115.2z"/>
		<path d="M660,123.5l1.2-6.2c0.3-1.6,0.4-3.3,0.5-4.2h2.7c-0.1,0.7-0.1,1.4-0.2,2.1h0.1c0.7-1.4,1.9-2.4,3.3-2.4c0.2,0,0.4,0,0.6,0
			l-0.6,3c-0.1,0-0.3,0-0.5,0c-2,0-2.9,1.8-3.3,3.8l-0.7,3.9H660z"/>
		<path d="M667.9,123.5l2.9-15.2h3.1l-1.7,9.1h0c0.3-0.4,0.6-0.8,0.9-1.2l2.7-3.2h3.8l-4.5,4.3l2.9,6.2h-3.4l-1.8-4.5l-1.2,1.1
			l-0.6,3.4H667.9z"/>
		<path d="M687.5,122.9c-1.2,0.6-2.7,0.8-3.9,0.8c-3,0-4.5-1.7-4.5-4.4c0-3.2,2.3-6.5,6.1-6.5c2.1,0,3.6,1.2,3.6,3.1
			c0,2.7-2.6,3.6-6.8,3.5c0,0.3,0.1,0.8,0.3,1.1c0.4,0.5,1.1,0.8,2,0.8c1.1,0,2.1-0.3,2.9-0.7L687.5,122.9z M684.8,115
			c-1.4,0-2.2,1.2-2.5,2.2c2.4,0,3.6-0.3,3.6-1.3C685.9,115.4,685.5,115,684.8,115z"/>
		<path d="M695.4,110.1l-0.6,2.9h2.2l-0.5,2.3h-2.2l-0.7,3.6c-0.1,0.4-0.2,1-0.2,1.3c0,0.5,0.2,0.9,0.9,0.9c0.3,0,0.6,0,0.9,0
			l-0.4,2.4c-0.4,0.1-1.2,0.2-1.8,0.2c-1.8,0-2.7-0.9-2.7-2.2c0-0.6,0.1-1.2,0.2-1.9l0.8-4.2h-1.3l0.4-2.3h1.3l0.4-2.2L695.4,110.1z
			"/>
		<path d="M696.1,127.7l2-10.7c0.2-1.2,0.5-3,0.6-4h2.8l-0.2,1.5h0c0.9-1.1,2.1-1.8,3.4-1.8c2.3,0,3.4,1.8,3.4,4c0,3.6-2.4,7-6.1,7
			c-0.9,0-1.6-0.2-1.9-0.4h0l-0.9,4.4H696.1z M700.5,120.9c0.3,0.3,0.8,0.5,1.4,0.5c1.6,0,2.9-2.4,2.9-4.4c0-0.8-0.3-1.7-1.3-1.7
			c-1.2,0-2.2,1.3-2.6,3.4L700.5,120.9z"/>
		<path d="M709,123.5l2.9-15.2h3.1l-2.9,15.2H709z"/>
		<path d="M721.5,123.5c0-0.6,0.1-1.3,0.1-2.1h-0.1c-1,1.7-2.3,2.3-3.5,2.3c-1.9,0-3.2-1.5-3.2-3.6c0-3.5,2.3-7.3,7.5-7.3
			c1.2,0,2.6,0.2,3.5,0.5l-1.1,5.5c-0.3,1.3-0.4,3.4-0.4,4.7H721.5z M722.4,115.2c-0.2,0-0.5-0.1-0.8-0.1c-2,0-3.4,2.4-3.4,4.4
			c0,1,0.4,1.7,1.3,1.7c0.9,0,2.1-1,2.5-3.6L722.4,115.2z"/>
		<path d="M734.2,123.1c-0.7,0.3-1.7,0.5-3,0.5c-2.6,0-4.4-1.6-4.4-4.3c0-3.7,2.8-6.6,6.8-6.6c0.9,0,1.7,0.2,2.1,0.4l-0.8,2.4
			c-0.4-0.1-0.8-0.3-1.4-0.3c-2.2,0-3.6,1.9-3.6,3.8c0,1.4,0.9,2.2,2.1,2.2c0.9,0,1.5-0.2,2.1-0.4L734.2,123.1z"/>
		<path d="M744.4,122.9c-1.2,0.6-2.7,0.8-3.9,0.8c-3,0-4.5-1.7-4.5-4.4c0-3.2,2.3-6.5,6.1-6.5c2.1,0,3.6,1.2,3.6,3.1
			c0,2.7-2.6,3.6-6.8,3.5c0,0.3,0.1,0.8,0.3,1.1c0.4,0.5,1.1,0.8,2,0.8c1.1,0,2.1-0.3,2.9-0.7L744.4,122.9z M741.7,115
			c-1.4,0-2.2,1.2-2.5,2.2c2.4,0,3.6-0.3,3.6-1.3C742.8,115.4,742.4,115,741.7,115z"/>
	</g>
	<g>
		<path d="M26.6,156.8h6.9v1.4h-5.2v4.3h4.9v1.4h-4.9v5.8h-1.7V156.8z"/>
		<path d="M37.2,157.8c0,0.6-0.4,1-1.1,1c-0.6,0-1-0.5-1-1c0-0.6,0.4-1,1-1C36.8,156.8,37.2,157.2,37.2,157.8z M35.4,169.6v-9.2H37
			v9.2H35.4z"/>
		<path d="M39.8,162.9c0-1,0-1.7-0.1-2.5h1.5l0.1,1.5h0c0.5-0.9,1.5-1.7,3-1.7c1.3,0,3.3,0.8,3.3,3.9v5.5H46v-5.3
			c0-1.5-0.6-2.7-2.1-2.7c-1.1,0-2,0.8-2.2,1.7c-0.1,0.2-0.1,0.5-0.1,0.8v5.5h-1.7V162.9z"/>
		<path d="M58.3,156.1v11.1c0,0.8,0,1.8,0.1,2.4h-1.5l-0.1-1.6h0c-0.5,1-1.6,1.8-3.1,1.8c-2.2,0-3.9-1.9-3.9-4.7
			c0-3.1,1.9-4.9,4.1-4.9c1.4,0,2.4,0.7,2.8,1.4h0v-5.5H58.3z M56.6,164.1c0-0.2,0-0.5-0.1-0.7c-0.2-1.1-1.2-1.9-2.4-1.9
			c-1.7,0-2.8,1.5-2.8,3.6c0,1.9,0.9,3.4,2.7,3.4c1.1,0,2.1-0.7,2.5-2c0.1-0.2,0.1-0.5,0.1-0.7V164.1z"/>
		<path d="M64.9,167.9c0.5,0.3,1.4,0.7,2.2,0.7c1.2,0,1.8-0.6,1.8-1.4c0-0.8-0.5-1.2-1.7-1.7c-1.7-0.6-2.4-1.5-2.4-2.6
			c0-1.5,1.2-2.7,3.2-2.7c0.9,0,1.8,0.3,2.3,0.6l-0.4,1.2c-0.4-0.2-1-0.5-1.9-0.5c-1,0-1.5,0.6-1.5,1.3c0,0.8,0.6,1.1,1.8,1.6
			c1.6,0.6,2.4,1.4,2.4,2.8c0,1.6-1.3,2.8-3.4,2.8c-1,0-1.9-0.2-2.6-0.6L64.9,167.9z"/>
		<path d="M81,164.9c0,3.4-2.4,4.9-4.6,4.9c-2.5,0-4.4-1.8-4.4-4.7c0-3.1,2-4.9,4.6-4.9C79.2,160.2,81,162.1,81,164.9z M73.7,165
			c0,2,1.2,3.5,2.8,3.5c1.6,0,2.8-1.5,2.8-3.6c0-1.6-0.8-3.5-2.8-3.5C74.6,161.4,73.7,163.3,73.7,165z"/>
		<path d="M90.8,167.1c0,1,0,1.8,0.1,2.5h-1.5l-0.1-1.5h0c-0.4,0.7-1.4,1.7-3,1.7c-1.4,0-3.2-0.8-3.2-4v-5.4h1.7v5.1
			c0,1.7,0.5,2.9,2.1,2.9c1.1,0,1.9-0.8,2.2-1.5c0.1-0.2,0.2-0.6,0.2-0.9v-5.6h1.7V167.1z"/>
		<path d="M93.6,163.3c0-1.1,0-2-0.1-2.9H95l0.1,1.8h0.1c0.4-1.2,1.4-2,2.5-2c0.2,0,0.3,0,0.5,0.1v1.6c-0.2,0-0.3-0.1-0.6-0.1
			c-1.2,0-2,0.9-2.2,2.1c0,0.2-0.1,0.5-0.1,0.8v4.9h-1.7V163.3z"/>
		<path d="M106.2,169.3c-0.4,0.2-1.4,0.5-2.6,0.5c-2.8,0-4.6-1.9-4.6-4.7c0-2.8,1.9-4.9,4.9-4.9c1,0,1.9,0.2,2.3,0.5l-0.4,1.3
			c-0.4-0.2-1-0.4-1.9-0.4c-2.1,0-3.3,1.6-3.3,3.5c0,2.1,1.4,3.4,3.2,3.4c1,0,1.6-0.2,2.1-0.5L106.2,169.3z"/>
		<path d="M109,165.3c0,2.3,1.5,3.2,3.2,3.2c1.2,0,1.9-0.2,2.5-0.5l0.3,1.2c-0.6,0.3-1.6,0.6-3.1,0.6c-2.8,0-4.5-1.9-4.5-4.6
			s1.6-5,4.3-5c3,0,3.8,2.6,3.8,4.3c0,0.3,0,0.6-0.1,0.8H109z M113.9,164.1c0-1.1-0.4-2.7-2.3-2.7c-1.7,0-2.4,1.6-2.6,2.7H113.9z"/>
		<path d="M129.6,156.1v11.1c0,0.8,0,1.8,0.1,2.4h-1.5l-0.1-1.6h0c-0.5,1-1.6,1.8-3.1,1.8c-2.2,0-3.9-1.9-3.9-4.7
			c0-3.1,1.9-4.9,4.1-4.9c1.4,0,2.4,0.7,2.8,1.4h0v-5.5H129.6z M127.9,164.1c0-0.2,0-0.5-0.1-0.7c-0.2-1.1-1.2-1.9-2.4-1.9
			c-1.7,0-2.8,1.5-2.8,3.6c0,1.9,0.9,3.4,2.7,3.4c1.1,0,2.1-0.7,2.5-2c0.1-0.2,0.1-0.5,0.1-0.7V164.1z"/>
		<path d="M137.4,169.6l-0.1-1.2h-0.1c-0.5,0.7-1.5,1.4-2.8,1.4c-1.9,0-2.8-1.3-2.8-2.6c0-2.2,2-3.4,5.5-3.4v-0.2
			c0-0.8-0.2-2.1-2.1-2.1c-0.9,0-1.8,0.3-2.4,0.7l-0.4-1.1c0.8-0.5,1.9-0.8,3-0.8c2.8,0,3.5,1.9,3.5,3.8v3.4c0,0.8,0,1.6,0.2,2.2
			H137.4z M137.2,164.9c-1.8,0-3.9,0.3-3.9,2.1c0,1.1,0.7,1.6,1.6,1.6c1.2,0,2-0.8,2.2-1.5c0.1-0.2,0.1-0.4,0.1-0.5V164.9z"/>
		<path d="M143.5,157.7v2.6h2.4v1.3h-2.4v5c0,1.1,0.3,1.8,1.3,1.8c0.4,0,0.8-0.1,1-0.1l0.1,1.3c-0.3,0.1-0.8,0.2-1.5,0.2
			c-0.8,0-1.4-0.2-1.8-0.7c-0.5-0.5-0.6-1.3-0.6-2.4v-5h-1.4v-1.3h1.4v-2.2L143.5,157.7z"/>
		<path d="M152.8,169.6l-0.1-1.2h-0.1c-0.5,0.7-1.5,1.4-2.8,1.4c-1.9,0-2.8-1.3-2.8-2.6c0-2.2,2-3.4,5.5-3.4v-0.2
			c0-0.8-0.2-2.1-2.1-2.1c-0.9,0-1.8,0.3-2.4,0.7l-0.4-1.1c0.8-0.5,1.9-0.8,3-0.8c2.8,0,3.5,1.9,3.5,3.8v3.4c0,0.8,0,1.6,0.2,2.2
			H152.8z M152.6,164.9c-1.8,0-3.9,0.3-3.9,2.1c0,1.1,0.7,1.6,1.6,1.6c1.2,0,2-0.8,2.2-1.5c0.1-0.2,0.1-0.4,0.1-0.5V164.9z"/>
	</g>
	<g>
		<path d="M247.6,166c-0.6,0.3-1.8,0.6-3.4,0.6c-3.6,0-6.3-2.3-6.3-6.5c0-4,2.7-6.7,6.7-6.7c1.6,0,2.6,0.3,3,0.6l-0.4,1.4
			c-0.6-0.3-1.5-0.5-2.6-0.5c-3,0-5,1.9-5,5.3c0,3.1,1.8,5.2,4.9,5.2c1,0,2-0.2,2.7-0.5L247.6,166z"/>
		<path d="M257.7,161.7c0,3.4-2.4,4.9-4.6,4.9c-2.5,0-4.4-1.8-4.4-4.7c0-3.1,2-4.9,4.6-4.9C256,157,257.7,158.9,257.7,161.7z
			 M250.4,161.8c0,2,1.2,3.5,2.8,3.5c1.6,0,2.8-1.5,2.8-3.6c0-1.6-0.8-3.5-2.8-3.5C251.3,158.3,250.4,160.1,250.4,161.8z"/>
		<path d="M259.9,159.7c0-1,0-1.7-0.1-2.5h1.5l0.1,1.5h0c0.5-0.9,1.5-1.7,3-1.7c1.3,0,3.3,0.8,3.3,3.9v5.5H266v-5.3
			c0-1.5-0.6-2.7-2.1-2.7c-1.1,0-2,0.8-2.2,1.7c-0.1,0.2-0.1,0.5-0.1,0.8v5.5h-1.7V159.7z"/>
		<path d="M270.2,164.7c0.5,0.3,1.4,0.7,2.2,0.7c1.2,0,1.8-0.6,1.8-1.4c0-0.8-0.5-1.2-1.7-1.7c-1.7-0.6-2.4-1.5-2.4-2.6
			c0-1.5,1.2-2.7,3.2-2.7c0.9,0,1.8,0.3,2.3,0.6l-0.4,1.2c-0.4-0.2-1-0.5-1.9-0.5c-1,0-1.5,0.6-1.5,1.3c0,0.8,0.6,1.1,1.8,1.6
			c1.6,0.6,2.4,1.4,2.4,2.8c0,1.6-1.3,2.8-3.4,2.8c-1,0-1.9-0.2-2.6-0.6L270.2,164.7z"/>
		<path d="M278.9,162.1c0,2.3,1.5,3.2,3.2,3.2c1.2,0,1.9-0.2,2.5-0.5l0.3,1.2c-0.6,0.3-1.6,0.6-3.1,0.6c-2.8,0-4.5-1.9-4.5-4.6
			s1.6-5,4.3-5c3,0,3.8,2.6,3.8,4.3c0,0.3,0,0.6-0.1,0.8H278.9z M283.8,160.9c0-1.1-0.4-2.7-2.3-2.7c-1.7,0-2.4,1.6-2.6,2.7H283.8z"
			/>
		<path d="M287.5,159.7c0-1,0-1.7-0.1-2.5h1.5l0.1,1.5h0c0.5-0.9,1.5-1.7,3-1.7c1.3,0,3.3,0.8,3.3,3.9v5.5h-1.7v-5.3
			c0-1.5-0.6-2.7-2.1-2.7c-1.1,0-2,0.8-2.2,1.7c-0.1,0.2-0.1,0.5-0.1,0.8v5.5h-1.7V159.7z"/>
		<path d="M297.8,164.7c0.5,0.3,1.4,0.7,2.2,0.7c1.2,0,1.8-0.6,1.8-1.4c0-0.8-0.5-1.2-1.7-1.7c-1.7-0.6-2.4-1.5-2.4-2.6
			c0-1.5,1.2-2.7,3.2-2.7c0.9,0,1.8,0.3,2.3,0.6l-0.4,1.2c-0.4-0.2-1-0.5-1.9-0.5c-1,0-1.5,0.6-1.5,1.3c0,0.8,0.6,1.1,1.8,1.6
			c1.6,0.6,2.4,1.4,2.4,2.8c0,1.6-1.3,2.8-3.4,2.8c-1,0-1.9-0.2-2.6-0.6L297.8,164.7z"/>
		<path d="M313.3,163.9c0,1,0,1.8,0.1,2.5h-1.5l-0.1-1.5h0c-0.4,0.7-1.4,1.7-3,1.7c-1.4,0-3.2-0.8-3.2-4v-5.4h1.7v5.1
			c0,1.7,0.5,2.9,2.1,2.9c1.1,0,1.9-0.8,2.2-1.5c0.1-0.2,0.2-0.6,0.2-0.9v-5.6h1.7V163.9z"/>
		<path d="M315.8,164.7c0.5,0.3,1.4,0.7,2.2,0.7c1.2,0,1.8-0.6,1.8-1.4c0-0.8-0.5-1.2-1.7-1.7c-1.7-0.6-2.4-1.5-2.4-2.6
			c0-1.5,1.2-2.7,3.2-2.7c0.9,0,1.7,0.3,2.3,0.6l-0.4,1.2c-0.4-0.2-1-0.5-1.9-0.5c-1,0-1.5,0.6-1.5,1.3c0,0.8,0.6,1.1,1.8,1.6
			c1.6,0.6,2.4,1.4,2.4,2.8c0,1.6-1.3,2.8-3.4,2.8c-1,0-1.9-0.2-2.6-0.6L315.8,164.7z"/>
		<path d="M242,187.6c0.5,0.3,1.4,0.7,2.2,0.7c1.2,0,1.8-0.6,1.8-1.4c0-0.8-0.5-1.2-1.7-1.7c-1.7-0.6-2.4-1.5-2.4-2.6
			c0-1.5,1.2-2.7,3.2-2.7c0.9,0,1.7,0.3,2.3,0.6l-0.4,1.2c-0.4-0.2-1-0.5-1.9-0.5c-1,0-1.5,0.6-1.5,1.3c0,0.8,0.6,1.1,1.8,1.6
			c1.6,0.6,2.4,1.4,2.4,2.8c0,1.6-1.3,2.8-3.4,2.8c-1,0-1.9-0.2-2.6-0.6L242,187.6z"/>
		<path d="M251.8,177.4v2.6h2.4v1.3h-2.4v5c0,1.1,0.3,1.8,1.3,1.8c0.4,0,0.8-0.1,1-0.1l0.1,1.3c-0.3,0.1-0.8,0.2-1.5,0.2
			c-0.8,0-1.4-0.2-1.8-0.7c-0.5-0.5-0.6-1.3-0.6-2.4v-5h-1.4v-1.3h1.4v-2.2L251.8,177.4z"/>
		<path d="M261.1,189.3l-0.1-1.2H261c-0.5,0.7-1.5,1.4-2.8,1.4c-1.9,0-2.8-1.3-2.8-2.6c0-2.2,2-3.4,5.5-3.4v-0.2
			c0-0.8-0.2-2.1-2.1-2.1c-0.9,0-1.8,0.3-2.4,0.7l-0.4-1.1c0.8-0.5,1.9-0.8,3-0.8c2.8,0,3.5,1.9,3.5,3.8v3.4c0,0.8,0,1.6,0.2,2.2
			H261.1z M260.9,184.6c-1.8,0-3.9,0.3-3.9,2.1c0,1.1,0.7,1.6,1.6,1.6c1.2,0,2-0.8,2.2-1.5c0.1-0.2,0.1-0.4,0.1-0.5V184.6z"/>
		<path d="M265.2,182.5c0-1,0-1.7-0.1-2.5h1.5l0.1,1.5h0c0.5-0.9,1.5-1.7,3-1.7c1.3,0,3.3,0.8,3.3,3.9v5.5h-1.7V184
			c0-1.5-0.6-2.7-2.1-2.7c-1.1,0-2,0.8-2.2,1.7c-0.1,0.2-0.1,0.5-0.1,0.8v5.5h-1.7V182.5z"/>
		<path d="M283.7,175.8v11.1c0,0.8,0,1.8,0.1,2.4h-1.5l-0.1-1.6h0c-0.5,1-1.6,1.8-3.1,1.8c-2.2,0-3.9-1.9-3.9-4.7
			c0-3.1,1.9-4.9,4.1-4.9c1.4,0,2.4,0.7,2.8,1.4h0v-5.5H283.7z M282.1,183.8c0-0.2,0-0.5-0.1-0.7c-0.2-1.1-1.2-1.9-2.4-1.9
			c-1.7,0-2.8,1.5-2.8,3.6c0,1.9,0.9,3.4,2.7,3.4c1.1,0,2.1-0.7,2.5-2c0.1-0.2,0.1-0.5,0.1-0.7V183.8z"/>
		<path d="M291.6,189.3l-0.1-1.2h-0.1c-0.5,0.7-1.5,1.4-2.8,1.4c-1.9,0-2.8-1.3-2.8-2.6c0-2.2,2-3.4,5.5-3.4v-0.2
			c0-0.8-0.2-2.1-2.1-2.1c-0.9,0-1.8,0.3-2.4,0.7l-0.4-1.1c0.8-0.5,1.9-0.8,3-0.8c2.8,0,3.5,1.9,3.5,3.8v3.4c0,0.8,0,1.6,0.2,2.2
			H291.6z M291.4,184.6c-1.8,0-3.9,0.3-3.9,2.1c0,1.1,0.7,1.6,1.6,1.6c1.2,0,2-0.8,2.2-1.5c0.1-0.2,0.1-0.4,0.1-0.5V184.6z"/>
		<path d="M295.7,182.9c0-1.1,0-2-0.1-2.9h1.5l0.1,1.8h0.1c0.4-1.2,1.4-2,2.5-2c0.2,0,0.3,0,0.5,0.1v1.6c-0.2,0-0.3-0.1-0.6-0.1
			c-1.2,0-2,0.9-2.2,2.1c0,0.2-0.1,0.5-0.1,0.8v4.9h-1.7V182.9z"/>
		<path d="M309.7,175.8v11.1c0,0.8,0,1.8,0.1,2.4h-1.5l-0.1-1.6h0c-0.5,1-1.6,1.8-3.1,1.8c-2.2,0-3.9-1.9-3.9-4.7
			c0-3.1,1.9-4.9,4.1-4.9c1.4,0,2.4,0.7,2.8,1.4h0v-5.5H309.7z M308,183.8c0-0.2,0-0.5-0.1-0.7c-0.2-1.1-1.2-1.9-2.4-1.9
			c-1.7,0-2.8,1.5-2.8,3.6c0,1.9,0.9,3.4,2.7,3.4c1.1,0,2.1-0.7,2.5-2c0.1-0.2,0.1-0.5,0.1-0.7V183.8z"/>
		<path d="M312.2,187.6c0.5,0.3,1.4,0.7,2.2,0.7c1.2,0,1.8-0.6,1.8-1.4c0-0.8-0.5-1.2-1.7-1.7c-1.7-0.6-2.4-1.5-2.4-2.6
			c0-1.5,1.2-2.7,3.2-2.7c0.9,0,1.8,0.3,2.3,0.6l-0.4,1.2c-0.4-0.2-1-0.5-1.9-0.5c-1,0-1.5,0.6-1.5,1.3c0,0.8,0.6,1.1,1.8,1.6
			c1.6,0.6,2.4,1.4,2.4,2.8c0,1.6-1.3,2.8-3.4,2.8c-1,0-1.9-0.2-2.6-0.6L312.2,187.6z"/>
	</g>
	<g>
		<path d="M216.8,219.7l-4.2-12.8h1.8l2,6.3c0.6,1.7,1,3.3,1.4,4.8h0c0.4-1.5,0.9-3.1,1.5-4.8l2.2-6.3h1.8l-4.6,12.8H216.8z"/>
		<path d="M226.1,207.9c0,0.6-0.4,1-1.1,1c-0.6,0-1-0.5-1-1c0-0.6,0.4-1,1-1C225.7,206.8,226.1,207.3,226.1,207.9z M224.2,219.7
			v-9.2h1.7v9.2H224.2z"/>
		<path d="M228.4,217.9c0.5,0.3,1.4,0.7,2.2,0.7c1.2,0,1.8-0.6,1.8-1.4c0-0.8-0.5-1.2-1.7-1.7c-1.7-0.6-2.4-1.5-2.4-2.6
			c0-1.5,1.2-2.7,3.2-2.7c0.9,0,1.8,0.3,2.3,0.6l-0.4,1.2c-0.4-0.2-1-0.5-1.9-0.5c-1,0-1.5,0.6-1.5,1.3c0,0.8,0.6,1.1,1.8,1.6
			c1.6,0.6,2.4,1.4,2.4,2.8c0,1.6-1.3,2.8-3.4,2.8c-1,0-1.9-0.2-2.6-0.6L228.4,217.9z"/>
		<path d="M243.9,217.2c0,1,0,1.8,0.1,2.5h-1.5l-0.1-1.5h0c-0.4,0.7-1.4,1.7-3,1.7c-1.4,0-3.2-0.8-3.2-4v-5.4h1.7v5.1
			c0,1.7,0.5,2.9,2.1,2.9c1.1,0,1.9-0.8,2.2-1.5c0.1-0.2,0.2-0.6,0.2-0.9v-5.6h1.7V217.2z"/>
		<path d="M251.8,219.7l-0.1-1.2h-0.1c-0.5,0.7-1.5,1.4-2.8,1.4c-1.9,0-2.8-1.3-2.8-2.6c0-2.2,2-3.4,5.5-3.4v-0.2
			c0-0.8-0.2-2.1-2.1-2.1c-0.9,0-1.8,0.3-2.4,0.7l-0.4-1.1c0.8-0.5,1.9-0.8,3-0.8c2.8,0,3.5,1.9,3.5,3.8v3.4c0,0.8,0,1.6,0.2,2.2
			H251.8z M251.5,215c-1.8,0-3.9,0.3-3.9,2.1c0,1.1,0.7,1.6,1.6,1.6c1.2,0,2-0.8,2.2-1.5c0.1-0.2,0.1-0.4,0.1-0.5V215z"/>
		<path d="M255.9,206.2h1.7v13.5h-1.7V206.2z"/>
		<path d="M262.2,207.9c0,0.6-0.4,1-1.1,1c-0.6,0-1-0.5-1-1c0-0.6,0.4-1,1-1C261.8,206.8,262.2,207.3,262.2,207.9z M260.3,219.7
			v-9.2h1.7v9.2H260.3z"/>
		<path d="M263.8,218.7l4.2-5.4c0.4-0.5,0.8-0.9,1.2-1.4v0h-5v-1.3h7l0,1l-4.1,5.3c-0.4,0.5-0.8,1-1.2,1.4v0h5.4v1.3h-7.5V218.7z"/>
		<path d="M278,219.7l-0.1-1.2h-0.1c-0.5,0.7-1.5,1.4-2.8,1.4c-1.9,0-2.8-1.3-2.8-2.6c0-2.2,2-3.4,5.5-3.4v-0.2
			c0-0.8-0.2-2.1-2.1-2.1c-0.9,0-1.7,0.3-2.4,0.7l-0.4-1.1c0.8-0.5,1.9-0.8,3-0.8c2.8,0,3.5,1.9,3.5,3.8v3.4c0,0.8,0,1.6,0.2,2.2
			H278z M277.8,215c-1.8,0-3.9,0.3-3.9,2.1c0,1.1,0.7,1.6,1.6,1.6c1.2,0,2-0.8,2.2-1.5c0.1-0.2,0.1-0.4,0.1-0.5V215z"/>
		<path d="M284.1,207.8v2.6h2.4v1.3h-2.4v5c0,1.1,0.3,1.8,1.3,1.8c0.4,0,0.8-0.1,1-0.1l0.1,1.3c-0.3,0.1-0.8,0.2-1.5,0.2
			c-0.8,0-1.4-0.2-1.8-0.7c-0.5-0.5-0.6-1.3-0.6-2.4v-5H281v-1.3h1.4v-2.2L284.1,207.8z"/>
		<path d="M290.2,207.9c0,0.6-0.4,1-1.1,1c-0.6,0-1-0.5-1-1c0-0.6,0.4-1,1-1C289.8,206.8,290.2,207.3,290.2,207.9z M288.3,219.7
			v-9.2h1.7v9.2H288.3z"/>
		<path d="M301.1,215c0,3.4-2.4,4.9-4.6,4.9c-2.5,0-4.4-1.8-4.4-4.7c0-3.1,2-4.9,4.6-4.9C299.3,210.2,301.1,212.2,301.1,215z
			 M293.8,215.1c0,2,1.2,3.5,2.8,3.5c1.6,0,2.8-1.5,2.8-3.6c0-1.6-0.8-3.5-2.8-3.5C294.7,211.5,293.8,213.3,293.8,215.1z"/>
		<path d="M303.2,212.9c0-1,0-1.7-0.1-2.5h1.5l0.1,1.5h0c0.5-0.9,1.5-1.7,3-1.7c1.3,0,3.3,0.8,3.3,3.9v5.5h-1.7v-5.3
			c0-1.5-0.6-2.7-2.1-2.7c-1.1,0-2,0.8-2.2,1.7c-0.1,0.2-0.1,0.5-0.1,0.8v5.5h-1.7V212.9z"/>
		<path d="M322.9,219.7l-0.1-1.2h-0.1c-0.5,0.7-1.5,1.4-2.8,1.4c-1.9,0-2.8-1.3-2.8-2.6c0-2.2,2-3.4,5.5-3.4v-0.2
			c0-0.8-0.2-2.1-2.1-2.1c-0.9,0-1.8,0.3-2.4,0.7l-0.4-1.1c0.8-0.5,1.9-0.8,3-0.8c2.8,0,3.5,1.9,3.5,3.8v3.4c0,0.8,0,1.6,0.2,2.2
			H322.9z M322.7,215c-1.8,0-3.9,0.3-3.9,2.1c0,1.1,0.7,1.6,1.6,1.6c1.2,0,2-0.8,2.2-1.5c0.1-0.2,0.1-0.4,0.1-0.5V215z"/>
		<path d="M327,212.9c0-1,0-1.7-0.1-2.5h1.5l0.1,1.5h0c0.5-0.9,1.5-1.7,3-1.7c1.3,0,3.3,0.8,3.3,3.9v5.5h-1.7v-5.3
			c0-1.5-0.6-2.7-2.1-2.7c-1.1,0-2,0.8-2.2,1.7c-0.1,0.2-0.1,0.5-0.1,0.8v5.5H327V212.9z"/>
		<path d="M345.5,206.2v11.1c0,0.8,0,1.8,0.1,2.4h-1.5l-0.1-1.6h0c-0.5,1-1.6,1.8-3.1,1.8c-2.2,0-3.9-1.9-3.9-4.7
			c0-3.1,1.9-4.9,4.1-4.9c1.4,0,2.4,0.7,2.8,1.4h0v-5.5H345.5z M343.8,214.2c0-0.2,0-0.5-0.1-0.7c-0.2-1.1-1.2-1.9-2.4-1.9
			c-1.7,0-2.8,1.5-2.8,3.6c0,1.9,0.9,3.4,2.7,3.4c1.1,0,2.1-0.7,2.5-2c0.1-0.2,0.1-0.5,0.1-0.7V214.2z"/>
		<path d="M257.4,229v11.1c0,0.8,0,1.8,0.1,2.4h-1.5l-0.1-1.6h0c-0.5,1-1.6,1.8-3.1,1.8c-2.2,0-3.9-1.9-3.9-4.7
			c0-3.1,1.9-4.9,4.1-4.9c1.4,0,2.4,0.7,2.8,1.4h0V229H257.4z M255.7,237c0-0.2,0-0.5-0.1-0.7c-0.2-1.1-1.2-1.9-2.4-1.9
			c-1.7,0-2.8,1.5-2.8,3.6c0,1.9,0.9,3.4,2.7,3.4c1.1,0,2.1-0.7,2.5-2c0.1-0.2,0.1-0.5,0.1-0.7V237z"/>
		<path d="M261.1,238.2c0,2.3,1.5,3.2,3.2,3.2c1.2,0,1.9-0.2,2.5-0.5l0.3,1.2c-0.6,0.3-1.6,0.6-3.1,0.6c-2.8,0-4.5-1.9-4.5-4.6
			s1.6-5,4.3-5c3,0,3.8,2.6,3.8,4.3c0,0.3,0,0.6-0.1,0.8H261.1z M266,237c0-1.1-0.4-2.7-2.3-2.7c-1.7,0-2.4,1.6-2.6,2.7H266z"/>
		<path d="M269.7,229h1.7v13.5h-1.7V229z"/>
		<path d="M276,230.7c0,0.6-0.4,1-1.1,1c-0.6,0-1-0.5-1-1c0-0.6,0.4-1,1-1C275.6,229.7,276,230.1,276,230.7z M274.2,242.5v-9.2h1.7
			v9.2H274.2z"/>
		<path d="M279.3,233.3l1.8,5.2c0.3,0.8,0.6,1.6,0.7,2.4h0.1c0.2-0.8,0.5-1.5,0.8-2.4l1.8-5.2h1.8l-3.6,9.2H281l-3.5-9.2H279.3z"/>
		<path d="M288.5,238.2c0,2.3,1.5,3.2,3.2,3.2c1.2,0,1.9-0.2,2.5-0.5l0.3,1.2c-0.6,0.3-1.6,0.6-3.1,0.6c-2.8,0-4.5-1.9-4.5-4.6
			s1.6-5,4.3-5c3,0,3.8,2.6,3.8,4.3c0,0.3,0,0.6-0.1,0.8H288.5z M293.4,237c0-1.1-0.4-2.7-2.3-2.7c-1.7,0-2.4,1.6-2.6,2.7H293.4z"/>
		<path d="M297.1,236.2c0-1.1,0-2-0.1-2.9h1.5l0.1,1.8h0.1c0.4-1.2,1.4-2,2.5-2c0.2,0,0.3,0,0.5,0.1v1.6c-0.2,0-0.3-0.1-0.6-0.1
			c-1.2,0-2,0.9-2.2,2.1c0,0.2-0.1,0.5-0.1,0.8v4.9h-1.7V236.2z"/>
		<path d="M304.4,233.3l2,5.4c0.2,0.6,0.4,1.3,0.6,1.9h0c0.2-0.6,0.4-1.3,0.6-1.9l1.8-5.4h1.8l-2.5,6.6c-1.2,3.2-2,4.8-3.2,5.8
			c-0.8,0.7-1.6,1-2.1,1.1l-0.4-1.4c0.4-0.1,1-0.4,1.5-0.8c0.5-0.4,1-1,1.4-1.9c0.1-0.2,0.1-0.3,0.1-0.4s0-0.2-0.1-0.4l-3.4-8.5
			H304.4z"/>
	</g>
	<g>
		<path d="M219.2,273.2c-0.6,0.3-1.8,0.6-3.4,0.6c-3.6,0-6.3-2.3-6.3-6.5c0-4,2.7-6.7,6.7-6.7c1.6,0,2.6,0.3,3,0.6l-0.4,1.3
			c-0.6-0.3-1.5-0.5-2.6-0.5c-3,0-5,1.9-5,5.3c0,3.1,1.8,5.2,4.9,5.2c1,0,2-0.2,2.7-0.5L219.2,273.2z"/>
		<path d="M226.2,273.6l-0.1-1.2H226c-0.5,0.7-1.5,1.4-2.8,1.4c-1.9,0-2.8-1.3-2.8-2.6c0-2.2,2-3.4,5.5-3.4v-0.2
			c0-0.8-0.2-2.1-2.1-2.1c-0.9,0-1.7,0.3-2.4,0.7L221,265c0.8-0.5,1.9-0.8,3-0.8c2.8,0,3.5,1.9,3.5,3.8v3.4c0,0.8,0,1.6,0.2,2.2
			H226.2z M225.9,268.9c-1.8,0-3.9,0.3-3.9,2.1c0,1.1,0.7,1.6,1.6,1.6c1.2,0,2-0.8,2.2-1.5c0.1-0.2,0.1-0.4,0.1-0.5V268.9z"/>
		<path d="M232.2,261.7v2.6h2.4v1.3h-2.4v5c0,1.1,0.3,1.8,1.3,1.8c0.4,0,0.8-0.1,1-0.1l0.1,1.3c-0.3,0.1-0.8,0.2-1.5,0.2
			c-0.8,0-1.4-0.2-1.8-0.7c-0.5-0.5-0.6-1.3-0.6-2.4v-5h-1.4v-1.3h1.4v-2.2L232.2,261.7z"/>
		<path d="M241.6,273.6l-0.1-1.2h-0.1c-0.5,0.7-1.5,1.4-2.8,1.4c-1.9,0-2.8-1.3-2.8-2.6c0-2.2,2-3.4,5.5-3.4v-0.2
			c0-0.8-0.2-2.1-2.1-2.1c-0.9,0-1.8,0.3-2.4,0.7l-0.4-1.1c0.8-0.5,1.9-0.8,3-0.8c2.8,0,3.5,1.9,3.5,3.8v3.4c0,0.8,0,1.6,0.2,2.2
			H241.6z M241.3,268.9c-1.8,0-3.9,0.3-3.9,2.1c0,1.1,0.7,1.6,1.6,1.6c1.2,0,2-0.8,2.2-1.5c0.1-0.2,0.1-0.4,0.1-0.5V268.9z"/>
		<path d="M245.6,260.1h1.7v13.5h-1.7V260.1z"/>
		<path d="M258.5,268.9c0,3.4-2.4,4.9-4.6,4.9c-2.5,0-4.4-1.8-4.4-4.7c0-3.1,2-4.9,4.6-4.9C256.7,264.2,258.5,266.1,258.5,268.9z
			 M251.2,269c0,2,1.2,3.5,2.8,3.5c1.6,0,2.8-1.5,2.8-3.6c0-1.6-0.8-3.5-2.8-3.5C252,265.4,251.2,267.2,251.2,269z"/>
		<path d="M268.5,264.4c0,0.7-0.1,1.4-0.1,2.5v5.3c0,2.1-0.4,3.4-1.3,4.2c-0.9,0.8-2.2,1.1-3.3,1.1c-1.1,0-2.3-0.3-3.1-0.8l0.4-1.3
			c0.6,0.4,1.6,0.7,2.7,0.7c1.7,0,3-0.9,3-3.2v-1h0c-0.5,0.9-1.5,1.5-2.9,1.5c-2.3,0-3.9-1.9-3.9-4.5c0-3.1,2-4.9,4.1-4.9
			c1.6,0,2.5,0.8,2.9,1.6h0l0.1-1.4H268.5z M266.8,268c0-0.3,0-0.5-0.1-0.8c-0.3-1-1.1-1.8-2.3-1.8c-1.6,0-2.7,1.3-2.7,3.5
			c0,1.8,0.9,3.3,2.7,3.3c1,0,2-0.6,2.3-1.7c0.1-0.3,0.1-0.6,0.1-0.9V268z"/>
		<path d="M280.4,273.6l-0.1-1.2h-0.1c-0.5,0.7-1.5,1.4-2.8,1.4c-1.9,0-2.8-1.3-2.8-2.6c0-2.2,2-3.4,5.5-3.4v-0.2
			c0-0.8-0.2-2.1-2.1-2.1c-0.9,0-1.8,0.3-2.4,0.7l-0.4-1.1c0.8-0.5,1.9-0.8,3-0.8c2.8,0,3.5,1.9,3.5,3.8v3.4c0,0.8,0,1.6,0.2,2.2
			H280.4z M280.1,268.9c-1.8,0-3.9,0.3-3.9,2.1c0,1.1,0.7,1.6,1.6,1.6c1.2,0,2-0.8,2.2-1.5c0.1-0.2,0.1-0.4,0.1-0.5V268.9z"/>
		<path d="M284.4,266.9c0-1,0-1.7-0.1-2.5h1.5l0.1,1.5h0c0.5-0.9,1.5-1.7,3-1.7c1.3,0,3.3,0.8,3.3,3.9v5.5h-1.7v-5.3
			c0-1.5-0.6-2.7-2.1-2.7c-1.1,0-2,0.8-2.2,1.7c-0.1,0.2-0.1,0.5-0.1,0.8v5.5h-1.7V266.9z"/>
		<path d="M302.9,260.1v11.1c0,0.8,0,1.8,0.1,2.4h-1.5l-0.1-1.6h0c-0.5,1-1.6,1.8-3.1,1.8c-2.2,0-3.9-1.9-3.9-4.7
			c0-3.1,1.9-4.9,4.1-4.9c1.4,0,2.4,0.7,2.8,1.4h0v-5.5H302.9z M301.3,268.1c0-0.2,0-0.5-0.1-0.7c-0.2-1.1-1.2-1.9-2.4-1.9
			c-1.7,0-2.8,1.5-2.8,3.6c0,1.9,0.9,3.4,2.7,3.4c1.1,0,2.1-0.7,2.5-2c0.1-0.2,0.1-0.5,0.1-0.7V268.1z"/>
		<path d="M309.5,271.9c0.5,0.3,1.4,0.7,2.2,0.7c1.2,0,1.8-0.6,1.8-1.4c0-0.8-0.5-1.2-1.7-1.7c-1.7-0.6-2.4-1.5-2.4-2.6
			c0-1.5,1.2-2.7,3.2-2.7c0.9,0,1.7,0.3,2.3,0.6l-0.4,1.2c-0.4-0.2-1-0.5-1.9-0.5c-1,0-1.5,0.6-1.5,1.3c0,0.8,0.6,1.1,1.8,1.6
			c1.6,0.6,2.4,1.4,2.4,2.8c0,1.6-1.3,2.8-3.4,2.8c-1,0-1.9-0.2-2.6-0.6L309.5,271.9z"/>
		<path d="M318.2,269.3c0,2.3,1.5,3.2,3.2,3.2c1.2,0,1.9-0.2,2.5-0.5l0.3,1.2c-0.6,0.3-1.6,0.6-3.1,0.6c-2.8,0-4.5-1.9-4.5-4.6
			c0-2.8,1.6-5,4.3-5c3,0,3.8,2.6,3.8,4.3c0,0.3,0,0.6-0.1,0.8H318.2z M323.1,268.1c0-1.1-0.4-2.7-2.3-2.7c-1.7,0-2.4,1.6-2.6,2.7
			H323.1z"/>
		<path d="M326.8,267.2c0-1.1,0-2-0.1-2.9h1.5l0.1,1.8h0.1c0.4-1.2,1.4-2,2.5-2c0.2,0,0.3,0,0.5,0.1v1.6c-0.2,0-0.3-0.1-0.6-0.1
			c-1.2,0-2,0.9-2.2,2.2c0,0.2-0.1,0.5-0.1,0.8v4.9h-1.7V267.2z"/>
		<path d="M334.2,264.4l1.8,5.2c0.3,0.8,0.6,1.6,0.7,2.4h0.1c0.2-0.8,0.5-1.5,0.8-2.4l1.8-5.2h1.8l-3.6,9.2h-1.6l-3.5-9.2H334.2z"/>
		<path d="M343.4,269.3c0,2.3,1.5,3.2,3.2,3.2c1.2,0,1.9-0.2,2.5-0.5l0.3,1.2c-0.6,0.3-1.6,0.6-3.1,0.6c-2.8,0-4.5-1.9-4.5-4.6
			c0-2.8,1.6-5,4.3-5c3,0,3.8,2.6,3.8,4.3c0,0.3,0,0.6-0.1,0.8H343.4z M348.3,268.1c0-1.1-0.4-2.7-2.3-2.7c-1.7,0-2.4,1.6-2.6,2.7
			H348.3z"/>
	</g>
	<g>
		<path d="M410.7,156v12.8h-1.7V156H410.7z"/>
		<path d="M413.8,162.1c0-1,0-1.7-0.1-2.5h1.5l0.1,1.5h0c0.5-0.9,1.5-1.7,3-1.7c1.3,0,3.3,0.8,3.3,3.9v5.5h-1.7v-5.3
			c0-1.5-0.6-2.7-2.1-2.7c-1.1,0-2,0.8-2.2,1.7c-0.1,0.2-0.1,0.5-0.1,0.8v5.5h-1.7V162.1z"/>
		<path d="M430.9,168.5c-0.4,0.2-1.4,0.5-2.6,0.5c-2.8,0-4.6-1.9-4.6-4.7c0-2.8,1.9-4.9,4.9-4.9c1,0,1.9,0.2,2.3,0.5l-0.4,1.3
			c-0.4-0.2-1-0.4-1.9-0.4c-2.1,0-3.3,1.6-3.3,3.5c0,2.1,1.4,3.4,3.2,3.4c1,0,1.6-0.2,2.1-0.5L430.9,168.5z"/>
		<path d="M432.8,155.3h1.7v13.5h-1.7V155.3z"/>
		<path d="M445,166.3c0,1,0,1.8,0.1,2.5h-1.5l-0.1-1.5h0c-0.4,0.7-1.4,1.7-3,1.7c-1.4,0-3.2-0.8-3.2-4v-5.4h1.7v5.1
			c0,1.7,0.5,2.9,2.1,2.9c1.1,0,1.9-0.8,2.2-1.5c0.1-0.2,0.2-0.6,0.2-0.9v-5.6h1.7V166.3z"/>
		<path d="M455.8,155.3v11.1c0,0.8,0,1.8,0.1,2.4h-1.5l-0.1-1.6h0c-0.5,1-1.6,1.8-3.1,1.8c-2.2,0-3.9-1.9-3.9-4.7
			c0-3.1,1.9-4.9,4.1-4.9c1.4,0,2.4,0.7,2.8,1.4h0v-5.5H455.8z M454.1,163.3c0-0.2,0-0.5-0.1-0.7c-0.2-1.1-1.2-1.9-2.4-1.9
			c-1.7,0-2.8,1.5-2.8,3.6c0,1.9,0.9,3.4,2.7,3.4c1.1,0,2.1-0.7,2.5-2c0.1-0.2,0.1-0.5,0.1-0.7V163.3z"/>
		<path d="M459.5,164.5c0,2.3,1.5,3.2,3.2,3.2c1.2,0,1.9-0.2,2.5-0.5l0.3,1.2c-0.6,0.3-1.6,0.6-3.1,0.6c-2.8,0-4.5-1.9-4.5-4.6
			s1.6-5,4.3-5c3,0,3.8,2.6,3.8,4.3c0,0.3,0,0.6-0.1,0.8H459.5z M464.4,163.3c0-1.1-0.4-2.7-2.3-2.7c-1.7,0-2.4,1.6-2.6,2.7H464.4z"
			/>
		<path d="M472.1,162.5c0-1.1,0-2-0.1-2.9h1.5l0.1,1.8h0.1c0.4-1.2,1.4-2,2.5-2c0.2,0,0.3,0,0.5,0.1v1.6c-0.2,0-0.3-0.1-0.6-0.1
			c-1.2,0-2,0.9-2.2,2.1c0,0.2-0.1,0.5-0.1,0.8v4.9h-1.7V162.5z"/>
		<path d="M486.5,164.1c0,3.4-2.4,4.9-4.6,4.9c-2.5,0-4.4-1.8-4.4-4.7c0-3.1,2-4.9,4.6-4.9C484.7,159.4,486.5,161.3,486.5,164.1z
			 M479.2,164.2c0,2,1.2,3.5,2.8,3.5c1.6,0,2.8-1.5,2.8-3.6c0-1.6-0.8-3.5-2.8-3.5C480,160.6,479.2,162.5,479.2,164.2z"/>
		<path d="M496.3,166.3c0,1,0,1.8,0.1,2.5h-1.5l-0.1-1.5h0c-0.4,0.7-1.4,1.7-3,1.7c-1.4,0-3.2-0.8-3.2-4v-5.4h1.7v5.1
			c0,1.7,0.5,2.9,2.1,2.9c1.1,0,1.9-0.8,2.2-1.5c0.1-0.2,0.2-0.6,0.2-0.9v-5.6h1.7V166.3z"/>
		<path d="M501.1,157v2.6h2.4v1.3h-2.4v5c0,1.1,0.3,1.8,1.3,1.8c0.4,0,0.8-0.1,1-0.1l0.1,1.3c-0.3,0.1-0.8,0.2-1.5,0.2
			c-0.8,0-1.4-0.2-1.8-0.7c-0.5-0.5-0.6-1.3-0.6-2.4v-5H498v-1.3h1.4v-2.2L501.1,157z"/>
		<path d="M507.2,157c0,0.6-0.4,1-1.1,1c-0.6,0-1-0.5-1-1c0-0.6,0.4-1,1-1C506.8,156,507.2,156.4,507.2,157z M505.4,168.8v-9.2h1.7
			v9.2H505.4z"/>
		<path d="M509.8,162.1c0-1,0-1.7-0.1-2.5h1.5l0.1,1.5h0c0.5-0.9,1.5-1.7,3-1.7c1.3,0,3.3,0.8,3.3,3.9v5.5H516v-5.3
			c0-1.5-0.6-2.7-2.1-2.7c-1.1,0-2,0.8-2.2,1.7c-0.1,0.2-0.1,0.5-0.1,0.8v5.5h-1.7V162.1z"/>
		<path d="M528.3,159.6c0,0.7-0.1,1.4-0.1,2.5v5.3c0,2.1-0.4,3.4-1.3,4.2c-0.9,0.8-2.2,1.1-3.3,1.1c-1.1,0-2.3-0.3-3.1-0.8l0.4-1.3
			c0.6,0.4,1.6,0.7,2.7,0.7c1.7,0,3-0.9,3-3.2v-1h0c-0.5,0.9-1.5,1.5-2.9,1.5c-2.3,0-3.9-1.9-3.9-4.5c0-3.1,2-4.9,4.1-4.9
			c1.6,0,2.5,0.8,2.9,1.6h0l0.1-1.4H528.3z M526.6,163.2c0-0.3,0-0.5-0.1-0.8c-0.3-1-1.1-1.8-2.3-1.8c-1.6,0-2.7,1.4-2.7,3.5
			c0,1.8,0.9,3.3,2.7,3.3c1,0,2-0.6,2.3-1.7c0.1-0.3,0.1-0.6,0.1-0.9V163.2z"/>
	</g>
	<g>
		<path d="M593.8,165.2c-0.6,0.3-1.8,0.6-3.4,0.6c-3.6,0-6.3-2.3-6.3-6.5c0-4,2.7-6.7,6.7-6.7c1.6,0,2.6,0.3,3,0.6l-0.4,1.4
			c-0.6-0.3-1.5-0.5-2.6-0.5c-3,0-5,1.9-5,5.3c0,3.1,1.8,5.2,4.9,5.2c1,0,2-0.2,2.7-0.5L593.8,165.2z"/>
		<path d="M603.9,161c0,3.4-2.4,4.9-4.6,4.9c-2.5,0-4.4-1.8-4.4-4.7c0-3.1,2-4.9,4.6-4.9C602.1,156.2,603.9,158.1,603.9,161z
			 M596.6,161c0,2,1.2,3.5,2.8,3.5c1.6,0,2.8-1.5,2.8-3.6c0-1.6-0.8-3.5-2.8-3.5C597.5,157.5,596.6,159.3,596.6,161z"/>
		<path d="M606,158.9c0-1,0-1.7-0.1-2.5h1.5l0.1,1.5h0.1c0.5-0.9,1.4-1.7,2.9-1.7c1.3,0,2.2,0.8,2.6,1.8h0c0.3-0.5,0.6-0.9,1-1.2
			c0.6-0.4,1.2-0.6,2-0.6c1.2,0,3,0.8,3,4v5.4h-1.6v-5.2c0-1.8-0.6-2.8-2-2.8c-1,0-1.7,0.7-2,1.5c-0.1,0.2-0.1,0.5-0.1,0.8v5.7h-1.6
			v-5.5c0-1.5-0.6-2.5-1.9-2.5c-1,0-1.8,0.8-2.1,1.7c-0.1,0.2-0.1,0.5-0.1,0.8v5.6H606V158.9z"/>
		<path d="M621.9,158.9c0-1,0-1.7-0.1-2.5h1.5l0.1,1.5h0.1c0.5-0.9,1.4-1.7,2.9-1.7c1.3,0,2.2,0.8,2.6,1.8h0c0.3-0.5,0.6-0.9,1-1.2
			c0.6-0.4,1.2-0.6,2-0.6c1.2,0,3,0.8,3,4v5.4h-1.6v-5.2c0-1.8-0.6-2.8-2-2.8c-1,0-1.7,0.7-2,1.5c-0.1,0.2-0.1,0.5-0.1,0.8v5.7h-1.6
			v-5.5c0-1.5-0.6-2.5-1.9-2.5c-1,0-1.8,0.8-2.1,1.7c-0.1,0.2-0.1,0.5-0.1,0.8v5.6h-1.6V158.9z"/>
		<path d="M645.5,163.1c0,1,0,1.8,0.1,2.5h-1.5l-0.1-1.5h0c-0.4,0.7-1.4,1.7-3,1.7c-1.4,0-3.2-0.8-3.2-4v-5.4h1.7v5.1
			c0,1.7,0.5,2.9,2.1,2.9c1.1,0,1.9-0.8,2.2-1.5c0.1-0.2,0.2-0.6,0.2-0.9v-5.6h1.7V163.1z"/>
		<path d="M648.3,158.9c0-1,0-1.7-0.1-2.5h1.5l0.1,1.5h0c0.5-0.9,1.5-1.7,3-1.7c1.3,0,3.3,0.8,3.3,3.9v5.5h-1.7v-5.3
			c0-1.5-0.6-2.7-2.1-2.7c-1.1,0-2,0.8-2.2,1.7c-0.1,0.2-0.1,0.5-0.1,0.8v5.5h-1.7V158.9z"/>
		<path d="M660.7,153.8c0,0.6-0.4,1-1.1,1c-0.6,0-1-0.5-1-1c0-0.6,0.4-1,1-1C660.3,152.8,660.7,153.3,660.7,153.8z M658.8,165.6
			v-9.2h1.7v9.2H658.8z"/>
		<path d="M665.3,153.8v2.6h2.4v1.3h-2.4v5c0,1.1,0.3,1.8,1.3,1.8c0.4,0,0.8-0.1,1-0.1l0.1,1.3c-0.3,0.1-0.8,0.2-1.5,0.2
			c-0.8,0-1.4-0.2-1.8-0.7c-0.5-0.5-0.6-1.3-0.6-2.4v-5h-1.4v-1.3h1.4v-2.2L665.3,153.8z"/>
		<path d="M670.3,156.4l2,5.4c0.2,0.6,0.4,1.3,0.6,1.9h0c0.2-0.6,0.4-1.3,0.6-1.9l1.8-5.4h1.8l-2.5,6.6c-1.2,3.2-2,4.8-3.2,5.8
			c-0.8,0.7-1.6,1-2.1,1.1l-0.4-1.4c0.4-0.1,1-0.4,1.5-0.8c0.5-0.4,1-1,1.4-1.9c0.1-0.2,0.1-0.3,0.1-0.4c0-0.1,0-0.2-0.1-0.4
			l-3.4-8.5H670.3z"/>
		<path d="M683.7,161.3c0,2.3,1.5,3.2,3.2,3.2c1.2,0,1.9-0.2,2.5-0.5l0.3,1.2c-0.6,0.3-1.6,0.6-3.1,0.6c-2.8,0-4.5-1.9-4.5-4.6
			c0-2.8,1.6-5,4.3-5c3,0,3.8,2.6,3.8,4.3c0,0.3,0,0.6-0.1,0.8H683.7z M688.6,160.1c0-1.1-0.4-2.7-2.3-2.7c-1.7,0-2.4,1.6-2.6,2.7
			H688.6z"/>
		<path d="M693,156.4l1.3,2c0.3,0.5,0.6,1,0.9,1.5h0.1c0.3-0.6,0.6-1,0.9-1.5l1.3-2h1.8l-3.1,4.4l3.2,4.8h-1.9l-1.4-2.1
			c-0.4-0.5-0.7-1-1-1.6h0c-0.3,0.6-0.6,1-1,1.6l-1.3,2.1H691l3.3-4.7l-3.1-4.5H693z"/>
		<path d="M701.7,161.3c0,2.3,1.5,3.2,3.2,3.2c1.2,0,1.9-0.2,2.5-0.5l0.3,1.2c-0.6,0.3-1.6,0.6-3.1,0.6c-2.8,0-4.5-1.9-4.5-4.6
			c0-2.8,1.6-5,4.3-5c3,0,3.8,2.6,3.8,4.3c0,0.3,0,0.6-0.1,0.8H701.7z M706.6,160.1c0-1.1-0.4-2.7-2.3-2.7c-1.7,0-2.4,1.6-2.6,2.7
			H706.6z"/>
		<path d="M710.3,159.3c0-1.1,0-2-0.1-2.9h1.5l0.1,1.8h0.1c0.4-1.2,1.4-2,2.5-2c0.2,0,0.3,0,0.5,0.1v1.6c-0.2,0-0.3-0.1-0.6-0.1
			c-1.2,0-2,0.9-2.2,2.1c0,0.2-0.1,0.5-0.1,0.8v4.9h-1.7V159.3z"/>
		<path d="M722.9,165.3c-0.4,0.2-1.4,0.5-2.6,0.5c-2.8,0-4.6-1.9-4.6-4.7c0-2.8,1.9-4.9,4.9-4.9c1,0,1.9,0.2,2.3,0.5l-0.4,1.3
			c-0.4-0.2-1-0.4-1.9-0.4c-2.1,0-3.3,1.6-3.3,3.5c0,2.1,1.4,3.4,3.2,3.4c1,0,1.6-0.2,2.1-0.5L722.9,165.3z"/>
		<path d="M726.7,153.8c0,0.6-0.4,1-1.1,1c-0.6,0-1-0.5-1-1c0-0.6,0.4-1,1-1C726.3,152.8,726.7,153.3,726.7,153.8z M724.8,165.6
			v-9.2h1.7v9.2H724.8z"/>
		<path d="M729.1,163.9c0.5,0.3,1.4,0.7,2.2,0.7c1.2,0,1.8-0.6,1.8-1.4c0-0.8-0.5-1.2-1.7-1.7c-1.7-0.6-2.4-1.5-2.4-2.6
			c0-1.5,1.2-2.7,3.2-2.7c0.9,0,1.7,0.3,2.3,0.6l-0.4,1.2c-0.4-0.2-1-0.5-1.9-0.5c-1,0-1.5,0.6-1.5,1.3c0,0.8,0.6,1.1,1.8,1.6
			c1.6,0.6,2.4,1.4,2.4,2.8c0,1.6-1.3,2.8-3.4,2.8c-1,0-1.9-0.2-2.6-0.6L729.1,163.9z"/>
		<path d="M737.7,161.3c0,2.3,1.5,3.2,3.2,3.2c1.2,0,1.9-0.2,2.5-0.5l0.3,1.2c-0.6,0.3-1.6,0.6-3.1,0.6c-2.8,0-4.5-1.9-4.5-4.6
			c0-2.8,1.6-5,4.3-5c3,0,3.8,2.6,3.8,4.3c0,0.3,0,0.6-0.1,0.8H737.7z M742.7,160.1c0-1.1-0.4-2.7-2.3-2.7c-1.7,0-2.4,1.6-2.6,2.7
			H742.7z"/>
		<path d="M616.9,183.8c0,3.4-2.4,4.9-4.6,4.9c-2.5,0-4.4-1.8-4.4-4.7c0-3.1,2-4.9,4.6-4.9C615.1,179.1,616.9,181,616.9,183.8z
			 M609.6,183.9c0,2,1.2,3.5,2.8,3.5c1.6,0,2.8-1.5,2.8-3.6c0-1.6-0.8-3.5-2.8-3.5C610.4,180.3,609.6,182.1,609.6,183.9z"/>
		<path d="M619.2,188.5v-7.9h-1.3v-1.3h1.3v-0.4c0-1.3,0.3-2.5,1.1-3.2c0.6-0.6,1.5-0.9,2.2-0.9c0.6,0,1.1,0.1,1.4,0.3l-0.2,1.3
			c-0.2-0.1-0.6-0.2-1.1-0.2c-1.4,0-1.8,1.3-1.8,2.7v0.5h2.2v1.3h-2.2v7.9H619.2z"/>
		<path d="M630.6,176.6v2.6h2.4v1.3h-2.4v5c0,1.1,0.3,1.8,1.3,1.8c0.4,0,0.8-0.1,1-0.1l0.1,1.3c-0.3,0.1-0.8,0.2-1.5,0.2
			c-0.8,0-1.4-0.2-1.8-0.7c-0.5-0.5-0.6-1.3-0.6-2.4v-5h-1.4v-1.3h1.4v-2.2L630.6,176.6z"/>
		<path d="M643.1,183.8c0,3.4-2.4,4.9-4.6,4.9c-2.5,0-4.4-1.8-4.4-4.7c0-3.1,2-4.9,4.6-4.9C641.3,179.1,643.1,181,643.1,183.8z
			 M635.8,183.9c0,2,1.2,3.5,2.8,3.5c1.6,0,2.8-1.5,2.8-3.6c0-1.6-0.8-3.5-2.8-3.5C636.6,180.3,635.8,182.1,635.8,183.9z"/>
		<path d="M653.5,183.8c0,3.4-2.4,4.9-4.6,4.9c-2.5,0-4.4-1.8-4.4-4.7c0-3.1,2-4.9,4.6-4.9C651.8,179.1,653.5,181,653.5,183.8z
			 M646.2,183.9c0,2,1.2,3.5,2.8,3.5c1.6,0,2.8-1.5,2.8-3.6c0-1.6-0.8-3.5-2.8-3.5C647.1,180.3,646.2,182.1,646.2,183.9z"/>
		<path d="M655.7,175h1.7v13.5h-1.7V175z"/>
		<path d="M659.9,186.8c0.5,0.3,1.4,0.7,2.2,0.7c1.2,0,1.8-0.6,1.8-1.4c0-0.8-0.5-1.2-1.7-1.7c-1.7-0.6-2.4-1.5-2.4-2.6
			c0-1.5,1.2-2.7,3.2-2.7c0.9,0,1.7,0.3,2.3,0.6l-0.4,1.2c-0.4-0.2-1-0.5-1.9-0.5c-1,0-1.5,0.6-1.5,1.3c0,0.8,0.6,1.1,1.8,1.6
			c1.6,0.6,2.4,1.4,2.4,2.8c0,1.6-1.3,2.8-3.4,2.8c-1,0-1.9-0.2-2.6-0.6L659.9,186.8z"/>
		<path d="M679.8,188.5c-0.4-0.4-0.7-0.7-1.2-1.3c-1.1,1-2.3,1.5-3.7,1.5c-2.5,0-3.9-1.7-3.9-3.6c0-1.7,1-2.9,2.5-3.7v-0.1
			c-0.7-0.8-1.1-1.8-1.1-2.7c0-1.6,1.1-3.2,3.3-3.2c1.6,0,2.8,1.1,2.8,2.7c0,1.3-0.8,2.4-2.8,3.4v0.1c1.1,1.3,2.3,2.7,3.1,3.6
			c0.6-0.9,1-2.1,1.2-3.7h1.5c-0.3,2-0.9,3.6-1.8,4.7c0.7,0.7,1.4,1.4,2.1,2.3H679.8z M677.8,186.3c-0.8-0.8-2.2-2.4-3.6-4
			c-0.7,0.4-1.7,1.3-1.7,2.6c0,1.5,1.1,2.6,2.6,2.6C676.2,187.4,677.2,186.9,677.8,186.3z M673.9,178.4c0,0.9,0.4,1.6,1,2.3
			c1.3-0.7,2.1-1.4,2.1-2.5c0-0.8-0.4-1.7-1.5-1.7C674.4,176.6,673.9,177.5,673.9,178.4z"/>
		<path d="M695.2,175v11.1c0,0.8,0,1.8,0.1,2.4h-1.5l-0.1-1.6h0c-0.5,1-1.6,1.8-3.1,1.8c-2.2,0-3.9-1.9-3.9-4.7
			c0-3.1,1.9-4.9,4.1-4.9c1.4,0,2.4,0.7,2.8,1.4h0V175H695.2z M693.5,183c0-0.2,0-0.5-0.1-0.7c-0.2-1.1-1.2-1.9-2.4-1.9
			c-1.7,0-2.8,1.5-2.8,3.6c0,1.9,0.9,3.4,2.7,3.4c1.1,0,2.2-0.7,2.5-2c0.1-0.2,0.1-0.5,0.1-0.7V183z"/>
		<path d="M703.1,188.5l-0.1-1.2h-0.1c-0.5,0.7-1.5,1.4-2.8,1.4c-1.9,0-2.8-1.3-2.8-2.6c0-2.2,2-3.4,5.5-3.4v-0.2
			c0-0.8-0.2-2.1-2.1-2.1c-0.9,0-1.7,0.3-2.4,0.7l-0.4-1.1c0.8-0.5,1.9-0.8,3-0.8c2.8,0,3.5,1.9,3.5,3.8v3.4c0,0.8,0,1.6,0.2,2.2
			H703.1z M702.8,183.8c-1.8,0-3.9,0.3-3.9,2.1c0,1.1,0.7,1.6,1.6,1.6c1.2,0,2-0.8,2.2-1.5c0.1-0.2,0.1-0.4,0.1-0.5V183.8z"/>
		<path d="M709.1,176.6v2.6h2.4v1.3h-2.4v5c0,1.1,0.3,1.8,1.3,1.8c0.4,0,0.8-0.1,1-0.1l0.1,1.3c-0.3,0.1-0.8,0.2-1.5,0.2
			c-0.8,0-1.4-0.2-1.8-0.7c-0.5-0.5-0.6-1.3-0.6-2.4v-5H706v-1.3h1.4v-2.2L709.1,176.6z"/>
		<path d="M718.5,188.5l-0.1-1.2h-0.1c-0.5,0.7-1.5,1.4-2.8,1.4c-1.9,0-2.8-1.3-2.8-2.6c0-2.2,2-3.4,5.5-3.4v-0.2
			c0-0.8-0.2-2.1-2.1-2.1c-0.9,0-1.7,0.3-2.4,0.7l-0.4-1.1c0.8-0.5,1.9-0.8,3-0.8c2.8,0,3.5,1.9,3.5,3.8v3.4c0,0.8,0,1.6,0.2,2.2
			H718.5z M718.2,183.8c-1.8,0-3.9,0.3-3.9,2.1c0,1.1,0.7,1.6,1.6,1.6c1.2,0,2-0.8,2.2-1.5c0.1-0.2,0.1-0.4,0.1-0.5V183.8z"/>
	</g>
	<g>
		<path d="M586.8,209.4c1-0.2,2.2-0.3,3.5-0.3c2.4,0,4.1,0.6,5.2,1.6c1.1,1,1.8,2.5,1.8,4.6c0,2.1-0.6,3.8-1.8,5
			c-1.2,1.2-3.2,1.8-5.7,1.8c-1.2,0-2.2-0.1-3-0.2V209.4z M588.4,220.7c0.4,0.1,1,0.1,1.7,0.1c3.5,0,5.5-2,5.5-5.4
			c0-3-1.7-4.9-5.2-4.9c-0.9,0-1.5,0.1-1.9,0.2V220.7z"/>
		<path d="M604.5,222l-0.1-1.2h-0.1c-0.5,0.7-1.5,1.4-2.8,1.4c-1.9,0-2.8-1.3-2.8-2.6c0-2.2,2-3.4,5.5-3.4V216
			c0-0.8-0.2-2.1-2.1-2.1c-0.9,0-1.8,0.3-2.4,0.7l-0.4-1.1c0.8-0.5,1.9-0.8,3-0.8c2.8,0,3.5,1.9,3.5,3.8v3.4c0,0.8,0,1.6,0.2,2.2
			H604.5z M604.2,217.3c-1.8,0-3.9,0.3-3.9,2.1c0,1.1,0.7,1.6,1.6,1.6c1.2,0,2-0.8,2.2-1.5c0.1-0.2,0.1-0.4,0.1-0.5V217.3z"/>
		<path d="M610.5,210.2v2.6h2.4v1.3h-2.4v5c0,1.1,0.3,1.8,1.3,1.8c0.4,0,0.8-0.1,1-0.1l0.1,1.3c-0.3,0.1-0.8,0.2-1.5,0.2
			c-0.8,0-1.4-0.2-1.8-0.7c-0.5-0.5-0.6-1.3-0.6-2.4v-5h-1.4v-1.3h1.4v-2.2L610.5,210.2z"/>
		<path d="M619.9,222l-0.1-1.2h-0.1c-0.5,0.7-1.5,1.4-2.8,1.4c-1.9,0-2.8-1.3-2.8-2.6c0-2.2,2-3.4,5.5-3.4V216
			c0-0.8-0.2-2.1-2.1-2.1c-0.9,0-1.7,0.3-2.4,0.7l-0.4-1.1c0.8-0.5,1.9-0.8,3-0.8c2.8,0,3.5,1.9,3.5,3.8v3.4c0,0.8,0,1.6,0.2,2.2
			H619.9z M619.6,217.3c-1.8,0-3.9,0.3-3.9,2.1c0,1.1,0.7,1.6,1.6,1.6c1.2,0,2-0.8,2.2-1.5c0.1-0.2,0.1-0.4,0.1-0.5V217.3z"/>
		<path d="M635.7,219.5c0,1,0,1.8,0.1,2.5h-1.5l-0.1-1.5h0c-0.4,0.7-1.4,1.7-3,1.7c-1.4,0-3.2-0.8-3.2-4v-5.4h1.7v5.1
			c0,1.7,0.5,2.9,2.1,2.9c1.1,0,1.9-0.8,2.2-1.5c0.1-0.2,0.2-0.6,0.2-0.9v-5.6h1.7V219.5z"/>
		<path d="M638.2,220.3c0.5,0.3,1.4,0.7,2.2,0.7c1.2,0,1.8-0.6,1.8-1.4c0-0.8-0.5-1.2-1.7-1.7c-1.7-0.6-2.4-1.5-2.4-2.6
			c0-1.5,1.2-2.7,3.2-2.7c0.9,0,1.7,0.3,2.3,0.6l-0.4,1.2c-0.4-0.2-1-0.5-1.9-0.5c-1,0-1.5,0.6-1.5,1.3c0,0.8,0.6,1.1,1.8,1.6
			c1.6,0.6,2.4,1.4,2.4,2.8c0,1.6-1.3,2.8-3.4,2.8c-1,0-1.9-0.2-2.6-0.6L638.2,220.3z"/>
		<path d="M651.1,222l-0.1-1.2h-0.1c-0.5,0.7-1.5,1.4-2.8,1.4c-1.9,0-2.8-1.3-2.8-2.6c0-2.2,2-3.4,5.5-3.4V216
			c0-0.8-0.2-2.1-2.1-2.1c-0.9,0-1.7,0.3-2.4,0.7l-0.4-1.1c0.8-0.5,1.9-0.8,3-0.8c2.8,0,3.5,1.9,3.5,3.8v3.4c0,0.8,0,1.6,0.2,2.2
			H651.1z M650.8,217.3c-1.8,0-3.9,0.3-3.9,2.1c0,1.1,0.7,1.6,1.6,1.6c1.2,0,2-0.8,2.2-1.5c0.1-0.2,0.1-0.4,0.1-0.5V217.3z"/>
		<path d="M663.1,212.8c0,0.7-0.1,1.4-0.1,2.5v5.3c0,2.1-0.4,3.4-1.3,4.2c-0.9,0.8-2.2,1.1-3.3,1.1c-1.1,0-2.3-0.3-3.1-0.8l0.4-1.3
			c0.6,0.4,1.6,0.7,2.7,0.7c1.7,0,3-0.9,3-3.2v-1h0c-0.5,0.9-1.5,1.5-2.9,1.5c-2.3,0-3.9-1.9-3.9-4.5c0-3.1,2-4.9,4.1-4.9
			c1.6,0,2.5,0.8,2.9,1.6h0l0.1-1.4H663.1z M661.4,216.5c0-0.3,0-0.5-0.1-0.8c-0.3-1-1.1-1.8-2.3-1.8c-1.6,0-2.7,1.4-2.7,3.5
			c0,1.8,0.9,3.3,2.7,3.3c1,0,2-0.6,2.3-1.7c0.1-0.3,0.1-0.6,0.1-0.9V216.5z"/>
		<path d="M666.7,217.7c0,2.3,1.5,3.2,3.2,3.2c1.2,0,1.9-0.2,2.5-0.5l0.3,1.2c-0.6,0.3-1.6,0.6-3.1,0.6c-2.8,0-4.5-1.9-4.5-4.6
			s1.6-5,4.3-5c3,0,3.8,2.6,3.8,4.3c0,0.3,0,0.6-0.1,0.8H666.7z M671.6,216.5c0-1.1-0.4-2.7-2.3-2.7c-1.7,0-2.4,1.6-2.6,2.7H671.6z"
			/>
		<path d="M681.4,210.2v2.6h2.4v1.3h-2.4v5c0,1.1,0.3,1.8,1.3,1.8c0.4,0,0.8-0.1,1-0.1l0.1,1.3c-0.3,0.1-0.8,0.2-1.5,0.2
			c-0.8,0-1.4-0.2-1.8-0.7c-0.5-0.5-0.6-1.3-0.6-2.4v-5h-1.4v-1.3h1.4v-2.2L681.4,210.2z"/>
		<path d="M685.7,215.7c0-1.1,0-2-0.1-2.9h1.5l0.1,1.8h0.1c0.4-1.2,1.4-2,2.6-2c0.2,0,0.3,0,0.5,0.1v1.6c-0.2,0-0.3-0.1-0.6-0.1
			c-1.2,0-2,0.9-2.2,2.1c0,0.2-0.1,0.5-0.1,0.8v4.9h-1.7V215.7z"/>
		<path d="M696.9,222l-0.1-1.2h-0.1c-0.5,0.7-1.5,1.4-2.8,1.4c-1.9,0-2.8-1.3-2.8-2.6c0-2.2,2-3.4,5.5-3.4V216
			c0-0.8-0.2-2.1-2.1-2.1c-0.9,0-1.8,0.3-2.4,0.7l-0.4-1.1c0.8-0.5,1.9-0.8,3-0.8c2.8,0,3.5,1.9,3.5,3.8v3.4c0,0.8,0,1.6,0.2,2.2
			H696.9z M696.7,217.3c-1.8,0-3.9,0.3-3.9,2.1c0,1.1,0.7,1.6,1.6,1.6c1.2,0,2-0.8,2.2-1.5c0.1-0.2,0.1-0.4,0.1-0.5V217.3z"/>
		<path d="M707.5,221.7c-0.4,0.2-1.4,0.5-2.6,0.5c-2.8,0-4.6-1.9-4.6-4.7c0-2.8,1.9-4.9,4.9-4.9c1,0,1.9,0.2,2.3,0.5l-0.4,1.3
			c-0.4-0.2-1-0.4-1.9-0.4c-2.1,0-3.3,1.6-3.3,3.5c0,2.1,1.4,3.4,3.2,3.4c1,0,1.6-0.2,2.1-0.5L707.5,221.7z"/>
		<path d="M711.2,217.1L711.2,217.1c0.3-0.3,0.6-0.7,0.9-1l2.7-3.2h2l-3.6,3.8l4.1,5.4h-2l-3.2-4.4l-0.9,1v3.5h-1.7v-13.5h1.7V217.1
			z"/>
		<path d="M720.6,210.2c0,0.6-0.4,1-1.1,1c-0.6,0-1-0.5-1-1c0-0.6,0.4-1,1-1C720.2,209.2,720.6,209.7,720.6,210.2z M718.7,222v-9.2
			h1.7v9.2H718.7z"/>
		<path d="M723.2,215.3c0-1,0-1.7-0.1-2.5h1.5l0.1,1.5h0c0.5-0.9,1.5-1.7,3-1.7c1.3,0,3.3,0.8,3.3,3.9v5.5h-1.7v-5.3
			c0-1.5-0.6-2.7-2.1-2.7c-1.1,0-2,0.8-2.2,1.7c-0.1,0.2-0.1,0.5-0.1,0.8v5.5h-1.7V215.3z"/>
		<path d="M741.7,212.8c0,0.7-0.1,1.4-0.1,2.5v5.3c0,2.1-0.4,3.4-1.3,4.2c-0.9,0.8-2.2,1.1-3.3,1.1c-1.1,0-2.3-0.3-3.1-0.8l0.4-1.3
			c0.6,0.4,1.6,0.7,2.7,0.7c1.7,0,3-0.9,3-3.2v-1h0c-0.5,0.9-1.5,1.5-2.9,1.5c-2.3,0-3.9-1.9-3.9-4.5c0-3.1,2-4.9,4.1-4.9
			c1.6,0,2.5,0.8,2.9,1.6h0l0.1-1.4H741.7z M740,216.5c0-0.3,0-0.5-0.1-0.8c-0.3-1-1.1-1.8-2.3-1.8c-1.6,0-2.7,1.4-2.7,3.5
			c0,1.8,0.9,3.3,2.7,3.3c1,0,2-0.6,2.3-1.7c0.1-0.3,0.1-0.6,0.1-0.9V216.5z"/>
	</g>
	<g>
		<path d="M606.4,255.7c-0.6,0.3-1.8,0.6-3.4,0.6c-3.6,0-6.3-2.3-6.3-6.5c0-4,2.7-6.7,6.7-6.7c1.6,0,2.6,0.3,3,0.6l-0.4,1.4
			c-0.6-0.3-1.5-0.5-2.6-0.5c-3,0-5,1.9-5,5.3c0,3.1,1.8,5.2,4.9,5.2c1,0,2-0.2,2.7-0.5L606.4,255.7z"/>
		<path d="M616.6,251.5c0,3.4-2.4,4.9-4.6,4.9c-2.5,0-4.4-1.8-4.4-4.7c0-3.1,2-4.9,4.6-4.9C614.8,246.7,616.6,248.6,616.6,251.5z
			 M609.3,251.6c0,2,1.2,3.5,2.8,3.5c1.6,0,2.8-1.5,2.8-3.6c0-1.6-0.8-3.5-2.8-3.5C610.1,248,609.3,249.8,609.3,251.6z"/>
		<path d="M618.7,249.4c0-1,0-1.7-0.1-2.5h1.5l0.1,1.5h0.1c0.5-0.9,1.4-1.7,2.9-1.7c1.3,0,2.2,0.8,2.6,1.8h0c0.3-0.5,0.6-0.9,1-1.2
			c0.6-0.4,1.2-0.6,2-0.6c1.2,0,3,0.8,3,4v5.4h-1.6v-5.2c0-1.8-0.6-2.8-2-2.8c-1,0-1.7,0.7-2,1.5c-0.1,0.2-0.1,0.5-0.1,0.8v5.7h-1.6
			v-5.5c0-1.5-0.6-2.5-1.9-2.5c-1,0-1.8,0.8-2.1,1.7c-0.1,0.2-0.1,0.5-0.1,0.8v5.6h-1.6V249.4z"/>
		<path d="M634.6,249.4c0-1,0-1.7-0.1-2.5h1.5l0.1,1.5h0.1c0.5-0.9,1.4-1.7,2.9-1.7c1.3,0,2.2,0.8,2.6,1.8h0c0.3-0.5,0.6-0.9,1-1.2
			c0.6-0.4,1.2-0.6,2-0.6c1.2,0,3,0.8,3,4v5.4h-1.6v-5.2c0-1.8-0.6-2.8-2-2.8c-1,0-1.7,0.7-2,1.5c-0.1,0.2-0.1,0.5-0.1,0.8v5.7h-1.6
			v-5.5c0-1.5-0.6-2.5-1.9-2.5c-1,0-1.8,0.8-2.1,1.7c-0.1,0.2-0.1,0.5-0.1,0.8v5.6h-1.6V249.4z"/>
		<path d="M658.1,253.6c0,1,0,1.8,0.1,2.5h-1.5l-0.1-1.5h0c-0.4,0.7-1.4,1.7-3,1.7c-1.4,0-3.2-0.8-3.2-4v-5.4h1.7v5.1
			c0,1.7,0.5,2.9,2.1,2.9c1.1,0,1.9-0.8,2.2-1.5c0.1-0.2,0.2-0.6,0.2-0.9v-5.6h1.7V253.6z"/>
		<path d="M660.9,249.4c0-1,0-1.7-0.1-2.5h1.5l0.1,1.5h0c0.5-0.9,1.5-1.7,3-1.7c1.3,0,3.3,0.8,3.3,3.9v5.5h-1.7v-5.3
			c0-1.5-0.6-2.7-2.1-2.7c-1.1,0-2,0.8-2.2,1.7c-0.1,0.2-0.1,0.5-0.1,0.8v5.5h-1.7V249.4z"/>
		<path d="M673.3,244.3c0,0.6-0.4,1-1.1,1c-0.6,0-1-0.5-1-1c0-0.6,0.4-1,1-1C672.9,243.3,673.3,243.8,673.3,244.3z M671.5,256.1
			v-9.2h1.7v9.2H671.5z"/>
		<path d="M677.9,244.3v2.6h2.4v1.3h-2.4v5c0,1.1,0.3,1.8,1.3,1.8c0.4,0,0.8-0.1,1-0.1l0.1,1.3c-0.3,0.1-0.8,0.2-1.5,0.2
			c-0.8,0-1.4-0.2-1.8-0.7c-0.5-0.5-0.6-1.3-0.6-2.4v-5h-1.4v-1.3h1.4v-2.2L677.9,244.3z"/>
		<path d="M683,246.9l2,5.4c0.2,0.6,0.4,1.3,0.6,1.9h0c0.2-0.6,0.4-1.3,0.6-1.9l1.8-5.4h1.8l-2.5,6.6c-1.2,3.2-2,4.8-3.2,5.8
			c-0.8,0.7-1.6,1-2.1,1.1l-0.4-1.4c0.4-0.1,1-0.4,1.5-0.8c0.5-0.4,1-1,1.4-1.9c0.1-0.2,0.1-0.3,0.1-0.4c0-0.1,0-0.2-0.1-0.4
			l-3.4-8.5H683z"/>
		<path d="M695.2,250.4v1.2h-4.7v-1.2H695.2z"/>
		<path d="M697.1,256.1c0-0.6,0.1-1.6,0.1-2.4v-11.1h1.7v5.8h0c0.6-1,1.7-1.7,3.1-1.7c2.3,0,3.9,1.9,3.9,4.7c0,3.3-2.1,4.9-4.1,4.9
			c-1.3,0-2.4-0.5-3.1-1.7h-0.1l-0.1,1.5H697.1z M698.8,252.4c0,0.2,0,0.4,0.1,0.6c0.3,1.2,1.3,2,2.5,2c1.7,0,2.8-1.4,2.8-3.5
			c0-1.8-1-3.4-2.7-3.4c-1.1,0-2.2,0.8-2.5,2.1c0,0.2-0.1,0.4-0.1,0.7V252.4z"/>
		<path d="M715.7,253.6c0,1,0,1.8,0.1,2.5h-1.5l-0.1-1.5h0c-0.4,0.7-1.4,1.7-3,1.7c-1.4,0-3.2-0.8-3.2-4v-5.4h1.7v5.1
			c0,1.7,0.5,2.9,2.1,2.9c1.1,0,1.9-0.8,2.2-1.5c0.1-0.2,0.2-0.6,0.2-0.9v-5.6h1.7V253.6z"/>
		<path d="M720.3,244.3c0,0.6-0.4,1-1.1,1c-0.6,0-1-0.5-1-1c0-0.6,0.4-1,1-1C719.9,243.3,720.3,243.8,720.3,244.3z M718.4,256.1
			v-9.2h1.7v9.2H718.4z"/>
		<path d="M722.9,242.6h1.7v13.5h-1.7V242.6z"/>
		<path d="M729.4,244.3v2.6h2.4v1.3h-2.4v5c0,1.1,0.3,1.8,1.3,1.8c0.4,0,0.8-0.1,1-0.1l0.1,1.3c-0.3,0.1-0.8,0.2-1.5,0.2
			c-0.8,0-1.4-0.2-1.8-0.7c-0.5-0.5-0.6-1.3-0.6-2.4v-5h-1.4v-1.3h1.4v-2.2L729.4,244.3z"/>
		<path d="M586.4,274.7c0,2.3,1.5,3.2,3.2,3.2c1.2,0,1.9-0.2,2.5-0.5l0.3,1.2c-0.6,0.3-1.6,0.6-3.1,0.6c-2.8,0-4.5-1.9-4.5-4.6
			c0-2.8,1.6-5,4.3-5c3,0,3.8,2.6,3.8,4.3c0,0.3,0,0.6-0.1,0.8H586.4z M591.3,273.5c0-1.1-0.4-2.7-2.3-2.7c-1.7,0-2.4,1.6-2.6,2.7
			H591.3z"/>
		<path d="M595.7,269.8l1.3,2c0.3,0.5,0.6,1,0.9,1.5h0.1c0.3-0.6,0.6-1,0.9-1.5l1.3-2h1.8l-3.1,4.5l3.2,4.8h-1.9l-1.4-2.1
			c-0.4-0.5-0.7-1-1-1.6h0c-0.3,0.6-0.6,1-1,1.6l-1.3,2.1h-1.8l3.3-4.7l-3.1-4.5H595.7z"/>
		<path d="M606,267.1v2.6h2.4v1.3H606v5c0,1.1,0.3,1.8,1.3,1.8c0.4,0,0.8-0.1,1-0.1l0.1,1.3c-0.3,0.1-0.8,0.2-1.5,0.2
			c-0.8,0-1.4-0.2-1.8-0.7c-0.5-0.5-0.6-1.3-0.6-2.4v-5h-1.4v-1.3h1.4v-2.2L606,267.1z"/>
		<path d="M611.1,274.7c0,2.3,1.5,3.2,3.2,3.2c1.2,0,1.9-0.2,2.5-0.5l0.3,1.2c-0.6,0.3-1.6,0.6-3.1,0.6c-2.8,0-4.5-1.9-4.5-4.6
			c0-2.8,1.6-5,4.3-5c3,0,3.8,2.6,3.8,4.3c0,0.3,0,0.6-0.1,0.8H611.1z M616,273.5c0-1.1-0.4-2.7-2.3-2.7c-1.7,0-2.4,1.6-2.6,2.7H616
			z"/>
		<path d="M619.7,272.3c0-1,0-1.7-0.1-2.5h1.5l0.1,1.5h0c0.5-0.9,1.5-1.7,3-1.7c1.3,0,3.3,0.8,3.3,3.9v5.5h-1.7v-5.3
			c0-1.5-0.6-2.7-2.1-2.7c-1.1,0-2,0.8-2.2,1.7c-0.1,0.2-0.1,0.5-0.1,0.8v5.5h-1.7V272.3z"/>
		<path d="M630,277.3c0.5,0.3,1.4,0.7,2.2,0.7c1.2,0,1.8-0.6,1.8-1.4c0-0.8-0.5-1.2-1.7-1.7c-1.7-0.6-2.4-1.5-2.4-2.6
			c0-1.5,1.2-2.7,3.2-2.7c0.9,0,1.8,0.3,2.3,0.6l-0.4,1.2c-0.4-0.2-1-0.5-1.9-0.5c-1,0-1.5,0.6-1.5,1.3c0,0.8,0.6,1.1,1.7,1.6
			c1.6,0.6,2.4,1.4,2.4,2.8c0,1.6-1.3,2.8-3.4,2.8c-1,0-1.9-0.2-2.6-0.6L630,277.3z"/>
		<path d="M639.7,267.2c0,0.6-0.4,1-1.1,1c-0.6,0-1-0.5-1-1c0-0.6,0.4-1,1-1C639.3,266.1,639.7,266.6,639.7,267.2z M637.8,279v-9.2
			h1.7v9.2H637.8z"/>
		<path d="M650.6,274.3c0,3.4-2.4,4.9-4.6,4.9c-2.5,0-4.4-1.8-4.4-4.7c0-3.1,2-4.9,4.6-4.9C648.8,269.6,650.6,271.5,650.6,274.3z
			 M643.3,274.4c0,2,1.2,3.5,2.8,3.5c1.6,0,2.8-1.5,2.8-3.6c0-1.6-0.8-3.5-2.8-3.5C644.1,270.8,643.3,272.6,643.3,274.4z"/>
		<path d="M652.7,272.3c0-1,0-1.7-0.1-2.5h1.5l0.1,1.5h0c0.5-0.9,1.5-1.7,3-1.7c1.3,0,3.3,0.8,3.3,3.9v5.5h-1.7v-5.3
			c0-1.5-0.6-2.7-2.1-2.7c-1.1,0-2,0.8-2.2,1.7c-0.1,0.2-0.1,0.5-0.1,0.8v5.5h-1.7V272.3z"/>
		<path d="M663,277.3c0.5,0.3,1.4,0.7,2.2,0.7c1.2,0,1.8-0.6,1.8-1.4c0-0.8-0.5-1.2-1.7-1.7c-1.7-0.6-2.4-1.5-2.4-2.6
			c0-1.5,1.2-2.7,3.2-2.7c0.9,0,1.7,0.3,2.3,0.6l-0.4,1.2c-0.4-0.2-1-0.5-1.9-0.5c-1,0-1.5,0.6-1.5,1.3c0,0.8,0.6,1.1,1.8,1.6
			c1.6,0.6,2.4,1.4,2.4,2.8c0,1.6-1.3,2.8-3.4,2.8c-1,0-1.9-0.2-2.6-0.6L663,277.3z"/>
		<path d="M678.5,265.8c-1.4,1.9-2.4,4.3-2.4,7.8c0,3.4,1,5.8,2.4,7.7h-1.3c-1.2-1.6-2.5-4-2.5-7.7c0-3.7,1.3-6.2,2.5-7.8H678.5z"/>
		<path d="M681.2,274.7c0,2.3,1.5,3.2,3.2,3.2c1.2,0,1.9-0.2,2.5-0.5l0.3,1.2c-0.6,0.3-1.6,0.6-3.1,0.6c-2.8,0-4.5-1.9-4.5-4.6
			c0-2.8,1.6-5,4.3-5c3,0,3.8,2.6,3.8,4.3c0,0.3,0,0.6-0.1,0.8H681.2z M686.1,273.5c0-1.1-0.4-2.7-2.3-2.7c-1.7,0-2.4,1.6-2.6,2.7
			H686.1z"/>
		<path d="M697.7,269.8c0,0.7-0.1,1.4-0.1,2.5v5.3c0,2.1-0.4,3.4-1.3,4.2c-0.9,0.8-2.2,1.1-3.3,1.1c-1.1,0-2.3-0.3-3.1-0.8l0.4-1.3
			c0.6,0.4,1.6,0.7,2.7,0.7c1.7,0,3-0.9,3-3.2v-1h0c-0.5,0.9-1.5,1.5-2.9,1.5c-2.3,0-3.9-1.9-3.9-4.5c0-3.1,2-4.9,4.1-4.9
			c1.6,0,2.5,0.8,2.9,1.6h0l0.1-1.4H697.7z M696,273.4c0-0.3,0-0.5-0.1-0.8c-0.3-1-1.1-1.8-2.3-1.8c-1.6,0-2.7,1.3-2.7,3.5
			c0,1.8,0.9,3.3,2.7,3.3c1,0,2-0.6,2.3-1.7c0.1-0.3,0.1-0.6,0.1-0.9V273.4z"/>
		<path d="M704.4,272.3c0-1,0-1.7-0.1-2.5h1.5l0.1,1.5h0.1c0.5-0.9,1.4-1.7,2.9-1.7c1.3,0,2.2,0.8,2.6,1.8h0c0.3-0.5,0.6-0.9,1-1.2
			c0.6-0.4,1.2-0.6,2-0.6c1.2,0,3,0.8,3,4v5.4h-1.6v-5.2c0-1.8-0.6-2.8-2-2.8c-1,0-1.7,0.7-2,1.5c-0.1,0.2-0.1,0.5-0.1,0.8v5.7h-1.6
			v-5.5c0-1.5-0.6-2.5-1.9-2.5c-1,0-1.8,0.8-2.1,1.7c-0.1,0.2-0.1,0.5-0.1,0.8v5.6h-1.6V272.3z"/>
		<path d="M725.4,279l-0.1-1.2h-0.1c-0.5,0.7-1.5,1.4-2.8,1.4c-1.9,0-2.8-1.3-2.8-2.6c0-2.2,2-3.4,5.5-3.4v-0.2
			c0-0.8-0.2-2.1-2.1-2.1c-0.9,0-1.8,0.3-2.4,0.7l-0.4-1.1c0.8-0.5,1.9-0.8,3-0.8c2.8,0,3.5,1.9,3.5,3.8v3.4c0,0.8,0,1.6,0.2,2.2
			H725.4z M725.2,274.3c-1.8,0-3.9,0.3-3.9,2.1c0,1.1,0.7,1.6,1.6,1.6c1.2,0,2-0.8,2.2-1.5c0.1-0.2,0.1-0.4,0.1-0.5V274.3z"/>
		<path d="M729.5,272.8c0-1.2,0-2.1-0.1-3h1.5l0.1,1.6h0c0.7-1.1,1.8-1.8,3.3-1.8c2.2,0,3.9,1.9,3.9,4.7c0,3.3-2,4.9-4.2,4.9
			c-1.2,0-2.3-0.5-2.8-1.4h0v5h-1.7V272.8z M731.1,275.2c0,0.2,0,0.5,0.1,0.7c0.3,1.2,1.3,2,2.5,2c1.8,0,2.8-1.4,2.8-3.6
			c0-1.8-1-3.4-2.7-3.4c-1.1,0-2.2,0.8-2.5,2.1c-0.1,0.2-0.1,0.5-0.1,0.7V275.2z"/>
		<path d="M739.2,281.3c1.3-1.9,2.4-4.4,2.4-7.8c0-3.4-1-5.8-2.4-7.7h1.3c1.2,1.6,2.5,4,2.5,7.7c0,3.7-1.3,6.1-2.5,7.8H739.2z"/>
	</g>
	<g>
		<path d="M423,204.9c-0.6,0.3-1.8,0.6-3.4,0.6c-3.6,0-6.3-2.3-6.3-6.5c0-4,2.7-6.7,6.7-6.7c1.6,0,2.6,0.3,3,0.6l-0.4,1.4
			c-0.6-0.3-1.5-0.5-2.6-0.5c-3,0-5,1.9-5,5.3c0,3.1,1.8,5.2,4.9,5.2c1,0,2-0.2,2.7-0.5L423,204.9z"/>
		<path d="M433.1,200.6c0,3.4-2.4,4.9-4.6,4.9c-2.5,0-4.4-1.8-4.4-4.7c0-3.1,2-4.9,4.6-4.9C431.4,195.9,433.1,197.8,433.1,200.6z
			 M425.8,200.7c0,2,1.2,3.5,2.8,3.5c1.6,0,2.8-1.5,2.8-3.6c0-1.6-0.8-3.5-2.8-3.5C426.7,197.1,425.8,198.9,425.8,200.7z"/>
		<path d="M443,202.8c0,1,0,1.8,0.1,2.5h-1.5l-0.1-1.5h0c-0.4,0.7-1.4,1.7-3,1.7c-1.4,0-3.2-0.8-3.2-4v-5.4h1.7v5.1
			c0,1.7,0.5,2.9,2.1,2.9c1.1,0,1.9-0.8,2.2-1.5c0.1-0.2,0.2-0.6,0.2-0.9v-5.6h1.7V202.8z"/>
		<path d="M445.7,199.1c0-1.2,0-2.1-0.1-3h1.5l0.1,1.6h0c0.7-1.1,1.8-1.8,3.3-1.8c2.2,0,3.9,1.9,3.9,4.7c0,3.3-2,4.9-4.2,4.9
			c-1.2,0-2.3-0.5-2.8-1.4h0v5h-1.7V199.1z M447.4,201.5c0,0.2,0,0.5,0.1,0.7c0.3,1.2,1.3,2,2.5,2c1.8,0,2.8-1.4,2.8-3.6
			c0-1.8-1-3.4-2.7-3.4c-1.1,0-2.2,0.8-2.5,2.1c-0.1,0.2-0.1,0.5-0.1,0.7V201.5z"/>
		<path d="M456.6,191.8h1.7v13.5h-1.7V191.8z"/>
		<path d="M462.9,193.5c0,0.6-0.4,1-1.1,1c-0.6,0-1-0.5-1-1c0-0.6,0.4-1,1-1C462.5,192.4,462.9,192.9,462.9,193.5z M461.1,205.3
			v-9.2h1.7v9.2H461.1z"/>
		<path d="M465.5,198.6c0-1,0-1.7-0.1-2.5h1.5l0.1,1.5h0c0.5-0.9,1.5-1.7,3-1.7c1.3,0,3.3,0.8,3.3,3.9v5.5h-1.7V200
			c0-1.5-0.6-2.7-2.1-2.7c-1.1,0-2,0.8-2.2,1.7c-0.1,0.2-0.1,0.5-0.1,0.8v5.5h-1.7V198.6z"/>
		<path d="M484,196.1c0,0.7-0.1,1.4-0.1,2.5v5.3c0,2.1-0.4,3.4-1.3,4.2c-0.9,0.8-2.2,1.1-3.3,1.1c-1.1,0-2.3-0.3-3.1-0.8l0.4-1.3
			c0.6,0.4,1.6,0.7,2.7,0.7c1.7,0,3-0.9,3-3.2v-1h0c-0.5,0.9-1.5,1.5-2.9,1.5c-2.3,0-3.9-1.9-3.9-4.5c0-3.1,2-4.9,4.1-4.9
			c1.6,0,2.5,0.8,2.9,1.6h0l0.1-1.4H484z M482.3,199.7c0-0.3,0-0.5-0.1-0.8c-0.3-1-1.1-1.8-2.3-1.8c-1.6,0-2.7,1.4-2.7,3.5
			c0,1.8,0.9,3.3,2.7,3.3c1,0,2-0.6,2.3-1.7c0.1-0.3,0.1-0.6,0.1-0.9V199.7z"/>
		<path d="M491.4,196.1l1.2,4.7c0.3,1,0.5,2,0.7,2.9h0.1c0.2-0.9,0.5-1.9,0.8-2.9l1.5-4.7h1.4l1.4,4.6c0.3,1.1,0.6,2.1,0.8,3h0.1
			c0.2-0.9,0.4-1.9,0.7-3l1.3-4.6h1.7l-3,9.2h-1.5l-1.4-4.4c-0.3-1-0.6-1.9-0.8-3h0c-0.2,1.1-0.5,2.1-0.8,3l-1.5,4.4h-1.5l-2.8-9.2
			H491.4z"/>
		<path d="M506.6,193.5c0,0.6-0.4,1-1.1,1c-0.6,0-1-0.5-1-1c0-0.6,0.4-1,1-1C506.2,192.4,506.6,192.9,506.6,193.5z M504.8,205.3
			v-9.2h1.7v9.2H504.8z"/>
		<path d="M511.2,193.4v2.6h2.4v1.3h-2.4v5c0,1.1,0.3,1.8,1.3,1.8c0.4,0,0.8-0.1,1-0.1l0.1,1.3c-0.3,0.1-0.8,0.2-1.5,0.2
			c-0.8,0-1.4-0.2-1.8-0.7c-0.5-0.5-0.6-1.3-0.6-2.4v-5h-1.4v-1.3h1.4v-2.2L511.2,193.4z"/>
		<path d="M515.5,191.8h1.7v5.7h0c0.3-0.5,0.7-0.9,1.2-1.2c0.5-0.3,1.1-0.5,1.7-0.5c1.2,0,3.2,0.8,3.2,3.9v5.5h-1.7V200
			c0-1.5-0.6-2.7-2.1-2.7c-1.1,0-1.9,0.8-2.2,1.7c-0.1,0.2-0.1,0.5-0.1,0.8v5.6h-1.7V191.8z"/>
		<path d="M440.7,221.4c0-1,0-1.7-0.1-2.5h1.5l0.1,1.5h0.1c0.5-0.9,1.4-1.7,2.9-1.7c1.3,0,2.2,0.8,2.6,1.8h0c0.3-0.5,0.6-0.9,1-1.2
			c0.6-0.4,1.2-0.6,2-0.6c1.2,0,3,0.8,3,4v5.4h-1.6v-5.2c0-1.8-0.6-2.8-2-2.8c-1,0-1.7,0.7-2,1.5c-0.1,0.2-0.1,0.5-0.1,0.8v5.7h-1.6
			v-5.5c0-1.5-0.6-2.5-1.9-2.5c-1,0-1.8,0.8-2.1,1.7c-0.1,0.2-0.1,0.5-0.1,0.8v5.6h-1.6V221.4z"/>
		<path d="M464.9,223.4c0,3.4-2.4,4.9-4.6,4.9c-2.5,0-4.4-1.8-4.4-4.7c0-3.1,2-4.9,4.6-4.9C463.1,218.7,464.9,220.6,464.9,223.4z
			 M457.6,223.5c0,2,1.2,3.5,2.8,3.5c1.6,0,2.8-1.5,2.8-3.6c0-1.6-0.8-3.5-2.8-3.5C458.5,220,457.6,221.8,457.6,223.5z"/>
		<path d="M475,214.6v11.1c0,0.8,0,1.8,0.1,2.4h-1.5l-0.1-1.6h0c-0.5,1-1.6,1.8-3.1,1.8c-2.2,0-3.9-1.9-3.9-4.7
			c0-3.1,1.9-4.9,4.1-4.9c1.4,0,2.4,0.7,2.8,1.4h0v-5.5H475z M473.3,222.7c0-0.2,0-0.5-0.1-0.7c-0.2-1.1-1.2-1.9-2.4-1.9
			c-1.7,0-2.8,1.5-2.8,3.6c0,1.9,0.9,3.4,2.7,3.4c1.1,0,2.1-0.7,2.5-2c0.1-0.2,0.1-0.5,0.1-0.7V222.7z"/>
		<path d="M478.7,223.8c0,2.3,1.5,3.2,3.2,3.2c1.2,0,1.9-0.2,2.5-0.5l0.3,1.2c-0.6,0.3-1.6,0.6-3.1,0.6c-2.8,0-4.5-1.9-4.5-4.6
			c0-2.8,1.6-5,4.3-5c3,0,3.8,2.6,3.8,4.3c0,0.3,0,0.6-0.1,0.8H478.7z M483.6,222.6c0-1.1-0.4-2.7-2.3-2.7c-1.7,0-2.4,1.6-2.6,2.7
			H483.6z"/>
		<path d="M487.3,214.6h1.7v13.5h-1.7V214.6z"/>
		<path d="M491.6,226.4c0.5,0.3,1.4,0.7,2.2,0.7c1.2,0,1.8-0.6,1.8-1.4c0-0.8-0.5-1.2-1.7-1.7c-1.7-0.6-2.4-1.5-2.4-2.6
			c0-1.5,1.2-2.7,3.2-2.7c0.9,0,1.8,0.3,2.3,0.6l-0.4,1.2c-0.4-0.2-1-0.5-1.9-0.5c-1,0-1.5,0.6-1.5,1.3c0,0.8,0.6,1.1,1.8,1.6
			c1.6,0.6,2.4,1.4,2.4,2.8c0,1.6-1.3,2.8-3.4,2.8c-1,0-1.9-0.2-2.6-0.6L491.6,226.4z"/>
	</g>
	<g>
		<path d="M427.1,255.5c-0.7,0.3-2.2,0.7-3.9,0.7c-1.9,0-3.5-0.5-4.8-1.7c-1.1-1.1-1.8-2.8-1.8-4.8c0-3.8,2.6-6.6,6.9-6.6
			c1.5,0,2.6,0.3,3.2,0.6l-0.4,1.4c-0.7-0.3-1.5-0.6-2.8-0.6c-3.1,0-5.2,1.9-5.2,5.2c0,3.3,2,5.2,4.9,5.2c1.1,0,1.8-0.2,2.2-0.3
			v-3.8h-2.6v-1.3h4.2V255.5z"/>
		<path d="M429.6,249.7c0-1.1,0-2-0.1-2.9h1.5l0.1,1.8h0.1c0.4-1.2,1.4-2,2.5-2c0.2,0,0.3,0,0.5,0.1v1.6c-0.2,0-0.3-0.1-0.6-0.1
			c-1.2,0-2,0.9-2.2,2.1c0,0.2-0.1,0.5-0.1,0.8v4.9h-1.7V249.7z"/>
		<path d="M443.9,251.3c0,3.4-2.4,4.9-4.6,4.9c-2.5,0-4.4-1.8-4.4-4.7c0-3.1,2-4.9,4.6-4.9C442.1,246.6,443.9,248.5,443.9,251.3z
			 M436.6,251.4c0,2,1.2,3.5,2.8,3.5c1.6,0,2.8-1.5,2.8-3.6c0-1.6-0.8-3.5-2.8-3.5C437.5,247.9,436.6,249.7,436.6,251.4z"/>
		<path d="M453.7,253.5c0,1,0,1.8,0.1,2.5h-1.5l-0.1-1.5h0c-0.4,0.7-1.4,1.7-3,1.7c-1.4,0-3.2-0.8-3.2-4v-5.4h1.7v5.1
			c0,1.7,0.5,2.9,2.1,2.9c1.1,0,1.9-0.8,2.2-1.5c0.1-0.2,0.2-0.6,0.2-0.9v-5.6h1.7V253.5z"/>
		<path d="M456.5,249.3c0-1,0-1.7-0.1-2.5h1.5l0.1,1.5h0c0.5-0.9,1.5-1.7,3-1.7c1.3,0,3.3,0.8,3.3,3.9v5.5h-1.7v-5.3
			c0-1.5-0.6-2.7-2.1-2.7c-1.1,0-2,0.8-2.2,1.7c-0.1,0.2-0.1,0.5-0.1,0.8v5.5h-1.7V249.3z"/>
		<path d="M475,242.5v11.1c0,0.8,0,1.7,0.1,2.4h-1.5l-0.1-1.6h0c-0.5,1-1.6,1.8-3.1,1.8c-2.2,0-3.9-1.9-3.9-4.7
			c0-3.1,1.9-4.9,4.1-4.9c1.4,0,2.4,0.7,2.8,1.4h0v-5.5H475z M473.4,250.6c0-0.2,0-0.5-0.1-0.7c-0.2-1.1-1.2-1.9-2.4-1.9
			c-1.7,0-2.8,1.5-2.8,3.6c0,1.9,0.9,3.4,2.7,3.4c1.1,0,2.1-0.7,2.5-2c0.1-0.2,0.1-0.5,0.1-0.7V250.6z"/>
		<path d="M478.7,251.7c0,2.3,1.5,3.2,3.2,3.2c1.2,0,1.9-0.2,2.5-0.5l0.3,1.2c-0.6,0.3-1.6,0.6-3.1,0.6c-2.8,0-4.5-1.9-4.5-4.6
			c0-2.8,1.6-5,4.3-5c3,0,3.8,2.6,3.8,4.3c0,0.3,0,0.6-0.1,0.8H478.7z M483.7,250.5c0-1.1-0.4-2.7-2.3-2.7c-1.7,0-2.4,1.6-2.6,2.7
			H483.7z"/>
		<path d="M495.3,242.5v11.1c0,0.8,0,1.7,0.1,2.4h-1.5l-0.1-1.6h0c-0.5,1-1.6,1.8-3.1,1.8c-2.2,0-3.9-1.9-3.9-4.7
			c0-3.1,1.9-4.9,4.1-4.9c1.4,0,2.4,0.7,2.8,1.4h0v-5.5H495.3z M493.6,250.6c0-0.2,0-0.5-0.1-0.7c-0.2-1.1-1.2-1.9-2.4-1.9
			c-1.7,0-2.8,1.5-2.8,3.6c0,1.9,0.9,3.4,2.7,3.4c1.1,0,2.1-0.7,2.5-2c0.1-0.2,0.1-0.5,0.1-0.7V250.6z"/>
		<path d="M504.1,244.2v2.6h2.4v1.3h-2.4v5c0,1.1,0.3,1.8,1.3,1.8c0.4,0,0.8-0.1,1-0.1l0.1,1.3c-0.3,0.1-0.8,0.2-1.5,0.2
			c-0.8,0-1.4-0.2-1.8-0.7c-0.5-0.5-0.6-1.3-0.6-2.4v-5h-1.4v-1.3h1.4v-2.2L504.1,244.2z"/>
		<path d="M516.6,251.3c0,3.4-2.4,4.9-4.6,4.9c-2.5,0-4.4-1.8-4.4-4.7c0-3.1,2-4.9,4.6-4.9C514.8,246.6,516.6,248.5,516.6,251.3z
			 M509.3,251.4c0,2,1.2,3.5,2.8,3.5c1.6,0,2.8-1.5,2.8-3.6c0-1.6-0.8-3.5-2.8-3.5C510.2,247.9,509.3,249.7,509.3,251.4z"/>
		<path d="M440.2,269.7c0,0.7-0.1,1.4-0.1,2.5v5.3c0,2.1-0.4,3.4-1.3,4.2c-0.9,0.8-2.2,1.1-3.3,1.1c-1.1,0-2.3-0.3-3.1-0.8l0.4-1.3
			c0.6,0.4,1.6,0.7,2.7,0.7c1.7,0,3-0.9,3-3.2v-1h0c-0.5,0.9-1.5,1.5-2.9,1.5c-2.3,0-3.9-1.9-3.9-4.5c0-3.1,2-4.9,4.1-4.9
			c1.6,0,2.5,0.8,2.9,1.6h0l0.1-1.4H440.2z M438.5,273.3c0-0.3,0-0.5-0.1-0.8c-0.3-1-1.1-1.8-2.3-1.8c-1.6,0-2.7,1.3-2.7,3.5
			c0,1.8,0.9,3.3,2.7,3.3c1,0,2-0.6,2.3-1.7c0.1-0.3,0.1-0.6,0.1-0.9V273.3z"/>
		<path d="M443.9,274.6c0,2.3,1.5,3.2,3.2,3.2c1.2,0,1.9-0.2,2.5-0.5l0.3,1.2c-0.6,0.3-1.6,0.6-3.1,0.6c-2.8,0-4.5-1.9-4.5-4.6
			s1.6-5,4.3-5c3,0,3.8,2.6,3.8,4.3c0,0.3,0,0.6-0.1,0.8H443.9z M448.8,273.4c0-1.1-0.4-2.7-2.3-2.7c-1.7,0-2.4,1.6-2.6,2.7H448.8z"
			/>
		<path d="M460.8,274.2c0,3.4-2.4,4.9-4.6,4.9c-2.5,0-4.4-1.8-4.4-4.7c0-3.1,2-4.9,4.6-4.9C459,269.4,460.8,271.4,460.8,274.2z
			 M453.5,274.3c0,2,1.2,3.5,2.8,3.5c1.6,0,2.8-1.5,2.8-3.6c0-1.6-0.8-3.5-2.8-3.5C454.4,270.7,453.5,272.5,453.5,274.3z"/>
		<path d="M463.1,278.9v-7.9h-1.3v-1.3h1.3v-0.4c0-1.3,0.3-2.5,1.1-3.2c0.6-0.6,1.5-0.9,2.2-0.9c0.6,0,1.1,0.1,1.4,0.3l-0.2,1.3
			c-0.2-0.1-0.6-0.2-1.1-0.2c-1.4,0-1.8,1.3-1.8,2.7v0.5h2.2v1.3h-2.2v7.9H463.1z"/>
		<path d="M473.6,278.9l-0.1-1.2h-0.1c-0.5,0.7-1.5,1.4-2.8,1.4c-1.9,0-2.8-1.3-2.8-2.6c0-2.2,2-3.4,5.5-3.4v-0.2
			c0-0.8-0.2-2.1-2.1-2.1c-0.9,0-1.8,0.3-2.4,0.7l-0.4-1.1c0.8-0.5,1.9-0.8,3-0.8c2.8,0,3.5,1.9,3.5,3.8v3.4c0,0.8,0,1.6,0.2,2.2
			H473.6z M473.3,274.2c-1.8,0-3.9,0.3-3.9,2.1c0,1.1,0.7,1.6,1.6,1.6c1.2,0,2-0.8,2.2-1.5c0.1-0.2,0.1-0.4,0.1-0.5V274.2z"/>
		<path d="M477.6,278.9c0-0.6,0.1-1.6,0.1-2.4v-11.1h1.7v5.8h0c0.6-1,1.7-1.7,3.1-1.7c2.3,0,3.9,1.9,3.9,4.7c0,3.3-2.1,4.9-4.1,4.9
			c-1.3,0-2.4-0.5-3.1-1.7h-0.1l-0.1,1.5H477.6z M479.3,275.2c0,0.2,0,0.4,0.1,0.6c0.3,1.2,1.3,2,2.5,2c1.8,0,2.8-1.4,2.8-3.5
			c0-1.8-1-3.4-2.7-3.4c-1.1,0-2.2,0.8-2.5,2.1c0,0.2-0.1,0.4-0.1,0.7V275.2z"/>
		<path d="M488.5,272.5c0-1.1,0-2-0.1-2.9h1.5l0.1,1.8h0.1c0.4-1.2,1.4-2,2.5-2c0.2,0,0.3,0,0.5,0.1v1.6c-0.2,0-0.3-0.1-0.6-0.1
			c-1.2,0-2,0.9-2.2,2.1c0,0.2-0.1,0.5-0.1,0.8v4.9h-1.7V272.5z"/>
		<path d="M496.6,267.1c0,0.6-0.4,1-1.1,1c-0.6,0-1-0.5-1-1c0-0.6,0.4-1,1-1C496.2,266,496.6,266.5,496.6,267.1z M494.8,278.9v-9.2
			h1.7v9.2H494.8z"/>
		<path d="M505.8,278.5c-0.4,0.2-1.4,0.5-2.6,0.5c-2.8,0-4.6-1.9-4.6-4.7c0-2.8,1.9-4.9,4.9-4.9c1,0,1.9,0.2,2.3,0.5l-0.4,1.3
			c-0.4-0.2-1-0.4-1.9-0.4c-2.1,0-3.3,1.6-3.3,3.5c0,2.1,1.4,3.4,3.2,3.4c1,0,1.6-0.2,2.1-0.5L505.8,278.5z"/>
	</g>
	<g>
		<path d="M42.8,204.1c-0.6,0.3-1.8,0.6-3.4,0.6c-3.6,0-6.3-2.3-6.3-6.5c0-4,2.7-6.7,6.7-6.7c1.6,0,2.6,0.3,3,0.6l-0.4,1.4
			c-0.6-0.3-1.5-0.5-2.6-0.5c-3,0-5,1.9-5,5.3c0,3.1,1.8,5.2,4.9,5.2c1,0,2-0.2,2.7-0.5L42.8,204.1z"/>
		<path d="M44.8,198.2c0-1.1,0-2-0.1-2.9h1.5l0.1,1.8h0.1c0.4-1.2,1.4-2,2.5-2c0.2,0,0.3,0,0.5,0.1v1.6c-0.2,0-0.3-0.1-0.6-0.1
			c-1.2,0-2,0.9-2.2,2.1c0,0.2-0.1,0.5-0.1,0.8v4.9h-1.7V198.2z"/>
		<path d="M51.7,200.2c0,2.3,1.5,3.2,3.2,3.2c1.2,0,1.9-0.2,2.5-0.5l0.3,1.2c-0.6,0.3-1.6,0.6-3.1,0.6c-2.8,0-4.5-1.9-4.5-4.6
			c0-2.8,1.6-5,4.3-5c3,0,3.8,2.6,3.8,4.3c0,0.3,0,0.6-0.1,0.8H51.7z M56.6,199c0-1.1-0.4-2.7-2.3-2.7c-1.7,0-2.4,1.6-2.6,2.7H56.6z
			"/>
		<path d="M65.4,204.5l-0.1-1.2h-0.1c-0.5,0.7-1.5,1.4-2.8,1.4c-1.9,0-2.8-1.3-2.8-2.6c0-2.2,2-3.4,5.5-3.4v-0.2
			c0-0.8-0.2-2.1-2.1-2.1c-0.9,0-1.8,0.3-2.4,0.7l-0.4-1.1c0.8-0.5,1.9-0.8,3-0.8c2.8,0,3.5,1.9,3.5,3.8v3.4c0,0.8,0,1.6,0.2,2.2
			H65.4z M65.2,199.8c-1.8,0-3.9,0.3-3.9,2.1c0,1.1,0.7,1.6,1.6,1.6c1.2,0,2-0.8,2.2-1.5c0.1-0.2,0.1-0.4,0.1-0.5V199.8z"/>
		<path d="M71.5,192.6v2.6h2.4v1.3h-2.4v5c0,1.1,0.3,1.8,1.3,1.8c0.4,0,0.8-0.1,1-0.1l0.1,1.3c-0.3,0.1-0.8,0.2-1.5,0.2
			c-0.8,0-1.4-0.2-1.8-0.7c-0.5-0.5-0.6-1.3-0.6-2.4v-5h-1.4v-1.3h1.4v-2.2L71.5,192.6z"/>
		<path d="M76.6,200.2c0,2.3,1.5,3.2,3.2,3.2c1.2,0,1.9-0.2,2.5-0.5l0.3,1.2c-0.6,0.3-1.6,0.6-3.1,0.6c-2.8,0-4.5-1.9-4.5-4.6
			c0-2.8,1.6-5,4.3-5c3,0,3.8,2.6,3.8,4.3c0,0.3,0,0.6-0.1,0.8H76.6z M81.5,199c0-1.1-0.4-2.7-2.3-2.7c-1.7,0-2.4,1.6-2.6,2.7H81.5z
			"/>
		<path d="M89.9,195.3l1.2,4.7c0.3,1,0.5,2,0.7,2.9h0.1c0.2-0.9,0.5-1.9,0.8-2.9l1.5-4.7h1.4l1.4,4.6c0.3,1.1,0.6,2.1,0.8,3h0.1
			c0.2-0.9,0.4-1.9,0.7-3l1.3-4.6h1.7l-3,9.2H97l-1.4-4.4c-0.3-1-0.6-1.9-0.8-3h0c-0.2,1.1-0.5,2.1-0.8,3l-1.5,4.4h-1.5l-2.8-9.2
			H89.9z"/>
		<path d="M108.2,204.5l-0.1-1.2H108c-0.5,0.7-1.5,1.4-2.8,1.4c-1.9,0-2.8-1.3-2.8-2.6c0-2.2,2-3.4,5.5-3.4v-0.2
			c0-0.8-0.2-2.1-2.1-2.1c-0.9,0-1.8,0.3-2.4,0.7l-0.4-1.1c0.8-0.5,1.9-0.8,3-0.8c2.8,0,3.5,1.9,3.5,3.8v3.4c0,0.8,0,1.6,0.2,2.2
			H108.2z M108,199.8c-1.8,0-3.9,0.3-3.9,2.1c0,1.1,0.7,1.6,1.6,1.6c1.2,0,2-0.8,2.2-1.5c0.1-0.2,0.1-0.4,0.1-0.5V199.8z"/>
		<path d="M114.2,192.6v2.6h2.4v1.3h-2.4v5c0,1.1,0.3,1.8,1.3,1.8c0.4,0,0.8-0.1,1-0.1l0.1,1.3c-0.3,0.1-0.8,0.2-1.5,0.2
			c-0.8,0-1.4-0.2-1.8-0.7c-0.5-0.5-0.6-1.3-0.6-2.4v-5h-1.4v-1.3h1.4v-2.2L114.2,192.6z"/>
		<path d="M119.3,200.2c0,2.3,1.5,3.2,3.2,3.2c1.2,0,1.9-0.2,2.5-0.5l0.3,1.2c-0.6,0.3-1.6,0.6-3.1,0.6c-2.8,0-4.5-1.9-4.5-4.6
			c0-2.8,1.6-5,4.3-5c3,0,3.8,2.6,3.8,4.3c0,0.3,0,0.6-0.1,0.8H119.3z M124.2,199c0-1.1-0.4-2.7-2.3-2.7c-1.7,0-2.4,1.6-2.6,2.7
			H124.2z"/>
		<path d="M127.9,198.2c0-1.1,0-2-0.1-2.9h1.5l0.1,1.8h0.1c0.4-1.2,1.4-2,2.5-2c0.2,0,0.3,0,0.5,0.1v1.6c-0.2,0-0.3-0.1-0.6-0.1
			c-1.2,0-2,0.9-2.2,2.1c0,0.2-0.1,0.5-0.1,0.8v4.9h-1.7V198.2z"/>
		<path d="M146.3,204.5c-0.4-0.4-0.7-0.7-1.2-1.3c-1.1,1-2.3,1.5-3.7,1.5c-2.5,0-3.9-1.7-3.9-3.6c0-1.7,1-2.9,2.5-3.7v-0.1
			c-0.7-0.8-1.1-1.8-1.1-2.7c0-1.6,1.1-3.2,3.3-3.2c1.6,0,2.8,1.1,2.8,2.7c0,1.3-0.8,2.4-2.8,3.4v0.1c1.1,1.3,2.3,2.7,3.1,3.6
			c0.6-0.9,1-2.1,1.2-3.7h1.5c-0.3,2-0.9,3.6-1.8,4.7c0.7,0.7,1.4,1.4,2.1,2.3H146.3z M144.3,202.3c-0.8-0.8-2.2-2.4-3.6-4
			c-0.7,0.4-1.7,1.3-1.7,2.6c0,1.5,1.1,2.6,2.6,2.6C142.7,203.4,143.6,202.9,144.3,202.3z M140.4,194.5c0,0.9,0.4,1.6,1,2.3
			c1.3-0.7,2.1-1.4,2.1-2.5c0-0.8-0.4-1.7-1.5-1.7C140.9,192.6,140.4,193.5,140.4,194.5z"/>
		<path d="M37.5,227c-0.4,0.2-1.4,0.5-2.6,0.5c-2.8,0-4.6-1.9-4.6-4.7c0-2.8,1.9-4.9,4.9-4.9c1,0,1.9,0.2,2.3,0.5l-0.4,1.3
			c-0.4-0.2-1-0.4-1.9-0.4c-2.1,0-3.3,1.6-3.3,3.5c0,2.1,1.4,3.4,3.2,3.4c1,0,1.6-0.2,2.1-0.5L37.5,227z"/>
		<path d="M39.5,213.8h1.7v13.5h-1.7V213.8z"/>
		<path d="M45.9,215.5c0,0.6-0.4,1-1.1,1c-0.6,0-1-0.5-1-1c0-0.6,0.4-1,1-1C45.5,214.5,45.9,214.9,45.9,215.5z M44,227.3v-9.2h1.7
			v9.2H44z"/>
		<path d="M48.5,220.6c0-1,0-1.7-0.1-2.5h1.5l0.1,1.5H50c0.5-0.9,1.4-1.7,2.9-1.7c1.3,0,2.2,0.8,2.6,1.8h0c0.3-0.5,0.6-0.9,1-1.2
			c0.6-0.4,1.2-0.6,2-0.6c1.2,0,3,0.8,3,4v5.4H60v-5.2c0-1.8-0.6-2.8-2-2.8c-1,0-1.7,0.7-2,1.5c-0.1,0.2-0.1,0.5-0.1,0.8v5.7h-1.6
			v-5.5c0-1.5-0.6-2.5-1.9-2.5c-1,0-1.8,0.8-2.1,1.7c-0.1,0.2-0.1,0.5-0.1,0.8v5.6h-1.6V220.6z"/>
		<path d="M69.4,227.3l-0.1-1.2h-0.1c-0.5,0.7-1.5,1.4-2.8,1.4c-1.9,0-2.8-1.3-2.8-2.6c0-2.2,2-3.4,5.5-3.4v-0.2
			c0-0.8-0.2-2.1-2.1-2.1c-0.9,0-1.8,0.3-2.4,0.7l-0.4-1.1c0.8-0.5,1.9-0.8,3-0.8c2.8,0,3.5,1.9,3.5,3.8v3.4c0,0.8,0,1.6,0.2,2.2
			H69.4z M69.2,222.6c-1.8,0-3.9,0.3-3.9,2.1c0,1.1,0.7,1.6,1.6,1.6c1.2,0,2-0.8,2.2-1.5c0.1-0.2,0.1-0.4,0.1-0.5V222.6z"/>
		<path d="M75.4,215.5v2.6h2.4v1.3h-2.4v5c0,1.1,0.3,1.8,1.3,1.8c0.4,0,0.8-0.1,1-0.1l0.1,1.3c-0.3,0.1-0.8,0.2-1.5,0.2
			c-0.8,0-1.4-0.2-1.8-0.7c-0.5-0.5-0.6-1.3-0.6-2.4v-5h-1.4v-1.3h1.4v-2.2L75.4,215.5z"/>
		<path d="M80.5,223c0,2.3,1.5,3.2,3.2,3.2c1.2,0,1.9-0.2,2.5-0.5l0.3,1.2c-0.6,0.3-1.6,0.6-3.1,0.6c-2.8,0-4.5-1.9-4.5-4.6
			c0-2.8,1.6-5,4.3-5c3,0,3.8,2.6,3.8,4.3c0,0.3,0,0.6-0.1,0.8H80.5z M85.4,221.8c0-1.1-0.4-2.7-2.3-2.7c-1.7,0-2.4,1.6-2.6,2.7
			H85.4z"/>
		<path d="M95.2,215.5v2.6h2.4v1.3h-2.4v5c0,1.1,0.3,1.8,1.3,1.8c0.4,0,0.8-0.1,1-0.1l0.1,1.3c-0.3,0.1-0.8,0.2-1.5,0.2
			c-0.8,0-1.4-0.2-1.8-0.7c-0.5-0.5-0.6-1.3-0.6-2.4v-5h-1.4v-1.3h1.4v-2.2L95.2,215.5z"/>
		<path d="M99.5,213.8h1.7v5.7h0c0.3-0.5,0.7-0.9,1.2-1.2c0.5-0.3,1.1-0.5,1.7-0.5c1.2,0,3.2,0.8,3.2,3.9v5.5h-1.7V222
			c0-1.5-0.6-2.7-2.1-2.7c-1.1,0-1.9,0.8-2.2,1.7c-0.1,0.2-0.1,0.5-0.1,0.8v5.6h-1.7V213.8z"/>
		<path d="M111,223c0,2.3,1.5,3.2,3.2,3.2c1.2,0,1.9-0.2,2.5-0.5l0.3,1.2c-0.6,0.3-1.6,0.6-3.1,0.6c-2.8,0-4.5-1.9-4.5-4.6
			c0-2.8,1.6-5,4.3-5c3,0,3.8,2.6,3.8,4.3c0,0.3,0,0.6-0.1,0.8H111z M115.9,221.8c0-1.1-0.4-2.7-2.3-2.7c-1.7,0-2.4,1.6-2.6,2.7
			H115.9z"/>
		<path d="M119.6,220.6c0-1,0-1.7-0.1-2.5h1.5l0.1,1.5h0.1c0.5-0.9,1.4-1.7,2.9-1.7c1.3,0,2.2,0.8,2.6,1.8h0c0.3-0.5,0.6-0.9,1-1.2
			c0.6-0.4,1.2-0.6,2-0.6c1.2,0,3,0.8,3,4v5.4h-1.6v-5.2c0-1.8-0.6-2.8-2-2.8c-1,0-1.7,0.7-2,1.5c-0.1,0.2-0.1,0.5-0.1,0.8v5.7h-1.6
			v-5.5c0-1.5-0.6-2.5-1.9-2.5c-1,0-1.8,0.8-2.1,1.7c-0.1,0.2-0.1,0.5-0.1,0.8v5.6h-1.6V220.6z"/>
		<path d="M136.4,223c0,2.3,1.5,3.2,3.2,3.2c1.2,0,1.9-0.2,2.5-0.5l0.3,1.2c-0.6,0.3-1.6,0.6-3.1,0.6c-2.8,0-4.5-1.9-4.5-4.6
			c0-2.8,1.6-5,4.3-5c3,0,3.8,2.6,3.8,4.3c0,0.3,0,0.6-0.1,0.8H136.4z M141.3,221.8c0-1.1-0.4-2.7-2.3-2.7c-1.7,0-2.4,1.6-2.6,2.7
			H141.3z"/>
		<path d="M144.7,225.6c0.5,0.3,1.4,0.7,2.2,0.7c1.2,0,1.8-0.6,1.8-1.4c0-0.8-0.5-1.2-1.7-1.7c-1.7-0.6-2.4-1.5-2.4-2.6
			c0-1.5,1.2-2.7,3.2-2.7c0.9,0,1.7,0.3,2.3,0.6l-0.4,1.2c-0.4-0.2-1-0.5-1.9-0.5c-1,0-1.5,0.6-1.5,1.3c0,0.8,0.6,1.1,1.8,1.6
			c1.6,0.6,2.4,1.4,2.4,2.8c0,1.6-1.3,2.8-3.4,2.8c-1,0-1.9-0.2-2.6-0.6L144.7,225.6z"/>
	</g>
	<g>
		<path d="M30.6,243.4c0.8-0.2,2-0.3,3.2-0.3c1.8,0,2.9,0.3,3.7,1c0.6,0.6,1,1.4,1,2.4c0,1.7-1.1,2.8-2.4,3.3v0.1
			c1,0.3,1.6,1.3,1.9,2.6c0.4,1.8,0.7,3,1,3.5h-1.7c-0.2-0.4-0.5-1.5-0.9-3.1c-0.4-1.8-1.1-2.4-2.6-2.5h-1.6v5.6h-1.7V243.4z
			 M32.2,249.2h1.7c1.8,0,2.9-1,2.9-2.4c0-1.7-1.2-2.4-2.9-2.4c-0.8,0-1.4,0.1-1.6,0.2V249.2z"/>
		<path d="M41.8,251.7c0,2.3,1.5,3.2,3.2,3.2c1.2,0,1.9-0.2,2.5-0.5l0.3,1.2c-0.6,0.3-1.6,0.6-3.1,0.6c-2.8,0-4.5-1.9-4.5-4.6
			c0-2.8,1.6-5,4.3-5c3,0,3.8,2.6,3.8,4.3c0,0.3,0,0.6-0.1,0.8H41.8z M46.7,250.5c0-1.1-0.4-2.7-2.3-2.7c-1.7,0-2.4,1.6-2.6,2.7
			H46.7z"/>
		<path d="M56.9,255.7c-0.4,0.2-1.4,0.5-2.6,0.5c-2.8,0-4.6-1.9-4.6-4.7c0-2.8,1.9-4.9,4.9-4.9c1,0,1.9,0.2,2.3,0.5l-0.4,1.3
			c-0.4-0.2-1-0.4-1.9-0.4c-2.1,0-3.3,1.6-3.3,3.5c0,2.1,1.4,3.4,3.2,3.4c1,0,1.6-0.2,2.1-0.5L56.9,255.7z"/>
		<path d="M58.9,249.7c0-1.1,0-2-0.1-2.9h1.5l0.1,1.8h0.1c0.4-1.2,1.4-2,2.5-2c0.2,0,0.3,0,0.5,0.1v1.6c-0.2,0-0.3-0.1-0.6-0.1
			c-1.2,0-2,0.9-2.2,2.2c0,0.2-0.1,0.5-0.1,0.8v4.9h-1.7V249.7z"/>
		<path d="M72.8,253.5c0,1,0,1.8,0.1,2.5h-1.5l-0.1-1.5h0c-0.4,0.7-1.4,1.7-3,1.7c-1.4,0-3.2-0.8-3.2-4v-5.4h1.7v5.1
			c0,1.7,0.5,2.9,2.1,2.9c1.1,0,1.9-0.8,2.2-1.5c0.1-0.2,0.2-0.6,0.2-0.9v-5.6h1.7V253.5z"/>
		<path d="M77.5,244.2c0,0.6-0.4,1-1.1,1c-0.6,0-1-0.5-1-1c0-0.6,0.4-1,1-1C77.1,243.2,77.5,243.6,77.5,244.2z M75.6,256v-9.2h1.7
			v9.2H75.6z"/>
		<path d="M82.1,244.2v2.6h2.4v1.3h-2.4v5c0,1.1,0.3,1.8,1.3,1.8c0.4,0,0.8-0.1,1-0.1l0.1,1.3c-0.3,0.1-0.8,0.2-1.5,0.2
			c-0.8,0-1.4-0.2-1.8-0.7c-0.5-0.5-0.6-1.3-0.6-2.4v-5H79v-1.3h1.4v-2.2L82.1,244.2z"/>
		<path d="M85,256.8l5.3-13.8h1.3l-5.3,13.8H85z"/>
		<path d="M93.8,251.7c0,2.3,1.5,3.2,3.2,3.2c1.2,0,1.9-0.2,2.5-0.5l0.3,1.2c-0.6,0.3-1.6,0.6-3.1,0.6c-2.8,0-4.5-1.9-4.5-4.6
			c0-2.8,1.6-5,4.3-5c3,0,3.8,2.6,3.8,4.3c0,0.3,0,0.6-0.1,0.8H93.8z M98.7,250.5c0-1.1-0.4-2.7-2.3-2.7c-1.7,0-2.4,1.6-2.6,2.7
			H98.7z"/>
		<path d="M102.4,249.3c0-1,0-1.7-0.1-2.5h1.5l0.1,1.5h0c0.5-0.9,1.5-1.7,3-1.7c1.3,0,3.3,0.8,3.3,3.9v5.5h-1.7v-5.3
			c0-1.5-0.6-2.7-2.1-2.7c-1.1,0-2,0.8-2.2,1.7c-0.1,0.2-0.1,0.5-0.1,0.8v5.5h-1.7V249.3z"/>
		<path d="M120.9,246.8c0,0.7-0.1,1.4-0.1,2.5v5.3c0,2.1-0.4,3.4-1.3,4.2c-0.9,0.8-2.2,1.1-3.3,1.1c-1.1,0-2.3-0.3-3.1-0.8l0.4-1.3
			c0.6,0.4,1.6,0.7,2.7,0.7c1.7,0,3-0.9,3-3.2v-1h0c-0.5,0.9-1.5,1.5-2.9,1.5c-2.3,0-3.9-1.9-3.9-4.5c0-3.1,2-4.9,4.1-4.9
			c1.6,0,2.5,0.8,2.9,1.6h0l0.1-1.4H120.9z M119.2,250.5c0-0.3,0-0.5-0.1-0.8c-0.3-1-1.1-1.8-2.3-1.8c-1.6,0-2.7,1.3-2.7,3.5
			c0,1.8,0.9,3.3,2.7,3.3c1,0,2-0.6,2.3-1.7c0.1-0.3,0.1-0.6,0.1-0.9V250.5z"/>
		<path d="M128.7,256l-0.1-1.2h-0.1c-0.5,0.7-1.5,1.4-2.8,1.4c-1.9,0-2.8-1.3-2.8-2.6c0-2.2,2-3.4,5.5-3.4V250
			c0-0.8-0.2-2.1-2.1-2.1c-0.9,0-1.7,0.3-2.4,0.7l-0.4-1.1c0.8-0.5,1.9-0.8,3-0.8c2.8,0,3.5,1.9,3.5,3.8v3.4c0,0.8,0,1.6,0.2,2.2
			H128.7z M128.5,251.3c-1.8,0-3.9,0.3-3.9,2.1c0,1.1,0.7,1.6,1.6,1.6c1.2,0,2-0.8,2.2-1.5c0.1-0.2,0.1-0.4,0.1-0.5V251.3z"/>
		<path d="M140.7,246.8c0,0.7-0.1,1.4-0.1,2.5v5.3c0,2.1-0.4,3.4-1.3,4.2c-0.9,0.8-2.2,1.1-3.3,1.1c-1.1,0-2.3-0.3-3.1-0.8l0.4-1.3
			c0.6,0.4,1.6,0.7,2.7,0.7c1.7,0,3-0.9,3-3.2v-1h0c-0.5,0.9-1.5,1.5-2.9,1.5c-2.3,0-3.9-1.9-3.9-4.5c0-3.1,2-4.9,4.1-4.9
			c1.6,0,2.5,0.8,2.9,1.6h0l0.1-1.4H140.7z M139,250.5c0-0.3,0-0.5-0.1-0.8c-0.3-1-1.1-1.8-2.3-1.8c-1.6,0-2.7,1.3-2.7,3.5
			c0,1.8,0.9,3.3,2.7,3.3c1,0,2-0.6,2.3-1.7c0.1-0.3,0.1-0.6,0.1-0.9V250.5z"/>
		<path d="M144.4,251.7c0,2.3,1.5,3.2,3.2,3.2c1.2,0,1.9-0.2,2.5-0.5l0.3,1.2c-0.6,0.3-1.6,0.6-3.1,0.6c-2.8,0-4.5-1.9-4.5-4.6
			c0-2.8,1.6-5,4.3-5c3,0,3.8,2.6,3.8,4.3c0,0.3,0,0.6-0.1,0.8H144.4z M149.3,250.5c0-1.1-0.4-2.7-2.3-2.7c-1.7,0-2.4,1.6-2.6,2.7
			H149.3z"/>
		<path d="M58.3,272.7c0-1.2,0-2.1-0.1-3h1.5l0.1,1.6h0c0.7-1.1,1.8-1.8,3.3-1.8c2.2,0,3.9,1.9,3.9,4.7c0,3.3-2,4.9-4.2,4.9
			c-1.2,0-2.3-0.5-2.8-1.4h0v5h-1.7V272.7z M60,275.1c0,0.2,0,0.5,0.1,0.7c0.3,1.2,1.3,2,2.5,2c1.8,0,2.8-1.4,2.8-3.6
			c0-1.8-1-3.4-2.7-3.4c-1.1,0-2.2,0.8-2.5,2.1c-0.1,0.2-0.1,0.5-0.1,0.7V275.1z"/>
		<path d="M74.3,278.9l-0.1-1.2h-0.1c-0.5,0.7-1.5,1.4-2.8,1.4c-1.9,0-2.8-1.3-2.8-2.6c0-2.2,2-3.4,5.5-3.4v-0.2
			c0-0.8-0.2-2.1-2.1-2.1c-0.9,0-1.7,0.3-2.4,0.7l-0.4-1.1c0.8-0.5,1.9-0.8,3-0.8c2.8,0,3.5,1.9,3.5,3.8v3.4c0,0.8,0,1.6,0.2,2.2
			H74.3z M74,274.2c-1.8,0-3.9,0.3-3.9,2.1c0,1.1,0.7,1.6,1.6,1.6c1.2,0,2-0.8,2.2-1.5c0.1-0.2,0.1-0.4,0.1-0.5V274.2z"/>
		<path d="M78.3,272.5c0-1.1,0-2-0.1-2.9h1.5l0.1,1.8h0.1c0.4-1.2,1.4-2,2.5-2c0.2,0,0.3,0,0.5,0.1v1.6c-0.2,0-0.3-0.1-0.6-0.1
			c-1.2,0-2,0.9-2.2,2.1c0,0.2-0.1,0.5-0.1,0.8v4.9h-1.7V272.5z"/>
		<path d="M87,267v2.6h2.4v1.3H87v5c0,1.1,0.3,1.8,1.3,1.8c0.4,0,0.8-0.1,1-0.1l0.1,1.3c-0.3,0.1-0.8,0.2-1.5,0.2
			c-0.8,0-1.4-0.2-1.8-0.7c-0.5-0.5-0.6-1.3-0.6-2.4v-5H84v-1.3h1.4v-2.2L87,267z"/>
		<path d="M91.3,272.1c0-1,0-1.7-0.1-2.5h1.5l0.1,1.5h0c0.5-0.9,1.5-1.7,3-1.7c1.3,0,3.3,0.8,3.3,3.9v5.5h-1.7v-5.3
			c0-1.5-0.6-2.7-2.1-2.7c-1.1,0-2,0.8-2.2,1.7c-0.1,0.2-0.1,0.5-0.1,0.8v5.5h-1.7V272.1z"/>
		<path d="M102.8,274.6c0,2.3,1.5,3.2,3.2,3.2c1.2,0,1.9-0.2,2.5-0.5l0.3,1.2c-0.6,0.3-1.6,0.6-3.1,0.6c-2.8,0-4.5-1.9-4.5-4.6
			c0-2.8,1.6-5,4.3-5c3,0,3.8,2.6,3.8,4.3c0,0.3,0,0.6-0.1,0.8H102.8z M107.7,273.4c0-1.1-0.4-2.7-2.3-2.7c-1.7,0-2.4,1.6-2.6,2.7
			H107.7z"/>
		<path d="M111.4,272.5c0-1.1,0-2-0.1-2.9h1.5l0.1,1.8h0.1c0.4-1.2,1.4-2,2.5-2c0.2,0,0.3,0,0.5,0.1v1.6c-0.2,0-0.3-0.1-0.6-0.1
			c-1.2,0-2,0.9-2.2,2.1c0,0.2-0.1,0.5-0.1,0.8v4.9h-1.7V272.5z"/>
		<path d="M117.4,277.1c0.5,0.3,1.4,0.7,2.2,0.7c1.2,0,1.8-0.6,1.8-1.4c0-0.8-0.5-1.2-1.7-1.7c-1.7-0.6-2.4-1.5-2.4-2.6
			c0-1.5,1.2-2.7,3.2-2.7c0.9,0,1.8,0.3,2.3,0.6l-0.4,1.2c-0.4-0.2-1-0.5-1.9-0.5c-1,0-1.5,0.6-1.5,1.3c0,0.8,0.6,1.1,1.8,1.6
			c1.6,0.6,2.4,1.4,2.4,2.8c0,1.6-1.3,2.8-3.4,2.8c-1,0-1.9-0.2-2.6-0.6L117.4,277.1z"/>
	</g>
</g>
</svg>
