<?xml version="1.0" encoding="utf-8"?>
<!-- Generator: Adobe Illustrator 19.1.0, SVG Export Plug-In . SVG Version: 6.00 Build 0)  -->
<!DOCTYPE svg PUBLIC "-//W3C//DTD SVG 1.1//EN" "http://www.w3.org/Graphics/SVG/1.1/DTD/svg11.dtd">
<svg version="1.1" id="Layer_1" xmlns="http://www.w3.org/2000/svg" xmlns:xlink="http://www.w3.org/1999/xlink" x="0px" y="0px"
	 viewBox="0 0 281.4 228.8" enable-background="new 0 0 281.4 228.8" xml:space="preserve">
<g>
	<path fill="#FFFFFF" d="M44.1,142.4c-0.9-0.9-0.9-1.8,0-2.6c1.8-1.8,4-2.4,6.6-2c2.6,0.4,4.2,0.9,4.6,1.3c3.1,1.3,6.5,4.3,10.2,8.9
		c3.7,4.6,6.7,7.8,8.9,9.6c10.5,8.8,21.3,9.5,32.3,2c0.9-3.1,2.3-5.7,4.3-7.9c2-2.2,3.8-3.7,5.6-4.6c1.8-0.9,4.8-2.2,9.2-4
		c-14.5-1.3-26.3-3.8-35.3-7.6s-16.2-8.5-21.4-14.2c-7-7.9-11.3-18.2-12.9-31c-1.5-12.7-0.5-24.4,3-34.9c2.6-6.6,6.4-12.5,11.2-17.8
		c-3.5-11-2.9-23.5,2-37.6c14.1,0.9,26.8,5.7,38.2,14.5c22-5.7,44.8-5.9,68.6-0.7c3.1-2.2,7.8-4.9,14.2-8.2
		c6.4-3.3,14.4-5.2,24.1-5.6c1.8,4.8,3,10.5,3.6,17.1c0.7,6.6,0.3,12.7-1,18.5c10.1,10.5,15.4,24.6,15.8,42.2
		c0,14.1-2.4,25.7-7.3,34.9c-4.8,9.2-13.4,16.9-25.7,23.1c-8.4,4-19.3,6.4-33,7.3c6.2,3.1,10.7,6.3,13.5,9.6
		c2.9,3.3,4.7,8.5,5.6,15.5v20.8c0,0,0.2,6.7,0.7,20.1c1.3,2.2,2.9,4.1,4.6,5.6c1.8,1.5,3.3,2.6,4.6,3.3s1.8,1.6,1.3,3s-2.2,2-5.3,2
		c-7.5,0-13.4-2.6-17.8-7.9c-1.3-2.2-2-4.8-2-7.9v-31.6c0-3.5-0.9-6-2.6-7.6c-1.8-1.5-3.5-2.5-5.3-3v41.5c0,7.5,0.9,12.3,2.6,14.5
		c1.8,2.2,2.9,4.4,3.3,6.6c0.4,0.4,0.1,0.8-1,1c-1.1,0.2-3-0.1-5.6-1c-5.7-1.3-9.7-4.3-11.9-8.9c-2.2-4.6-3.3-9.6-3.3-14.8v-40.9
		H143v40.9c0,5.3-1.1,10.3-3.3,15.2c-3.1,6.2-8.8,9.5-17.1,9.9c-1.3-0.4-2-0.9-2-1.3c0.4-0.4,1.8-2.6,4-6.6c0.4-0.9,1-2.6,1.6-5.3
		c0.7-2.6,1-5.7,1-9.2v-41.5c-1.8,0.4-3.4,1.4-4.9,3c-1.5,1.5-2.3,4.1-2.3,7.6V207c0,3.1-0.7,5.7-2,7.9c-4,5.3-9.9,7.9-17.8,7.9
		c-3.1,0-4.8-0.7-5.3-2c-0.4-0.9-0.3-1.6,0.3-2.3c0.7-0.7,1.6-1.4,3-2.3c1.3-0.9,2.2-1.5,2.6-2c1.8-1.3,3.1-3.1,4-5.3
		c1.3-1.8,1.6-6.4,1-13.8c-0.7-7.5-0.8-12.3-0.3-14.5c-11.4,4-23.1,2-34.9-5.9c-3.5-3.5-7-8.6-10.5-15.2
		C57.3,154.7,52,149,44.1,142.4L44.1,142.4z"/>
</g>
</svg>
