<?xml version="1.0" encoding="utf-8"?>
<!-- Generator: Adobe Illustrator 19.1.0, SVG Export Plug-In . SVG Version: 6.00 Build 0)  -->
<!DOCTYPE svg PUBLIC "-//W3C//DTD SVG 1.1//EN" "http://www.w3.org/Graphics/SVG/1.1/DTD/svg11.dtd">
<svg version="1.1" id="Layer_1" xmlns="http://www.w3.org/2000/svg" xmlns:xlink="http://www.w3.org/1999/xlink" x="0px" y="0px"
	 viewBox="0 0 281.4 228.8" enable-background="new 0 0 281.4 228.8" xml:space="preserve">
<g id="nZPBRg.tif">
	<g>
		<path fill="#1C3664" d="M195.5,0.2c1.3,0.2,2.6,0.3,4,0.5c6.3,0.8,12.3,2.5,18,5.3c18.1,8.7,30.5,22.6,37.2,41.6
			c1.5,4.3,2.5,8.8,2.8,13.3c0.2,4-0.2,7.9-1,11.8c-2.3,12.1-7.8,22.6-15.8,31.7c-5,5.7-10.4,11-15.8,16.3
			c-9.3,9.4-18.8,18.7-28.1,28.2c-3.4,3.5-6.9,6.9-11,9.6c-7.2,4.8-15.1,7.8-23.6,9.2c-10.3,1.7-20.4,1-30.3-2.5
			c-6.7-2.4-12.7-6.1-18-10.7c-7.9-6.9-13.8-15.2-18.7-24.4C95,130,95,130,95,130c6.5-6.5,12.9-12.9,19.4-19.4
			c0.2,0.4,0.4,0.8,0.6,1.3c2.8,5.8,5.9,11.4,10.3,16.3c5.5,6.2,12.3,10.1,20.4,11.5c6.2,1.1,12.4,0.7,18.4-1.2
			c4.6-1.4,9.1-3.3,12.9-6.3c2.4-1.9,4.6-4.2,6.9-6.4c11.5-11.4,22.9-22.9,34.4-34.4c5.7-5.7,9.5-12.4,10.8-20.3
			c2.2-12.9-1.4-24.1-10.4-33.5c-2.6-1.7-5-3.5-7.7-5c-4.3-2.5-8.9-4.1-13.8-5c-7.2-1.3-14-0.1-20.6,2.9c-5.9,2.8-11,6.8-15.7,11.2
			c-3.5,3.3-6.9,6.8-10.3,10.2c-0.4,0.4-0.7,0.5-1.3,0.3c-7.2-2.8-14.7-4.4-22.4-4.1c-2.8,0.1-5.5,0.7-8.3,1.1
			c-0.9,0.1-1.7,0.2-2.8,0.3c0.3-0.3,0.3-0.4,0.4-0.5c6.8-6.6,13.5-13.3,20.4-19.8c7.3-7,14.9-13.7,23.6-19.1
			c6.4-4,13.1-7.1,20.4-8.6c2.3-0.5,4.6-0.7,7-1.1c0.3,0,0.6-0.1,0.9-0.2C190.8,0.2,193.1,0.2,195.5,0.2z"/>
		<path fill="#1C3664" d="M25.2,164c0.1-1.2,0.2-2.4,0.3-3.5c1.1-12.1,5.4-22.9,12.7-32.6c2.8-3.7,6.1-7,9.3-10.2
			C59.1,106,70.8,94.4,82.4,82.7c3.4-3.5,6.8-6.9,10.9-9.6c7.3-4.9,15.2-8,23.9-9.4c5.9-1,11.9-1.2,17.8-0.5
			c10.8,1.3,20.4,5.4,28.8,12.2c8.8,7.2,15.3,16.2,20.5,26c-6.5,6.5-12.9,12.9-19.4,19.4c-0.9-1.6-1.7-3.3-2.6-4.9
			c-3.2-5.7-6.8-11-11.7-15.5c-5.8-5.3-12.5-8.4-20.3-9.1c-11.4-0.9-21.6,2.3-30.4,9.8c-4,3.5-7.6,7.5-11.4,11.3
			c-9.6,9.6-19.3,19.2-28.9,28.9c-5.3,5.3-8.5,11.7-9.6,19c-1.7,10.5,0.6,20.1,6.6,28.9c2.6,3.8,6.1,6.6,10,8.8
			c4.4,2.5,9,4.4,13.9,5.5c5.7,1.3,11.4,0.9,17-0.7c5.9-1.7,11.5-4.1,16-8.3c3-2.7,5.7-5.6,8.5-8.4c1.7-1.7,3.4-3.4,5.1-5.1
			c0.4-0.4,0.6-0.5,1.1-0.2c3.5,1.7,7.2,2.4,11,2.5c4.6,0.1,9.2,0.1,13.9,0c2.4-0.1,4.8-0.6,7.1-1c-0.1,0.1-0.3,0.3-0.5,0.5
			c-8.9,8.9-17.9,17.8-26.8,26.8c-2.8,2.9-5.6,5.8-8.9,8.2c-6.8,5-14.4,8.2-22.6,9.8c-7.1,1.4-14.2,1.5-21.3,0.4
			c-9.9-1.4-19-4.9-27.1-10.6c-12.5-8.7-21.4-20.1-25.5-35c-1.2-4.3-1.9-8.6-2.1-13c0-0.4-0.1-0.8-0.2-1.2
			C25.2,166.9,25.2,165.5,25.2,164z"/>
	</g>
</g>
</svg>
