<?xml version="1.0" encoding="utf-8"?>
<!-- Generator: Adobe Illustrator 19.1.0, SVG Export Plug-In . SVG Version: 6.00 Build 0)  -->
<!DOCTYPE svg PUBLIC "-//W3C//DTD SVG 1.1//EN" "http://www.w3.org/Graphics/SVG/1.1/DTD/svg11.dtd">
<svg version="1.1" id="Layer_1" xmlns="http://www.w3.org/2000/svg" xmlns:xlink="http://www.w3.org/1999/xlink" x="0px" y="0px"
	 viewBox="0 0 281.4 228.8" enable-background="new 0 0 281.4 228.8" xml:space="preserve">
<g id="oDzIIG.tif">
	<g>
		<path fill="#1C3664" d="M281.4,27.1c0,0.1,0,0.3,0,0.4c-0.2,0.3-0.4,0.6-0.6,0.9c-6,8.8-13.1,16.6-21.2,23.4
			c-2.2,1.8-4.5,3.6-6.7,5.4c0,0.3,0,0.8,0,1.2c0.2,5.2,0.1,10.3-0.2,15.5c-0.4,7.4-1.4,14.8-2.9,22.1
			c-3.7,18.3-10.1,35.5-19.4,51.7c-12.6,22-29.2,40.3-50.3,54.5c-24.6,16.5-51.9,24.9-81.4,26.5c-0.5,0-1.1,0.1-1.6,0.2
			c-5.5,0-11,0-16.5,0c-0.4-0.1-0.9-0.2-1.3-0.2c-3.1-0.3-6.1-0.4-9.2-0.8c-7-0.8-13.8-2-20.6-3.7c-17.3-4.3-33.5-11.2-48.5-20.7
			c-0.2-0.1-0.4-0.3-0.9-0.6c10.3,1.2,20.3,1,30.3-0.4c10-1.4,19.7-4.1,29-8.1c8.7-3.7,24.2-13,25.7-15.4
			c-12.3-0.4-23.3-4.2-33.1-11.6c-9.8-7.3-16.5-16.9-20.4-28.6c8.7,1.6,17.1,1.4,25.5-0.9c-8.8-2-16.7-5.7-23.7-11.3
			c-7-5.5-12.5-12.4-16.4-20.4c-3.9-8.1-5.7-16.6-5.7-25.7c4.1,2.2,8.2,4,12.6,5.1c4.3,1.2,8.6,1.9,13.1,2
			c-12.3-8.8-20.4-20.3-23.7-35.1c-3.3-14.7-1.1-28.6,6.2-41.8c0.2,0.1,0.3,0.1,0.3,0.1c0.2,0.2,0.4,0.4,0.6,0.7
			c17.8,21.4,39.6,37.3,65.3,47.8c11,4.5,22.4,7.6,34.2,9.6c5.3,0.9,10.7,1.5,16,1.9c0.9,0.1,1.7,0,2.6,0c0-0.2-0.1-0.4-0.1-0.5
			c0-0.2-0.1-0.4-0.1-0.5c-1.5-7.1-1.6-14.3-0.4-21.5c1.8-10.8,6.3-20.4,13.6-28.6c9.8-11,22.1-17.5,36.8-19.2
			c0.9-0.1,1.9-0.3,2.8-0.4c2.4,0,4.8,0,7.3,0c0.4,0.1,0.7,0.2,1.1,0.2c1.9,0.3,3.9,0.4,5.8,0.8c12,2.3,22.4,7.7,30.9,16.4
			c0.7,0.7,1.2,0.9,2.1,0.6c0.1,0,0.1,0,0.2,0c12.1-2.6,23.5-6.9,34.2-13.1c0.3-0.2,0.6-0.3,0.8-0.4C269.2,17.9,260.9,28.4,249,36
			c1.5-0.1,3-0.3,4.5-0.6c9.3-1.5,18.3-4.2,27-7.9C280.8,27.4,281.1,27.2,281.4,27.1z"/>
	</g>
</g>
</svg>
