<?xml version="1.0" encoding="UTF-8"?>
<?xml-stylesheet type="text/css" href="../../css/svg.css" ?>
<svg xmlns="http://www.w3.org/2000/svg" xmlns:xlink="http://www.w3.org/1999/xlink" viewBox="0 0 540 547" preserveAspectRatio="xMinYMin meet" version="1.1">
  <g id="total-g" transform="translate(10,-20),scale(0.97)">
    <g id="non-lo-co-states" fill="none" stroke-width="1.5" stroke="#505050" mask="url(#non-lo-co-mask)" stroke-linejoin="round">
      <path id="Texas" d="M 350.96875 288.222656 L 346.910156 286.613281 L 343.488281 281.269531 L 339.136719 279.671875 L 338.320312 276.203125 L 338.785156 275.730469 L 404.335938 271.398438 L 399.890625 212.058594 L 396.375 174.347656 L 449.09375 168.539062 L 454.417969 210.363281 L 455.523438 209.859375 L 460.492188 213.695312 L 462.015625 213.703125 L 462.746094 212.585938 L 465.460938 213.261719 L 466.0625 211.402344 L 469.242188 213.605469 L 470.097656 216.125 L 473.351562 215.78125 L 477.5 216.953125 L 480.179688 216.015625 L 483.695312 217.847656 L 485.207031 215.703125 L 488.496094 215.84375 L 489.441406 214.96875 L 490.390625 218.023438 L 492.277344 217.851562 L 492.957031 218.425781 L 492.664062 219.773438 L 493.140625 220.34375 L 495.074219 220.660156 L 497.960938 217.335938 L 499.304688 217.570312 L 499.957031 218.960938 L 502.007812 218.671875 L 502.398438 220.085938 L 503.21875 220.3125 L 504.039062 219.964844 L 504.726562 218.421875 L 505.757812 219.097656 L 506.5625 217.9375 L 507.554688 218.738281 L 506.890625 219.800781 L 508.195312 221.632812 L 509.3125 221.402344 L 509.121094 219.742188 L 509.757812 219.296875 L 509.082031 218.78125 L 510.472656 218.589844 L 510.496094 216.5 L 511.496094 215.957031 L 513.066406 217.953125 L 514.195312 217.597656 L 515.207031 218.296875 L 516.160156 217.792969 L 516.4375 216.289062 L 517.980469 216.441406 L 517.855469 217.644531 L 519.59375 217.988281 L 520.140625 218.742188 L 521.34375 218.328125 L 523.515625 219.925781 L 523.96875 218.257812 L 525.972656 218.035156 L 526.296875 216.84375 L 525.621094 217.214844 L 525.761719 216.734375 L 528.535156 215.957031 L 529.667969 214.75 L 531.59375 215.539062 L 532.980469 215.082031 L 533.191406 213.882812 L 534.078125 213.933594 L 535.605469 212.570312 L 537.316406 213.140625 L 536.945312 213.667969 L 540.898438 213.347656 L 540.691406 212.796875 L 542.214844 212.363281 L 542.304688 211.003906 L 545.238281 211.554688 L 545.324219 212.214844 L 545.585938 211.515625 L 546.25 212.554688 L 547.503906 212.347656 L 549.960938 214.558594 L 551.660156 214.1875 L 551.382812 214.667969 L 551.984375 214.496094 L 552.003906 215.144531 L 553.875 215.171875 L 553.71875 215.789062 L 555.683594 215.316406 L 555.238281 215.765625 L 556.003906 215.492188 L 555.796875 216.117188 L 556.574219 215.8125 L 556.53125 216.316406 L 558.101562 215.695312 L 557.9375 216.449219 L 558.882812 216.980469 L 559.476562 216.5 L 559.140625 217.230469 L 559.636719 217.429688 L 561.910156 216.019531 L 562.066406 216.691406 L 563.332031 215.738281 L 563.515625 216.308594 L 564.703125 215.714844 L 565.746094 216.164062 L 571.742188 250.40625 L 574.664062 252.167969 L 576.230469 253.988281 L 577.363281 255.84375 L 577.0625 258.636719 L 578.261719 259.710938 L 579.710938 259.757812 L 578.988281 260.675781 L 581.605469 262.757812 L 580.953125 264.253906 L 582.429688 264.964844 L 583.109375 266.882812 L 584.316406 266.550781 L 584.5625 267.863281 L 584.050781 268.527344 L 585.285156 269.710938 L 584.234375 270.480469 L 584.285156 271.304688 L 585.324219 272.042969 L 584.695312 273.273438 L 585.253906 274.488281 L 584.273438 276.523438 L 584.507812 277.820312 L 583.25 279.09375 L 583.808594 279.953125 L 582.96875 280.332031 L 582.789062 281.308594 L 583.90625 283.449219 L 583.03125 285.597656 L 584.386719 286.660156 L 584.371094 288.40625 L 585.242188 289.894531 L 584.996094 291.917969 L 584.28125 293.273438 L 582.472656 293.914062 L 581.277344 298.003906 L 584.035156 300.808594 L 579.601562 301.53125 L 568.550781 308.691406 L 567.164062 310.453125 L 566.738281 310.085938 L 568.421875 307.761719 L 570.328125 306.164062 L 571.753906 306.296875 L 572.226562 305.339844 L 571.476562 305.714844 L 570.332031 305.128906 L 566.167969 306.679688 L 567.332031 303.800781 L 567.125 301.671875 L 566.316406 300.929688 L 564.632812 301.933594 L 563.828125 304.109375 L 559.523438 301.714844 L 561.832031 304.160156 L 561.753906 306.878906 L 563.925781 307.878906 L 562.679688 308.960938 L 563.417969 308.753906 L 563.382812 309.667969 L 564.148438 309.648438 L 563.988281 309.046875 L 564.644531 310.039062 L 566.199219 310.445312 L 564.65625 310.160156 L 564.796875 312.054688 L 563.734375 311.828125 L 561.9375 315.015625 L 560.105469 315.191406 L 560.289062 317.015625 L 559.703125 317.378906 L 559.121094 320.3125 L 551.503906 327.03125 L 551.648438 326.4375 L 546.691406 328.515625 L 546.53125 330.054688 L 551.15625 327.257812 L 542.082031 333.65625 L 545.921875 330.722656 L 545.90625 329.457031 L 541.234375 331.917969 L 541.132812 331.359375 L 542.667969 330.835938 L 540.992188 330.535156 L 542.34375 327.496094 L 541.386719 329.324219 L 540.03125 330.0625 L 540.195312 328.984375 L 538.648438 331.222656 L 537.78125 328.929688 L 537.15625 329.324219 L 536.597656 328.441406 L 537.101562 329.664062 L 537.59375 329.101562 L 537.53125 330.910156 L 538.453125 331.425781 L 536.367188 332.886719 L 537.296875 331.871094 L 536.792969 330.625 L 536.402344 331.96875 L 535.703125 330.910156 L 534.609375 331.351562 L 534.074219 327.589844 L 534.332031 330.175781 L 533.964844 329.628906 L 532.914062 329.839844 L 532.753906 330.640625 L 533.941406 331.71875 L 534.058594 333.148438 L 534.859375 332.703125 L 536.605469 333.988281 L 535.226562 334.984375 L 536.117188 335.0625 L 536.820312 334.109375 L 538.671875 335.324219 L 533.789062 338.8125 L 530.871094 335.375 L 530.234375 336.078125 L 530.933594 336.0625 L 531.339844 337.226562 L 529.789062 337.128906 L 531.199219 338.117188 L 531.746094 340.789062 L 528.707031 343.734375 L 529.054688 340.519531 L 527.96875 341.683594 L 528.699219 342.125 L 528.234375 343.777344 L 527.039062 343.429688 L 527.0625 342.039062 L 525.152344 343.820312 L 524.996094 343.144531 L 524.371094 343.273438 L 524.699219 344.191406 L 522.835938 345.566406 L 523.25 345.875 L 522.746094 346.441406 L 525.527344 345.46875 L 527.257812 344.0625 L 527.550781 345.972656 L 524.773438 350.941406 L 523.746094 350.84375 L 524.375 350.570312 L 522.90625 349.859375 L 521.480469 350.726562 L 521.691406 349.960938 L 518.292969 350.585938 L 519.21875 351.4375 L 520.964844 350.976562 L 520.96875 352.324219 L 522.660156 353.417969 L 522.035156 353.425781 L 522.671875 353.898438 L 522.15625 355.066406 L 521.28125 355.339844 L 522.292969 355.257812 L 522.839844 353.496094 L 524.046875 353.769531 L 522.789062 356.734375 L 521.84375 362.203125 L 520.121094 362.4375 L 519.675781 359.835938 L 519.511719 361.96875 L 518.226562 363.09375 L 514.992188 360.820312 L 516.679688 363.402344 L 514.648438 363.785156 L 519.421875 364.503906 L 521.695312 363.460938 L 520.675781 367.65625 L 521.375 369.460938 L 519.664062 370.074219 L 520.207031 372.933594 L 521.566406 373.9375 L 523.636719 379.8125 L 522.777344 380.832031 L 524.0625 382.71875 L 525.164062 383.167969 L 525.910156 387.003906 L 528.183594 389.277344 L 527.890625 390.777344 L 529.125 390.484375 L 530.074219 391.585938 L 527.371094 391.664062 L 527.492188 392.238281 L 526.027344 392.882812 L 526.113281 394.464844 L 525.148438 394.578125 L 521.84375 392.996094 L 522.09375 392.503906 L 521.324219 392.414062 L 520.480469 391.148438 L 516.050781 390.824219 L 512.640625 391.214844 L 511.980469 391.832031 L 511.773438 391.167969 L 509.476562 391.644531 L 507.574219 390.902344 L 507.488281 390.144531 L 506.832031 390.683594 L 506.34375 389.695312 L 505.613281 389.832031 L 504.105469 388.554688 L 503.457031 389.054688 L 501.125 387.996094 L 499.632812 388.558594 L 496.539062 385.945312 L 494.820312 386.445312 L 494.144531 385.746094 L 490.800781 385.550781 L 490.753906 384.039062 L 489.308594 382.921875 L 486.332031 376.359375 L 484.082031 374.621094 L 483.933594 373.558594 L 482.644531 372.960938 L 482.617188 369.210938 L 481.914062 367.722656 L 480.285156 366.816406 L 480.9375 362.964844 L 480.203125 362.738281 L 479.527344 360.425781 L 476.214844 359.683594 L 473.996094 357.300781 L 472.8125 357.03125 L 471.105469 353.042969 L 470.078125 352.78125 L 467.753906 349.699219 L 465.394531 348.886719 L 465.128906 348.042969 L 463.613281 347.339844 L 461.679688 343.175781 L 462.226562 342.636719 L 460.71875 341.832031 L 460.9375 340.8125 L 458.96875 339.441406 L 456.722656 334.542969 L 455.566406 334.039062 L 454.824219 330.65625 L 452.738281 328.960938 L 452.039062 327.363281 L 447.734375 324.910156 L 446.421875 322.839844 L 442.632812 322.035156 L 442.554688 319.804688 L 441.621094 320.9375 L 441.535156 319.382812 L 440.34375 319.390625 L 439.496094 317.003906 L 438.621094 317.285156 L 438.148438 316.714844 L 436.917969 317.390625 L 436.71875 316.378906 L 436.097656 317.417969 L 435.011719 317.695312 L 431.839844 317.472656 L 431.511719 316.757812 L 429.574219 317.488281 L 428.585938 316.914062 L 426.9375 317.800781 L 421.847656 316.152344 L 421.09375 316.976562 L 420.910156 318.675781 L 418.644531 318.484375 L 417.785156 319.335938 L 417.269531 318.753906 L 416.199219 319.839844 L 415.445312 319.640625 L 413.390625 324.46875 L 413.257812 327.054688 L 412.207031 328.410156 L 411.867188 330.265625 L 412.734375 331.074219 L 410.484375 332.078125 L 407.691406 336.90625 L 405.492188 336.441406 L 405.265625 336.917969 L 404.113281 335.613281 L 403.386719 336.0625 L 401.449219 335.332031 L 400.34375 333.792969 L 396.59375 333.105469 L 396.164062 332.269531 L 395.363281 332.339844 L 395.554688 331.207031 L 390.226562 330.558594 L 387.871094 329.140625 L 386.988281 327.394531 L 383.628906 326.171875 L 380.476562 323.582031 L 379.5 320.859375 L 377.539062 318.789062 L 376.558594 311.71875 L 374.320312 309.433594 L 374.425781 308.863281 L 373.53125 308.578125 L 372.585938 304.773438 L 370.695312 303.359375 L 370.441406 302.441406 L 369.261719 302.4375 L 366.234375 299.933594 L 365.433594 300.292969 L 364.84375 299.585938 L 364.375 299.949219 L 362.90625 299.246094 L 362.492188 298.199219 L 359.671875 296.289062 L 358.65625 294.441406 L 355.464844 292.796875 Z M 564.683594 313.222656 L 567.21875 310.929688 L 567.660156 311.378906 L 561.503906 317.300781 Z M 538.785156 337.277344 L 531.097656 344.5 L 531.402344 342.105469 L 532.632812 341.695312 L 536.261719 338.222656 L 537.582031 337.882812 L 538.175781 336.339844 Z M 529.109375 345.207031 L 530.183594 343.167969 L 530.945312 343.730469 L 530.773438 344.917969 L 527.535156 349.960938 L 527.828125 348.292969 L 529.09375 346.574219 L 528.589844 346.273438 Z M 525.882812 377.714844 L 524.492188 375.53125 L 523.207031 370.902344 L 522.804688 364.675781 L 524.246094 373.429688 L 527.710938 381.5625 L 529.632812 389.03125 Z M 522.980469 362.898438 L 522.773438 364.546875 L 523.03125 359.402344 L 524.355469 356.125 L 523.972656 354.605469 L 525.152344 355.34375 L 525.546875 353.171875 L 527.117188 350.671875 L 526.359375 350.589844 L 527.488281 350.199219 L 524.859375 356.222656 Z "/>
      <path id="Utah" d="M 205.507812 145.671875 L 207.628906 62.597656 L 255.679688 62.933594 L 255.855469 84.460938 L 288.535156 83.722656 L 291.25 169.898438 L 267.015625 170.558594 L 205.007812 170.238281 Z "/>
      <path id="Colorado" d="M 410.910156 147.816406 L 412.523438 161.902344 L 344.0625 167.550781 L 291.25 169.898438 L 288.535156 83.722656 L 355.703125 80.015625 L 402.867188 75.347656 Z "/>
      <path id="New Mexico" d="M 294.027344 267.925781 L 291.25 169.898438 L 344.0625 167.550781 L 395.863281 163.351562 L 404.335938 271.398438 L 338.785156 275.730469 L 338.320312 276.203125 L 339.136719 279.671875 L 340.558594 280.28125 L 309.957031 281.550781 L 310.144531 291.09375 L 294.726562 291.5625 Z "/>
      <path id="Oregon" d="M 88.613281 54.488281 L 44.117188 48.675781 L 42.089844 46.148438 L 41.78125 38.800781 L 42.992188 34.722656 L 41.15625 29.816406 L 42.738281 27.339844 L 45.296875 20.972656 L 45.121094 20.09375 L 47.71875 16.980469 L 50.820312 8.671875 L 55.046875 -8.441406 L 55.21875 -11.777344 L 58.601562 -21.804688 L 58.867188 -26 L 59.605469 -26.390625 L 60.167969 -25.558594 L 60.746094 -26.023438 L 59.550781 -27.734375 L 60.253906 -30.585938 L 60.132812 -35.875 L 61.496094 -37.21875 L 61.285156 -41.445312 L 63.726562 -39.0625 L 63.589844 -40.894531 L 64.535156 -41.109375 L 65.066406 -40.144531 L 65.785156 -40.140625 L 68.273438 -41.125 L 70.277344 -38.808594 L 71.992188 -38.554688 L 73.203125 -39.25 L 74.996094 -38.382812 L 77.023438 -36.417969 L 78 -33.308594 L 77.835938 -26.867188 L 84.449219 -23.652344 L 87.925781 -24.238281 L 92.320312 -26.09375 L 96.625 -25.976562 L 99.722656 -25.105469 L 101.242188 -24.25 L 101.679688 -22.777344 L 103.941406 -23.65625 L 105.796875 -23.066406 L 110.347656 -24.917969 L 112.941406 -23.453125 L 116.574219 -23.734375 L 119.992188 -25.371094 L 124.835938 -25.789062 L 126.304688 -26.96875 L 133.085938 -26.601562 L 135.601562 -27.964844 L 166.582031 -25.527344 L 168.535156 -21.609375 L 169.597656 -21.535156 L 171.65625 -19.859375 L 172.84375 -16.738281 L 169.445312 -11.078125 L 168.210938 -6.867188 L 166.253906 -4.382812 L 166.417969 -2.28125 L 165.867188 -1.199219 L 164.449219 0.71875 L 163.058594 1.210938 L 161.140625 5.730469 L 159.832031 6.980469 L 159.523438 8.757812 L 160.355469 11.769531 L 163.105469 12.078125 L 163.207031 13.148438 L 164.375 14.335938 L 163.121094 15.824219 L 163.714844 17.152344 L 161.820312 21.664062 L 159.738281 60.585938 L 122.21875 57.957031 Z "/>
      <path id="Wyoming" d="M 368.707031 63.605469 L 370.105469 78.589844 L 324.164062 82.105469 L 255.855469 84.460938 L 254.933594 -1.691406 L 303.234375 -3.238281 L 361.871094 -7.5 Z "/>
      <path id="Oklahoma" d="M 553.03125 187.4375 L 557.378906 215.921875 L 556.96875 216.195312 L 555.796875 216.117188 L 556.003906 215.492188 L 555.238281 215.765625 L 555.683594 215.316406 L 553.925781 215.804688 L 553.875 215.171875 L 552.265625 215.246094 L 551.984375 214.496094 L 551.382812 214.667969 L 551.660156 214.1875 L 549.960938 214.558594 L 547.503906 212.347656 L 546.25 212.554688 L 545.585938 211.515625 L 545.324219 212.214844 L 545.238281 211.554688 L 542.304688 211.003906 L 542.214844 212.363281 L 540.691406 212.796875 L 540.898438 213.347656 L 536.945312 213.667969 L 537.316406 213.140625 L 535.605469 212.570312 L 534.078125 213.933594 L 533.191406 213.882812 L 532.980469 215.082031 L 531.59375 215.539062 L 529.667969 214.75 L 528.535156 215.957031 L 525.761719 216.734375 L 525.621094 217.214844 L 526.296875 216.84375 L 525.972656 218.035156 L 523.96875 218.257812 L 523.515625 219.925781 L 521.34375 218.328125 L 520.140625 218.742188 L 519.59375 217.988281 L 517.855469 217.644531 L 517.980469 216.441406 L 516.4375 216.289062 L 516.160156 217.792969 L 515.207031 218.296875 L 514.195312 217.597656 L 513.066406 217.953125 L 511.496094 215.957031 L 510.496094 216.5 L 510.472656 218.589844 L 509.082031 218.78125 L 509.757812 219.296875 L 509.121094 219.742188 L 509.40625 221.152344 L 508.875 221.597656 L 507.453125 221.207031 L 506.890625 219.800781 L 507.554688 218.738281 L 507.011719 218.015625 L 505.96875 218.277344 L 505.757812 219.097656 L 504.726562 218.421875 L 504.039062 219.964844 L 503.21875 220.3125 L 502.398438 220.085938 L 502.007812 218.671875 L 499.957031 218.960938 L 499.304688 217.570312 L 497.960938 217.335938 L 494.765625 220.746094 L 492.691406 219.984375 L 493.035156 218.667969 L 492.277344 217.851562 L 490.390625 218.023438 L 489.441406 214.96875 L 488.496094 215.84375 L 485.207031 215.703125 L 483.695312 217.847656 L 480.179688 216.015625 L 477.5 216.953125 L 473.351562 215.78125 L 471 216.257812 L 469.808594 215.917969 L 469.242188 213.605469 L 467.949219 212.308594 L 466.0625 211.402344 L 465.460938 213.261719 L 462.746094 212.585938 L 462.015625 213.703125 L 460.492188 213.695312 L 455.523438 209.859375 L 454.417969 210.363281 L 449.199219 168.558594 L 396.894531 174.28125 L 395.863281 163.351562 L 412.746094 161.878906 L 457.625 156.414062 L 491.914062 151.429688 L 541.523438 142.921875 L 543.640625 153.972656 L 551.355469 177.109375 Z "/>
      <path id="Nebraska" d="M 415.929688 95.640625 L 405.238281 96.917969 L 402.867188 75.347656 L 370.105469 78.589844 L 366.050781 35.480469 L 410.792969 30.851562 L 454.078125 24.4375 L 454.90625 25.511719 L 460.226562 26.882812 L 462.242188 28.023438 L 463.332031 27.738281 L 464.222656 25.765625 L 465.296875 25.34375 L 467.515625 25.625 L 468.230469 24.957031 L 472.109375 24.140625 L 474.488281 24.066406 L 476.582031 25.429688 L 479.042969 25.332031 L 479.328125 26.109375 L 481.953125 26.011719 L 482.257812 26.71875 L 483.90625 26.6875 L 483.847656 27.714844 L 486 29.664062 L 486.875 29.203125 L 489.507812 29.898438 L 489.535156 32.535156 L 491.363281 34.183594 L 491.421875 36.230469 L 492.679688 36.996094 L 493.964844 39.488281 L 495.539062 39.976562 L 495.589844 41.355469 L 497.398438 43.539062 L 497.605469 45.433594 L 497.050781 45.765625 L 498.28125 49.058594 L 499.605469 48.828125 L 499.792969 50.015625 L 501.039062 50.21875 L 501.414062 52.886719 L 502.449219 53.558594 L 501.773438 53.671875 L 502.289062 55.683594 L 503.433594 56.082031 L 503.582031 58.621094 L 504.632812 60.476562 L 504.984375 65.875 L 507.128906 67.429688 L 507.585938 69.4375 L 508.871094 69.769531 L 509.210938 68.929688 L 508.972656 70.621094 L 510.851562 73.378906 L 510.5 74.285156 L 511.347656 74.109375 L 513.65625 75.53125 L 515.734375 78.085938 L 515.445312 79.203125 L 517.398438 79.925781 L 464.191406 89.152344 Z "/>
      <path id="Kansas" d="M 533.621094 144.285156 L 473.207031 154.175781 L 412.523438 161.902344 L 405.238281 96.917969 L 464.191406 89.152344 L 517.398438 79.925781 L 521.410156 82.0625 L 524.011719 80.96875 L 524.242188 81.972656 L 525.179688 82.511719 L 524.578125 83.574219 L 525.6875 84.167969 L 524.316406 84.601562 L 522.800781 89.378906 L 526.863281 92.015625 L 526.949219 93.296875 L 528.886719 95.445312 L 532.894531 96.234375 L 541.523438 142.921875 Z "/>
    </g>
    <g id="mexico" fill="none" fill-opacity="0.2" stroke-width="1.5" stroke="#505050" stroke-linejoin="round" mask="url(#mexico-mask)">
      <g id="Mexico">
        <g>
          <path id="Mexico-1" d="M 402.027344 387.667969 L 397.792969 386.472656 L 390.980469 386.34375 L 384.414062 395.488281 L 380.773438 393.464844 L 375.496094 393.625 L 372.933594 392.011719 L 369.359375 393.957031 L 364.15625 391.183594 L 363 389.824219 L 360.910156 390.101562 L 355.367188 386.4375 L 353.085938 388.328125 L 351.675781 395.753906 L 349.851562 396.792969 L 347.671875 396.796875 L 349.242188 400.386719 L 349.34375 402.140625 L 346.730469 404.414062 L 346.527344 409.480469 L 342.640625 413.234375 L 335.941406 413.839844 L 335.136719 411.347656 L 331.476562 406.730469 L 329.953125 403.019531 L 321.867188 401.519531 L 320.359375 392.09375 L 317.230469 388.367188 L 316.828125 386.003906 L 315.816406 385.300781 L 312.925781 385.042969 L 312.367188 383.746094 L 311.375 383.304688 L 309.332031 384.007812 L 308.09375 385.539062 L 305.492188 383.957031 L 304.214844 381.359375 L 304.707031 377.859375 L 304.152344 373.480469 L 298.917969 367.011719 L 294.5 359.742188 L 296.164062 357.050781 L 299.613281 357.023438 L 303.890625 358.726562 L 305.503906 357.023438 L 302.910156 348.328125 L 304.105469 346.6875 L 302.167969 333.367188 L 303.9375 332.980469 L 304.597656 320.371094 L 302 307.890625 L 300.898438 306.699219 L 299.378906 294.417969 L 298.707031 295.46875 L 297.660156 294.738281 L 298.675781 291.6875 L 310.195312 291.324219 L 309.863281 281.632812 L 340.871094 280.386719 L 343.246094 280.988281 L 346.980469 286.742188 L 351.480469 288.71875 L 355.429688 292.640625 L 358.734375 294.546875 L 362.847656 298.976562 L 367.121094 300.609375 L 371.722656 304.027344 L 377.019531 312.796875 L 377.4375 318.113281 L 380.371094 323.734375 L 382.828125 325.820312 L 386.539062 327.203125 L 390.238281 330.503906 L 393.257812 331.273438 L 405.058594 336.71875 L 394.136719 361.753906 Z "/>
        </g>
        <g>
          <path id="Mexico-2" d="M 237.984375 343.351562 L 237.097656 343.242188 L 236.140625 336.042969 L 233.957031 335.574219 L 232.828125 333.546875 L 233.089844 331.976562 L 229.347656 327.28125 L 226.40625 321.703125 L 225.886719 316.1875 L 220.09375 306 L 219.472656 303.503906 L 220.980469 295.984375 L 220.023438 294.582031 L 212.941406 293.328125 L 210.851562 292.273438 L 209.90625 288.589844 L 203.875 285.183594 L 204.34375 287.101562 L 202.960938 288.566406 L 199.347656 287.964844 L 192.710938 282.6875 L 188.628906 281.25 L 184.875 278.300781 L 185.316406 274.269531 L 184.6875 271.976562 L 186.957031 266.964844 L 189 266.515625 L 257.804688 292.414062 L 298.675781 291.6875 L 297.660156 294.738281 L 298.707031 295.46875 L 299.378906 294.417969 L 300.898438 306.699219 L 302 307.890625 L 304.597656 320.371094 L 303.9375 332.980469 L 302.167969 333.367188 L 304.105469 346.6875 L 302.910156 348.328125 L 305.503906 357.023438 L 303.890625 358.726562 L 299.613281 357.023438 L 296.164062 357.050781 L 294.5 359.742188 L 298.917969 367.011719 L 304.152344 373.480469 L 304.707031 377.859375 L 304.214844 381.359375 L 305.492188 383.957031 L 308.03125 385.25 L 307.878906 388.328125 L 295.429688 399.253906 L 293.007812 395.539062 L 287.96875 390.242188 L 284.96875 392.269531 L 283.480469 391.789062 L 281.257812 389.089844 L 279.578125 383.308594 L 272.769531 381.925781 L 268.34375 377.488281 L 266.265625 371.25 L 266.804688 369.199219 L 268.574219 367.085938 L 263.25 365.808594 L 261.695312 367.417969 L 258.160156 365.15625 L 257.257812 365.425781 L 254.097656 362.171875 L 250.351562 356.046875 L 245.90625 354.046875 L 244.578125 351.394531 L 241.390625 348.238281 L 241.714844 347.203125 Z M 234.539062 347.855469 L 229.492188 345.152344 L 231.542969 338.605469 L 234.695312 337.515625 L 236.375 342.726562 L 235.417969 347.351562 Z "/>
        </g>
        <g>
          <path id="Mexico-3" d="M 423.207031 420.707031 L 420.320312 425.566406 L 420.605469 428.710938 L 417.992188 427.089844 L 412.78125 425.621094 L 411.769531 424.464844 L 411.46875 421.785156 L 408.769531 420.109375 L 406.453125 417.539062 L 407.714844 416.230469 L 408.019531 414.820312 L 406.570312 413.335938 L 406.445312 411.6875 L 409.289062 407.023438 L 408.605469 399.957031 L 409.339844 395.113281 L 408.425781 393.265625 L 402.027344 387.667969 L 394.136719 361.753906 L 405.058594 336.71875 L 407.496094 336.808594 L 412.136719 330.578125 L 415.570312 319.667969 L 418.789062 318.558594 L 422.265625 315.949219 L 426.753906 317.527344 L 439.425781 316.949219 L 441.523438 320.199219 L 445.035156 322.601562 L 446.917969 323.0625 L 452.039062 327.011719 L 454.824219 330.023438 L 455.738281 333.234375 L 461.941406 342.285156 L 463.9375 347.308594 L 465.945312 348.933594 L 468.117188 349.640625 L 472.472656 354.738281 L 473.074219 356.847656 L 474.195312 357.46875 L 471.265625 360.757812 L 466.875 357.699219 L 464.558594 359.769531 L 462.925781 366.703125 L 459.898438 367.113281 L 455.601562 371.003906 L 456.542969 375.492188 L 458.46875 375.570312 L 459.113281 374.28125 L 461.375 375.097656 L 461.964844 378.492188 L 461.515625 380.621094 L 459.21875 383.988281 L 456.980469 382.796875 L 449.515625 390.453125 L 453.601562 394.902344 L 454.289062 394.835938 L 455.917969 396.46875 L 457.921875 399.640625 L 458.464844 403.359375 L 460.976562 406.140625 L 462.359375 406.238281 L 463.648438 407.4375 L 463.789062 408.328125 L 461.832031 407.683594 L 461.433594 408.339844 L 466.152344 411.199219 L 471.800781 412.558594 L 471.15625 413.929688 L 469.015625 414.679688 L 464.78125 414.175781 L 461.695312 415.074219 L 460.496094 416.121094 L 459.65625 418.613281 L 460.632812 422.257812 L 460.578125 429.082031 L 459.636719 428.378906 L 458.160156 429.015625 L 456.929688 428.703125 L 451.515625 424.367188 L 447.328125 425.953125 L 445.070312 426.035156 L 444.773438 423.796875 L 441.664062 423.078125 L 439.761719 420.640625 L 431.167969 418.410156 L 423.167969 419.792969 Z "/>
        </g>
        <g>
          <path id="Mexico-4" d="M 394.003906 482.304688 L 393.207031 479.515625 L 390.328125 480.464844 L 387.714844 479.152344 L 386.707031 476.167969 L 384.777344 475.070312 L 383.5625 475.304688 L 380.109375 478.089844 L 379.847656 475.207031 L 382.03125 472.863281 L 381.277344 469.855469 L 375.878906 467.566406 L 373.324219 467.824219 L 371.382812 467.191406 L 371.015625 465.484375 L 368.777344 465.644531 L 365.597656 462.726562 L 364.71875 458.738281 L 361.105469 452.683594 L 360.390625 446.332031 L 358.382812 443.035156 L 353.3125 439.421875 L 350.484375 441.804688 L 347.960938 441.414062 L 345.59375 435.910156 L 342.222656 432.046875 L 340.457031 431.664062 L 339.1875 430.199219 L 336.023438 424.1875 L 335.386719 420.578125 L 335.941406 413.839844 L 342.640625 413.234375 L 346.527344 409.480469 L 346.730469 404.414062 L 348.808594 403.109375 L 349.4375 401.484375 L 347.671875 396.796875 L 349.851562 396.792969 L 351.675781 395.753906 L 353.085938 388.328125 L 355.367188 386.4375 L 360.910156 390.101562 L 363 389.824219 L 364.15625 391.183594 L 369.359375 393.957031 L 372.933594 392.011719 L 375.496094 393.625 L 380.773438 393.464844 L 384.414062 395.488281 L 390.980469 386.34375 L 397.792969 386.472656 L 402.027344 387.667969 L 408.425781 393.265625 L 409.339844 395.113281 L 408.605469 399.957031 L 409.289062 407.023438 L 406.445312 411.6875 L 406.570312 413.335938 L 408.019531 414.820312 L 407.714844 416.230469 L 406.453125 417.539062 L 408.769531 420.109375 L 411.46875 421.785156 L 411.769531 424.464844 L 413.386719 426.0625 L 417.992188 427.089844 L 420.605469 428.710938 L 420.320312 425.566406 L 423.207031 420.707031 L 426.777344 425.84375 L 427.171875 434.011719 L 422.949219 434.164062 L 422.167969 434.746094 L 412.191406 434.476562 L 405.621094 439.238281 L 405.980469 441.234375 L 401.152344 443.894531 L 400.914062 448.363281 L 402.394531 452.703125 L 398.414062 455.976562 L 397.367188 457.796875 L 397.320312 462.996094 L 396.023438 464.277344 L 395.382812 466.121094 L 394.953125 480.03125 Z "/>
        </g>
        <g>
          <path id="Mexico-5" d="M 616.75 602.066406 L 609.648438 599.320312 L 608.929688 600.621094 L 609.496094 601.472656 L 611.554688 602.429688 L 612.699219 602.480469 L 611.347656 601.875 L 613.527344 602.035156 L 616.691406 603.105469 L 617.398438 604.355469 L 608.992188 601.949219 L 603.582031 602.210938 L 602.847656 601.890625 L 604.75 600.863281 L 605.761719 599.222656 L 603.832031 598.390625 L 601.285156 600.851562 L 600.902344 600.230469 L 601.570312 599.265625 L 599.507812 597.253906 L 596.015625 599.90625 L 595.429688 601.082031 L 599.945312 601.960938 L 592.410156 604.011719 L 588.28125 608.265625 L 581.414062 610.730469 L 572.496094 615.871094 L 566.945312 616.464844 L 566.175781 617.457031 L 558.253906 616.171875 L 550.3125 612.625 L 537.5 612.226562 L 530.058594 607.503906 L 520.785156 605.691406 L 522.378906 604.253906 L 525.636719 603.113281 L 525.878906 599.855469 L 530.199219 595.214844 L 531.367188 589.472656 L 530.253906 587.949219 L 524.621094 584.207031 L 524.488281 581.492188 L 522.742188 578.96875 L 522.722656 570.839844 L 523.355469 570.214844 L 524.890625 570.226562 L 526.429688 567.667969 L 531.039062 567.144531 L 532.847656 569.300781 L 534.179688 568.90625 L 535.472656 567.191406 L 533.972656 563.363281 L 535.304688 560.574219 L 536.863281 559.910156 L 537.433594 560.71875 L 537.121094 563.515625 L 541.132812 567.488281 L 541.964844 567.148438 L 542.984375 564.570312 L 544.8125 563.148438 L 546.382812 562.640625 L 549.199219 563.320312 L 551.394531 562.882812 L 554.957031 559.5 L 555.992188 557.261719 L 555.394531 556.292969 L 557.589844 553.871094 L 556.527344 550.625 L 562.453125 553.273438 L 563.914062 556.675781 L 568.519531 561.535156 L 571.78125 560.863281 L 574.757812 561.550781 L 575.738281 562.417969 L 576.457031 563.796875 L 576.394531 565.546875 L 574.714844 568.078125 L 574.449219 569.59375 L 577.53125 574.640625 L 581.035156 574.503906 L 587.933594 569.414062 L 589.507812 568.957031 L 589.5625 570.789062 L 588.796875 572.011719 L 593.191406 577.175781 L 594.738281 577.480469 L 595.621094 579.742188 L 619.234375 579.167969 L 619.644531 582.246094 L 619.035156 585.242188 L 616.382812 587.523438 L 616.730469 589.621094 L 615.21875 593.863281 L 617.535156 599.039062 Z "/>
        </g>
        <g>
          <path id="Mexico-6" d="M 509 472.046875 L 502.578125 473.742188 L 496.863281 472.667969 L 495.804688 472.039062 L 493.023438 467.734375 L 489.273438 469.214844 L 481.582031 466.964844 L 479.257812 465.300781 L 481.71875 462.28125 L 481.617188 461.359375 L 479.542969 459.359375 L 477.898438 459.03125 L 478.851562 452.832031 L 480.375 451.320312 L 479.765625 450.101562 L 480.957031 446.890625 L 481.785156 445.1875 L 486.535156 444.425781 L 488.265625 441.386719 L 489.226562 441.34375 L 488.589844 439.609375 L 485.878906 437.6875 L 485.363281 434.695312 L 486.167969 431.164062 L 484.515625 428.472656 L 483.625 429.066406 L 482.371094 427.976562 L 488.25 422.421875 L 493 420.851562 L 493.128906 416.335938 L 494.917969 413.78125 L 495.902344 414.65625 L 497.84375 414.445312 L 506.121094 405.988281 L 505.828125 404.464844 L 503.414062 404.105469 L 502.558594 393.75 L 501.785156 392.6875 L 497.476562 392.847656 L 495.953125 394.417969 L 493.546875 392.5 L 491.421875 393.027344 L 489.675781 388.5 L 488.472656 388.695312 L 485.394531 387.460938 L 484.0625 385.480469 L 485.179688 384.261719 L 484.40625 381.734375 L 483.355469 380.976562 L 481.160156 380.90625 L 480.449219 380.054688 L 480.722656 377.234375 L 477.449219 375.894531 L 477.609375 370.597656 L 476.035156 365.011719 L 474.871094 364.324219 L 473.179688 364.695312 L 472.617188 363.089844 L 476.214844 359.527344 L 478.363281 359.917969 L 480.511719 361.3125 L 482.375 367.945312 L 482.539062 372.574219 L 485.652344 376.160156 L 487.027344 376.878906 L 490.8125 385.214844 L 504.371094 388.484375 L 507.292969 390.695312 L 509.480469 391.492188 L 512.296875 391.710938 L 516.441406 390.710938 L 520.46875 391.023438 L 525.5 394.585938 L 526.546875 394.546875 L 526.773438 393.339844 L 528.265625 392.101562 L 530.734375 391.414062 L 530.773438 395.566406 L 529.554688 401.511719 L 525.53125 412.3125 L 523.785156 426.878906 L 524.367188 450.257812 L 525.785156 459.691406 L 523.453125 466.714844 L 526.417969 473.757812 L 524.574219 475.003906 L 523.445312 473.988281 L 523.402344 472.695312 L 519.445312 471.816406 L 517.996094 470.734375 Z "/>
        </g>
        <g>
          <path id="Mexico-7" d="M 661.28125 613.992188 L 659.386719 618.171875 L 662.871094 622.0625 L 660.871094 627.542969 L 661.878906 631.148438 L 661.328125 633.359375 L 660.09375 634.332031 L 647.949219 623.984375 L 646.519531 622.09375 L 647.300781 621.929688 L 648.003906 623.097656 L 647.324219 621.351562 L 642.5625 619.71875 L 637.144531 615.023438 L 623.617188 606.480469 L 620.027344 602.9375 L 616.75 602.066406 L 617.535156 599.039062 L 615.21875 593.863281 L 616.730469 589.621094 L 616.382812 587.523438 L 619.035156 585.242188 L 619.644531 582.246094 L 619.234375 579.167969 L 624.195312 575.132812 L 625.902344 570.414062 L 628.574219 567.902344 L 629.535156 559.832031 L 630.273438 559.066406 L 636.328125 560.03125 L 636.449219 564.238281 L 637.523438 568.476562 L 642.75 571.996094 L 650.417969 563.132812 L 654.707031 561.277344 L 658.050781 557.839844 L 661.191406 558.238281 L 665.234375 562.097656 L 666.371094 565.027344 L 666.09375 566.125 L 669.042969 566.707031 L 671.363281 568.261719 L 671.796875 571.753906 L 674.136719 572.621094 L 680.65625 577.949219 L 683.253906 578.472656 L 684.054688 579.746094 L 686.621094 580.023438 L 688.804688 581.597656 L 690.246094 583.332031 L 690.835938 586.109375 L 691.710938 586.738281 L 694.484375 587.078125 L 696.675781 588.21875 L 695.617188 591.667969 L 695.789062 593.085938 L 696.445312 593.523438 L 696.167969 595.800781 L 668.152344 598.75 Z "/>
        </g>
        <g>
          <path id="Mexico-8" d="M 391.472656 551.09375 L 385.058594 548.390625 L 382.453125 546.621094 L 380.722656 542.660156 L 377.160156 540.214844 L 373.101562 535.09375 L 368.238281 524.4375 L 370.703125 522.894531 L 375.070312 522.117188 L 376.863281 520.84375 L 376.304688 518.175781 L 378.835938 514.089844 L 380.25 512.910156 L 383.210938 512.730469 L 385.628906 510.847656 L 387.070312 510.925781 L 396.269531 516.917969 L 396.261719 513.988281 L 397.484375 511.214844 L 397.320312 508.261719 L 398.507812 506.675781 L 400.640625 505.976562 L 402.089844 504.398438 L 402.234375 502.683594 L 396.984375 498.878906 L 398.96875 493.652344 L 392.523438 487.761719 L 393.699219 483.503906 L 397.234375 481.675781 L 401.210938 480.871094 L 401.621094 477.753906 L 399.375 476.332031 L 399.933594 474.820312 L 399.613281 472.355469 L 403.777344 473.03125 L 404.484375 474.894531 L 402.644531 476.207031 L 403.105469 484.671875 L 405.289062 476.113281 L 406.878906 476.136719 L 407.75 477.0625 L 406.492188 485.402344 L 407.613281 486.691406 L 408.945312 486.5 L 411.132812 484.808594 L 412.90625 481.105469 L 412.105469 478.84375 L 412.667969 477.246094 L 419.367188 481.738281 L 417.460938 488.421875 L 414.914062 488.484375 L 412.933594 489.664062 L 410.511719 492.796875 L 410.886719 497.214844 L 407.289062 501.4375 L 406.828125 503.945312 L 407.710938 505.0625 L 420.855469 508.3125 L 420.089844 505.464844 L 420.625 503.222656 L 421.097656 502.792969 L 422.195312 503.230469 L 427.898438 500.820312 L 428.671875 497.101562 L 425.839844 495.230469 L 426.890625 492.871094 L 428.320312 492.46875 L 431.546875 493.9375 L 436.53125 494.328125 L 439.601562 491.714844 L 444.3125 485.898438 L 450.871094 488.976562 L 449.746094 490.992188 L 450.691406 493.710938 L 449.175781 496.214844 L 450.617188 500.429688 L 449.167969 502.382812 L 446.109375 504.496094 L 441.152344 512.351562 L 441.171875 513.8125 L 443.386719 517.027344 L 441.253906 520.117188 L 441.019531 521.617188 L 438.851562 522.765625 L 434.230469 523.128906 L 430.832031 525.601562 L 423.949219 527.996094 L 421.339844 530.316406 L 421.261719 531 L 423.140625 533.316406 L 424.757812 532.046875 L 428.855469 533.378906 L 429.101562 534.632812 L 427.054688 536.65625 L 429.136719 542.238281 L 431.917969 541.789062 L 432.730469 543.5625 L 430.71875 547.433594 L 428.886719 546.996094 L 424.964844 548.84375 L 424.804688 550.59375 L 421.46875 553.808594 L 418.550781 551.648438 L 417.285156 553.507812 L 414.535156 553.96875 L 413.9375 546.578125 L 410.613281 543.027344 L 407.203125 545.097656 L 401.886719 542.644531 L 400.320312 543.863281 L 400.757812 545.597656 L 396.941406 547.867188 L 392.484375 548.753906 Z "/>
        </g>
        <g>
          <path id="Mexico-9" d="M 450.871094 488.976562 L 444.886719 485.847656 L 443.824219 485.875 L 440.957031 483.59375 L 440.179688 481.207031 L 435.960938 478.675781 L 434.328125 476.867188 L 433.679688 477.074219 L 431.457031 479.777344 L 427.722656 481.417969 L 426.539062 485.746094 L 424.117188 488.9375 L 424.039062 491.414062 L 426.398438 493.429688 L 426.03125 495.816406 L 428.671875 497.101562 L 428.625 498.234375 L 427.898438 500.820312 L 422.195312 503.230469 L 421.097656 502.792969 L 420.625 503.222656 L 420.089844 505.464844 L 420.855469 508.3125 L 407.710938 505.0625 L 406.828125 503.945312 L 407.289062 501.4375 L 410.886719 497.214844 L 410.511719 492.796875 L 412.933594 489.664062 L 414.914062 488.484375 L 417.460938 488.421875 L 419.367188 481.738281 L 412.667969 477.246094 L 412.105469 478.84375 L 412.90625 481.105469 L 411.132812 484.808594 L 408.945312 486.5 L 407.613281 486.691406 L 406.492188 485.402344 L 407.75 477.0625 L 406.878906 476.136719 L 405.289062 476.113281 L 403.105469 484.671875 L 402.644531 476.207031 L 404.484375 474.894531 L 403.777344 473.03125 L 399.613281 472.355469 L 399.933594 474.820312 L 399.375 476.332031 L 401.621094 477.753906 L 401.210938 480.871094 L 397.234375 481.675781 L 393.699219 483.503906 L 394.953125 480.03125 L 395.382812 466.121094 L 396.023438 464.277344 L 397.320312 462.996094 L 397.367188 457.796875 L 398.414062 455.976562 L 402.394531 452.703125 L 400.914062 448.363281 L 401.152344 443.894531 L 405.980469 441.234375 L 405.621094 439.238281 L 412.191406 434.476562 L 422.167969 434.746094 L 422.949219 434.164062 L 427.171875 434.011719 L 426.777344 425.84375 L 423.207031 420.707031 L 423.167969 419.792969 L 431.167969 418.410156 L 437.855469 420.03125 L 440.46875 421.0625 L 441.664062 423.078125 L 444.773438 423.796875 L 445.070312 426.035156 L 447.328125 425.953125 L 451.515625 424.367188 L 456.929688 428.703125 L 458.160156 429.015625 L 459.636719 428.378906 L 460.578125 429.082031 L 457.695312 432.917969 L 454.761719 438.875 L 450.15625 444.445312 L 441.355469 452.726562 L 438.226562 456.539062 L 435.207031 457.828125 L 433.671875 460.445312 L 435.503906 462.765625 L 435.03125 464.425781 L 436.441406 468.253906 L 441.527344 473.035156 L 442.929688 475.628906 L 446.277344 476.070312 L 448.824219 472.929688 L 450.605469 472.355469 L 452.785156 472.734375 L 454.160156 473.925781 L 454.566406 475.320312 L 453.441406 476.960938 L 454.464844 483.964844 Z "/>
        </g>
        <g>
          <path id="Mexico-10" d="M 624.851562 573.53125 L 624.195312 575.132812 L 619.367188 579.160156 L 595.621094 579.742188 L 594.738281 577.480469 L 593.191406 577.175781 L 588.796875 572.011719 L 589.5625 570.789062 L 589.507812 568.957031 L 587.933594 569.414062 L 581.035156 574.503906 L 577.53125 574.640625 L 574.367188 568.953125 L 576.394531 565.546875 L 576.070312 562.84375 L 574.757812 561.550781 L 570.894531 560.761719 L 568.519531 561.535156 L 567.289062 560.777344 L 566.128906 558.457031 L 563.914062 556.675781 L 562.453125 553.273438 L 556.527344 550.625 L 557.589844 553.871094 L 555.394531 556.292969 L 554.277344 553.917969 L 549.183594 555.777344 L 546.804688 552.367188 L 544.082031 552.765625 L 542.273438 549.839844 L 544.121094 546.914062 L 543.1875 541.265625 L 545.246094 540.230469 L 546.945312 540.34375 L 548.484375 538.550781 L 547.300781 537.5 L 544.851562 537.800781 L 541.191406 535.824219 L 540.664062 534.488281 L 540.5 531.132812 L 541.660156 528.246094 L 540.875 525.125 L 543.894531 520.320312 L 543.851562 519.234375 L 538.648438 517.050781 L 536.765625 517.855469 L 536.054688 520.542969 L 535.355469 520.851562 L 532.214844 519.425781 L 530.511719 516.878906 L 530.445312 514.0625 L 531.867188 513.175781 L 533.355469 513.996094 L 534.398438 511.429688 L 533.765625 510.183594 L 530.300781 508.953125 L 530.277344 506.449219 L 527.339844 506.390625 L 526.015625 512.644531 L 524.269531 514.25 L 523.464844 514.652344 L 524.371094 513.164062 L 524.535156 510.496094 L 524.367188 509.878906 L 523.207031 509.636719 L 521.589844 510.832031 L 518.628906 514.917969 L 516.515625 516.675781 L 515.5625 516.71875 L 513.664062 513.945312 L 516.1875 508.945312 L 514.730469 509.222656 L 514.261719 508.5 L 516.433594 506.144531 L 518.640625 505.898438 L 520 504.75 L 521.554688 500.652344 L 518.574219 497.816406 L 516.355469 499.613281 L 514.449219 498.261719 L 512.644531 491.484375 L 510.035156 489.820312 L 510.574219 487.882812 L 511.597656 487.691406 L 513.5625 485.710938 L 512.8125 484.53125 L 511.175781 483.730469 L 510.476562 481.855469 L 512.273438 481.464844 L 514.917969 475.832031 L 509 472.046875 L 517.996094 470.734375 L 519.445312 471.816406 L 523.402344 472.695312 L 523.445312 473.988281 L 524.574219 475.003906 L 526.417969 473.757812 L 526.902344 477.058594 L 529.996094 481.933594 L 537.382812 488.484375 L 535.949219 494.9375 L 534.425781 491.292969 L 536.046875 490.515625 L 536.21875 488.882812 L 530.574219 483.898438 L 527.660156 479.296875 L 529.828125 486.59375 L 532.210938 490.367188 L 533.824219 491.707031 L 541.496094 505.011719 L 542.078125 507.410156 L 553.5625 518.089844 L 558.992188 524.265625 L 563.175781 535.328125 L 566.671875 537.492188 L 568.21875 540.324219 L 570.980469 542.46875 L 572.308594 545.992188 L 574.800781 547.554688 L 583.355469 547.691406 L 587.238281 547.132812 L 591.078125 549.140625 L 591.578125 549.992188 L 596.289062 550.445312 L 598.144531 553.242188 L 602.855469 557.996094 L 605.402344 558 L 611.253906 556.066406 L 612.804688 558.628906 L 613.382812 563.351562 L 618.261719 566.242188 L 621.097656 567.171875 L 623.097656 570.253906 L 622.953125 571.855469 Z "/>
        </g>
        <g>
          <path id="Mexico-11" d="M 184.875 278.300781 L 184.921875 279.25 L 186.574219 280.128906 L 188.941406 284.664062 L 187.675781 287.59375 L 186.914062 295.640625 L 187.855469 299.105469 L 190.015625 300.546875 L 190.125 306.617188 L 191.289062 310.132812 L 190.5 316.25 L 191.050781 317.542969 L 195.621094 325 L 198.675781 325.824219 L 208.730469 336.277344 L 210.988281 340.207031 L 210.953125 343.46875 L 211.617188 344.660156 L 212.59375 344.746094 L 212.710938 343.457031 L 213.515625 343.222656 L 214.394531 343.726562 L 215.730469 346.570312 L 217.535156 346.503906 L 218.960938 353.554688 L 220.40625 354.496094 L 222.707031 354.386719 L 223.746094 355.058594 L 223.519531 357.945312 L 225.089844 360.214844 L 225.296875 363.390625 L 226.347656 364.078125 L 198.949219 363.71875 L 199.546875 363.230469 L 199.882812 360.644531 L 199.328125 357.058594 L 200.882812 353.585938 L 200.664062 351.867188 L 199.058594 349.28125 L 196.296875 347.566406 L 194.519531 344.515625 L 191.8125 342.605469 L 184.683594 333.855469 L 180.128906 332.359375 L 170.820312 324.828125 L 168.851562 312.898438 L 166.058594 309.144531 L 165.515625 311.480469 L 164.917969 310.046875 L 164.886719 302.589844 L 161.179688 298.914062 L 160.078125 293.550781 L 157.527344 289.496094 L 154.066406 285.671875 L 155.578125 279.613281 L 151.398438 276.273438 L 150.472656 271.253906 L 148.347656 269.457031 L 146.738281 265.828125 L 146.84375 264.300781 L 190.777344 262.011719 L 189 266.515625 L 186.644531 267.234375 L 184.835938 271.257812 L 185.316406 274.269531 Z "/>
        </g>
        <g>
          <path id="Mexico-12" d="M 226.347656 364.078125 L 225.753906 367.5625 L 229.175781 372.027344 L 233.496094 373.964844 L 235.714844 380.601562 L 239.855469 384.722656 L 239.566406 385.496094 L 241.765625 388.957031 L 241.734375 391.03125 L 242.855469 392.875 L 245.242188 395.226562 L 246.160156 394.191406 L 243.910156 391.964844 L 243.113281 387.714844 L 248.578125 391.625 L 248.765625 395.089844 L 249.800781 395.703125 L 251.773438 399.804688 L 251.785156 401.816406 L 252.722656 404.140625 L 252.523438 407.996094 L 253.734375 411.789062 L 256.335938 416.09375 L 259.234375 417.3125 L 259.277344 419.625 L 261.390625 424.789062 L 262.40625 426.480469 L 264.632812 428.058594 L 265.839844 430.699219 L 266.222656 432.683594 L 264.960938 437.539062 L 266.515625 442.777344 L 269.738281 445.25 L 273.460938 445.894531 L 272.808594 446.449219 L 271.707031 446.003906 L 272.539062 447.402344 L 274.164062 445.777344 L 273.757812 442.523438 L 275.320312 442.375 L 279.445312 446.277344 L 280.039062 447.726562 L 283.507812 449.484375 L 283.050781 451.421875 L 285.59375 454.128906 L 285.941406 457.089844 L 290.011719 458.765625 L 291.457031 461.199219 L 290.921875 466.269531 L 290.027344 467.710938 L 282.777344 473.511719 L 280.773438 474.191406 L 279.304688 473.3125 L 278.050781 471.050781 L 276.34375 464.308594 L 273.523438 459.320312 L 271.648438 457.785156 L 267.085938 455.710938 L 258.882812 447.539062 L 250.476562 442.644531 L 247.902344 440.179688 L 246.902344 438.261719 L 244.148438 437.976562 L 242.773438 435.117188 L 240.699219 433.050781 L 240.527344 433.875 L 238.382812 433.816406 L 238.003906 428.0625 L 236.671875 430.8125 L 238.917969 420.660156 L 238.484375 415.667969 L 238.105469 417.390625 L 237.925781 416.714844 L 238.164062 412.9375 L 236.363281 407.988281 L 235.300781 406.203125 L 233.804688 405.355469 L 232.359375 401.148438 L 231 401.382812 L 227.085938 399.953125 L 222.867188 395.8125 L 221.230469 395.171875 L 218.566406 392.546875 L 216.675781 391.859375 L 216.71875 390.320312 L 218.304688 388.203125 L 218.351562 386.359375 L 217.648438 386.113281 L 216.867188 389.214844 L 215.53125 390.171875 L 212.140625 388.800781 L 210.488281 390.695312 L 209.277344 390.992188 L 206.882812 389.121094 L 204.660156 385.789062 L 203.460938 385.308594 L 201.644531 385.675781 L 198.503906 382.109375 L 195.335938 381.675781 L 192.574219 379.996094 L 191.878906 376.171875 L 184.859375 369.996094 L 182.964844 369.382812 L 181.964844 367.277344 L 182.425781 366.667969 L 184.25 366.941406 L 190.167969 368.558594 L 192.183594 368.5625 L 193.621094 367.820312 L 195.519531 368.261719 L 198.519531 370.28125 L 201.761719 370.515625 L 202.402344 369.742188 L 201.324219 368.746094 L 198.859375 369.832031 L 197.746094 368.871094 L 197.15625 367.152344 L 196.0625 366.558594 L 196.402344 365.085938 L 198.027344 363.707031 Z "/>
        </g>
        <g>
          <path id="Mexico-13" d="M 476.214844 359.527344 L 472.617188 363.089844 L 473.179688 364.695312 L 474.871094 364.324219 L 476.035156 365.011719 L 477.609375 370.597656 L 477.449219 375.894531 L 480.722656 377.234375 L 480.449219 380.054688 L 481.160156 380.90625 L 483.355469 380.976562 L 484.40625 381.734375 L 485.179688 384.261719 L 484.0625 385.480469 L 485.394531 387.460938 L 488.472656 388.695312 L 489.675781 388.5 L 491.421875 393.027344 L 493.546875 392.5 L 495.953125 394.417969 L 497.476562 392.847656 L 501.785156 392.6875 L 502.558594 393.75 L 503.414062 404.105469 L 505.828125 404.464844 L 506.121094 405.988281 L 497.84375 414.445312 L 495.902344 414.65625 L 494.917969 413.78125 L 493.128906 416.335938 L 493 420.851562 L 488.25 422.421875 L 482.371094 427.976562 L 483.625 429.066406 L 484.515625 428.472656 L 486.167969 431.164062 L 485.363281 434.695312 L 485.878906 437.6875 L 488.589844 439.609375 L 489.226562 441.34375 L 488.265625 441.386719 L 486.535156 444.425781 L 481.785156 445.1875 L 479.765625 450.101562 L 480.375 451.320312 L 478.851562 452.832031 L 478.265625 456.605469 L 473.292969 456.933594 L 471.996094 458.125 L 470.75 457.800781 L 470.214844 456.636719 L 470.109375 447.382812 L 466.027344 441.730469 L 466.511719 437.714844 L 465.9375 435.128906 L 460.578125 429.082031 L 460.632812 422.257812 L 459.65625 418.613281 L 460.496094 416.121094 L 461.695312 415.074219 L 465.871094 414.101562 L 469.015625 414.679688 L 471.15625 413.929688 L 471.800781 412.558594 L 466.152344 411.199219 L 461.433594 408.339844 L 461.832031 407.683594 L 463.789062 408.328125 L 463.648438 407.4375 L 462.359375 406.238281 L 460.976562 406.140625 L 458.464844 403.359375 L 457.921875 399.640625 L 455.917969 396.46875 L 454.289062 394.835938 L 453.601562 394.902344 L 449.515625 390.453125 L 456.980469 382.796875 L 459.21875 383.988281 L 461.515625 380.621094 L 461.964844 378.492188 L 461.375 375.097656 L 459.113281 374.28125 L 458.46875 375.570312 L 456.542969 375.492188 L 455.601562 371.003906 L 459.898438 367.113281 L 462.925781 366.703125 L 464.558594 359.769531 L 466.875 357.699219 L 471.265625 360.757812 L 474.195312 357.46875 Z "/>
        </g>
        <g>
          <path id="Mexico-14" d="M 507.214844 561.417969 L 507.824219 564.304688 L 513.753906 568.839844 L 516.933594 569.472656 L 520.433594 568.757812 L 522.722656 570.839844 L 522.742188 578.96875 L 524.488281 581.492188 L 524.621094 584.207031 L 530.253906 587.949219 L 531.367188 589.472656 L 530.199219 595.214844 L 525.878906 599.855469 L 525.636719 603.113281 L 522.378906 604.253906 L 520.785156 605.691406 L 515.621094 600.882812 L 496.316406 598.738281 L 492.730469 597.027344 L 492.15625 595.464844 L 467.746094 588.214844 L 464.996094 585.882812 L 455.460938 580.976562 L 450.695312 575.757812 L 447.234375 573.792969 L 445.445312 573.628906 L 442.558594 575.300781 L 443.082031 569.722656 L 447.523438 568.339844 L 448.472656 567.167969 L 448.089844 562.242188 L 448.320312 561.28125 L 450.179688 560.027344 L 453.304688 559.878906 L 454.4375 561.355469 L 456.28125 562.339844 L 459.75 561.390625 L 466.132812 560.941406 L 470.859375 561.8125 L 474.324219 563.996094 L 474.972656 562.910156 L 472.230469 560.515625 L 471.464844 558.066406 L 470.78125 554.378906 L 471.519531 553.195312 L 472.679688 554.476562 L 474.484375 552.925781 L 477.125 553.648438 L 479.292969 560.296875 L 481.132812 562.777344 L 484.6875 559.703125 L 485.078125 557.816406 L 489.351562 556.363281 L 491.203125 556.738281 L 493.976562 553.726562 L 497.441406 555.605469 L 501.464844 559.695312 L 502.65625 559.804688 L 503.3125 558.367188 L 504.867188 557.996094 Z "/>
        </g>
        <g>
          <path id="Mexico-15" d="M 513.042969 494.195312 L 511.300781 495.769531 L 511.402344 498.15625 L 506.808594 499.324219 L 505.328125 498.777344 L 504.128906 497.1875 L 502.453125 497.972656 L 501.597656 497.609375 L 498.492188 490.027344 L 495.34375 492.179688 L 494.761719 494.167969 L 493.703125 494.726562 L 491.1875 495.46875 L 488.582031 492.824219 L 487.679688 493.597656 L 486.886719 495.910156 L 476.488281 491.761719 L 473.5 491.824219 L 471.019531 495.117188 L 469.628906 495.222656 L 467.027344 494.128906 L 462.152344 490.570312 L 457.351562 490.402344 L 455.042969 488.628906 L 452.757812 489.320312 L 450.933594 489.019531 L 454.464844 483.964844 L 453.441406 476.960938 L 454.566406 475.320312 L 454.160156 473.925781 L 452.785156 472.734375 L 450.605469 472.355469 L 448.824219 472.929688 L 446.277344 476.070312 L 442.929688 475.628906 L 441.527344 473.035156 L 436.441406 468.253906 L 435.03125 464.425781 L 435.503906 462.765625 L 433.671875 460.445312 L 433.882812 459.636719 L 435.207031 457.828125 L 438.699219 456.113281 L 441.355469 452.726562 L 450.15625 444.445312 L 454.761719 438.875 L 457.695312 432.917969 L 460.578125 429.082031 L 465.9375 435.128906 L 466.511719 437.714844 L 466.027344 441.730469 L 470.109375 447.382812 L 470.488281 457.390625 L 471.996094 458.125 L 473.292969 456.933594 L 478.265625 456.605469 L 477.898438 459.03125 L 479.542969 459.359375 L 481.617188 461.359375 L 481.265625 463.175781 L 479.257812 465.300781 L 479.867188 466.070312 L 489.273438 469.214844 L 493.023438 467.734375 L 495.804688 472.039062 L 496.863281 472.667969 L 502.578125 473.742188 L 508.703125 471.984375 L 514.414062 475.101562 L 514.75 476.933594 L 512.519531 481.097656 L 510.476562 481.855469 L 511.175781 483.730469 L 512.8125 484.53125 L 513.5625 485.710938 L 511.597656 487.691406 L 510.574219 487.882812 L 510.035156 489.820312 L 512.644531 491.484375 Z "/>
        </g>
        <g>
          <path id="Mexico-16" d="M 414.535156 553.96875 L 417.285156 553.507812 L 418.550781 551.648438 L 421.46875 553.808594 L 424.804688 550.59375 L 424.964844 548.84375 L 428.886719 546.996094 L 430.71875 547.433594 L 431.480469 546.363281 L 432.730469 543.5625 L 431.917969 541.789062 L 429.136719 542.238281 L 427.054688 536.65625 L 429.101562 534.632812 L 428.855469 533.378906 L 424.757812 532.046875 L 423.140625 533.316406 L 421.261719 531 L 421.339844 530.316406 L 423.949219 527.996094 L 430.832031 525.601562 L 434.230469 523.128906 L 438.851562 522.765625 L 442.9375 521.390625 L 444.21875 521.914062 L 445.144531 525.296875 L 445.914062 525.628906 L 446.9375 525.144531 L 450.257812 525.328125 L 451.273438 522.710938 L 454.375 521.996094 L 455.835938 525.242188 L 455.867188 527.582031 L 457 528.417969 L 459.007812 528.34375 L 461.160156 526.976562 L 464.679688 527.339844 L 466.210938 527.96875 L 466.585938 529.800781 L 467.53125 529.992188 L 470.878906 528.527344 L 475.144531 529.90625 L 477.640625 526.480469 L 478.820312 523.167969 L 481.023438 525.691406 L 482.480469 528.75 L 483.808594 529.773438 L 483.84375 530.308594 L 482.289062 531.164062 L 481.613281 535.316406 L 482.96875 539.949219 L 480.730469 541.683594 L 480.148438 543.75 L 475.492188 550.03125 L 473.355469 554.257812 L 472.679688 554.476562 L 471.519531 553.195312 L 471.015625 553.53125 L 471.898438 559.515625 L 472.835938 561.304688 L 474.972656 562.910156 L 474.324219 563.996094 L 470.859375 561.8125 L 466.132812 560.941406 L 459.75 561.390625 L 456.28125 562.339844 L 454.4375 561.355469 L 453.304688 559.878906 L 450.179688 560.027344 L 448.320312 561.28125 L 448.089844 562.242188 L 448.472656 567.167969 L 447.523438 568.339844 L 443.082031 569.722656 L 442.558594 575.300781 L 434.246094 573.035156 L 430.566406 572.71875 L 424.464844 570.304688 L 415.21875 567.78125 L 413.363281 564.644531 L 409.339844 560.269531 Z "/>
        </g>
        <g>
          <path id="Mexico-17" d="M 752.71875 458.925781 L 753.859375 459.203125 L 756.800781 461.964844 L 758.625 462.441406 L 759.617188 467.691406 L 760.503906 468.195312 L 758.875 476.785156 L 756.195312 481.703125 L 753.195312 484.769531 L 749.902344 491.9375 L 749.382812 495.246094 L 750.644531 499.433594 L 750.300781 500.695312 L 750.449219 498.84375 L 749.65625 498.394531 L 750.074219 500.222656 L 749.472656 501.339844 L 748.035156 502.210938 L 746.722656 505.253906 L 745.070312 505.535156 L 745.410156 507.3125 L 747.050781 508.292969 L 747.390625 509.238281 L 749.976562 506.980469 L 752.148438 506.183594 L 752.488281 506.667969 L 751.6875 510.082031 L 750.597656 511.171875 L 749.84375 511.484375 L 750.191406 510.542969 L 748.398438 511.644531 L 747.625 513.691406 L 747.613281 515.21875 L 748.886719 515.863281 L 750.449219 513.175781 L 751.457031 512.878906 L 751.832031 513.617188 L 750.304688 519.527344 L 750.003906 526.417969 L 748.664062 528.859375 L 748.789062 534.863281 L 747.660156 537.320312 L 747.621094 540.152344 L 745.160156 535.101562 L 741.671875 533.867188 L 742.632812 529.449219 L 742.28125 526.949219 L 741.1875 525.140625 L 737.835938 529.5625 L 738.96875 529.9375 L 737.046875 534.546875 L 732.917969 535.316406 L 732.316406 536.246094 L 730.925781 541.386719 L 729.300781 542.78125 L 728.671875 545.921875 L 726.636719 549.710938 L 722.359375 547.925781 L 719.878906 549.492188 L 720.292969 552.519531 L 713.964844 553.308594 L 708.65625 511.425781 L 741.1875 482.949219 L 744.433594 473.6875 L 742.707031 463.074219 L 749.152344 463.273438 L 751.207031 461.921875 L 751.183594 460.191406 L 745.523438 462.277344 L 745.339844 461.851562 L 746.09375 460.964844 Z "/>
        </g>
        <g>
          <path id="Mexico-18" d="M 310.640625 424.648438 L 310.640625 423.378906 L 309.734375 422.046875 L 303.960938 419.316406 L 303.285156 418.519531 L 303.171875 416.265625 L 300.617188 416.109375 L 300.964844 417.132812 L 300.195312 418.125 L 298.019531 418.042969 L 296.476562 416.699219 L 297.460938 415.867188 L 299.164062 415.816406 L 300.902344 413.5 L 301.6875 410.832031 L 300.507812 412.886719 L 295.824219 415.488281 L 295.25 414.195312 L 291.054688 411.800781 L 289.949219 410.503906 L 289.792969 407.792969 L 290.167969 405.878906 L 292.351562 402.253906 L 292.789062 403.089844 L 293.796875 400.90625 L 295.125 399.980469 L 294.878906 400.894531 L 296.410156 401.886719 L 295.429688 399.253906 L 307.878906 388.328125 L 308.378906 384.945312 L 311.375 383.304688 L 312.367188 383.746094 L 312.925781 385.042969 L 316.4375 385.546875 L 317.230469 388.367188 L 320.359375 392.09375 L 321.867188 401.519531 L 329.390625 402.824219 L 330.398438 403.609375 L 331.476562 406.730469 L 335.554688 412.253906 L 336.066406 415.769531 L 335.5 421.960938 L 337.238281 426.988281 L 340.457031 431.664062 L 342.222656 432.046875 L 345.257812 435.433594 L 347.550781 441.007812 L 350.484375 441.804688 L 353.3125 439.421875 L 358.382812 443.035156 L 360.390625 446.332031 L 361.105469 452.683594 L 364.71875 458.738281 L 365.597656 462.726562 L 368.777344 465.644531 L 371.015625 465.484375 L 371.382812 467.191406 L 370.195312 467.820312 L 368.296875 473.59375 L 368.652344 474.867188 L 370.226562 475.644531 L 370.738281 478.527344 L 365.691406 480.382812 L 363.394531 476.253906 L 351.984375 465.601562 L 348.660156 460.800781 L 342.988281 455.769531 L 340.601562 451.210938 L 324.132812 438.691406 L 326.75 439.535156 L 326.265625 437.632812 L 325.03125 438.480469 L 322.472656 436.242188 L 320.03125 435.386719 L 322.335938 437.53125 L 318.753906 435.019531 L 318.28125 433.183594 L 318.667969 428.335938 L 317.632812 427.667969 L 317.621094 431.234375 L 316.511719 431.359375 L 314.089844 426.960938 L 315.910156 428.140625 L 316.550781 427.246094 L 318.425781 427.300781 L 317.566406 425.914062 L 313.589844 424.179688 L 311.441406 424.066406 Z "/>
        </g>
        <g>
          <path id="Mexico-19" d="M 660.875 546.828125 L 661.34375 545.273438 L 667.363281 544.800781 L 667.371094 543.566406 L 668.335938 542.265625 L 673.457031 539.152344 L 670.90625 536.757812 L 669.121094 536.894531 L 668.652344 535.753906 L 669.691406 534.015625 L 667.683594 535.222656 L 668.46875 533.855469 L 675.730469 528.371094 L 680.878906 522.816406 L 681.21875 512.453125 L 684.074219 509.558594 L 685.339844 507.117188 L 684.0625 504.863281 L 682.941406 494.210938 L 682.980469 489.984375 L 684.378906 487.164062 L 685.203125 493.792969 L 688.8125 493.398438 L 688.628906 494.800781 L 692.035156 495.347656 L 692.859375 494.097656 L 708.65625 511.425781 L 713.964844 553.308594 L 680.179688 557.421875 L 679.699219 554.082031 L 675.296875 554.417969 L 672.730469 553.144531 L 668.324219 552.304688 L 665.757812 552.832031 L 665.808594 556.082031 L 660.859375 556.628906 L 653.8125 552.722656 L 653.03125 544.847656 L 647.402344 545.324219 L 645.613281 542.253906 L 656.199219 539.429688 L 659.070312 541.648438 L 658.160156 542.316406 L 655.320312 542.613281 L 655.273438 543.363281 L 656.382812 543.832031 L 657.113281 543.398438 L 656.855469 542.566406 L 658.398438 543.199219 L 660.109375 544.339844 L 659.632812 545.957031 Z "/>
        </g>
        <g>
          <path id="Mexico-20" d="M 683.632812 486.871094 L 684.664062 482.933594 L 689.042969 479.234375 L 695.054688 475.660156 L 715.082031 469.4375 L 717.839844 468.203125 L 719.953125 465.8125 L 722.894531 464.574219 L 726.871094 464.289062 L 730.550781 462.925781 L 727.382812 463.855469 L 729.238281 462.636719 L 732.546875 462.222656 L 738.820312 462.960938 L 735.832031 463.097656 L 738.1875 463.613281 L 742.707031 463.074219 L 744.433594 473.6875 L 741.1875 482.949219 L 708.65625 511.425781 L 692.859375 494.097656 L 692.035156 495.347656 L 688.628906 494.800781 L 688.8125 493.398438 L 685.203125 493.792969 L 684.378906 487.164062 L 684.695312 484.304688 L 684.203125 486.789062 Z "/>
        </g>
        <g>
          <path id="Mexico-21" d="M 514.304688 547.097656 L 514.546875 543.359375 L 513.539062 538.09375 L 514.203125 536.539062 L 517.761719 537.75 L 520.523438 541.433594 L 524.558594 544.242188 L 526.222656 543.378906 L 527.320312 541.746094 L 528.671875 541.484375 L 529.429688 542.285156 L 530.171875 542.15625 L 531.027344 540.929688 L 535.414062 538.386719 L 535.351562 537.222656 L 532.125 535.558594 L 527.847656 532.164062 L 525.832031 531.003906 L 523.863281 531.382812 L 521.234375 527.792969 L 524.140625 521.894531 L 523.046875 519.828125 L 521.050781 519.617188 L 520.761719 517.539062 L 522.265625 517.128906 L 523.464844 514.652344 L 526.015625 512.644531 L 527.339844 506.390625 L 530.277344 506.449219 L 530.300781 508.953125 L 533.765625 510.183594 L 534.398438 511.429688 L 533.355469 513.996094 L 531.867188 513.175781 L 530.445312 514.0625 L 530.511719 516.878906 L 532.214844 519.425781 L 535.355469 520.851562 L 536.054688 520.542969 L 536.765625 517.855469 L 538.648438 517.050781 L 544.007812 519.671875 L 540.875 525.125 L 541.660156 528.246094 L 540.5 531.132812 L 540.664062 534.488281 L 541.191406 535.824219 L 544.851562 537.800781 L 547.300781 537.5 L 548.484375 538.550781 L 546.945312 540.34375 L 545.246094 540.230469 L 543.1875 541.265625 L 544.121094 546.914062 L 542.273438 549.839844 L 544.082031 552.765625 L 546.804688 552.367188 L 549.183594 555.777344 L 554.277344 553.917969 L 555.992188 557.261719 L 554.957031 559.5 L 551.394531 562.882812 L 549.199219 563.320312 L 546.382812 562.640625 L 544.8125 563.148438 L 542.984375 564.570312 L 541.597656 567.460938 L 540.664062 567.328125 L 537.121094 563.515625 L 537.433594 560.71875 L 536.863281 559.910156 L 535.304688 560.574219 L 533.972656 563.363281 L 535.472656 567.191406 L 533.816406 569.144531 L 532.246094 568.941406 L 531.039062 567.144531 L 526.429688 567.667969 L 524.890625 570.226562 L 523.355469 570.214844 L 522.722656 570.839844 L 520.433594 568.757812 L 516.933594 569.472656 L 514.449219 569.082031 L 507.824219 564.304688 L 507.214844 561.417969 L 509.84375 560.203125 L 511.628906 558.417969 L 514.976562 559.519531 L 512.925781 553.621094 L 514.601562 548.996094 Z "/>
        </g>
        <g>
          <path id="Mexico-22" d="M 478.820312 523.167969 L 477.640625 526.480469 L 475.144531 529.90625 L 470.878906 528.527344 L 467.53125 529.992188 L 466.585938 529.800781 L 466.210938 527.96875 L 464.679688 527.339844 L 461.160156 526.976562 L 459.007812 528.34375 L 457 528.417969 L 455.867188 527.582031 L 455.835938 525.242188 L 454.375 521.996094 L 451.273438 522.710938 L 450.257812 525.328125 L 446.9375 525.144531 L 445.914062 525.628906 L 445.144531 525.296875 L 444.21875 521.914062 L 441.019531 521.617188 L 441.253906 520.117188 L 443.386719 517.027344 L 441.171875 513.8125 L 441.152344 512.351562 L 446.109375 504.496094 L 449.167969 502.382812 L 450.617188 500.429688 L 449.175781 496.214844 L 450.691406 493.710938 L 449.746094 490.992188 L 450.871094 488.976562 L 452.757812 489.320312 L 455.042969 488.628906 L 457.351562 490.402344 L 462.152344 490.570312 L 467.027344 494.128906 L 469.628906 495.222656 L 471.019531 495.117188 L 473.5 491.824219 L 476.488281 491.761719 L 486.886719 495.910156 L 488.285156 500.023438 L 486.574219 501.285156 L 484.109375 500.984375 L 482.777344 501.515625 L 481.066406 507.726562 L 474.082031 507.597656 L 471.527344 512.917969 L 473.890625 514.804688 L 475.082031 519.726562 Z "/>
        </g>
        <g>
          <path id="Mexico-23" d="M 393.699219 483.503906 L 392.523438 487.761719 L 398.96875 493.652344 L 396.984375 498.878906 L 402.234375 502.683594 L 402.089844 504.398438 L 400.640625 505.976562 L 398.507812 506.675781 L 397.320312 508.261719 L 397.484375 511.214844 L 396.261719 513.988281 L 396.269531 516.917969 L 386.085938 510.800781 L 383.210938 512.730469 L 379.707031 513.246094 L 376.304688 518.175781 L 374.683594 516.636719 L 373.394531 517.09375 L 370.757812 516.382812 L 376.492188 510.265625 L 376.535156 504.925781 L 377.199219 502.175781 L 375.988281 500.578125 L 372.054688 498.679688 L 370.4375 494.800781 L 367.28125 490.390625 L 367.34375 484.242188 L 365.691406 480.382812 L 370.738281 478.527344 L 370.226562 475.644531 L 368.285156 474.457031 L 370.195312 467.820312 L 371.382812 467.191406 L 373.324219 467.824219 L 375.878906 467.566406 L 381.277344 469.855469 L 382.03125 472.863281 L 379.847656 475.207031 L 380.109375 478.089844 L 383.5625 475.304688 L 384.777344 475.070312 L 386.707031 476.167969 L 387.714844 479.152344 L 390.328125 480.464844 L 393.207031 479.515625 L 394.027344 482.394531 Z "/>
        </g>
        <g>
          <path id="Mexico-24" d="M 622.871094 550.410156 L 625.398438 549.375 L 631.140625 548.800781 L 631.527344 550.3125 L 632.488281 550.910156 L 633.234375 549.375 L 637.441406 547.613281 L 640.265625 545.058594 L 641.6875 545.859375 L 643.378906 543.261719 L 645.613281 542.253906 L 647.402344 545.324219 L 653.03125 544.847656 L 653.8125 552.722656 L 660.859375 556.628906 L 665.808594 556.082031 L 665.757812 552.832031 L 668.324219 552.304688 L 672.730469 553.144531 L 675.296875 554.417969 L 679.699219 554.082031 L 681.550781 570.226562 L 671.679688 571.300781 L 671.96875 570.042969 L 671.363281 568.261719 L 669.042969 566.707031 L 666.09375 566.125 L 666.371094 565.027344 L 665.234375 562.097656 L 661.191406 558.238281 L 658.050781 557.839844 L 654.707031 561.277344 L 650.417969 563.132812 L 642.75 571.996094 L 637.523438 568.476562 L 636.449219 564.238281 L 636.328125 560.03125 L 630.273438 559.066406 L 629.535156 559.832031 L 628.574219 567.902344 L 625.902344 570.414062 L 624.851562 573.53125 L 622.953125 571.855469 L 623.097656 570.253906 L 621.097656 567.171875 L 618.261719 566.242188 L 613.382812 563.351562 L 612.804688 558.628906 L 611.253906 556.066406 L 618.488281 554.121094 L 622.886719 551.554688 Z "/>
        </g>
        <g>
          <path id="Mexico-25" d="M 474.484375 552.925781 L 475.492188 550.03125 L 480.148438 543.75 L 480.730469 541.683594 L 482.96875 539.949219 L 481.613281 535.316406 L 482.289062 531.164062 L 483.84375 530.308594 L 482.480469 528.75 L 485.492188 524.320312 L 485.628906 521.832031 L 486.230469 521.476562 L 488.296875 521.082031 L 491.910156 523.753906 L 493.796875 523.40625 L 494.699219 523.984375 L 495.5625 525.460938 L 494.984375 527.585938 L 496.777344 528.773438 L 497.898438 531.058594 L 498.648438 531.179688 L 499.496094 530.289062 L 501.789062 526.199219 L 505.136719 524.757812 L 506.726562 525.671875 L 506.316406 528.5625 L 506.765625 529.75 L 507.59375 529.84375 L 509.203125 528.519531 L 512.179688 528.6875 L 514.726562 530.8125 L 513.359375 534.1875 L 512.558594 534.3125 L 514.203125 536.539062 L 513.539062 538.09375 L 514.546875 543.359375 L 514.304688 547.097656 L 513.230469 547.871094 L 510.503906 547.277344 L 507.867188 545.550781 L 508.285156 544.484375 L 507.621094 541.339844 L 505.8125 537.632812 L 503.492188 537.1875 L 501.839844 539.085938 L 499.734375 539.972656 L 499.632812 541.410156 L 501.082031 544.539062 L 500.390625 546.023438 L 500.988281 548.484375 L 498.695312 550.578125 L 497.441406 555.605469 L 493.976562 553.726562 L 491.203125 556.738281 L 489.351562 556.363281 L 485.078125 557.816406 L 484.6875 559.703125 L 481.132812 562.777344 L 479.292969 560.296875 L 477.125 553.648438 Z "/>
        </g>
        <g>
          <path id="Mexico-26" d="M 523.464844 514.652344 L 522.265625 517.128906 L 520.761719 517.539062 L 520.699219 518.175781 L 521.050781 519.617188 L 523.046875 519.828125 L 524.140625 521.894531 L 521.234375 527.792969 L 523.9375 531.402344 L 521.445312 530.734375 L 518.859375 533.070312 L 514.53125 534.003906 L 513.359375 534.1875 L 514.726562 530.8125 L 512.179688 528.6875 L 509.203125 528.519531 L 507.59375 529.84375 L 506.765625 529.75 L 506.316406 528.5625 L 506.726562 525.671875 L 505.644531 524.8125 L 501.789062 526.199219 L 499.496094 530.289062 L 498.648438 531.179688 L 497.898438 531.058594 L 496.777344 528.773438 L 494.984375 527.585938 L 495.5625 525.460938 L 494.699219 523.984375 L 493.796875 523.40625 L 491.910156 523.753906 L 488.011719 521.0625 L 487.8125 515.753906 L 494.214844 511.886719 L 493.664062 510.878906 L 493.988281 508.621094 L 495.988281 506.152344 L 496.632812 503.308594 L 496.253906 502.234375 L 497.515625 501.082031 L 499.25 501.644531 L 502.695312 500.328125 L 502.453125 497.972656 L 503.59375 497.234375 L 504.640625 497.382812 L 505.328125 498.777344 L 506.808594 499.324219 L 511.402344 498.15625 L 511.300781 495.769531 L 512.808594 494.21875 L 513.945312 495.398438 L 514.011719 497.714844 L 515.746094 499.433594 L 516.355469 499.613281 L 518.574219 497.816406 L 521.554688 500.652344 L 520 504.75 L 518.640625 505.898438 L 516.433594 506.144531 L 514.261719 508.5 L 514.730469 509.222656 L 516.1875 508.945312 L 513.664062 513.945312 L 516.109375 516.886719 L 518.628906 514.917969 L 521.589844 510.832031 L 523.207031 509.636719 L 524.367188 509.878906 L 524.597656 511.648438 Z "/>
        </g>
        <g>
          <path id="Mexico-27" d="M 482.480469 528.75 L 480.019531 524.375 L 475.082031 519.726562 L 473.890625 514.804688 L 471.527344 512.917969 L 474.082031 507.597656 L 481.066406 507.726562 L 482.777344 501.515625 L 484.109375 500.984375 L 486.574219 501.285156 L 488.285156 500.023438 L 486.886719 495.910156 L 488.070312 493.136719 L 489.214844 492.949219 L 491.1875 495.46875 L 492.480469 495.125 L 494.761719 494.167969 L 495.34375 492.179688 L 498.492188 490.027344 L 501.597656 497.609375 L 502.453125 497.972656 L 502.695312 500.328125 L 499.25 501.644531 L 497.515625 501.082031 L 496.253906 502.234375 L 496.632812 503.308594 L 495.988281 506.152344 L 493.988281 508.621094 L 493.664062 510.878906 L 494.214844 511.886719 L 487.8125 515.753906 L 488.011719 521.0625 L 485.628906 521.832031 L 485.492188 524.320312 Z "/>
        </g>
        <g>
          <path id="Mexico-28" d="M 409.339844 560.269531 L 403.800781 556.003906 L 397.246094 553.8125 L 396.957031 552 L 391.472656 551.09375 L 392.484375 548.753906 L 396.941406 547.867188 L 399.503906 546.464844 L 400.757812 545.597656 L 400.320312 543.863281 L 401.886719 542.644531 L 407.203125 545.097656 L 410.613281 543.027344 L 413.9375 546.578125 L 414.535156 553.96875 Z "/>
        </g>
        <g>
          <path id="Mexico-29" d="M 444.132812 486.046875 L 439.601562 491.714844 L 436.53125 494.328125 L 431.546875 493.9375 L 428.320312 492.46875 L 426.398438 493.429688 L 424.261719 491.789062 L 423.804688 490.703125 L 424.117188 488.9375 L 426.539062 485.746094 L 427.722656 481.417969 L 431.457031 479.777344 L 434.328125 476.867188 L 435.960938 478.675781 L 440.179688 481.207031 L 440.957031 483.59375 Z "/>
        </g>
        <g>
          <path id="Mexico-30" d="M 514.304688 547.097656 L 514.601562 548.996094 L 512.925781 553.621094 L 514.976562 559.519531 L 511.628906 558.417969 L 509.84375 560.203125 L 507.214844 561.417969 L 504.867188 557.996094 L 503.3125 558.367188 L 502.65625 559.804688 L 501.464844 559.695312 L 497.441406 555.605469 L 498.695312 550.578125 L 500.988281 548.484375 L 500.390625 546.023438 L 501.097656 544.878906 L 505.765625 545.921875 L 507.867188 545.550781 L 512.441406 547.855469 Z "/>
        </g>
        <g>
          <path id="Mexico-31" d="M 523.9375 531.402344 L 525.832031 531.003906 L 527.847656 532.164062 L 532.125 535.558594 L 535.351562 537.222656 L 535.414062 538.386719 L 531.027344 540.929688 L 530.171875 542.15625 L 528.078125 541.425781 L 526.222656 543.378906 L 523.753906 544.113281 L 520.523438 541.433594 L 517.761719 537.75 L 514.625 536.945312 L 512.558594 534.3125 L 518.859375 533.070312 L 521.445312 530.734375 Z "/>
        </g>
        <g>
          <path id="Mexico-32" d="M 501.097656 544.878906 L 499.632812 541.410156 L 499.734375 539.972656 L 501.839844 539.085938 L 503.492188 537.1875 L 505.8125 537.632812 L 507.621094 541.339844 L 508.285156 544.484375 L 507.867188 545.550781 L 505.765625 545.921875 Z "/>
        </g>
      </g>
    </g>
    <g id="Mexico-border" fill="none" stroke-width="4.5" stroke="#505050" stroke-linejoin="round" mask="url(#mexico-mask)">
      <path id="mexico-border" d="M 146.738281 265.828125 L 146.84375 264.300781 L 190.777344 262.011719 L 189.265625 266.664062 L 257.804688 292.414062 L 310.195312 291.324219 L 309.863281 281.632812 L 339.296875 280.402344 L 342.859375 280.863281 L 344.445312 282.222656 L 346.980469 286.742188 L 351.480469 288.71875 L 355.429688 292.640625 L 358.734375 294.546875 L 362.847656 298.976562 L 367.121094 300.609375 L 372.492188 304.875 L 374.125 308.675781 L 377.019531 312.796875 L 377.4375 318.113281 L 380.371094 323.734375 L 382.828125 325.820312 L 386.539062 327.203125 L 390.238281 330.503906 L 393.257812 331.273438 L 404.953125 336.707031 L 407.496094 336.808594 L 411.136719 332.203125 L 415.570312 319.667969 L 418.789062 318.558594 L 422.265625 315.949219 L 426.753906 317.527344 L 439.425781 316.949219 L 441.523438 320.199219 L 445.035156 322.601562 L 446.917969 323.0625 L 452.039062 327.011719 L 454.824219 330.023438 L 455.738281 333.234375 L 461.941406 342.285156 L 463.9375 347.308594 L 465.945312 348.933594 L 468.117188 349.640625 L 472.472656 354.738281 L 473.679688 357.464844 L 476.582031 359.753906 L 478.363281 359.917969 L 480.511719 361.3125 L 482.375 367.945312 L 482.539062 372.574219 L 485.652344 376.160156 L 487.027344 376.878906 L 490.8125 385.214844 L 504.371094 388.484375 L 507.292969 390.695312 L 509.480469 391.492188 L 512.296875 391.710938 L 516.441406 390.710938 L 520.46875 391.023438 L 525.5 394.585938 L 526.546875 394.546875 L 527.328125 392.675781 L 530.671875 391.261719 "/>
    </g>
    <g id="lo-co-states" fill="none" fill-opacity="0.35" stroke-width="1.5" stroke="#505050" stroke-linejoin="round" mask="url(#non-lo-co-mask)">
      <g>
        <path id="California" d="M 65.285156 135.773438 L 65.34375 137.054688 L 63.355469 135.433594 L 62.714844 136.398438 L 61.695312 136.289062 L 61.109375 135.40625 L 61.871094 136.921875 L 61.160156 138.304688 L 62.175781 139.203125 L 61.222656 140.214844 L 61.527344 142.386719 L 60.511719 142.535156 L 58.140625 140.402344 L 57.675781 140.621094 L 55.730469 137.910156 L 54.097656 137.210938 L 53.386719 138 L 52.472656 137.808594 L 54.105469 134.523438 L 53.539062 131.296875 L 52.609375 131.253906 L 51.738281 128.085938 L 49.046875 125.253906 L 42.914062 116.171875 L 43.898438 113.726562 L 42.582031 106.820312 L 44.160156 102.542969 L 43.5625 96.421875 L 40.109375 89.914062 L 36.417969 86.042969 L 36.800781 84.441406 L 36.199219 81.980469 L 42.527344 70.914062 L 42.332031 67.566406 L 44.175781 63.753906 L 44.839844 60.667969 L 44.273438 54.660156 L 42.832031 53.359375 L 44.117188 48.675781 L 111.898438 57.011719 L 105.917969 121.601562 L 193.851562 212.984375 L 193.667969 215.636719 L 196.445312 219.277344 L 196.941406 221.675781 L 197.933594 223.046875 L 197.898438 224.699219 L 201.316406 226.8125 L 202.289062 228.828125 L 197.109375 232.367188 L 196.734375 233.925781 L 195.097656 235.28125 L 195.363281 240.816406 L 194.617188 241.347656 L 194.675781 243.992188 L 192.515625 246.96875 L 191.066406 247.105469 L 191.417969 248.378906 L 190.816406 249.367188 L 191.839844 250.207031 L 191.132812 253.902344 L 191.957031 255.140625 L 194.550781 255.449219 L 195.46875 256.546875 L 195.527344 259.398438 L 194.332031 260.132812 L 194.242188 260.960938 L 192.875 261.898438 L 191.246094 261.527344 L 146.738281 264.285156 L 145.628906 260.285156 L 146.949219 262.847656 L 146.957031 261.207031 L 145.667969 259.84375 L 144.703125 261.066406 L 144.214844 257.347656 L 144.808594 256.578125 L 143.71875 251.699219 L 142.378906 248.980469 L 130.425781 237.203125 L 127.9375 236.480469 L 127.121094 237.945312 L 125.039062 237.066406 L 125.109375 233.945312 L 122.992188 230.46875 L 118.542969 230.582031 L 115.859375 229.925781 L 111.046875 227.285156 L 110.285156 225.238281 L 106.632812 222.003906 L 104.496094 220.9375 L 99.769531 220.824219 L 97.324219 219.394531 L 95.042969 218.988281 L 89.335938 219.152344 L 88.53125 217.367188 L 86.265625 216.0625 L 87.222656 213.277344 L 86.792969 212.023438 L 87.390625 209.996094 L 86.453125 208.863281 L 87.652344 205.246094 L 87.394531 203.804688 L 83.574219 201.953125 L 83.757812 197.210938 L 81.753906 196.398438 L 79.371094 192.410156 L 77.261719 191.464844 L 76.511719 188.394531 L 74.628906 186.488281 L 70.992188 179.550781 L 67.902344 176.484375 L 67.25 170.386719 L 68.148438 169.222656 L 68.839844 170.011719 L 69.957031 169.242188 L 71.160156 165.636719 L 69.363281 162.320312 L 66.246094 162.308594 L 64.425781 160.945312 L 60.820312 155.332031 L 61.535156 152.933594 L 60.945312 150.085938 L 59.945312 149.019531 L 60.714844 143.414062 L 62.445312 143.050781 L 63.175781 144.957031 L 62.667969 147.425781 L 66.945312 151.339844 L 68.929688 151.378906 L 66.988281 150.367188 L 65.71875 145.023438 L 63.890625 143.875 L 64.25 141.433594 L 63.199219 140.929688 L 63.214844 139.53125 L 64.753906 138.796875 L 69.894531 138.445312 L 74.972656 139.726562 L 75.820312 138.449219 L 77.21875 138.421875 L 77.648438 139.136719 L 77.703125 137.527344 L 75.8125 138.222656 L 75.882812 136.640625 L 73.648438 138.640625 L 71.605469 138.285156 L 70.367188 136.695312 L 65.972656 137.703125 Z M 65.242188 135.65625 L 64.875 134.628906 L 64.453125 134.851562 Z M 121.261719 242.40625 L 125.367188 244.175781 L 126.285156 246.472656 L 123.566406 245.929688 L 123.226562 243.855469 L 121.890625 243.449219 Z M 124.785156 256.949219 L 123.507812 257.15625 L 120.539062 252.316406 L 121.066406 252.027344 Z M 99.238281 227.941406 L 102.738281 229.382812 L 104.507812 228.769531 L 105.363281 229.292969 L 105.027344 229.878906 L 101.84375 230.53125 L 99.425781 230.277344 L 98.738281 229.433594 L 99.054688 228.867188 L 98.136719 228.203125 Z M 93.589844 230.773438 L 92.464844 228.796875 L 95.964844 228.425781 L 97.304688 230.558594 L 94.589844 231.492188 Z "/>
      </g>
      <g>
        <path id="Nevada" d="M 119.105469 135.359375 L 105.917969 121.601562 L 111.898438 57.011719 L 160.164062 60.613281 L 207.628906 62.597656 L 204.75 187.039062 L 203.066406 190.753906 L 201.695312 191.25 L 199.957031 190.242188 L 199.835938 189.179688 L 198.726562 188.296875 L 197.605469 188.914062 L 196.113281 188.140625 L 194.515625 188.378906 L 192.621094 189.535156 L 192.417969 191.644531 L 193.660156 193.988281 L 193.09375 197.160156 L 193.878906 199.792969 L 193.253906 201.835938 L 195.066406 208.25 L 194.796875 209.96875 L 193.65625 210.398438 L 194.34375 211.335938 L 193.648438 212.054688 L 193.851562 212.984375 Z "/>
      </g>
      <g>
        <path id="Arizona" d="M 194.550781 255.449219 L 191.957031 255.140625 L 191.132812 253.902344 L 191.839844 250.207031 L 190.816406 249.367188 L 191.417969 248.378906 L 191.066406 247.105469 L 192.515625 246.96875 L 194.675781 243.992188 L 194.617188 241.347656 L 195.363281 240.816406 L 195.097656 235.28125 L 196.734375 233.925781 L 197.109375 232.367188 L 202.289062 228.828125 L 201.316406 226.8125 L 197.898438 224.699219 L 197.933594 223.046875 L 196.941406 221.675781 L 196.445312 219.277344 L 193.667969 215.636719 L 193.648438 212.054688 L 194.34375 211.335938 L 193.65625 210.398438 L 194.796875 209.96875 L 195.066406 208.25 L 193.253906 201.835938 L 193.878906 199.792969 L 193.09375 197.160156 L 193.660156 193.988281 L 192.417969 191.644531 L 192.621094 189.535156 L 194.515625 188.378906 L 196.113281 188.140625 L 197.605469 188.914062 L 198.726562 188.296875 L 201.230469 191.21875 L 203.066406 190.753906 L 204.75 187.039062 L 205.007812 170.238281 L 267.015625 170.558594 L 291.25 169.898438 L 294.726562 291.5625 L 257.324219 292.359375 L 188.773438 266.9375 L 189.074219 264.171875 L 190.902344 261.65625 L 193.460938 261.671875 L 195.527344 259.398438 L 195.46875 256.546875 Z "/>
      </g>
    </g>
    <g id="co-basin-polygon" fill="#B22C2C" fill-opacity="0.3" stroke-width="2.5" stroke="#B22C2C" stroke-linejoin="round">
      <g>
        <path id="Upper-Colorado-river-basin" d="M 271.09375 31.152344 L 273.546875 32.710938 L 276.613281 33 L 277.03125 36.265625 L 278.734375 38.699219 L 279.09375 40.574219 L 282.003906 41.929688 L 282.914062 43.816406 L 284.601562 45.027344 L 284.269531 45.710938 L 285.957031 46.746094 L 286.636719 48.601562 L 285.246094 50.144531 L 285.230469 51.601562 L 289.535156 53.816406 L 291.101562 55.4375 L 290.472656 55.925781 L 290.816406 56.425781 L 294.773438 55.054688 L 297.664062 56.929688 L 299.679688 56.996094 L 300.933594 55.398438 L 302.179688 55.570312 L 302.480469 54.742188 L 304.921875 54.441406 L 304.46875 53.351562 L 304.960938 52.78125 L 305.59375 53.03125 L 305.441406 55.011719 L 306.972656 55.875 L 309.710938 55.484375 L 309.828125 54.792969 L 310.964844 54.40625 L 313.457031 55.902344 L 315.828125 56.246094 L 316.425781 55.289062 L 319.09375 56 L 319.671875 56.800781 L 318.582031 58.273438 L 318.40625 61.140625 L 319.039062 63.722656 L 317.085938 64.089844 L 317.3125 64.78125 L 316.660156 65.128906 L 315.441406 63.984375 L 315.828125 65.003906 L 314.964844 64.855469 L 315.25 66.285156 L 313.660156 68.722656 L 314.90625 69.136719 L 313.902344 70.816406 L 316.121094 71.105469 L 316.609375 72.574219 L 315.8125 73.144531 L 315.988281 73.847656 L 316.863281 74.382812 L 317.722656 73.777344 L 318.835938 74.570312 L 319.613281 77.417969 L 322.050781 78.59375 L 321.664062 79.765625 L 322.367188 79.542969 L 323.710938 80.472656 L 322.925781 81.589844 L 324.363281 82.191406 L 324.300781 83.382812 L 326.367188 84.671875 L 327.175781 84.292969 L 327.773438 85.085938 L 328.167969 86.304688 L 327.277344 90.21875 L 329.121094 95.167969 L 330.417969 95.429688 L 331.121094 94.386719 L 331.890625 95.671875 L 332.78125 95.914062 L 333.324219 95.375 L 334.242188 95.949219 L 334.84375 95.207031 L 335.519531 95.992188 L 338.882812 94.71875 L 339.898438 95.1875 L 340.773438 93.957031 L 340.792969 92.527344 L 341.5 92.078125 L 345.144531 96.851562 L 344.792969 98.238281 L 345.757812 99.714844 L 345.628906 101.566406 L 344.894531 102.144531 L 345.035156 105.847656 L 344 106.863281 L 341.921875 106.988281 L 342.054688 108.273438 L 341.449219 109.039062 L 341.679688 109.917969 L 343.871094 110.472656 L 344.027344 111.015625 L 343.054688 111.769531 L 343.433594 112.519531 L 342.722656 112.734375 L 340.246094 116.523438 L 337.007812 116.226562 L 334.71875 117.019531 L 333.875 116.507812 L 333.445312 117.925781 L 332.316406 118.347656 L 332.582031 120.542969 L 331.171875 122.792969 L 331.160156 125.089844 L 331.84375 124.902344 L 333.4375 126.714844 L 335.820312 126.578125 L 335.460938 127.789062 L 334.394531 128.507812 L 334.5 130.601562 L 333.953125 131.261719 L 335.546875 132.976562 L 335.976562 135.234375 L 337.757812 136.617188 L 338.042969 138.253906 L 336.738281 138.78125 L 336.421875 139.941406 L 334.855469 140.214844 L 333.542969 139.566406 L 331.953125 143.628906 L 331.003906 144.679688 L 329.710938 144.585938 L 329.222656 145.136719 L 328.726562 146.296875 L 329.476562 146.691406 L 328.652344 147.636719 L 327.878906 148.0625 L 326.019531 147.421875 L 325.398438 148.011719 L 321.03125 148.46875 L 319.773438 150.210938 L 317.210938 150.578125 L 316.292969 151.871094 L 317.953125 155.167969 L 319.078125 154.703125 L 319.257812 153.933594 L 321.03125 153.789062 L 320.757812 154.421875 L 322.039062 155.742188 L 323.21875 154.792969 L 324.511719 156.15625 L 327.933594 156.144531 L 328.261719 157.507812 L 332.207031 159.164062 L 331.308594 160.878906 L 332.035156 161.265625 L 331.726562 162.464844 L 333.402344 163.550781 L 332.988281 167.175781 L 331.996094 167.523438 L 331.285156 168.953125 L 331.90625 170.285156 L 329.429688 172.222656 L 327.949219 172.535156 L 328.175781 173.550781 L 327.078125 175.71875 L 327.898438 178.808594 L 326.890625 180.484375 L 328.253906 182.710938 L 328.285156 185.535156 L 326.984375 185.925781 L 326.730469 187.355469 L 324.859375 188.800781 L 321.496094 189.066406 L 320.75 189.96875 L 320.882812 191.382812 L 318.921875 193.855469 L 314.4375 195.785156 L 313.207031 198.65625 L 311.078125 200.148438 L 310.117188 199.34375 L 307.707031 199.8125 L 308.195312 199.121094 L 307.609375 198.464844 L 305.800781 198.03125 L 304.996094 198.476562 L 304.058594 197.761719 L 301.066406 197.417969 L 298.980469 198.304688 L 298.15625 199.84375 L 297.574219 198.976562 L 294.605469 197.796875 L 293.617188 194.800781 L 294.710938 193.285156 L 295.613281 193.390625 L 295.816406 191.503906 L 294.96875 189.8125 L 293.25 191.691406 L 291.855469 190.617188 L 289.265625 193.832031 L 286.8125 193.726562 L 285.015625 195.707031 L 283.972656 196.140625 L 283.242188 195.695312 L 281.898438 197.1875 L 281.121094 196.371094 L 280.5625 197.164062 L 279.507812 196.96875 L 277.921875 195.722656 L 278.113281 194.394531 L 275.890625 189.710938 L 278.308594 186.042969 L 277.960938 183.710938 L 276.472656 183.421875 L 274.464844 181.453125 L 273.859375 182.0625 L 271.933594 181.042969 L 270.417969 177.839844 L 268.09375 177.820312 L 266.433594 180.230469 L 266.054688 177.773438 L 264.808594 176.207031 L 265.042969 174.851562 L 263.808594 174.921875 L 261.234375 178.855469 L 259.011719 179.3125 L 256.816406 181.179688 L 252.960938 180.5 L 251.605469 181.652344 L 250.070312 178.570312 L 247.886719 180.890625 L 246.992188 179.910156 L 247.980469 178.636719 L 246.730469 177.292969 L 247.371094 173.875 L 245.996094 173.445312 L 243.101562 176.65625 L 239.921875 175.335938 L 239.253906 173.871094 L 238.269531 173.398438 L 238.503906 169.902344 L 236.503906 168.132812 L 237.066406 167.03125 L 234.863281 163.460938 L 235.214844 162.652344 L 234.660156 161.707031 L 236.140625 160.382812 L 235.777344 159.257812 L 237.925781 155.746094 L 239.578125 154.648438 L 240.296875 155.308594 L 242.507812 154.734375 L 242.355469 150.660156 L 243.867188 149.765625 L 244.628906 150.378906 L 245.261719 149.089844 L 245.171875 147.617188 L 243.636719 147.457031 L 243.390625 146.28125 L 242.234375 146.09375 L 243.0625 144.421875 L 242.023438 142.488281 L 244.625 136.878906 L 245.355469 134.59375 L 244.992188 133.996094 L 248.238281 132.902344 L 249.203125 131.886719 L 248.789062 129.445312 L 249.753906 128.421875 L 248.535156 126.921875 L 248.964844 122.941406 L 249.78125 119.640625 L 251.644531 117.65625 L 252.03125 115.941406 L 251.027344 109.585938 L 251.671875 109 L 253.921875 110.363281 L 254.421875 108.371094 L 255.6875 107.351562 L 254.753906 107.066406 L 253.527344 104.863281 L 252.839844 104.96875 L 253.117188 102.300781 L 251.816406 100.050781 L 254.003906 96.375 L 257.78125 94.578125 L 257.207031 93.730469 L 257.957031 93.53125 L 258.527344 90.625 L 261.832031 89.855469 L 261.394531 87.347656 L 262.121094 85.453125 L 260.917969 82.875 L 261.425781 80.902344 L 260.105469 79.972656 L 259.777344 78.425781 L 259.078125 77.988281 L 259.5 76.800781 L 258.140625 75.683594 L 258.65625 73.878906 L 257.75 70.730469 L 258.699219 69.222656 L 261.164062 69.703125 L 262.554688 68.285156 L 262.597656 65.878906 L 259.828125 63.566406 L 259.90625 59.519531 L 259.414062 59.03125 L 259.757812 55.695312 L 262.199219 54.871094 L 260.539062 50.058594 L 261.21875 51.441406 L 262.472656 51.125 L 261.988281 45.496094 L 262.945312 45.683594 L 262.988281 45.164062 L 261.863281 41.304688 L 262.988281 41.273438 L 263.355469 41.859375 L 264.695312 40.136719 L 267.226562 39.710938 L 268.628906 38.773438 L 269.359375 35.964844 L 267.75 33.976562 L 270.515625 32.308594 L 270.292969 31.742188 Z "/>
      </g>
      <g>
        <path id="Lower-Colorado-river-basin" d="M 234.746094 161.511719 L 234.867188 163.484375 L 237.070312 167.042969 L 236.503906 168.132812 L 238.515625 169.933594 L 238.320312 173.5 L 239.253906 173.871094 L 240.078125 175.445312 L 243.101562 176.65625 L 245.996094 173.445312 L 247.371094 173.875 L 246.730469 177.292969 L 247.980469 178.636719 L 246.992188 179.910156 L 247.886719 180.890625 L 250.070312 178.570312 L 251.605469 181.652344 L 252.960938 180.5 L 256.816406 181.179688 L 259.050781 179.292969 L 261.027344 179.027344 L 263.4375 175.101562 L 264.9375 174.800781 L 264.808594 176.207031 L 266.054688 177.773438 L 266.421875 180.226562 L 268.09375 177.820312 L 270.417969 177.839844 L 271.933594 181.042969 L 273.859375 182.0625 L 274.464844 181.453125 L 276.472656 183.421875 L 277.9375 183.660156 L 278.308594 186.042969 L 275.890625 189.707031 L 278.113281 194.394531 L 277.941406 195.757812 L 279.507812 196.96875 L 280.5625 197.164062 L 281.121094 196.371094 L 281.898438 197.1875 L 283.242188 195.695312 L 283.972656 196.140625 L 285.015625 195.707031 L 286.8125 193.726562 L 289.265625 193.832031 L 291.855469 190.617188 L 293.25 191.691406 L 294.96875 189.8125 L 295.816406 191.503906 L 295.613281 193.390625 L 294.710938 193.285156 L 293.617188 194.800781 L 294.605469 197.796875 L 297.574219 198.976562 L 298.15625 199.84375 L 298.980469 198.304688 L 301.054688 197.417969 L 304.058594 197.761719 L 305.019531 198.480469 L 305.800781 198.03125 L 308.183594 199.09375 L 306.46875 202.433594 L 303.851562 204.953125 L 304.371094 205.632812 L 304.027344 206.941406 L 304.449219 208.351562 L 307.601562 209.734375 L 308.277344 211.117188 L 309.738281 212.078125 L 307.292969 214.664062 L 307.046875 216.3125 L 305.632812 217.203125 L 305.539062 217.847656 L 306.644531 218.871094 L 304.09375 220.761719 L 304.046875 221.515625 L 304.3125 222.109375 L 305.90625 221.707031 L 306.347656 224.09375 L 308.492188 224.804688 L 308.425781 226.5 L 309.367188 226.058594 L 310.882812 226.785156 L 307.28125 232.199219 L 304.792969 233.429688 L 304.644531 235.84375 L 303.613281 236.648438 L 304.496094 237.6875 L 303.566406 238.164062 L 303.433594 239.476562 L 304.171875 239.808594 L 303.316406 240.96875 L 304.542969 241.816406 L 302.953125 242.621094 L 304.988281 243.558594 L 308.0625 241.117188 L 311.167969 240.582031 L 311.921875 239.355469 L 316.082031 240.015625 L 315.246094 241.488281 L 315.972656 242.265625 L 315.910156 243.929688 L 314.785156 245.464844 L 315.785156 247.230469 L 315.269531 248.246094 L 315.632812 249.828125 L 314.859375 250.855469 L 315.46875 251.40625 L 315.257812 252.128906 L 313.289062 253.183594 L 310.941406 257.003906 L 309.8125 257.1875 L 308.707031 258.5 L 306.390625 259.09375 L 307.023438 260.109375 L 306.824219 262.953125 L 305.265625 264.667969 L 307.84375 268.980469 L 309.355469 273.425781 L 310.402344 274.34375 L 309.832031 275.683594 L 310.359375 276.214844 L 310.09375 277.523438 L 306.554688 277.246094 L 305.632812 278.101562 L 304.003906 275.554688 L 300.453125 275.125 L 301.1875 277.492188 L 300.277344 279.625 L 301.472656 283.742188 L 300.609375 285.398438 L 301.679688 285.640625 L 301.042969 286.96875 L 299.425781 286.832031 L 299.683594 288.558594 L 296.863281 288.601562 L 296.527344 289.253906 L 292.902344 287.394531 L 291.8125 285.558594 L 288.726562 285.421875 L 288.589844 283.363281 L 289.761719 283.503906 L 290.585938 281.902344 L 289.9375 280.882812 L 289.605469 281.34375 L 287.957031 280.539062 L 284.628906 280.558594 L 282.332031 279.757812 L 281.023438 280.199219 L 278.746094 281.917969 L 279.21875 283.046875 L 278.1875 283.851562 L 277.644531 287.203125 L 278.042969 289.847656 L 279.703125 290.542969 L 279.429688 292.105469 L 276.289062 292.164062 L 277.152344 294.238281 L 278.769531 295.417969 L 278.128906 296.664062 L 278.316406 299.652344 L 277.683594 299.046875 L 273.285156 299.121094 L 271.03125 300.101562 L 270.097656 299.5625 L 269.445312 296.140625 L 267.863281 294.84375 L 267.140625 295.40625 L 267.140625 296.839844 L 265.105469 296.894531 L 262.945312 298.65625 L 261.390625 295.265625 L 255.503906 291.785156 L 256.054688 291.367188 L 256 289.90625 L 253.875 289.398438 L 253.269531 289.851562 L 252.421875 288.59375 L 248.285156 288.308594 L 246.722656 287.265625 L 246.777344 284.820312 L 248.058594 281.503906 L 247.273438 279.089844 L 244.789062 277.570312 L 244.21875 276.128906 L 243.574219 277.464844 L 241.835938 276.082031 L 238.371094 275.316406 L 237.558594 275.828125 L 237 274.382812 L 235.765625 273.617188 L 236.125 272.851562 L 235.445312 272.386719 L 235.285156 270.964844 L 235.875 269.488281 L 232.179688 268.199219 L 232.253906 267.195312 L 230.210938 266.265625 L 229.539062 266.703125 L 230.292969 267.738281 L 228.835938 268.839844 L 229.625 270.191406 L 229.5 273.269531 L 230.101562 274.382812 L 229.238281 275.882812 L 226.132812 278.148438 L 224.632812 278.3125 L 223.230469 277.050781 L 222.019531 277.246094 L 221.515625 278.261719 L 218.890625 277.40625 L 218.21875 276.8125 L 218.792969 275.933594 L 217.824219 274.09375 L 215.3125 272.363281 L 213.320312 273.65625 L 211.242188 270.898438 L 208.359375 272.335938 L 206.269531 271.378906 L 202.84375 271.757812 L 202.09375 270.917969 L 198.722656 274.261719 L 196.472656 274.222656 L 195.253906 275.203125 L 194.554688 274.550781 L 192.695312 274.535156 L 191.753906 275.226562 L 189.4375 278.402344 L 191.269531 281.699219 L 192.734375 282.847656 L 190.777344 282.59375 L 188.667969 281.304688 L 188.40625 282.914062 L 189.039062 284.851562 L 185.1875 283.269531 L 183.402344 283.605469 L 182.699219 284.917969 L 182.121094 284.625 L 181.902344 283.804688 L 182.757812 282.398438 L 181.957031 282.0625 L 181.949219 281.128906 L 182.5625 280.351562 L 180.316406 277.902344 L 179.59375 273.9375 L 177.535156 272.300781 L 178.625 271.085938 L 177.984375 269.316406 L 182.265625 266.582031 L 182.667969 267.09375 L 187.242188 265.910156 L 188.640625 264.265625 L 188.40625 263.699219 L 189.769531 263.257812 L 190.757812 262.011719 L 190.191406 262.042969 L 190.617188 260.027344 L 189.4375 258.265625 L 190.375 257.238281 L 190.441406 255.636719 L 186.960938 252.605469 L 185.820312 252.917969 L 182.851562 251.507812 L 182.042969 248.472656 L 180.699219 246.6875 L 180.496094 244.535156 L 182.300781 246.828125 L 185.230469 247.554688 L 187.4375 247.242188 L 189.652344 244.457031 L 189.390625 241.703125 L 187.847656 238.738281 L 189.457031 237.109375 L 192.226562 237.328125 L 193.332031 236.1875 L 192.65625 232.757812 L 189.992188 229.925781 L 189.078125 227.753906 L 189.898438 225.828125 L 189.136719 224.769531 L 189.101562 220.976562 L 190.449219 217.859375 L 189.109375 215.773438 L 186.214844 214.710938 L 184.4375 211.613281 L 185.375 210.832031 L 184.253906 210.617188 L 181.507812 207.992188 L 181.765625 206.96875 L 185.226562 203.714844 L 185.234375 201.902344 L 184.457031 201.585938 L 184.464844 200.78125 L 186.832031 200.457031 L 188.484375 202.027344 L 189.988281 201.824219 L 190.433594 198.792969 L 189.566406 197.746094 L 191.671875 195.527344 L 192.167969 193.335938 L 190.292969 191.347656 L 188.761719 192.160156 L 187.242188 192.09375 L 186.910156 194.074219 L 186.140625 194.894531 L 185.570312 193.730469 L 184.109375 194.214844 L 182.058594 193.207031 L 181.09375 193.59375 L 180.25 192.027344 L 178.742188 191.601562 L 179.382812 190.128906 L 178.449219 188.175781 L 178.636719 186.902344 L 176.40625 185.589844 L 175.761719 184.007812 L 176.316406 180.210938 L 178.46875 176.945312 L 179.0625 174.851562 L 179.8125 174.523438 L 181.515625 175.351562 L 182.34375 174.964844 L 184.6875 176.433594 L 185.589844 175.921875 L 186.574219 173.582031 L 186.226562 166.835938 L 184.832031 165.703125 L 183.800781 166.191406 L 183.601562 163.519531 L 182.652344 162.082031 L 183.144531 161.902344 L 182.871094 160.847656 L 181.589844 159.574219 L 181.398438 158.445312 L 182.265625 155.28125 L 182.796875 154.582031 L 184.230469 154.425781 L 184.5625 152.25 L 186.652344 150.214844 L 187.753906 148.042969 L 187.027344 145.988281 L 184.160156 143.382812 L 184.234375 142.628906 L 180.976562 140.945312 L 181.0625 139.875 L 183.429688 138.339844 L 182.808594 137.066406 L 184.664062 134.363281 L 184.894531 130.15625 L 184.042969 128.675781 L 182.765625 128.546875 L 182.582031 127.660156 L 182.992188 124.515625 L 183.65625 123.910156 L 184.46875 124.742188 L 185.800781 124.402344 L 188.164062 122.027344 L 188.777344 120.0625 L 190.820312 121.628906 L 191.753906 125.390625 L 192.007812 128.894531 L 191.359375 129.199219 L 190.148438 134.355469 L 191.386719 136.777344 L 190.007812 139.136719 L 190.488281 139.832031 L 189.902344 141.246094 L 191.296875 142.699219 L 191.3125 143.613281 L 190.441406 144.175781 L 191.015625 148.699219 L 190.265625 149.796875 L 189.851562 154.859375 L 189.09375 154.941406 L 188.382812 158.066406 L 189.199219 161.5625 L 188.820312 164.164062 L 189.640625 164.476562 L 190.410156 163.847656 L 192.035156 164.617188 L 192.609375 164.035156 L 194.160156 160.632812 L 193.429688 158.371094 L 194.339844 155.867188 L 195.097656 154.589844 L 196.609375 154.503906 L 195.996094 146.910156 L 195.496094 144.699219 L 194.648438 144.015625 L 195.523438 143.085938 L 195.410156 142.046875 L 196.964844 142.683594 L 199.375 142.480469 L 200.019531 143.5625 L 200.660156 140.882812 L 201.359375 140.363281 L 202.394531 142.140625 L 204.40625 142.804688 L 205.464844 146.421875 L 205.453125 150 L 203.972656 150.761719 L 204.03125 152.53125 L 202.902344 153.113281 L 202.304688 154.761719 L 203.183594 155.785156 L 205.738281 156.632812 L 207.476562 159.972656 L 208.621094 159.996094 L 209.296875 159.1875 L 211.074219 159.953125 L 212.777344 159.296875 L 214.449219 160.96875 L 217.292969 157.867188 L 218.582031 158.789062 L 220.074219 158.347656 L 221.863281 158.785156 L 223.746094 157.632812 L 224.25 158.203125 L 225.558594 157.855469 L 226.421875 159.414062 L 227.617188 159.695312 L 228.226562 161.519531 L 229.191406 161.730469 L 230.820312 159.875 L 232.152344 160.378906 L 233.707031 159.683594 L 233.46875 161.675781 Z "/>
      </g>
    </g>
    <g id="co-river-polyline" fill="none" stroke-width="4.5" stroke="#1975d1" stroke-linejoin="round" style="stroke-linejoin:round;stroke-linecap:round">
      <g>
        <path id="Colorado-river" d="M 341.695312 92.863281 L 341.992188 99.050781 L 340.804688 100.082031 L 334.691406 101.773438 L 327.640625 105.648438 L 324.761719 106.328125 L 322.386719 111.449219 L 319.433594 113.5 L 316.832031 113.375 L 309.910156 114.824219 L 306.261719 116.617188 L 303.957031 118.949219 L 302.207031 123.574219 L 297.988281 125.195312 L 291.945312 122.574219 L 289.128906 124.464844 L 284.808594 132.835938 L 278.453125 139.691406 L 278.496094 141.664062 L 277.203125 144.097656 L 273.101562 148.8125 L 271.21875 149.792969 L 270.636719 151.347656 L 267.914062 151.136719 L 266.75 154.84375 L 263.796875 158.144531 L 261.269531 163.492188 L 260.171875 163.417969 L 258.300781 167.722656 L 250.90625 170.523438 L 247.339844 173.453125 L 243.003906 181.007812 L 242.726562 182.980469 L 243.703125 188.035156 L 242.941406 190.605469 L 241.550781 191.292969 L 238.699219 190.003906 L 236.808594 190.003906 L 233.488281 186.820312 L 232.511719 187.84375 L 231.265625 186.722656 L 232.527344 184.503906 L 231.355469 183.726562 L 229.070312 183.539062 L 227.253906 185.152344 L 220.5625 187.996094 L 218.9375 189.773438 L 217.269531 189.921875 L 216.824219 196.429688 L 215.066406 197.257812 L 210.433594 194.523438 L 208.625 190.804688 L 206.902344 189.824219 L 205.214844 187.476562 L 203.734375 188.386719 L 202.765625 191.109375 L 200.671875 191.316406 L 199.007812 188.273438 L 195.25 188.261719 L 192.292969 189.464844 L 193.550781 194.226562 L 192.878906 195.835938 L 193.464844 199.882812 L 193.125 202.019531 L 194.914062 208.5 L 194.933594 210.386719 L 193.800781 210.527344 L 193.667969 215.5 L 196.390625 219.601562 L 197.953125 225.214844 L 199.503906 225.765625 L 202.003906 228.308594 L 202.136719 229.40625 L 198.371094 231.332031 L 198.050781 232.238281 L 196.898438 232.332031 L 196.589844 234.390625 L 194.875 235.886719 L 195.238281 239.832031 L 194.378906 244.855469 L 192.507812 247.257812 L 191.355469 247.265625 L 191.808594 251.785156 L 191.089844 254.261719 L 191.753906 255.078125 L 194.886719 255.707031 L 195.320312 258.253906 L 194.839844 259.902344 L 193.363281 260.160156 L 192.972656 262.796875 L 190.515625 262.542969 L 189.078125 264.425781 L 188.769531 267.085938 L 186.621094 267.164062 L 186.226562 269.171875 L 184.222656 272.632812 L 182.070312 273.53125 L 181.738281 274.441406 L 182.265625 276.132812 L 184.355469 277.578125 L 184.816406 278.726562 L 188.660156 281.382812 "/>
      </g>
    </g>
  </g>
  <defs>
    <radialGradient id="Gradient">
      <stop offset="0" stop-color="white" stop-opacity="1"/>
      <stop offset="0.35" stop-color="white" stop-opacity="1"/>
      <stop offset="1" stop-color="white" stop-opacity="0"/>
    </radialGradient>
  </defs>
  <defs>
    <radialGradient id="Gradient">
      <stop offset="0" stop-color="white" stop-opacity="1"/>
      <stop offset="0.35" stop-color="white" stop-opacity="1"/>
      <stop offset="1" stop-color="white" stop-opacity="0"/>
    </radialGradient>
    <mask id="non-lo-co-mask">
      <circle r="300" stroke="none" fill="url(#Gradient)" cx="220" cy="200"/>
    </mask>
    <mask id="mexico-mask">
      <circle r="300" stroke="none" fill="url(#Gradient)" cx="300" cy="200"/>
    </mask>
  </defs>
  <text x="320" y="230" fill="#B22C2C" text-anchor="start">Cuenca Baja</text>
  <text x="338" y="130" fill="#B22C2C" text-anchor="start">Cuenca Alta</text>
  <text x="345" y="70" fill="#1975d1" text-anchor="start">Ro Colorado</text>
</svg>
 