<?xml version="1.0" encoding="utf-8"?>
<!-- Generator: Adobe Illustrator 19.2.1, SVG Export Plug-In . SVG Version: 6.00 Build 0)  -->
<!DOCTYPE svg PUBLIC "-//W3C//DTD SVG 1.1//EN" "http://www.w3.org/Graphics/SVG/1.1/DTD/svg11.dtd">
<svg version="1.1" id="Layer_1" xmlns="http://www.w3.org/2000/svg" xmlns:xlink="http://www.w3.org/1999/xlink" x="0px" y="0px"
	 viewBox="0 0 900 510" style="enable-background:new 0 0 900 510;" xml:space="preserve">
<style type="text/css">
	.st0{display:none;}
	.st1{display:inline;}
	.st2{enable-background:new    ;}
	.st3{clip-path:url(#SVGID_2_);enable-background:new    ;}
	.st4{fill:#708DA9;}
	.st5{fill:#6B89A6;}
	.st6{fill:#6685A3;}
	.st7{clip-path:url(#SVGID_4_);enable-background:new    ;}
	.st8{clip-path:url(#SVGID_6_);enable-background:new    ;}
	.st9{clip-path:url(#SVGID_8_);enable-background:new    ;}
	.st10{clip-path:url(#SVGID_10_);enable-background:new    ;}
	.st11{clip-path:url(#SVGID_12_);enable-background:new    ;}
	.st12{clip-path:url(#SVGID_14_);enable-background:new    ;}
	.st13{clip-path:url(#SVGID_16_);enable-background:new    ;}
	.st14{clip-path:url(#SVGID_18_);enable-background:new    ;}
	.st15{clip-path:url(#SVGID_20_);enable-background:new    ;}
	.st16{fill:#7A95AF;}
	.st17{clip-path:url(#SVGID_22_);enable-background:new    ;}
	.st18{clip-path:url(#SVGID_24_);enable-background:new    ;}
	.st19{clip-path:url(#SVGID_26_);enable-background:new    ;}
	.st20{fill:#7591AC;}
	.st21{clip-path:url(#SVGID_28_);enable-background:new    ;}
	.st22{clip-path:url(#SVGID_30_);enable-background:new    ;}
	.st23{clip-path:url(#SVGID_32_);enable-background:new    ;}
	.st24{clip-path:url(#SVGID_34_);enable-background:new    ;}
	.st25{clip-path:url(#SVGID_36_);enable-background:new    ;}
	.st26{clip-path:url(#SVGID_38_);enable-background:new    ;}
	.st27{clip-path:url(#SVGID_40_);enable-background:new    ;}
	.st28{clip-path:url(#SVGID_42_);enable-background:new    ;}
	.st29{clip-path:url(#SVGID_44_);enable-background:new    ;}
	.st30{clip-path:url(#SVGID_46_);enable-background:new    ;}
	.st31{clip-path:url(#SVGID_48_);enable-background:new    ;}
	.st32{clip-path:url(#SVGID_50_);enable-background:new    ;}
	.st33{fill:#7F99B2;}
	.st34{clip-path:url(#SVGID_52_);enable-background:new    ;}
	.st35{clip-path:url(#SVGID_54_);enable-background:new    ;}
	.st36{clip-path:url(#SVGID_56_);enable-background:new    ;}
	.st37{clip-path:url(#SVGID_58_);enable-background:new    ;}
	.st38{clip-path:url(#SVGID_60_);enable-background:new    ;}
	.st39{clip-path:url(#SVGID_62_);enable-background:new    ;}
	.st40{clip-path:url(#SVGID_64_);enable-background:new    ;}
	.st41{clip-path:url(#SVGID_66_);enable-background:new    ;}
	.st42{clip-path:url(#SVGID_68_);enable-background:new    ;}
	.st43{clip-path:url(#SVGID_70_);enable-background:new    ;}
	.st44{clip-path:url(#SVGID_72_);enable-background:new    ;}
	.st45{clip-path:url(#SVGID_74_);enable-background:new    ;}
	.st46{clip-path:url(#SVGID_76_);enable-background:new    ;}
	.st47{fill:#0F3F6F;}
	.st48{clip-path:url(#SVGID_78_);enable-background:new    ;}
	.st49{clip-path:url(#SVGID_80_);enable-background:new    ;}
	.st50{fill:#5F7F9F;}
	.st51{fill:#8099B3;}
	.st52{fill:#FFFFFF;}
	.st53{font-family:'Helvetica';}
	.st54{font-size:40.5597px;}
</style>
<g id="FyMD6O_1_" class="st0">
	<g class="st1">
		<g class="st2">
			<g class="st2">
				<g>
					<g>
						<g>
							<defs>
								<path id="SVGID_1_" d="M311.1,101.3l-5,27.5c-0.2,1-0.9,1.9-1.8,2.8l5-27.5C310.2,103.2,311,102.3,311.1,101.3z"/>
							</defs>
							<clipPath id="SVGID_2_">
								<use xlink:href="#SVGID_1_"  style="overflow:visible;"/>
							</clipPath>
							<g class="st3">
								<path class="st4" d="M311.1,101.3l-5,27.5c0,0.1,0,0.2-0.1,0.3l5-27.5C311.1,101.5,311.1,101.4,311.1,101.3"/>
								<path class="st5" d="M311.1,101.6l-5,27.5c-0.1,0.4-0.3,0.8-0.6,1.2l5-27.5C310.7,102.4,311,102,311.1,101.6"/>
								<path class="st6" d="M310.5,102.8l-5,27.5c-0.3,0.4-0.7,0.9-1.1,1.3l5-27.5C309.7,103.7,310.1,103.3,310.5,102.8"/>
							</g>
						</g>
					</g>
				</g>
			</g>
			<g class="st2">
				<g>
					<g>
						<g>
							<defs>
								<path id="SVGID_3_" d="M314.1,109.3l-5,27.5c-1.1,0.9-2.2,1.9-3.4,2.9l5-27.5C312,111.2,313.1,110.2,314.1,109.3z"/>
							</defs>
							<clipPath id="SVGID_4_">
								<use xlink:href="#SVGID_3_"  style="overflow:visible;"/>
							</clipPath>
							<g class="st7">
								<path class="st6" d="M314.1,109.3l-5,27.5c-1.1,0.9-2.2,1.9-3.4,2.9l5-27.5C312,111.2,313.1,110.2,314.1,109.3"/>
							</g>
						</g>
					</g>
				</g>
			</g>
			<g class="st2">
				<g>
					<g>
						<g>
							<defs>
								<path id="SVGID_5_" d="M362,146.4l-5,27.5l0,0c-0.1,0.2-0.1,0.5-0.2,0.7l5-27.5C361.8,146.9,361.9,146.7,362,146.4
									C362,146.5,362,146.4,362,146.4z"/>
							</defs>
							<clipPath id="SVGID_6_">
								<use xlink:href="#SVGID_5_"  style="overflow:visible;"/>
							</clipPath>
							<g class="st8">
								<path class="st4" d="M362,146.4l-5,27.5l0,0L362,146.4L362,146.4"/>
								<path class="st5" d="M362,146.5l-5,27.5l0,0c0,0.1,0,0.1-0.1,0.2l5-27.5C361.9,146.6,361.9,146.5,362,146.5L362,146.5"/>
								<path class="st4" d="M361.9,146.7l-5,27.5c-0.1,0.2-0.1,0.3-0.1,0.5l5-27.5C361.8,147,361.8,146.8,361.9,146.7"/>
							</g>
						</g>
					</g>
				</g>
			</g>
			<g class="st2">
				<g>
					<g>
						<g>
							<defs>
								<path id="SVGID_7_" d="M372.8,157.6l-5,27.5c-0.1,0.5-0.3,1-0.6,1.6l5-27.5C372.6,158.6,372.8,158.1,372.8,157.6z"/>
							</defs>
							<clipPath id="SVGID_8_">
								<use xlink:href="#SVGID_7_"  style="overflow:visible;"/>
							</clipPath>
							<g class="st9">
								<path class="st4" d="M372.8,157.6l-5,27.5c0,0.1,0,0.2-0.1,0.4l5-27.5C372.8,157.9,372.8,157.7,372.8,157.6"/>
								<path class="st5" d="M372.7,158l-5,27.5c-0.1,0.4-0.3,0.8-0.5,1.2l5-27.5C372.5,158.8,372.6,158.4,372.7,158"/>
							</g>
						</g>
					</g>
				</g>
			</g>
			<g class="st2">
				<g>
					<g>
						<g>
							<defs>
								<path id="SVGID_9_" d="M398.8,168.5l-5,27.5c0,0.2-0.1,0.5-0.2,0.7c-0.3,1.4-1,2.7-1.5,3.9l5-27.5c0.5-1.2,1.2-2.5,1.5-3.9
									C398.7,169,398.8,168.8,398.8,168.5z"/>
							</defs>
							<clipPath id="SVGID_10_">
								<use xlink:href="#SVGID_9_"  style="overflow:visible;"/>
							</clipPath>
							<g class="st10">
								<path class="st4" d="M398.8,168.5l-5,27.5c0,0.2-0.1,0.5-0.2,0.7c0,0.1-0.1,0.2-0.1,0.4l5-27.5c0-0.1,0.1-0.2,0.1-0.4
									C398.7,169,398.8,168.8,398.8,168.5"/>
								<path class="st5" d="M398.6,169.6l-5,27.5c-0.4,1.3-1,2.4-1.5,3.6l5-27.5C397.6,172,398.2,170.9,398.6,169.6"/>
							</g>
						</g>
					</g>
				</g>
			</g>
			<g class="st2">
				<g>
					<g>
						<g>
							<defs>
								<path id="SVGID_11_" d="M397,192.7l-5,27.5c-0.2,1.2-2.1,2.1-3.4,3.4l5-27.5C394.9,194.8,396.8,193.9,397,192.7z"/>
							</defs>
							<clipPath id="SVGID_12_">
								<use xlink:href="#SVGID_11_"  style="overflow:visible;"/>
							</clipPath>
							<g class="st11">
								<path class="st4" d="M397,192.7l-5,27.5v0.1l5-27.5V192.7"/>
								<path class="st5" d="M397,192.8l-5,27.5c-0.1,0.2-0.1,0.4-0.3,0.5l5-27.5C396.8,193.2,396.9,193,397,192.8"/>
								<path class="st6" d="M396.7,193.4l-5,27.5c-0.6,0.9-2,1.7-3.1,2.7l5-27.5C394.7,195,396.1,194.2,396.7,193.4"/>
							</g>
						</g>
					</g>
				</g>
			</g>
			<g class="st2">
				<g>
					<g>
						<g>
							<defs>
								<path id="SVGID_13_" d="M397.3,199.9l-5,27.5c-0.1,0.4-0.3,0.8-0.7,1.3c-0.4,0.4-0.6,0.8-0.6,1.1l5-27.5
									c0.1-0.4,0.3-0.7,0.6-1.1C397,200.8,397.2,200.3,397.3,199.9z"/>
							</defs>
							<clipPath id="SVGID_14_">
								<use xlink:href="#SVGID_13_"  style="overflow:visible;"/>
							</clipPath>
							<g class="st12">
								<path class="st4" d="M397.3,199.9l-5,27.5c0,0.1,0,0.1,0,0.2l5-27.5C397.3,200,397.3,200,397.3,199.9"/>
								<path class="st5" d="M397.2,200.1l-5,27.5c-0.1,0.2-0.2,0.5-0.4,0.7l5-27.5C397.1,200.6,397.2,200.3,397.2,200.1"/>
								<path class="st6" d="M396.9,200.8l-5,27.5c-0.1,0.1-0.2,0.3-0.3,0.4c-0.1,0.1-0.2,0.2-0.3,0.3l5-27.5
									c0.1-0.1,0.2-0.2,0.3-0.3C396.7,201.1,396.8,201,396.9,200.8"/>
								<path class="st5" d="M396.3,201.6l-5,27.5c-0.2,0.2-0.3,0.4-0.3,0.7l5-27.5C396,202,396.1,201.8,396.3,201.6"/>
								<path class="st4" d="M396,202.2l-5,27.5c0,0.1,0,0.1,0,0.1l5-27.5C395.9,202.3,396,202.3,396,202.2"/>
							</g>
						</g>
					</g>
				</g>
			</g>
			<g class="st2">
				<g>
					<g>
						<g>
							<defs>
								<path id="SVGID_15_" d="M403.3,213.1l-5,27.5c-0.1,0.7-1.2,1.1-3.5,1.6c-2.4,0.5-3.8,1.8-4.1,3.4l5-27.5
									c0.3-1.6,1.7-2.9,4.1-3.4C402.1,214.1,403.2,213.8,403.3,213.1z"/>
							</defs>
							<clipPath id="SVGID_16_">
								<use xlink:href="#SVGID_15_"  style="overflow:visible;"/>
							</clipPath>
							<g class="st13">
								<path class="st4" d="M403.3,213.1l-5,27.5v0.1L403.3,213.1L403.3,213.1"/>
								<path class="st5" d="M403.3,213.1l-5,27.5c0,0.1-0.1,0.2-0.1,0.2l5-27.5C403.2,213.3,403.3,213.2,403.3,213.1"/>
								<path class="st6" d="M403.2,213.4l-5,27.5c-0.4,0.5-1.4,0.8-3.4,1.2c-1.7,0.4-2.9,1.1-3.5,2l5-27.5c0.7-0.9,1.8-1.7,3.5-2
									C401.7,214.2,402.8,213.9,403.2,213.4"/>
								<path class="st5" d="M396.2,216.7l-5,27.5c-0.2,0.3-0.4,0.7-0.5,1l5-27.5C395.8,217.3,396,217,396.2,216.7"/>
								<path class="st4" d="M395.7,217.7l-5,27.5c0,0.1-0.1,0.2-0.1,0.3l5-27.5C395.7,217.9,395.7,217.8,395.7,217.7"/>
							</g>
						</g>
					</g>
				</g>
			</g>
			<g class="st2">
				<g>
					<g>
						<g>
							<defs>
								<path id="SVGID_17_" d="M433.3,257.6l5-27.5c0-0.1,0.1-0.3,0.1-0.4l-5,27.5C433.4,257.3,433.3,257.5,433.3,257.6z"/>
							</defs>
							<clipPath id="SVGID_18_">
								<use xlink:href="#SVGID_17_"  style="overflow:visible;"/>
							</clipPath>
							<g class="st14">
								<path class="st5" d="M438.4,229.6l-5,27.5v0.1l5-27.5C438.4,229.7,438.4,229.7,438.4,229.6"/>
								<path class="st4" d="M438.4,229.8l-5,27.5c0,0.1-0.1,0.2-0.1,0.3l5-27.5C438.3,230,438.3,229.9,438.4,229.8"/>
							</g>
						</g>
					</g>
				</g>
			</g>
			<g class="st2">
				<g>
					<g>
						<g>
							<defs>
								<path id="SVGID_19_" d="M256.9,199.3l-5,27.5c0.7-3.7-2.6-7.1-4.6-10.5c-2.6-4.3-3.3-5.6-3.7-10.2
									c-0.3-3.3-1.1-6.7-1.7-10.1c-6.9-40.7-13.8-81.4-20.6-122.1c-2.1-12.5-4.1-24.9-6.2-37.4c-0.1-0.4-0.1-0.7,0-0.9l5-27.5
									c0,0.2,0,0.5,0,0.9c2.1,12.4,4.1,24.9,6.2,37.4c6.9,40.7,13.7,81.4,20.6,122.1c0.6,3.4,1.4,6.7,1.7,10.1
									c0.4,4.6,1.1,5.9,3.7,10.2C254.3,192.2,257.5,195.6,256.9,199.3z"/>
							</defs>
							<clipPath id="SVGID_20_">
								<use xlink:href="#SVGID_19_"  style="overflow:visible;"/>
							</clipPath>
							<g class="st15">
								<path class="st16" d="M256.9,199.3l-5,27.5c0.7-3.7-2.6-7.1-4.6-10.5c-2.6-4.3-3.3-5.6-3.7-10.2c-0.3-3.3-1.1-6.7-1.7-10.1
									c-6.9-40.7-13.8-81.4-20.6-122.1c-2.1-12.5-4.1-24.9-6.2-37.4c-0.1-0.4-0.1-0.7,0-0.9l5-27.5c0,0.2,0,0.5,0,0.9
									c2.1,12.4,4.1,24.9,6.2,37.4c6.9,40.7,13.7,81.4,20.6,122.1c0.6,3.4,1.4,6.7,1.7,10.1c0.4,4.6,1.1,5.9,3.7,10.2
									C254.3,192.2,257.5,195.6,256.9,199.3"/>
							</g>
						</g>
					</g>
				</g>
			</g>
			<g class="st2">
				<g>
					<g>
						<g>
							<defs>
								<path id="SVGID_21_" d="M442.6,238.6l-5,27.5c0,0.1-0.1,0.2-0.1,0.4l5-27.5C442.5,238.8,442.5,238.7,442.6,238.6z"/>
							</defs>
							<clipPath id="SVGID_22_">
								<use xlink:href="#SVGID_21_"  style="overflow:visible;"/>
							</clipPath>
							<g class="st17">
								<path class="st4" d="M442.6,238.6l-5,27.5c0,0.1,0,0.2-0.1,0.3l5-27.5C442.5,238.7,442.5,238.7,442.6,238.6"/>
								<path class="st5" d="M442.5,238.8l-5,27.5v0.1L442.5,238.8C442.5,238.9,442.5,238.9,442.5,238.8"/>
							</g>
						</g>
					</g>
				</g>
			</g>
			<g class="st2">
				<g>
					<g>
						<g>
							<defs>
								<path id="SVGID_23_" d="M398.8,227.7l-5,27.5c-0.3,1.5-1.1,2.8-1.3,3.5l5-27.5C397.7,230.5,398.5,229.1,398.8,227.7z"/>
							</defs>
							<clipPath id="SVGID_24_">
								<use xlink:href="#SVGID_23_"  style="overflow:visible;"/>
							</clipPath>
							<g class="st18">
								<path class="st4" d="M398.8,227.7l-5,27.5c0,0.2-0.1,0.4-0.1,0.6l5-27.5C398.7,228.1,398.7,227.9,398.8,227.7"/>
								<path class="st5" d="M398.6,228.3l-5,27.5c-0.3,1.2-0.9,2.3-1.2,2.9l5-27.5C397.7,230.6,398.3,229.5,398.6,228.3"/>
							</g>
						</g>
					</g>
				</g>
			</g>
			<g class="st2">
				<g>
					<g>
						<g>
							<defs>
								<path id="SVGID_25_" d="M286.7,236.1l-5,27.5c0.3-1.9-0.6-6.7-1.7-8.3c-0.5-0.7-0.5-1.5-0.9-2.2c-0.7-1.1-1.4-2.7-2.6-3.2
									c-3.2-1.3-6.7-2.2-10.1-3.2c-0.6-0.2-1.3-0.2-1.7-0.5c-1.9-1.7-4-3.5-5.5-5.4c-2.7-3.4-5.1-6.9-7.7-10.4
									c-0.3-0.4-0.6-0.9-0.6-1.2l5-27.5c-0.1,0.3,0.3,0.9,0.6,1.2c2.5,3.5,4.9,7,7.7,10.4c1.5,1.9,3.6,3.6,5.5,5.4
									c0.3,0.3,1.1,0.4,1.7,0.5c3.4,1,6.9,1.9,10.1,3.2c1.2,0.5,1.9,2,2.6,3.2c0.5,0.7,0.4,1.5,0.9,2.2
									C286.1,229.5,287,234.3,286.7,236.1z"/>
							</defs>
							<clipPath id="SVGID_26_">
								<use xlink:href="#SVGID_25_"  style="overflow:visible;"/>
							</clipPath>
							<g class="st19">
								<path class="st16" d="M286.7,236.1l-5,27.5c0.3-1.9-0.6-6.7-1.7-8.3c-0.5-0.7-0.5-1.5-0.9-2.2c-0.7-1.1-1.4-2.7-2.6-3.2
									c-0.6-0.2-1.1-0.4-1.7-0.6l5-27.5c0.6,0.2,1.1,0.4,1.7,0.6c1.2,0.5,1.9,2,2.6,3.2c0.5,0.7,0.4,1.5,0.9,2.2
									C286.1,229.5,287,234.3,286.7,236.1"/>
								<path class="st20" d="M279.7,221.8l-5,27.5c-2.7-1-5.6-1.7-8.4-2.6c-0.4-0.1-0.9-0.2-1.3-0.3l5-27.5
									c0.4,0.1,0.9,0.2,1.3,0.3C274.1,220.1,277,220.9,279.7,221.8"/>
								<path class="st16" d="M270,218.9l-5,27.5c-0.2-0.1-0.3-0.1-0.4-0.2c-1.9-1.7-4-3.5-5.5-5.4c-2.7-3.4-5.1-6.9-7.7-10.4
									c-0.3-0.4-0.6-0.9-0.6-1.2l5-27.5c-0.1,0.3,0.3,0.9,0.6,1.2c2.5,3.5,4.9,7,7.7,10.4c1.5,1.9,3.6,3.6,5.5,5.4
									C269.7,218.8,269.8,218.9,270,218.9"/>
							</g>
						</g>
					</g>
				</g>
			</g>
			<g class="st2">
				<g>
					<g>
						<g>
							<defs>
								<path id="SVGID_27_" d="M286,239.7l-5,27.5c0.1-0.7,0.2-1.5,0.3-2.2l5-27.5C286.2,238.2,286.1,239,286,239.7z"/>
							</defs>
							<clipPath id="SVGID_28_">
								<use xlink:href="#SVGID_27_"  style="overflow:visible;"/>
							</clipPath>
							<g class="st21">
								<path class="st16" d="M286,239.7l-5,27.5c0.1-0.7,0.2-1.5,0.3-2.2l5-27.5C286.2,238.2,286.1,239,286,239.7"/>
							</g>
						</g>
					</g>
				</g>
			</g>
			<g class="st2">
				<g>
					<g>
						<g>
							<defs>
								<path id="SVGID_29_" d="M466.3,270.6l-5,27.5c0,0.2-0.1,0.4-0.2,0.5c-0.2,0.4-0.4,0.9-0.5,1.3l5-27.5
									c0.1-0.4,0.2-0.9,0.5-1.3C466.2,271,466.3,270.8,466.3,270.6z"/>
							</defs>
							<clipPath id="SVGID_30_">
								<use xlink:href="#SVGID_29_"  style="overflow:visible;"/>
							</clipPath>
							<g class="st22">
								<path class="st4" d="M466.3,270.6l-5,27.5c0,0.1,0,0.1,0,0.2l5-27.5C466.3,270.7,466.3,270.7,466.3,270.6"/>
								<path class="st5" d="M466.3,270.8l-5,27.5c0,0.1-0.1,0.2-0.1,0.3c-0.2,0.3-0.3,0.6-0.4,0.9l5-27.5c0.1-0.3,0.2-0.6,0.4-0.9
									C466.2,271,466.3,270.9,466.3,270.8"/>
								<path class="st4" d="M465.8,272l-5,27.5c0,0.1-0.1,0.3-0.1,0.4l5-27.5C465.7,272.3,465.7,272.2,465.8,272"/>
							</g>
						</g>
					</g>
				</g>
			</g>
			<g class="st2">
				<g>
					<g>
						<g>
							<defs>
								<path id="SVGID_31_" d="M572.4,317.1l5-27.5c-0.3,1.5-0.1,3.2,0.7,5l-5,27.5C572.3,320.2,572.1,318.6,572.4,317.1z"/>
							</defs>
							<clipPath id="SVGID_32_">
								<use xlink:href="#SVGID_31_"  style="overflow:visible;"/>
							</clipPath>
							<g class="st23">
								<path class="st16" d="M578.1,294.5l-5,27.5c-0.8-1.8-1-3.5-0.7-5l5-27.5C577.1,291.1,577.3,292.7,578.1,294.5"/>
							</g>
						</g>
					</g>
				</g>
			</g>
			<g class="st2">
				<g>
					<g>
						<g>
							<defs>
								<path id="SVGID_33_" d="M571.9,294.1l-5,27.5c-2.2,0.1-4.3,0.5-6.2,1.1l5-27.5C567.6,294.6,569.7,294.2,571.9,294.1z"/>
							</defs>
							<clipPath id="SVGID_34_">
								<use xlink:href="#SVGID_33_"  style="overflow:visible;"/>
							</clipPath>
							<g class="st24">
								<path class="st5" d="M571.9,294.1l-5,27.5c-1.3,0.1-2.5,0.2-3.7,0.5l5-27.5C569.3,294.3,570.6,294.2,571.9,294.1"/>
								<path class="st6" d="M568.2,294.6l-5,27.5c-0.8,0.2-1.7,0.4-2.5,0.7l5-27.5C566.5,295,567.3,294.7,568.2,294.6"/>
							</g>
						</g>
					</g>
				</g>
			</g>
			<g class="st2">
				<g>
					<g>
						<g>
							<defs>
								<path id="SVGID_35_" d="M536,295l-5,27.5c-0.6,0.1-1.2,0.2-1.7,0.4l5-27.5C534.8,295.2,535.4,295.1,536,295z"/>
							</defs>
							<clipPath id="SVGID_36_">
								<use xlink:href="#SVGID_35_"  style="overflow:visible;"/>
							</clipPath>
							<g class="st25">
								<path class="st5" d="M536,295l-5,27.5c-0.3,0-0.5,0.1-0.8,0.1l5-27.5C535.5,295.1,535.7,295,536,295"/>
								<path class="st6" d="M535.2,295.1l-5,27.5c-0.3,0.1-0.6,0.2-0.9,0.3l5-27.5C534.6,295.3,534.9,295.2,535.2,295.1"/>
							</g>
						</g>
					</g>
				</g>
			</g>
			<g class="st2">
				<g>
					<g>
						<g>
							<defs>
								<path id="SVGID_37_" d="M491.6,292.7l-5,27.5c0,0.3-0.1,0.5-0.2,0.8l0,0l5-27.5l0,0C491.5,293.2,491.5,292.9,491.6,292.7z"
									/>
							</defs>
							<clipPath id="SVGID_38_">
								<use xlink:href="#SVGID_37_"  style="overflow:visible;"/>
							</clipPath>
							<g class="st26">
								<path class="st4" d="M491.6,292.7l-5,27.5c0,0.1-0.1,0.3-0.1,0.4l5-27.5C491.5,292.9,491.5,292.8,491.6,292.7"/>
								<path class="st5" d="M491.5,293.1l-5,27.5c0,0.1-0.1,0.2-0.1,0.4l0,0l5-27.5l0,0C491.4,293.3,491.4,293.2,491.5,293.1"/>
								<polyline class="st4" points="491.3,293.5 486.3,321 486.3,321 491.3,293.5 491.3,293.5 								"/>
							</g>
						</g>
					</g>
				</g>
			</g>
			<g class="st2">
				<g>
					<g>
						<g>
							<defs>
								<path id="SVGID_39_" d="M280.2,257.6l-5,27.5c0.1-0.4,0.1-0.8,0.2-1.2l5-27.5C280.3,256.8,280.3,257.2,280.2,257.6z"/>
							</defs>
							<clipPath id="SVGID_40_">
								<use xlink:href="#SVGID_39_"  style="overflow:visible;"/>
							</clipPath>
							<g class="st27">
								<path class="st16" d="M280.2,257.6l-5,27.5c0.1-0.4,0.1-0.8,0.2-1.2l5-27.5C280.3,256.8,280.3,257.2,280.2,257.6"/>
							</g>
						</g>
					</g>
				</g>
			</g>
			<g class="st2">
				<g>
					<g>
						<g>
							<defs>
								<path id="SVGID_41_" d="M503.5,327.6c1.7-9.2,3.3-18.4,5-27.5c0.9-0.5,2-0.7,3.4-0.8c-1.7,9.1-3.3,18.3-5,27.4
									c1.7-9.1,3.3-18.3,5-27.4l0,0l-5,27.5C505.6,326.8,504.5,327.1,503.5,327.6z"/>
							</defs>
							<clipPath id="SVGID_42_">
								<use xlink:href="#SVGID_41_"  style="overflow:visible;"/>
							</clipPath>
							<g class="st28">
								<path class="st5" d="M511.9,299.2l-5,27.5c-0.6,0-1.1,0.1-1.6,0.2l5-27.5C510.8,299.3,511.3,299.3,511.9,299.2"/>
								<path class="st6" d="M510.3,299.4l-5,27.5c-0.9,0.2-1.6,0.5-2.2,0.9l5-27.5C508.7,299.9,509.5,299.6,510.3,299.4"/>
							</g>
						</g>
					</g>
				</g>
			</g>
			<g class="st2">
				<g>
					<g>
						<g>
							<defs>
								<path id="SVGID_43_" d="M503.5,327.6c-0.2,0.1-0.3,0.2-0.4,0.2l5-27.5c0.1-0.1,0.3-0.2,0.4-0.2
									C506.9,309.2,505.2,318.4,503.5,327.6z"/>
							</defs>
							<clipPath id="SVGID_44_">
								<use xlink:href="#SVGID_43_"  style="overflow:visible;"/>
							</clipPath>
							<g class="st29">
								<path class="st6" d="M510.3,299.4l-5,27.5c-0.9,0.2-1.6,0.5-2.2,0.9l5-27.5C508.7,299.9,509.5,299.6,510.3,299.4"/>
							</g>
						</g>
					</g>
				</g>
			</g>
			<g class="st2">
				<g>
					<g>
						<g>
							<defs>
								<path id="SVGID_45_" d="M502.6,328.2c1.7-9.2,3.3-18.4,5-27.5c0.2-0.1,0.3-0.2,0.5-0.3l-5,27.5
									C502.9,327.9,502.8,328,502.6,328.2z"/>
							</defs>
							<clipPath id="SVGID_46_">
								<use xlink:href="#SVGID_45_"  style="overflow:visible;"/>
							</clipPath>
							<g class="st30">
								<path class="st6" d="M508.1,300.3l-5,27.5c-0.5,0.3-1,0.7-1.3,1.2l5-27.5C507.2,301,507.6,300.6,508.1,300.3"/>
							</g>
						</g>
					</g>
				</g>
			</g>
			<g class="st2">
				<g>
					<g>
						<g>
							<defs>
								<path id="SVGID_47_" d="M501.6,329.3c1.7-9.2,3.3-18.4,5-27.5c0.2-0.4,0.6-0.8,1-1.2c-1.7,9.2-3.3,18.4-5,27.5
									C502.2,328.5,501.9,328.9,501.6,329.3z"/>
							</defs>
							<clipPath id="SVGID_48_">
								<use xlink:href="#SVGID_47_"  style="overflow:visible;"/>
							</clipPath>
							<g class="st31">
								<path class="st6" d="M508.1,300.3l-5,27.5c-0.5,0.3-1,0.7-1.3,1.2l5-27.5C507.2,301,507.6,300.6,508.1,300.3"/>
								<path class="st5" d="M506.8,301.5l-5,27.5c-0.2,0.4-0.4,0.7-0.6,1.2l5-27.5C506.4,302.2,506.6,301.8,506.8,301.5"/>
							</g>
						</g>
					</g>
				</g>
			</g>
			<g class="st2">
				<g>
					<g>
						<g>
							<defs>
								<path id="SVGID_49_" d="M501.6,329.3c-0.2,0.3-0.3,0.6-0.4,1l5-27.5c0.1-0.4,0.2-0.7,0.4-1c-0.7,3.9-1.4,7.9-2.1,11.8
									c-0.5,2.6-1,5.2-1.4,7.9c-0.1,0.3-0.1,0.7-0.2,1s-0.1,0.7-0.2,1c-0.2,1.3-0.5,2.7-0.7,4C501.9,328,501.8,328.8,501.6,329.3z
									"/>
							</defs>
							<clipPath id="SVGID_50_">
								<use xlink:href="#SVGID_49_"  style="overflow:visible;"/>
							</clipPath>
							<g class="st32">
								<path class="st5" d="M506.8,301.5l-5,27.5c-0.2,0.4-0.4,0.7-0.6,1.2l5-27.5C506.4,302.2,506.6,301.8,506.8,301.5"/>
								<path class="st4" d="M506.3,302.6l-5,27.5v0.1l5-27.5C506.2,302.7,506.3,302.7,506.3,302.6"/>
							</g>
						</g>
					</g>
				</g>
			</g>
			<g>
				<path class="st33" d="M508.1,300.3c-1,0.6-1.6,1.5-1.9,2.5C506.5,301.7,507.1,300.9,508.1,300.3z"/>
			</g>
			<g class="st2">
				<g>
					<g>
						<g>
							<defs>
								<path id="SVGID_51_" d="M501.3,330.6l5-27.5c-0.1,0.8-0.1,1.7,0.2,2.7l-5,27.5C501.2,332.3,501.2,331.4,501.3,330.6z"/>
							</defs>
							<clipPath id="SVGID_52_">
								<use xlink:href="#SVGID_51_"  style="overflow:visible;"/>
							</clipPath>
							<g class="st34">
								<path class="st16" d="M506.5,305.8l-5,27.5c-0.3-1-0.3-1.9-0.2-2.7l5-27.5C506.2,303.8,506.3,304.7,506.5,305.8"/>
							</g>
						</g>
					</g>
				</g>
			</g>
			<g class="st2">
				<g>
					<g>
						<g>
							<defs>
								<path id="SVGID_53_" d="M506.6,306.5l-5,27.5c0-0.2,0.1-0.5,0-0.7l5-27.5C506.6,306,506.6,306.2,506.6,306.5z"/>
							</defs>
							<clipPath id="SVGID_54_">
								<use xlink:href="#SVGID_53_"  style="overflow:visible;"/>
							</clipPath>
							<g class="st35">
								<path class="st16" d="M506.6,306.5l-5,27.5c0-0.2,0.1-0.5,0-0.7l5-27.5C506.6,306,506.6,306.2,506.6,306.5"/>
							</g>
						</g>
					</g>
				</g>
			</g>
			<g class="st2">
				<g>
					<g>
						<g>
							<defs>
								<polygon id="SVGID_55_" points="501.3,335 506.3,307.5 506.3,307.6 								"/>
							</defs>
							<clipPath id="SVGID_56_">
								<use xlink:href="#SVGID_55_"  style="overflow:visible;"/>
							</clipPath>
							<g class="st36">
								<path class="st16" d="M506.3,307.5l-5,27.5c0,0,0,0,0-0.1L506.3,307.5L506.3,307.5"/>
							</g>
						</g>
					</g>
				</g>
			</g>
			<g class="st2">
				<g>
					<g>
						<g>
							<defs>
								<path id="SVGID_57_" d="M275.4,277.9l-5,27.5c0.2-1.2-0.1-2.7-0.3-4c-0.3-1.3-0.5-2.4-0.3-3.6l5-27.5
									c-0.2,1.1,0,2.3,0.3,3.6S275.7,276.7,275.4,277.9z"/>
							</defs>
							<clipPath id="SVGID_58_">
								<use xlink:href="#SVGID_57_"  style="overflow:visible;"/>
							</clipPath>
							<g class="st37">
								<path class="st16" d="M275.4,277.9l-5,27.5c0.2-1.2-0.1-2.7-0.3-4c-0.3-1.3-0.5-2.4-0.3-3.6l5-27.5c-0.2,1.1,0,2.3,0.3,3.6
									S275.7,276.7,275.4,277.9"/>
							</g>
						</g>
					</g>
				</g>
			</g>
			<g class="st2">
				<g>
					<g>
						<g>
							<defs>
								<path id="SVGID_59_" d="M275.3,320.7l-5,27.5c-1.8-0.6-3.5-1.4-4.9-1.7l5-27.5C271.8,319.4,273.4,320.2,275.3,320.7z"/>
							</defs>
							<clipPath id="SVGID_60_">
								<use xlink:href="#SVGID_59_"  style="overflow:visible;"/>
							</clipPath>
							<g class="st38">
								<path class="st20" d="M275.3,320.7l-5,27.5c-0.4-0.1-0.7-0.2-1.1-0.4l5-27.5C274.6,320.5,274.9,320.6,275.3,320.7"/>
								<path class="st16" d="M274.2,320.4l-5,27.5c-0.9-0.3-1.8-0.7-2.7-1l5-27.5C272.4,319.7,273.3,320.1,274.2,320.4"/>
								<path class="st20" d="M271.5,319.4l-5,27.5c-0.4-0.1-0.8-0.3-1.2-0.4l5-27.5C270.7,319.1,271.1,319.2,271.5,319.4"/>
							</g>
						</g>
					</g>
				</g>
			</g>
			<g class="st2">
				<g>
					<g>
						<g>
							<defs>
								<path id="SVGID_61_" d="M255.3,333.1l5-27.5c-0.5,2.5-0.2,5.1,1,8.1c1.3,3.3,1.4,5.3,9.1,5.4l-5,27.5
									c-7.6-0.1-7.8-2.1-9.1-5.4C255.1,338.1,254.9,335.6,255.3,333.1z"/>
							</defs>
							<clipPath id="SVGID_62_">
								<use xlink:href="#SVGID_61_"  style="overflow:visible;"/>
							</clipPath>
							<g class="st39">
								<path class="st4" d="M270.4,319l-5,27.5c-1.5,0-2.8-0.1-3.8-0.3l5-27.5C267.6,318.9,268.8,319,270.4,319"/>
								<path class="st20" d="M266.6,318.7l-5,27.5c-0.6-0.1-1.2-0.2-1.7-0.4l5-27.5C265.4,318.5,265.9,318.6,266.6,318.7"/>
								<path class="st16" d="M264.9,318.3l-5,27.5c-2.4-0.9-2.8-2.5-3.6-4.7c-1.2-3-1.4-5.5-1-8.1l5-27.5c-0.5,2.5-0.2,5.1,1,8.1
									C262.2,315.8,262.5,317.4,264.9,318.3"/>
							</g>
						</g>
					</g>
				</g>
			</g>
			<g class="st2">
				<g>
					<g>
						<g>
							<defs>
								<path id="SVGID_63_" d="M280.8,326.2l-5,27.5c0.2-1-0.8-1.9-2.9-2.8c-1.4-0.6-2.1-2-2.6-2.6l5-27.5c0.5,0.5,1.3,1.9,2.6,2.6
									C279.9,324.3,281,325.1,280.8,326.2z"/>
							</defs>
							<clipPath id="SVGID_64_">
								<use xlink:href="#SVGID_63_"  style="overflow:visible;"/>
							</clipPath>
							<g class="st40">
								<path class="st16" d="M280.8,326.2l-5,27.5c0.2-1-0.8-1.9-2.9-2.8c-1.4-0.6-2.1-2-2.6-2.6l5-27.5c0.5,0.5,1.3,1.9,2.6,2.6
									C279.9,324.3,281,325.1,280.8,326.2"/>
							</g>
						</g>
					</g>
				</g>
			</g>
			<g class="st2">
				<g>
					<g>
						<g>
							<defs>
								<path id="SVGID_65_" d="M279.2,339.7l-5,27.5c0-0.1,0-0.2,0-0.3c0.2-1.3,0.4-2.7,0.4-4.1c0-0.8,0.2-1.9-0.4-2.5
									c-1.1-1-1.5-1.8-1.3-2.6l5-27.5c-0.1,0.8,0.2,1.6,1.3,2.6c0.6,0.5,0.5,1.6,0.4,2.5c-0.1,1.4-0.2,2.8-0.4,4.1
									C279.2,339.5,279.2,339.6,279.2,339.7z"/>
							</defs>
							<clipPath id="SVGID_66_">
								<use xlink:href="#SVGID_65_"  style="overflow:visible;"/>
							</clipPath>
							<g class="st41">
								<path class="st16" d="M279.2,339.7l-5,27.5c0-0.1,0-0.2,0-0.3c0.2-1.3,0.4-2.7,0.4-4.1c0-0.8,0.2-1.9-0.4-2.5
									c-1.1-1-1.5-1.8-1.3-2.6l5-27.5c-0.1,0.8,0.2,1.6,1.3,2.6c0.6,0.5,0.5,1.6,0.4,2.5c-0.1,1.4-0.2,2.8-0.4,4.1
									C279.2,339.5,279.2,339.6,279.2,339.7"/>
							</g>
						</g>
					</g>
				</g>
			</g>
			<g class="st2">
				<g>
					<g>
						<g>
							<defs>
								<path id="SVGID_67_" d="M625.4,476.3c0-1,0.4-2.3,0.6-3.2c0.2-1,0.4-2.4,0.6-3.4c0.4-2.4,0.9-4.8,1.3-7.1
									c0.8-4.6,1.7-9.2,2.5-13.8c0.1,0.7,0.1,1.2,0.1,1.7l-5,27.5C625.5,477.5,625.5,477,625.4,476.3z"/>
							</defs>
							<clipPath id="SVGID_68_">
								<use xlink:href="#SVGID_67_"  style="overflow:visible;"/>
							</clipPath>
							<g class="st42">
								<path class="st16" d="M630.5,450.5l-5,27.5c0.1-0.5,0.1-1-0.1-1.7l5-27.5C630.5,449.5,630.5,450,630.5,450.5"/>
							</g>
						</g>
					</g>
				</g>
			</g>
			<g class="st2">
				<g>
					<g>
						<g>
							<defs>
								<path id="SVGID_69_" d="M630.5,450.5l-5,27.5c-0.2,1.3-1.3,1.7-3.6,1.8l5-27.5C629.2,452.2,630.2,451.7,630.5,450.5z"/>
							</defs>
							<clipPath id="SVGID_70_">
								<use xlink:href="#SVGID_69_"  style="overflow:visible;"/>
							</clipPath>
							<g class="st43">
								<path class="st4" d="M630.5,450.5l-5,27.5c0,0.1,0,0.1,0,0.2l5-27.5C630.4,450.6,630.4,450.5,630.5,450.5"/>
								<path class="st5" d="M630.4,450.7l-5,27.5c-0.1,0.2-0.1,0.4-0.3,0.6l5-27.5C630.3,451.1,630.4,450.9,630.4,450.7"/>
								<path class="st6" d="M630.2,451.2l-5,27.5c-0.3,0.4-0.8,0.7-1.6,0.9l5-27.5C629.3,452,629.8,451.7,630.2,451.2"/>
								<path class="st5" d="M628.5,452.1l-5,27.5c-0.5,0.1-1,0.1-1.6,0.2l5-27.5C627.5,452.3,628.1,452.2,628.5,452.1"/>
							</g>
						</g>
					</g>
				</g>
			</g>
			<g class="st2">
				<g>
					<g>
						<g>
							<defs>
								<path id="SVGID_71_" d="M625.5,478c0,0.2-0.1,0.4-0.2,0.5l5-27.5c0.1-0.2,0.1-0.3,0.2-0.5C629,458.7,627,469.7,625.5,478z"
									/>
							</defs>
							<clipPath id="SVGID_72_">
								<use xlink:href="#SVGID_71_"  style="overflow:visible;"/>
							</clipPath>
							<g class="st44">
								<path class="st4" d="M630.5,450.5l-5,27.5c0,0.1,0,0.1-0.1,0.2l5-27.5C630.4,450.6,630.4,450.5,630.5,450.5"/>
								<path class="st5" d="M630.4,450.7l-5,27.5c0,0.1-0.1,0.2-0.1,0.3l5-27.5C630.3,450.9,630.4,450.8,630.4,450.7"/>
							</g>
						</g>
					</g>
				</g>
			</g>
			<g>
				<path class="st33" d="M630,451.4c-0.3,0.3-0.7,0.5-1.2,0.6C629.3,451.9,629.7,451.7,630,451.4z"/>
			</g>
			<g class="st2">
				<g>
					<g>
						<g>
							<defs>
								<path id="SVGID_73_" d="M625,479c-0.3,0.3-0.7,0.5-1.2,0.6l5-27.5c0.5-0.1,0.9-0.3,1.2-0.6C628.5,459.7,626.5,470.7,625,479
									z"/>
							</defs>
							<clipPath id="SVGID_74_">
								<use xlink:href="#SVGID_73_"  style="overflow:visible;"/>
							</clipPath>
							<g class="st45">
								<path class="st6" d="M630,451.4l-5,27.5c-0.3,0.3-0.7,0.5-1.2,0.6l5-27.5C629.3,451.9,629.7,451.7,630,451.4"/>
							</g>
						</g>
					</g>
				</g>
			</g>
			<g class="st2">
				<g>
					<g>
						<g>
							<defs>
								<path id="SVGID_75_" d="M272.2,374.4l5-27.5c-0.1,0.4-0.1,0.8-0.1,1.1c0.1,2.6,0.9,5.2,1.3,7.8c5.3,31.6,10.7,63.1,16,94.7
									l-5,27.5c-5.3-31.6-10.7-63.1-16-94.7c-0.4-2.6-1.2-5.2-1.3-7.8C272,375.1,272.1,374.7,272.2,374.4z"/>
							</defs>
							<clipPath id="SVGID_76_">
								<use xlink:href="#SVGID_75_"  style="overflow:visible;"/>
							</clipPath>
							<g class="st46">
								<path class="st16" d="M294.4,450.4l-5,27.5c-5.3-31.6-10.7-63.1-16-94.7c-0.4-2.6-1.2-5.2-1.3-7.8c0-0.4,0-0.8,0.1-1.1
									l5-27.5c-0.1,0.4-0.1,0.8-0.1,1.1c0.1,2.6,0.9,5.2,1.3,7.8C283.7,387.3,289.1,418.9,294.4,450.4"/>
							</g>
						</g>
					</g>
				</g>
			</g>
			<g>
				<path class="st47" d="M247.4,6.4c3.6-0.1,7.2-0.1,10.7-0.1c3.4,0,6.9-0.1,10.3-0.1c1.6,0,2.7,0,3.8-0.1c2.9,0,3.8,0.8,4.1,2.8
					c3.6,21.8,7,43.6,11,65.4c0.8,4.3,5.6,7.6,9.9,10.7c1.4,1,2.3,2.5,3.6,3.6c1.9,1.7,4,3.2,5.8,4.8c0.8,0.7,1.4,1.7,1.9,2.6
					c0.3,0.6,0,1.5,0.5,1.9c3.3,2.4,2.1,4.3,0.2,6.3c1.7,1.8,3.2,3.4,4.8,5.2c-1.1,0.9-2.2,1.9-3.4,2.9c2.1,1,4.2,1.9,6,3
					c2.5,1.5,4.7,3.3,7.1,4.9c1,0.7,2.2,1.3,3.4,1.6c2.4,0.6,4.9,0.8,7.3,1.3c0.6,0.1,1.4,0.5,1.5,0.8c1.7,4.5,7.3,6.5,11,9.6
					c0.5,0.5,1.3,0.8,1.6,1.3c2.6,4.3,7.3,7.3,12,10.2c0.6,0.3,1.3,1.1,1.1,1.5c-1.3,4,2.6,5.9,6.3,7.1c3.6,1.2,5.8,2.2,4,5.6
					c1.9-0.4,2.6-1,3.4-1.3c1.3-0.4,2-0.6,2.6-0.6c1.8,0.5,2.7,1.6,2.8,2.5c-0.1,2.7,0.9,3.3,3.2,3.3c5.9-0.2,7.1-0.4,8.2-1
					c0.8-0.6,1.4-0.7,2.1-0.7c0.9,0,1.7,0.1,2.4,0.3c1.5,0.7,1.8,2.2,2,3.3c0.2,1.4,0,2.9-0.3,4.2c-0.3,1.4-1,2.7-1.5,3.9
					c-0.1,3.3-0.2,6.6-0.3,9.9c0,3.2,0.5,6.4,0.1,9.5c-0.1,1.2-2,2.1-3.4,3.5c0.2,0.2,0.9,0.8,1.6,1.2c2.1,1.1,2.7,2.4,1.3,3.9
					c-1.6,1.8,0.1,3.1,2.1,3.9c2,0.8,3.3,1.6,2.7,3.4c-0.2,0.5,0.2,1.3,0.6,1.9c2.1,3.1,2,3.4-2.2,4.3c-4.6,1-5.5,4.8-2.3,7.8
					c1.2,1.1,1.4,3.1,1.3,4.7c-0.1,1.7-1.1,3.3-1.4,4.2c4.3,2.5,7.8,4.5,11.1,6.5c1,0.6,1.9,0.9,2.6,1c1.5-0.1,2.2-0.6,2.5-1.6
					c0.5-2.1,0.6-3.3,2.8-3.4c2.8-0.5,3.6-1.1,4.1-1.5c2.3-2.3,4.9-4.3,5.5-7.6c0.2-0.8,0.7-1.1,1.3-1.2c1,0,1.7,0.3,2.2,0.5
					c3.2,2.8,5.4,4.7,8.8,5.7c-1.2,3.7,5.2,5.9,4.1,9.3c1.9,4.1,3.6,7.4,5.9,10.5c2.4,3.1,5.2,6.1,8.1,9c2,2,4.5,3.8,6.9,5.5
					c1.8,1.3,3.6,5.7,2.8,7.2c-1.5,2.7,0.2,5.6,3.8,7.1c1.6,0.6,3,1.5,4.7,2.3c1.8-0.5,3-0.7,4-0.7c3.7,0,6.2,1.6,8.8,5
					c2.4,3.4,5,5.6,3.9,8.7c-0.1,0.3,0.9,0.9,1.2,1.5c1,1.7,2,3.5,2.7,5.3s1.5,3.2,4.1,4c2.3,0.7,4.4,2,7,3.3
					c0.1-0.5,0.4-1.2,0.2-1.8c-1.1-4,1.3-6.4,5.4-6.5c7.2,0.8,12.2,1.5,17.2,2c0.7,0,1.6-0.9,2-1.6c0.6-3,2.4-4.3,4.8-4.6
					c1.8,0,2.9,0.1,4,0.4c1.3,0.4,2.8,0.5,4.3,0.5c1.1,0,1.6-0.1,2.2-0.1c0.6,0,1.2-0.1,1.8-0.2c3-0.3,5.9-1.4,8.9-1.5
					c1.2,0,2.5,0.9,4.1,1.8c4.9-1.1,7.6-1.8,10.6-1.9c2.7,0,4.5,0.1,6.2,0.4c-2.4-5.6,0.7-9.5,6-12.9c4.3,2.2,8,5,10,9
					c0.4,0.8,1.3,1.6,2.2,2.3c1.4,1.2,2.9,2.3,4.3,3.4c6.2,2.6,4.9,6.4,5.4,9.4c8.2,47.7,16.2,95.4,24.4,143.1
					c0.4,2.5-0.4,3.4-3.5,3.5c-17.9,0.2-35.3,0.4-52.8,0.8c-87.5,1.5-175,3.1-262.5,4.6c-5,0.1-10,0.2-16,0.3
					c-0.4-2.6-0.9-5.1-1.3-7.5c-5.3-31.6-10.7-63.1-16-94.7c-0.4-2.6-1.2-5.2-1.3-7.8c-0.1-1.7,0.8-3.3,1.3-5
					c0.3-1.2,0.6-2.3,0.8-3.5c0.2-1.3,0.4-2.7,0.4-4.1c0-0.8,0.2-1.9-0.4-2.5c-2.3-2.1-1.3-3.4,0.4-5c2.1-2,1.4-3.1-1.7-4.6
					c-1.4-0.6-2.1-2-2.6-2.6c-1.8-0.6-3.5-1.4-4.9-1.7c-7.6-0.1-7.8-2.1-9.1-5.4c-1.8-4.7-1.5-8.4,0.5-12.4
					c1.8-3.6,2.4-7.6,3.6-11.4c0.3-0.8,0.6-1.9,1.3-2.1c5.4-1.4,6.2-5.4,8.2-8.6c0.9-1.4,0.5-3.5,0.1-5.2c-0.4-2.2-0.9-4.1,1.1-6.1
					c1.8-1.9,2.9-4.4,3.4-6.9c1.3-6.4,1.8-13,5.6-18.9c1.1-1.6,0.9-3.8,1.4-5.7c0.5-1.6-0.5-6.9-1.6-8.6c-0.5-0.7-0.5-1.5-0.9-2.2
					c-0.7-1.1-1.4-2.7-2.6-3.2c-3.2-1.3-6.7-2.2-10.1-3.2c-0.6-0.2-1.3-0.2-1.7-0.5c-1.9-1.7-4-3.5-5.5-5.4
					c-2.7-3.4-5.1-6.9-7.7-10.4c-0.3-0.4-0.7-1-0.6-1.3c3-4.6-1.2-8.7-3.6-12.8c-2.6-4.3-3.3-5.6-3.7-10.2
					c-0.3-3.3-1.1-6.7-1.7-10.1c-6.9-40.7-13.8-81.4-20.6-122.1c-2.1-12.5-4.1-24.9-6.2-37.4c-0.4-2,1.2-2.2,3-2.2
					C231.1,6.7,239.3,6.5,247.4,6.4z"/>
			</g>
			<g class="st2">
				<g>
					<g>
						<g>
							<defs>
								<path id="SVGID_77_" d="M626.9,452.3l-5,27.5c-17.9,0.2-35.3,0.4-52.8,0.8c-87.5,1.5-175,3.1-262.5,4.6
									c-5,0.1-10,0.2-16,0.3l5-27.5c5.9-0.1,11-0.2,16-0.3c87.5-1.5,175-3.1,262.5-4.6C591.6,452.7,609,452.4,626.9,452.3z"/>
							</defs>
							<clipPath id="SVGID_78_">
								<use xlink:href="#SVGID_77_"  style="overflow:visible;"/>
							</clipPath>
							<g class="st48">
								<path class="st5" d="M626.9,452.3l-5,27.5c-17.9,0.2-35.3,0.4-52.8,0.8c-87.5,1.5-175,3.1-262.5,4.6c-5,0.1-10,0.2-16,0.3
									l5-27.5c5.9-0.1,11-0.2,16-0.3c87.5-1.5,175-3.1,262.5-4.6C591.6,452.7,609,452.4,626.9,452.3"/>
							</g>
						</g>
					</g>
				</g>
			</g>
			<g class="st2">
				<g>
					<g>
						<g>
							<defs>
								<path id="SVGID_79_" d="M295.7,457.9l-5,27.5c-0.4-2.6-0.9-5.1-1.3-7.5l5-27.5C294.8,452.9,295.2,455.3,295.7,457.9z"/>
							</defs>
							<clipPath id="SVGID_80_">
								<use xlink:href="#SVGID_79_"  style="overflow:visible;"/>
							</clipPath>
							<g class="st49">
								<path class="st16" d="M295.7,457.9l-5,27.5c-0.4-2.6-0.9-5.1-1.3-7.5l5-27.5C294.8,452.9,295.2,455.3,295.7,457.9"/>
							</g>
						</g>
					</g>
				</g>
			</g>
		</g>
	</g>
</g>
<g>
	<g>
		<g>
			<g class="st2">
				<g>
					<polygon class="st47" points="361.5,29 375.5,111.4 540.5,108.5 595.5,434.6 183.6,441.8 114.6,33.3 					"/>
				</g>
				<g>
					<polygon class="st50" points="595.5,434.6 588.7,472.1 176.7,479.3 183.6,441.8 					"/>
				</g>
				<g>
					<polygon class="st51" points="183.6,441.8 176.7,479.3 107.8,70.9 114.6,33.3 					"/>
				</g>
			</g>
		</g>
	</g>
</g>
<g class="st2">
	<path class="st52" d="M316.5,246.2v34.7c0,5.6-1.8,9.8-5.4,12.8s-8.3,4.4-14.2,4.4c-5.6,0-10.2-1.5-13.7-4.4
		c-3.5-3-5.3-7.2-5.3-12.8v-34.7h6.9v34.7c0,3.9,1.1,6.8,3.3,8.8c2.2,2,5.1,3,8.7,3c3.8,0,6.9-1,9.2-3c2.3-2,3.5-4.9,3.5-8.8v-34.7
		H316.5z"/>
	<path class="st52" d="M335.6,250.2v9.2h7.2v5.1h-7.2v23.1c0,1.8,0.4,3,1.1,3.8s1.7,1.1,2.9,1.1c0.4,0,0.8,0,1.3-0.1
		s0.9-0.2,1.3-0.4l0.9,4.7c-0.5,0.4-1.3,0.8-2.3,1c-1,0.3-2,0.4-3,0.4c-2.8,0-5.1-0.8-6.7-2.5c-1.7-1.7-2.5-4.4-2.5-8v-23.1h-6v-5.1
		h6v-9.2H335.6z"/>
	<path class="st52" d="M374.8,297.4c-0.2-1.1-0.4-2.2-0.5-3c-0.1-0.9-0.2-1.8-0.2-2.7c-1.3,1.8-3,3.4-5,4.6s-4.3,1.8-6.7,1.8
		c-4,0-7-1-9.1-3s-3.1-4.8-3.1-8.4s1.5-6.5,4.4-8.5c2.9-2.1,6.9-3.1,12-3.1h7.5v-3.8c0-2.2-0.7-4-2-5.3c-1.4-1.3-3.3-2-5.8-2
		c-2.2,0-4,0.6-5.4,1.7s-2.1,2.5-2.1,4.1h-6.6l-0.1-0.2c-0.1-2.8,1.2-5.3,3.9-7.6c2.8-2.3,6.3-3.4,10.7-3.4c4.3,0,7.8,1.1,10.4,3.3
		c2.6,2.2,3.9,5.3,3.9,9.5v18.3c0,1.4,0.1,2.7,0.2,3.9s0.4,2.5,0.8,3.7h-7.2L374.8,297.4L374.8,297.4z M363.3,292.3
		c2.5,0,4.8-0.6,6.8-1.9s3.3-2.8,3.9-4.4v-6.2h-7.8c-2.8,0-5,0.7-6.7,2.1s-2.5,3-2.5,4.9c0,1.7,0.5,3,1.6,4
		C359.6,291.8,361.2,292.3,363.3,292.3z"/>
	<path class="st52" d="M397.9,264.5c1.3-1.8,2.9-3.3,4.8-4.3s4-1.5,6.3-1.5c4.1,0,7.2,1.2,9.5,3.7c2.3,2.4,3.4,6.2,3.4,11.2v23.8
		H415v-23.9c0-3.1-0.7-5.5-2-7s-3.4-2.2-6-2.2c-1.9,0-3.7,0.5-5.2,1.4c-1.6,0.9-2.8,2.1-3.9,3.7v28.1H391v-54.8h6.9L397.9,264.5
		L397.9,264.5z"/>
</g>
<text transform="matrix(1 0 0 1 598.7001 464.7422)" class="st53 st54">} 30 cm de agua</text>
</svg>