<?xml version="1.0" encoding="UTF-8"?>
<svg xmlns="http://www.w3.org/2000/svg" xmlns:xlink="http://www.w3.org/1999/xlink" width="540pt" height="547pt" viewBox="0 0 540 547" version="1.1">
<g id="surface200">
<rect x="0" y="0" width="540" height="547" style="fill:rgb(100%,100%,100%);fill-opacity:1;stroke:none;"/>
<rect x="0" y="0" width="540" height="547" style="fill:rgb(100%,100%,100%);fill-opacity:1;stroke:none;"/>
<path style="fill:none;stroke-width:0.75;stroke-linecap:round;stroke-linejoin:round;stroke:rgb(100%,100%,100%);stroke-opacity:1;stroke-miterlimit:10;" d="M 0 547 L 540 547 L 540 0 L 0 0 Z M 0 547 "/>
<path style="fill:none;stroke-width:0.75;stroke-linecap:round;stroke-linejoin:round;stroke:rgb(0%,0%,0%);stroke-opacity:1;stroke-miterlimit:10;" d="M 73.621094 143.914062 L 73.457031 143.8125 L 73.242188 145.019531 L 73.75 146.949219 L 72.566406 149.300781 L 71.941406 155.054688 L 73.015625 156.730469 L 72.699219 157.515625 L 74.417969 159.050781 L 74.46875 163.664062 L 75.40625 166.105469 L 74.742188 171.054688 L 76.164062 174.105469 L 78.324219 176.160156 L 78.71875 178.105469 L 79.609375 178.691406 L 80.207031 178.183594 L 81.257812 178.667969 L 89.457031 186.507812 L 89.167969 187.738281 L 90.851562 190.289062 L 90.484375 191.121094 L 91.011719 193.054688 L 91.699219 193.015625 L 91.691406 192.140625 L 93.070312 192.296875 L 93.496094 194.597656 L 95.066406 193.980469 L 95.824219 194.789062 L 97.144531 199.59375 L 98.449219 200.410156 L 100.089844 200.121094 L 100.625 200.957031 L 100.929688 200.714844 L 100.511719 203.351562 L 101.785156 204.789062 L 101.488281 207.59375 L 102.125 208.132812 L 101.960938 210.359375 L 102.730469 211 L 102.976562 212.191406 L 104.574219 213.925781 L 108.054688 215.570312 L 108.886719 218.359375 L 110.5 220.636719 L 110.230469 221.394531 L 111.949219 222.574219 L 114.09375 223.1875 L 113.167969 225.210938 L 114.054688 226.230469 L 113.832031 226.503906 L 115.292969 227.617188 L 115.46875 228.398438 L 114.757812 229.484375 L 116.691406 232.042969 L 117.351562 232.496094 L 118.230469 231.671875 L 116.152344 229.507812 L 115.597656 226.882812 L 116.058594 226.527344 L 119.957031 229.835938 L 119.914062 232.15625 L 121.761719 232.832031 L 121.355469 234.511719 L 122.601562 236.074219 L 122.445312 237.1875 L 123.5625 239.796875 L 123.054688 242.148438 L 123.859375 245.238281 L 125.101562 246.03125 L 125.574219 247.890625 L 126.691406 249.332031 L 128.253906 249.515625 L 128.148438 250.707031 L 129.558594 253.238281 L 129.972656 255.6875 L 131.355469 257.503906 L 132.257812 257.84375 L 133.816406 261.285156 L 132.570312 264.464844 L 133.519531 268.8125 L 135.351562 271.191406 L 138.980469 271.769531 L 138.273438 272.234375 L 137.355469 271.847656 L 137.636719 272.914062 L 138.605469 272.796875 L 139.304688 271.773438 L 138.738281 269.421875 L 139.613281 268.78125 L 140.371094 268.949219 L 141.261719 270.457031 L 143.699219 271.808594 L 144.226562 273.902344 L 145.148438 274.140625 L 146.644531 273.578125 L 147.003906 274.265625 L 146.519531 275.730469 L 148.679688 277.933594 L 148.761719 280.234375 L 152.289062 281.933594 L 152.109375 282.511719 L 153.183594 284.695312 L 152.523438 287.929688 L 150.757812 289.832031 L 149 290.363281 L 146.679688 292.929688 L 144.511719 293.328125 L 142.902344 291.511719 L 141.617188 286.171875 L 139.148438 282.125 L 134.570312 279.535156 L 128 272.976562 L 121.34375 269.019531 L 120.511719 267.9375 L 119.71875 267.921875 L 118.601562 265.335938 L 118.066406 265.082031 L 117.941406 265.863281 L 116.484375 265.730469 L 116.171875 264.863281 L 116.355469 265.792969 L 117.050781 266.25 L 116.125 266.339844 L 115.78125 264.191406 L 114.480469 262.339844 L 113.851562 261.792969 L 113.902344 262.558594 L 112.890625 262.519531 L 112.546875 261 L 112.992188 261.238281 L 112.933594 260.835938 L 112.507812 260.988281 L 112.71875 262.261719 L 112.191406 262.75 L 112.375 262.136719 L 111.933594 261.566406 L 111.53125 261.78125 L 111.980469 260.957031 L 111.484375 260.296875 L 111.667969 259.214844 L 112.195312 259.269531 L 111.679688 259.117188 L 111.8125 258.03125 L 111.253906 259.007812 L 111.226562 261.304688 L 111.105469 260.480469 L 110.675781 261.203125 L 110.96875 259.449219 L 110.566406 258.8125 L 111.164062 258.734375 L 111.511719 257.519531 L 111.519531 256.941406 L 111.003906 257.050781 L 111.09375 255.882812 L 111.621094 254.15625 L 112.191406 254.125 L 111.753906 253.898438 L 112.226562 253.507812 L 112.039062 250.445312 L 113.003906 250.242188 L 111.992188 250.269531 L 112.160156 249.679688 L 112.40625 249.945312 L 112.242188 246.027344 L 111.902344 246.679688 L 110.507812 241.75 L 109.179688 240.433594 L 109.320312 239.792969 L 109.265625 239.761719 L 108.9375 240.515625 L 107.230469 237.371094 L 106.398438 237.097656 L 105.890625 237.601562 L 103.839844 236.109375 L 103.148438 236.195312 L 101.515625 234.636719 L 101.832031 234.246094 L 101.382812 234.539062 L 98.925781 232.589844 L 101.164062 233.808594 L 100.851562 233.410156 L 99.785156 232.585938 L 98.730469 232.515625 L 97.375 231.316406 L 97.3125 231.164062 L 96.535156 230.789062 L 96.675781 230.414062 L 97.289062 231.105469 L 97.164062 230.816406 L 97.589844 230.730469 L 96.125 228.894531 L 96.519531 228.109375 L 95.90625 228.101562 L 95.628906 228.777344 L 94.753906 228.253906 L 95.480469 228.152344 L 96.347656 227.082031 L 95.996094 224.828125 L 95.378906 227.191406 L 94.359375 227.695312 L 94.433594 228.828125 L 91.574219 227.882812 L 92.558594 227.753906 L 91.789062 227.460938 L 91.167969 227.667969 L 91.46875 227.878906 L 90.78125 228.136719 L 90.195312 229.316406 L 89.492188 229.316406 L 89.554688 229.367188 L 89.480469 229.316406 L 89.128906 229.316406 L 88.5 228.664062 L 87.421875 227.945312 L 86.742188 226.0625 L 85.730469 225.09375 L 84.257812 224.566406 L 83.453125 225.027344 L 81.226562 222.382812 L 79.699219 221.933594 L 79.105469 222.414062 L 77.859375 221.453125 L 77.054688 221.476562 L 77.039062 220.910156 L 76.273438 220.589844 L 75.992188 217.476562 L 72.667969 215.582031 L 71.878906 214.054688 L 70.675781 213.527344 L 71.082031 213.46875 L 70.875 212.714844 L 70.304688 213.179688 L 69.511719 212.289062 L 68.746094 212.277344 L 67.652344 210.050781 L 76.304688 211.5 L 77.683594 210.738281 L 78.5625 210.894531 L 78.679688 210.34375 L 77.945312 210.546875 L 79.019531 209.789062 L 79.402344 210.121094 L 79.234375 211.941406 L 81.285156 213.269531 L 82.164062 214.441406 L 83.109375 213.324219 L 82.425781 213.167969 L 82.75 212.980469 L 84.316406 213.550781 L 84.8125 212.835938 L 84.875 213.757812 L 84.289062 213.703125 L 85.132812 215.355469 L 85.652344 215.457031 L 86.027344 214.761719 L 85.128906 213.886719 L 85.199219 213.160156 L 85.855469 213.597656 L 85.320312 213.015625 L 85.238281 210.871094 L 84.058594 210.007812 L 84.324219 210.671875 L 83.726562 211.820312 L 84.214844 212.058594 L 83.265625 212.167969 L 82.714844 211.101562 L 83.132812 212.3125 L 81.957031 212.730469 L 80.960938 211.941406 L 81.476562 212.003906 L 81.058594 210.804688 L 81.804688 209.75 L 81.324219 209.339844 L 81.691406 209.464844 L 81.289062 209.011719 L 81.5625 208.609375 L 79.691406 209.496094 L 79.789062 208.761719 L 81.824219 206.410156 L 82.0625 207.042969 L 81.523438 207.695312 L 82.105469 209.054688 L 82.359375 208.613281 L 101.128906 208.910156 L 82.359375 208.613281 L 82.015625 207.203125 L 82.574219 208.203125 L 83.273438 207.148438 L 82.316406 206.871094 L 82.117188 205.8125 L 82.949219 204.488281 L 82.945312 206.257812 L 83.148438 204.625 L 82.867188 203.558594 L 81.996094 203.539062 L 83.25 200.152344 L 82.488281 198.6875 L 81.59375 198.355469 L 81.539062 197.085938 L 79.992188 196.761719 L 79.792969 195.984375 L 78.886719 195.570312 L 77.960938 193.117188 L 75.441406 191.585938 L 74.898438 189.472656 L 73.589844 189.121094 L 73.230469 187.910156 L 72.210938 187.332031 L 70.015625 184.574219 L 66.804688 183.613281 L 65.9375 182.117188 L 64.105469 181.359375 L 62.984375 180.207031 L 62.285156 180.332031 L 59.539062 177.917969 L 59.566406 175.492188 L 58.996094 174.683594 L 57.988281 174.605469 L 58.507812 173.144531 L 58.199219 168.757812 L 56.75 167 L 55.71875 167.160156 L 56.398438 166.804688 L 56.496094 166.054688 L 55.714844 165.1875 L 56.1875 166.238281 L 55.863281 166.558594 L 55.191406 166.097656 L 55.828125 167.589844 L 55.480469 167.664062 L 54.863281 165.753906 L 55.300781 162.675781 L 54.929688 160.335938 L 53.277344 159.191406 L 52.023438 157.402344 L 51.011719 157.300781 L 51.542969 154.265625 L 50.851562 152.691406 L 48.6875 149.414062 L 47.554688 148.890625 L 46.335938 147.3125 L 46.941406 146.84375 L 47.027344 145.542969 L 45.707031 144.105469 L 46.890625 144.574219 L 47.425781 143.8125 L 46.949219 144.5625 L 47.320312 144.988281 L 47.628906 142.394531 L 45.8125 141.453125 L 45.527344 140.273438 L 43.988281 139.425781 L 43.609375 136.078125 L 41.929688 134.84375 L 40.9375 130.679688 L 75.070312 128.835938 L 73.757812 130.5 L 73.65625 132.539062 L 126.730469 152.503906 L 167.78125 151.574219 L 167.527344 144.046875 L 191.519531 143.039062 L 192.125 143.625 L 193.617188 143.796875 L 196.433594 148.144531 L 200.109375 149.644531 L 202.917969 152.792969 L 205.453125 154.09375 L 206.136719 155.558594 L 208.523438 157.15625 L 208.597656 157.765625 L 211.269531 158.390625 L 213.597656 160.214844 L 214.476562 160.230469 L 214.972656 161.390625 L 215.753906 161.480469 L 216.925781 165.070312 L 219.246094 167.464844 L 219.902344 172.71875 L 221.734375 175.011719 L 222.734375 177.355469 L 224.753906 178.777344 L 227.308594 179.609375 L 228.089844 181.058594 L 229.828125 182.050781 L 233.867188 182.832031 L 233.964844 183.503906 L 234.917969 184.167969 L 237.347656 184.398438 L 238.648438 185.878906 L 240.308594 186.511719 L 240.808594 186.125 L 241.542969 187.125 L 244.027344 186.863281 L 244.175781 185.578125 L 245.066406 184.847656 L 245.546875 183.464844 L 247.394531 182.574219 L 246.761719 182.011719 L 246.992188 180.433594 L 247.898438 179.554688 L 247.882812 177.453125 L 249.589844 173.578125 L 250.253906 173.667969 L 251.089844 173.003906 L 251.414062 173.410156 L 251.851562 172.726562 L 253.726562 172.949219 L 253.964844 171.492188 L 254.570312 170.898438 L 258.355469 172.128906 L 259.679688 171.503906 L 260.402344 171.984375 L 261.496094 171.5 L 261.96875 171.769531 L 261.980469 171.386719 L 262.214844 171.890625 L 264.632812 172.121094 L 265.621094 171.765625 L 266.003906 171.023438 L 266.195312 171.890625 L 267.316406 171.289062 L 267.550781 171.933594 L 268.21875 171.542969 L 267.988281 171.941406 L 268.921875 173.484375 L 269.769531 173.371094 L 269.863281 174.636719 L 270.652344 173.765625 L 270.664062 175.496094 L 273.640625 176.296875 L 274.546875 177.714844 L 277.597656 179.273438 L 278.328125 180.742188 L 279.886719 181.714844 L 280.738281 184.890625 L 282.484375 186.578125 L 283.25 188.933594 L 284.917969 190.101562 L 285.191406 191.253906 L 285.984375 191.449219 L 285.511719 191.886719 L 287.265625 195.449219 L 288.410156 196.4375 L 290.308594 197.03125 L 292.082031 199.453125 L 292.796875 199.59375 L 294.011719 202.667969 L 295.023438 202.960938 L 296.628906 204.738281 L 297.878906 205.152344 L 298.464844 204.851562 L 299.851562 205.964844 L 299.757812 207.109375 L 300.507812 207.453125 L 300.359375 209.789062 L 299.886719 210.25 L 301.441406 211.164062 L 301.851562 215.078125 L 304.707031 217.742188 L 306.664062 221.417969 L 306.828125 222.808594 L 308.035156 223.566406 L 307.90625 224.613281 L 308.355469 225.03125 L 310.203125 224.886719 L 310.632812 225.34375 L 310.851562 224.929688 L 311.316406 225.519531 L 312.757812 225.175781 L 314.96875 227.152344 L 316.121094 226.660156 L 317.597656 227.382812 L 318.507812 227.046875 L 319.46875 228.105469 L 320.226562 227.871094 L 320.800781 228.839844 L 321.148438 228.414062 L 321.117188 228.863281 L 322.550781 229.511719 L 324.300781 229.035156 L 324.441406 229.640625 L 325.121094 229.058594 L 328.589844 228.722656 L 329.265625 229.25 L 331.078125 229.023438 L 331.75 230.085938 L 332.394531 230.167969 L 332.167969 230.503906 L 332.890625 230.484375 L 333.242188 231.183594 L 334.273438 231.121094 L 334.777344 231.824219 L 334.980469 231.4375 L 335.125 231.835938 L 335.625 231.648438 L 335.519531 230.480469 L 336.867188 229.976562 L 336.695312 229.578125 L 338.890625 229.203125 L 338.898438 234.21875 L 336.050781 242.105469 L 335.488281 242.042969 L 336.535156 239.882812 L 336.121094 239.816406 L 336.175781 239.703125 L 335.347656 240.007812 L 336.152344 239.160156 L 335.152344 239.117188 L 335.300781 238.539062 L 334.8125 238.988281 L 333.945312 238.21875 L 333.316406 239.007812 L 333.863281 238.832031 L 334.386719 239.273438 L 334.234375 239.839844 L 334.511719 239.601562 L 334.878906 240.132812 L 333.773438 240.035156 L 334.195312 241.460938 L 333.660156 241.546875 L 333.542969 240.765625 L 332.972656 241.210938 L 332.515625 240.832031 L 332.777344 240.175781 L 332.265625 240.054688 L 331.34375 240.410156 L 331.472656 241.332031 L 331.691406 240.824219 L 331.363281 242.300781 L 330.183594 241.714844 L 331.238281 242.734375 L 331.652344 242.507812 L 331.722656 243.261719 L 332.308594 243.605469 L 331.980469 245.175781 L 331.222656 245.449219 L 331.988281 245.300781 L 331.449219 246.144531 L 331.902344 246.390625 L 331.136719 247.4375 L 331.859375 247.089844 L 333.082031 247.890625 L 332.1875 248.578125 L 331.835938 248.257812 L 332.054688 249.046875 L 331.632812 249.210938 L 332.378906 249.863281 L 331.523438 250.609375 L 332.457031 250.492188 L 332.113281 250.691406 L 332.484375 250.789062 L 332.40625 251.765625 L 331.6875 252.332031 L 332.601562 251.953125 L 332.148438 252.5625 L 332.660156 252.394531 L 332.441406 255.371094 L 331.917969 255.152344 L 331.898438 254.214844 L 331.125 254.464844 L 331 253.898438 L 330.40625 254.976562 L 330.84375 255.410156 L 331.257812 255.050781 L 330.6875 255.980469 L 331.136719 256.722656 L 331.800781 256.789062 L 331.066406 256.804688 L 331.910156 258.351562 L 331.800781 256.71875 L 332.445312 256.03125 L 332.671875 262.285156 L 332.382812 262.636719 L 332.421875 261.953125 L 331.808594 262.070312 L 332.457031 263.359375 L 332.675781 262.582031 L 333.191406 267.332031 L 333.726562 267.265625 L 333.554688 265.503906 L 333.867188 267.566406 L 333.074219 267.484375 L 333.570312 267.710938 L 333.570312 267.800781 L 333.855469 267.621094 L 333.929688 273.789062 L 333.835938 273.390625 L 333.527344 273.730469 L 333.9375 273.863281 L 334.804688 282.703125 L 334.445312 284.386719 L 334.425781 284.578125 L 334.386719 284.664062 L 334.011719 286.410156 L 334.210938 285.023438 L 333.222656 287.074219 L 333.816406 288.523438 L 333.941406 286.347656 L 334.183594 289.519531 L 333.585938 289.882812 L 334.183594 289.6875 L 333.820312 289.964844 L 334.320312 291.722656 L 334.128906 290.160156 L 335.085938 292.738281 L 335.738281 293.246094 L 335.621094 294.730469 L 337.253906 298.199219 L 336.03125 296.503906 L 337.125 298.507812 L 337.238281 300.632812 L 338.183594 303.417969 L 340.167969 306.558594 L 341.1875 306.324219 L 341.550781 306.710938 L 341.753906 308.574219 L 342.671875 309.550781 L 342.363281 308.34375 L 343.269531 306.148438 L 343.117188 305.203125 L 338.945312 301.320312 L 337.28125 298.253906 L 339.929688 301.492188 L 343.953125 304.5 L 343.664062 306.785156 L 342.820312 309.710938 L 343.003906 309.90625 L 347.734375 319.605469 L 360.933594 332.609375 L 362.550781 336.621094 L 362.21875 336.882812 L 363.683594 338.660156 L 363.378906 339.945312 L 364.363281 341.5625 L 363.949219 341.519531 L 366.5625 342.992188 L 367.195312 342.832031 L 366.96875 343.105469 L 367.917969 344.042969 L 367.535156 345.011719 L 369.933594 345.433594 L 370.855469 348.210938 L 372.039062 349.105469 L 374.003906 349.59375 L 373.914062 350.128906 L 371.871094 349.378906 L 372.945312 350.503906 L 372.285156 351.105469 L 373.140625 350.980469 L 373.210938 350.421875 L 374.058594 350.484375 L 374.132812 349.652344 L 377.199219 350.660156 L 383.46875 350.21875 L 385.167969 351.144531 L 386.042969 352.300781 L 389.832031 352.589844 L 391.34375 354.953125 L 393.371094 356.5625 L 393.832031 358.066406 L 395.851562 358.738281 L 398.992188 358 L 406.105469 355.085938 L 405.777344 356.011719 L 406.914062 355.890625 L 407.898438 355.40625 L 407.703125 354.671875 L 408.15625 354.339844 L 410.378906 354.199219 L 410.726562 353.753906 L 410.394531 353.007812 L 413.730469 352.21875 L 412.792969 352.164062 L 413.136719 352.046875 L 417.554688 351.382812 L 416.960938 351.867188 L 417.554688 351.644531 L 417.160156 352.0625 L 417.382812 352.742188 L 418.304688 352.292969 L 418.140625 353.105469 L 419.019531 352.019531 L 417.570312 351.714844 L 417.71875 351.355469 L 421.832031 350.886719 L 423.714844 349.585938 L 424.859375 347.472656 L 429.589844 346.117188 L 436.859375 344.71875 L 438.730469 346.027344 L 438.542969 346.632812 L 437.542969 346.851562 L 437.394531 346.09375 L 436.851562 346.742188 L 436.339844 346.511719 L 436.328125 346.894531 L 436.824219 346.800781 L 436.601562 347.582031 L 436.359375 347.109375 L 435.742188 347.9375 L 437.148438 347.925781 L 437.003906 346.75 L 437.71875 347.25 L 438.121094 346.945312 L 439.058594 347.878906 L 443.5625 348.464844 L 444.707031 348.242188 L 445.058594 347.296875 L 447.527344 346.140625 L 447.976562 345.875 L 449.015625 342.296875 L 447.785156 341.660156 L 447.222656 342.25 L 446.078125 341.722656 L 446.355469 340.648438 L 446.785156 340.625 L 446.398438 340.367188 L 450.464844 337.136719 L 446.433594 339.820312 L 445.695312 341.253906 L 445.324219 341.351562 L 445.644531 340.617188 L 444.773438 342.265625 L 444.328125 342.183594 L 445.851562 340.191406 L 449.960938 337.328125 L 455.523438 331.601562 L 456.152344 330.484375 L 455.746094 326.972656 L 456.042969 325.761719 L 455.570312 324.972656 L 456.132812 323.425781 L 458.429688 321.1875 L 459.15625 319.554688 L 458.257812 317.726562 L 457.617188 311.503906 L 457.105469 310.628906 L 457.53125 310.476562 L 457.027344 310.097656 L 457.597656 307.554688 L 457.347656 306.265625 L 457.824219 304.863281 L 458.136719 301.664062 L 459.027344 300.175781 L 462.132812 297.546875 L 465.925781 295.726562 L 465.316406 295.675781 L 466.007812 295.265625 L 468.285156 294.386719 L 466.839844 295.242188 L 467.195312 295.269531 L 468.796875 294.570312 L 468.277344 294.3125 L 482.238281 290.148438 L 485.363281 288.382812 L 485.40625 287.859375 L 484.523438 288.769531 L 485.746094 287.304688 L 489.121094 286.027344 L 491.285156 285.851562 L 493.3125 284.738281 L 492.65625 284.601562 L 493.238281 284.289062 L 496.257812 284.070312 L 494.738281 284.652344 L 498.441406 284.625 L 499.886719 285.4375 L 502.742188 285.113281 L 501.433594 284.914062 L 504.488281 284.980469 L 504.800781 285.4375 L 505.480469 285.117188 L 509.121094 285.464844 L 509.152344 284.96875 L 510.019531 285.234375 L 509.660156 284.894531 L 510.804688 284.171875 L 510.832031 283.027344 L 510.28125 282.734375 L 510.621094 282.140625 L 512.265625 282.359375 L 512.972656 283.03125 L 512.550781 282.1875 L 514.753906 284.699219 L 515.757812 287.175781 L 516.289062 287.410156 L 516.023438 286.917969 L 516.472656 285.765625 L 516.820312 288.542969 L 518.0625 289.152344 L 517.730469 291.085938 L 517.183594 291.328125 L 516.640625 294.808594 L 513.605469 299.90625 L 510.957031 302.992188 L 509.222656 307.277344 L 508.707031 310.074219 L 508.84375 311.355469 L 510.054688 313.351562 L 509.679688 315.378906 L 509.328125 315.050781 L 510.039062 313.371094 L 509.261719 312.429688 L 509.644531 313.964844 L 509.148438 314.96875 L 507.796875 315.5 L 506.785156 318.839844 L 506.378906 318.695312 L 506.835938 318.484375 L 506.882812 317.492188 L 505.394531 318.03125 L 505.558594 319.484375 L 506.964844 320.023438 L 506.851562 321.101562 L 507.84375 319.820312 L 508.894531 319.421875 L 509.589844 319.75 L 509.917969 319.078125 L 509.324219 318.832031 L 510.9375 318.808594 L 510.765625 318.179688 L 510.277344 318.457031 L 510.308594 317.707031 L 511.207031 318.597656 L 511.035156 320.871094 L 509.777344 322.429688 L 508.960938 322.511719 L 509.492188 322.40625 L 509.472656 321.867188 L 508.566406 322.457031 L 507.960938 323.101562 L 507.804688 324.414062 L 507.300781 324.246094 L 507.839844 325.140625 L 507.152344 325.894531 L 507.710938 325.785156 L 508.179688 326.589844 L 509.675781 324.121094 L 510.589844 323.570312 L 510.398438 324.878906 L 510.707031 323.578125 L 510.867188 323.945312 L 510.972656 323.519531 L 511.367188 323.703125 L 510.074219 325.808594 L 510.210938 328.015625 L 508.402344 335.242188 L 508.28125 340.519531 L 507.480469 342.449219 L 507.476562 344.765625 L 506.808594 344.378906 L 507.105469 343.960938 L 506.472656 344.382812 L 506.476562 342.007812 L 505.34375 341.375 L 505.375 340.648438 L 502.824219 340.160156 L 503.652344 336.609375 L 503.210938 336.140625 L 503.335938 334.777344 L 502.441406 334.167969 L 502.222656 333.191406 L 501.417969 334.164062 L 501.058594 335.9375 L 500.785156 335.085938 L 500.054688 336.332031 L 500.125 336.847656 L 500.902344 336.269531 L 499.191406 340.394531 L 496.003906 340.816406 L 495.304688 341.542969 L 493.117188 349.070312 L 490.96875 351.789062 L 491.183594 352.867188 L 487.714844 350.835938 L 485.859375 352.203125 L 486.128906 354.476562 L 455.019531 358.285156 L 456.011719 368.089844 L 448.457031 369.105469 L 450.234375 370.367188 L 451.359375 370.164062 L 451.542969 370.953125 L 453.402344 372.640625 L 454.226562 372.734375 L 455.574219 374.644531 L 457 375.195312 L 457.332031 374.507812 L 457.195312 375.15625 L 457.785156 375.125 L 458.152344 375.792969 L 460.195312 375.957031 L 461.8125 377.015625 L 462.917969 378.394531 L 463.082031 379.195312 L 462.671875 379.292969 L 463.550781 379.46875 L 463.402344 380.570312 L 464.058594 380.632812 L 463.675781 381.175781 L 465.179688 381.011719 L 466.378906 381.242188 L 466.328125 381.925781 L 467.984375 381.953125 L 468.394531 382.671875 L 467.699219 382.824219 L 467.851562 383.6875 L 467.351562 383.980469 L 467.671875 384.730469 L 467.207031 384.914062 L 467.660156 385.160156 L 467.308594 385.96875 L 467.859375 386.339844 L 467.398438 387.453125 L 467.964844 387.492188 L 467.695312 388.050781 L 445.777344 390.171875 L 438.851562 405.308594 L 441.8125 408.464844 L 440.453125 410.132812 L 440.707031 411.828125 L 440.074219 412.832031 L 440.972656 415.703125 L 439.945312 418.164062 L 428.144531 408.214844 L 428.339844 407.824219 L 428.457031 407.855469 L 428.15625 407.304688 L 428.226562 407.890625 L 427.492188 407.609375 L 427.957031 408.054688 L 421.367188 402.628906 L 419.511719 401.449219 L 419.550781 401.476562 L 419.453125 401.410156 L 414.03125 397.949219 L 408.523438 395.363281 L 409.828125 395.128906 L 409.507812 394.085938 L 409.023438 393.632812 L 405.835938 393.230469 L 405.042969 391.574219 L 403.597656 392.328125 L 401.460938 391.636719 L 400.640625 390.671875 L 400.050781 391.011719 L 400.222656 391.789062 L 399.683594 391.738281 L 400.652344 392.167969 L 399.699219 392.179688 L 402.335938 393.140625 L 401.28125 392.699219 L 403.484375 392.695312 L 404.644531 393.355469 L 403.800781 393.332031 L 406.214844 394.332031 L 404.988281 393.71875 L 405.746094 393.703125 L 406.878906 394.972656 L 407.996094 395.339844 L 401.160156 393.132812 L 394.976562 392.667969 L 394.859375 392.355469 L 396.773438 391.4375 L 397.214844 390.28125 L 395.578125 389.925781 L 393.613281 391.710938 L 393.335938 391.328125 L 394.027344 390.664062 L 392.703125 389.058594 L 392.054688 389.003906 L 391.273438 389.421875 L 390.6875 390.878906 L 389.699219 391.042969 L 389.1875 391.953125 L 390.945312 392.382812 L 389.074219 392.214844 L 388.597656 392.78125 L 394.613281 392.734375 L 387.605469 393.542969 L 387.917969 394.042969 L 385.910156 394.574219 L 386.285156 394.667969 L 385.929688 395.230469 L 384.65625 395.832031 L 384.515625 396.878906 L 383.453125 397.730469 L 382.851562 397.734375 L 383.097656 397.453125 L 381.121094 398.105469 L 379.769531 399.128906 L 377.9375 399.585938 L 377.910156 399.996094 L 374.839844 400.988281 L 370.457031 403.851562 L 367.300781 403.855469 L 365.167969 404.6875 L 362.742188 403.820312 L 360.03125 403.648438 L 353.578125 400.796875 L 344.382812 400.582031 L 337.296875 396.871094 L 331.390625 395.777344 L 327.4375 391.902344 L 325.261719 392.398438 L 318.1875 390.753906 L 312.867188 390.457031 L 309.375 388.960938 L 309.742188 388.789062 L 309.070312 388.65625 L 309.289062 387.941406 L 308.425781 388.457031 L 307.210938 387.175781 L 289.300781 382.152344 L 289.375 381.464844 L 286.878906 379.539062 L 282.628906 378.117188 L 282.828125 377.445312 L 281.777344 376.542969 L 281.003906 376.75 L 280.980469 376.285156 L 280.660156 376.589844 L 280.070312 375.953125 L 279.324219 375.980469 L 279.449219 375.300781 L 277.675781 373.859375 L 276.996094 372.636719 L 274.03125 371.09375 L 271.859375 370.953125 L 270.957031 371.90625 L 270.441406 371.441406 L 270.78125 372.03125 L 270.386719 372.195312 L 265.789062 370.707031 L 261.097656 370.039062 L 256.671875 368.289062 L 251.273438 367.269531 L 249.078125 366.265625 L 247.492188 363.316406 L 245.378906 361.933594 L 245.789062 361.421875 L 245.488281 360.859375 L 241.222656 357.484375 L 235.148438 355.300781 L 235.769531 354.285156 L 234.742188 354.101562 L 234.628906 353.632812 L 233.347656 354.269531 L 232.152344 353.453125 L 229.265625 352.929688 L 229.332031 352.492188 L 229.859375 352.6875 L 229.28125 352.167969 L 227.359375 351.984375 L 227.519531 350.890625 L 226.269531 351.3125 L 223.773438 349.601562 L 223.9375 349.046875 L 223.023438 348.183594 L 222.707031 346.691406 L 219.84375 344.828125 L 215.050781 338.039062 L 214.964844 335.921875 L 213.230469 334.359375 L 212.558594 332.839844 L 214.414062 331.515625 L 218.460938 330.878906 L 219.542969 329.683594 L 219.550781 328.414062 L 217.839844 326.769531 L 216.804688 327.226562 L 214.789062 326.71875 L 215.566406 326.257812 L 218.160156 322.09375 L 218.808594 322.292969 L 219.347656 321.667969 L 219.570312 319.203125 L 218.964844 316.84375 L 219.820312 314.933594 L 219.175781 313.882812 L 218.566406 314.101562 L 215.632812 312.304688 L 214.410156 309.292969 L 212.425781 306.589844 L 212.3125 303.113281 L 214.113281 305.046875 L 214.414062 304.914062 L 213.976562 304.605469 L 214.609375 304.726562 L 214.648438 304.773438 L 214.925781 303.894531 L 213.511719 303.011719 L 213.921875 304.015625 L 213.28125 303.457031 L 213.328125 302.511719 L 212.832031 302.933594 L 212.625 302.589844 L 211.34375 296.617188 L 211.480469 296.277344 L 211.28125 296.070312 L 211.230469 295.957031 L 211.136719 298.117188 L 211.449219 298.359375 L 211.265625 296.625 L 212.589844 302.996094 L 212.152344 302.945312 L 211.328125 299.707031 L 210.144531 297.347656 L 210.796875 297.855469 L 208.363281 294.5 L 205.667969 292.546875 L 206.003906 292.28125 L 205.570312 292.441406 L 201.070312 287.808594 L 199.476562 286.929688 L 200.074219 286.386719 L 201.140625 287.34375 L 200.894531 286.96875 L 199.945312 286.207031 L 199.3125 286.953125 L 199.40625 286.285156 L 198.230469 284.871094 L 198.304688 284.277344 L 194.945312 280.417969 L 193.152344 279.242188 L 193.273438 278.320312 L 191.789062 276.117188 L 187.027344 272.015625 L 189.726562 274.035156 L 187.4375 271.945312 L 189.125 272.898438 L 187.5 271.710938 L 187.734375 271.214844 L 187.121094 270.945312 L 187.351562 271.769531 L 186.773438 271.605469 L 177.425781 265.605469 L 177.730469 265.347656 L 182.355469 268.335938 L 181.25 267.339844 L 182.199219 267.820312 L 182.464844 267.0625 L 181.257812 265.082031 L 180.328125 265.234375 L 180.972656 265.582031 L 180.019531 266.316406 L 179.238281 265.316406 L 178.242188 265.558594 L 178.351562 265.023438 L 174.699219 262.976562 L 174.652344 262.453125 L 174.65625 263.085938 L 176 264.164062 L 174.351562 263.058594 L 174.078125 261.8125 L 173.253906 260.964844 L 174.410156 261.523438 L 174.824219 260.601562 L 174.011719 259.976562 L 174.324219 257.894531 L 173.601562 257.417969 L 173.160156 255.957031 L 172.113281 255.320312 L 172.1875 255.667969 L 171.648438 255.589844 L 170.273438 254.089844 L 169.269531 254.191406 L 169.199219 253.292969 L 168.417969 253.0625 L 168.210938 254.367188 L 165.378906 251.820312 L 165.824219 252.421875 L 162.625 251.511719 L 163.964844 251.414062 L 164.617188 251.867188 L 163.8125 250.847656 L 162.773438 250.996094 L 162.539062 249.933594 L 161.964844 250.621094 L 162.453125 248.886719 L 162.15625 248.472656 L 161.53125 248.824219 L 160.789062 248.027344 L 160.191406 248.324219 L 160.523438 249.230469 L 159.953125 250.046875 L 159.152344 249.179688 L 158.371094 249.433594 L 158.796875 249.875 L 158.144531 249.960938 L 156.96875 248.59375 L 157.449219 248.980469 L 157.671875 248.523438 L 157.847656 249.046875 L 157.707031 248.398438 L 158.007812 248.761719 L 158.382812 248.464844 L 157.816406 248.199219 L 158.066406 247.796875 L 158.570312 248.328125 L 158.925781 248.082031 L 159.042969 248.628906 L 159.230469 247.453125 L 159.898438 247.324219 L 159.675781 246.4375 L 158.507812 246.714844 L 157.835938 248.019531 L 157.878906 247.636719 L 157.519531 248.042969 L 156.933594 247.605469 L 157.183594 248.199219 L 156.472656 247.941406 L 155.800781 246.433594 L 154.773438 246.0625 L 155.21875 246.976562 L 154.71875 247.019531 L 155.898438 247.308594 L 156.34375 248.371094 L 154.964844 247.15625 L 152.773438 247.164062 L 153.902344 246.847656 L 153.074219 246.898438 L 153.355469 246.621094 L 154.367188 246.929688 L 154.445312 245.847656 L 153.027344 244.835938 L 152.683594 246.4375 L 152.148438 244.363281 L 152.609375 242.257812 L 151.933594 242.191406 L 152.03125 241.15625 L 152.515625 241.171875 L 152.109375 241.015625 L 153.039062 239.351562 L 152.929688 239.414062 L 154.757812 235.800781 L 154.203125 238.753906 L 155.316406 235.332031 L 156.144531 235.945312 L 155.824219 236.875 L 156.171875 236.742188 L 156.867188 237.917969 L 156.683594 236.953125 L 157.136719 236.265625 L 156.460938 236.085938 L 155.714844 234.4375 L 155.34375 234.234375 L 155.597656 235.085938 L 154.933594 234.429688 L 154.675781 233.148438 L 154.597656 235.746094 L 154.308594 232.46875 L 152.292969 230.179688 L 151.074219 229.738281 L 151.914062 229.894531 L 151.09375 228.722656 L 150.722656 229.101562 L 150.417969 228.488281 L 150.011719 229.191406 L 150.722656 229.386719 L 149.882812 229.472656 L 150.925781 229.953125 L 148.675781 229.5625 L 148.121094 229.925781 L 146.128906 228.78125 L 144.074219 224.636719 L 144.976562 225.628906 L 144.507812 223.503906 L 143.679688 222.792969 L 142.507812 222.53125 L 142.382812 223.273438 L 140.929688 222.613281 L 141.375 222.488281 L 138.75 222.097656 L 136.847656 220.265625 L 135.433594 219.84375 L 136.585938 219.636719 L 135.808594 218.261719 L 134.847656 218.519531 L 135.527344 217.835938 L 134.925781 218.125 L 135.121094 217.488281 L 134.871094 217.722656 L 134.644531 217.167969 L 135.132812 217.046875 L 134.609375 216.695312 L 134.375 217.363281 L 134.585938 215.988281 L 133.792969 214.285156 L 133.933594 213.542969 L 134.089844 213.539062 L 134.144531 212.671875 L 134.894531 212.480469 L 134.132812 212.101562 L 134.304688 210.59375 L 135.386719 210.394531 L 133.347656 209.609375 L 133.90625 210.332031 L 132.335938 209.574219 L 130.394531 209.503906 L 131.109375 209.359375 L 130.703125 208.8125 L 129.609375 209.773438 L 130.363281 209.703125 L 129.863281 210.734375 L 128.964844 210.25 L 128.613281 208.546875 L 127.25 208.855469 L 127.332031 209.28125 L 126.660156 209.144531 L 126.691406 208.671875 L 124.433594 207.191406 L 122.421875 203.59375 L 121.390625 202.8125 L 121.746094 201.902344 L 117.667969 200.476562 L 116.707031 197.953125 L 114.109375 195.445312 L 114.886719 194.980469 L 115.230469 195.691406 L 115.632812 194.820312 L 115.03125 194.871094 L 114.960938 194.40625 L 114.773438 194.875 L 114.617188 194.414062 L 114.65625 194.925781 L 112.945312 193.769531 L 111.894531 192.15625 L 110.894531 191.957031 L 110.996094 189.527344 L 110.046875 188.402344 L 110.363281 187.34375 L 110.007812 186.289062 L 108.65625 186.089844 L 108.511719 186.546875 L 107.40625 185.636719 L 107.882812 183.359375 L 104.964844 179.523438 L 103.753906 176.523438 L 102.554688 176.109375 L 102.417969 171.414062 L 101.699219 170.371094 L 100.898438 170.195312 L 101.167969 168.871094 L 100.710938 167.203125 L 99.089844 165.738281 L 97.75 163.25 L 97.183594 161.078125 L 97.714844 158.652344 L 97.214844 156.988281 L 97.78125 158.242188 L 98.253906 157.417969 L 98.1875 155.292969 L 95.445312 153.164062 L 95.167969 153.613281 L 95.917969 153.914062 L 90.164062 152.390625 L 89.753906 149.640625 L 86.257812 147.367188 L 85.992188 147.738281 L 85.195312 147.101562 L 84.921875 148.292969 L 85.429688 148.417969 L 84.792969 149.011719 L 84.394531 148.699219 L 84.46875 149.535156 L 82.402344 149.40625 L 76.5 144.960938 L 75.050781 144.804688 L 73.910156 144.09375 L 75.4375 145.53125 L 75.679688 146.410156 L 74.222656 145.921875 L 73.417969 144.886719 Z M 110.265625 191.972656 L 110.636719 191.804688 L 109.339844 194.679688 L 109.699219 195.300781 L 108.855469 195.644531 L 104.824219 193.464844 L 106.207031 192.273438 L 105.988281 190.351562 L 106.71875 188.167969 L 107.445312 188.292969 L 109.449219 187.324219 L 109.390625 189.105469 L 110.554688 191.074219 Z M 93.007812 187.933594 L 90.175781 184.382812 L 90.675781 182 L 91.878906 182.410156 L 93.058594 183.609375 L 93.660156 184.828125 L 93.4375 186.167969 L 96.335938 186.679688 L 96.207031 189.210938 L 96.570312 190.222656 L 97.285156 190.378906 L 97.03125 191.5625 Z M 93.007812 187.933594 "/>
</g>
</svg>
